<?xml version='1.0' encoding='UTF-8' standalone='no'?>
<!-- Created with Fritzing (http://www.fritzing.org/) -->
<svg xmlns="http://www.w3.org/2000/svg" version="1.2" x="0in" y="0in" height="2.04724in"  viewBox="0 0 147.402 147.402" baseProfile="tiny" xmlns:svg="http://www.w3.org/2000/svg" width="2.04724in">
 <g partID="854298100">
  <g id="board" >
   <ellipse id="boardoutline" fill="none"  cx="73.7008" stroke-width="0.5" cy="73.7008" fill-opacity="0.5" rx="73.4128" ry="73.4128" stroke="black"/>
  </g>
 </g>
 <g partID="855213400">
  <g transform="translate(89.3568,122.537)">
   <g transform="matrix(0,1,-1,0,0,0)">
    <g id="copper0" flipped="1">
     <g transform="matrix(-1, 0, 0, 1, 22.6772, 0)">
      <g>
       <g>
        <g>
         <rect id="connector4pad" stroke-linecap="round" x="15.5906" y="14.8819" height="1.41732" fill="black" connectorname="D+" stroke-width="0" width="7.08662" stroke="none"/>
         <rect id="connector5pad" stroke-linecap="round" x="15.5906" y="12.6142" height="1.41732" fill="black" connectorname="D-" stroke-width="0" width="7.08662" stroke="none"/>
         <rect id="connector6pad" stroke-linecap="round" x="15.5906" y="19.4173" height="1.41732" fill="black" connectorname="GND" stroke-width="0" width="7.08662" stroke="none"/>
         <rect id="connector7pad" stroke-linecap="round" x="15.5906" y="17.1496" height="1.41732" fill="black" connectorname="ID" stroke-width="0" width="7.08662" stroke="none"/>
         <rect id="connector2pad" stroke-linecap="round" x="0" y="25.5118" height="5.66929" fill="black" connectorname="MTN3" stroke-width="0" width="7.08662" stroke="none"/>
         <rect id="connector0pad" stroke-linecap="round" x="0" y="0" height="5.66929" fill="black" connectorname="MTN1" stroke-width="0" width="7.08662" stroke="none"/>
         <rect id="connector3pad" stroke-linecap="round" x="15.5906" y="25.5118" height="5.66929" fill="black" connectorname="MTN4" stroke-width="0" width="7.08662" stroke="none"/>
         <rect id="connector1pad" stroke-linecap="round" x="15.5906" y="0" height="5.66929" fill="black" connectorname="MTN2" stroke-width="0" width="7.08662" stroke="none"/>
         <rect id="connector8pad" stroke-linecap="round" x="15.5906" y="10.3465" height="1.41732" fill="black" connectorname="VBUS" stroke-width="0" width="7.08662" stroke="none"/>
         <circle id="nonconn0" fill="black" cx="12.0473" cy="9.35433" stroke-width="0" r="1.27559" stroke="black"/>
         <circle id="nonconn1" fill="black" cx="12.0473" cy="21.8268" stroke-width="0" r="1.27559" stroke="black"/>
         <g id="copper0">
          <circle id="nonconn2" fill="black" cx="12.0473" cy="9.35433" stroke-width="0" r="1.27559" stroke="black"/>
          <circle id="nonconn3" fill="black" cx="12.0473" cy="21.8268" stroke-width="0" r="1.27559" stroke="black"/>
         </g>
        </g>
        <g>
         <circle id="nonconn2" fill="black" cx="12.0473" cy="9.35433" stroke-width="0" r="1.27559" stroke="black"/>
         <circle id="nonconn3" fill="black" cx="12.0473" cy="21.8268" stroke-width="0" r="1.27559" stroke="black"/>
        </g>
       </g>
      </g>
     </g>
    </g>
   </g>
  </g>
 </g>
 <g partID="855220600">
  <g transform="translate(103.347,23.8498)">
   <g id="copper0" >
    <rect id="connector0pad" x="1.6" y="1.6" fill="black" height="14.1732"  stroke-width="0" fill-opacity="1" stroke="none" width="5.66929"/>
    <g id="connector0terminal" x="1.6" y="1.6" fill="none" height="14.1732"  stroke-width="0" stroke="none" width="5.66929"/>
   </g>
  </g>
 </g>
 <g partID="855220300">
  <g transform="translate(101.93,94.7158)">
   <g id="copper0" >
    <rect id="connector0pad" x="1.6" y="1.6" fill="black" height="14.1732"  stroke-width="0" fill-opacity="1" stroke="none" width="5.66929"/>
    <g id="connector0terminal" x="1.6" y="1.6" fill="none" height="14.1732"  stroke-width="0" stroke="none" width="5.66929"/>
   </g>
  </g>
 </g>
 <g partID="855207100">
  <g transform="translate(49.4892,98.259)">
   <g id="copper0" >
    <circle id="connector0pin" fill="none"  cx="3.01733" cy="3.01733" stroke-width="0.850392" r="0.992124" stroke="black"/>
   </g>
  </g>
 </g>
 <g partID="855207400">
  <g transform="translate(30.3553,118.81)">
   <g id="copper0" >
    <circle id="connector0pin" fill="none"  cx="3.01733" cy="3.01733" stroke-width="0.850392" r="0.992124" stroke="black"/>
   </g>
  </g>
 </g>
 <g partID="855195450">
  <g transform="translate(100.559,59.4041)">
   <g transform="matrix(-1, 0, 0, 1, 14.1732, 0)">
    <g id="copper0" _flipped_="1">
     <polygon fill="black" stroke-width="0" stroke="none" points="7.93328,0.115984,7.93328,0.139181,7.86369,0.139181,7.86369,0.162377,7.8173,0.162377,7.8173,0.185574,7.72451,0.185574,7.72451,0.208771,7.70131,0.208771,7.70131,0.231968,7.65492,0.231968,7.65492,0.255164,7.58533,0.255164,7.58533,0.301558,7.53894,0.301558,7.53894,0.324755,7.49254,0.324755,7.49254,0.347951,7.46935,0.347951,7.46935,0.371148,7.44615,0.371148,7.44615,0.394345,7.39976,0.394345,7.39976,0.417542,7.37656,0.417542,7.37656,0.440738,7.35336,0.440738,7.35336,0.463935,7.30697,0.463935,7.30697,0.510329,7.28377,0.510329,7.28377,0.533525,7.23738,0.533525,7.23738,0.579919,7.21418,0.579919,7.21418,0.603116,7.16779,0.603116,7.16779,0.649509,7.14459,0.649509,7.14459,0.672706,7.0982,0.672706,7.0982,0.7191,8.18844,0.7191,8.18844,0.742296,8.32762,0.742296,8.32762,0.765493,8.37402,0.765493,8.37402,0.78869,8.42041,0.78869,8.42041,0.811887,8.49,0.811887,8.49,0.835083,8.5364,0.835083,8.5364,0.85828,8.55959,0.85828,8.55959,0.881477,8.60599,0.881477,8.60599,0.904674,8.62918,0.904674,8.62918,0.951067,8.65238,0.951067,8.65238,0.974264,8.67558,0.974264,8.67558,0.997461,8.69877,0.997461,8.69877,1.02066,8.72197,1.02066,8.72197,1.04385,8.74517,1.04385,8.74517,1.09025,8.76836,1.09025,8.76836,1.11344,8.79156,1.11344,8.79156,1.13664,8.81476,1.13664,8.81476,1.15984,8.83795,1.15984,8.83795,1.20623,8.86115,1.20623,8.86115,1.22943,8.88435,1.22943,8.88435,1.25263,8.90754,1.25263,8.90754,1.32222,8.93074,1.32222,8.93074,1.36861,8.95394,1.36861,8.95394,1.39181,8.97713,1.39181,8.97713,1.48459,9.00033,1.48459,9.00033,1.53099,9.02353,1.53099,9.02353,1.57738,9.04672,1.57738,9.04672,1.67017,9.06992,1.67017,9.06992,1.71656,9.09312,1.71656,9.09312,1.78615,9.11631,1.78615,9.11631,1.85574,9.13951,1.85574,9.13951,1.92533,9.16271,1.92533,9.16271,1.99492,9.1859,1.99492,9.1859,2.1341,9.2091,2.1341,9.2091,2.20369,9.2323,2.20369,9.2323,2.27328,9.25549,2.27328,9.25549,2.48205,9.27869,2.48205,9.27869,2.57484,9.30189,2.57484,9.30189,2.73722,9.32508,2.73722,9.32508,2.94599,9.30189,2.94599,9.30189,3.06197,9.27869,3.06197,9.27869,3.15476,9.25549,3.15476,9.25549,3.22435,9.2323,3.22435,9.2323,3.31714,9.2091,3.31714,9.2091,3.40992,9.1859,3.40992,9.1859,3.5491,9.16271,3.5491,9.16271,3.5723,9.13951,3.5723,9.13951,3.64189,9.11631,3.64189,9.11631,3.71148,9.09312,3.71148,9.09312,3.80427,9.06992,3.80427,9.06992,3.87386,9.04672,3.87386,9.04672,3.94345,9.02353,3.94345,9.02353,4.03624,9.00033,4.03624,9.00033,4.10583,8.97713,4.10583,8.97713,4.15222,8.95394,4.15222,8.95394,4.22181,8.93074,4.22181,8.93074,4.2682,8.90754,4.2682,8.90754,4.33779,8.88435,4.33779,8.88435,4.36099,8.86115,4.36099,8.86115,4.40738,8.83795,4.40738,8.83795,4.47697,8.79156,4.47697,8.79156,4.52337,8.76836,4.52337,8.76836,4.59296,8.74517,4.59296,8.74517,4.61616,8.72197,4.61616,8.72197,4.63935,8.69877,4.63935,8.69877,4.70894,8.67558,4.70894,8.67558,4.73214,8.65238,4.73214,8.65238,4.75534,8.62918,4.75534,8.62918,4.82493,8.60599,4.82493,8.60599,4.84812,8.58279,4.84812,8.58279,4.89452,8.55959,4.89452,8.55959,4.94091,8.5364,4.94091,8.5364,4.96411,8.5132,4.96411,8.5132,4.9873,8.49,4.9873,8.49,5.05689,8.46681,5.05689,8.46681,5.08009,8.44361,5.08009,8.44361,5.10329,8.42041,5.10329,8.42041,5.17288,8.39722,5.17288,8.39722,5.19607,8.37402,5.19607,8.37402,5.21927,8.35082,5.21927,8.35082,5.26566,8.32762,5.26566,8.32762,5.31206,8.30443,5.31206,8.30443,5.33525,8.28123,5.33525,8.28123,5.38165,8.25803,5.38165,8.25803,5.40484,8.23484,5.40484,8.23484,5.45124,8.21164,5.45124,8.21164,5.49763,8.18844,5.49763,8.18844,5.52083,8.16525,5.52083,8.16525,5.54403,8.14205,5.54403,8.14205,5.56722,8.39722,5.56722,8.39722,5.52083,8.42041,5.52083,8.42041,5.47444,8.44361,5.47444,8.44361,5.45124,8.46681,5.45124,8.46681,5.42804,8.49,5.42804,8.49,5.38165,8.5132,5.38165,8.5132,5.35845,8.5364,5.35845,8.5364,5.31206,8.55959,5.31206,8.55959,5.26566,8.58279,5.26566,8.58279,5.24247,8.60599,5.24247,8.60599,5.21927,8.62918,5.21927,8.62918,5.12648,8.65238,5.12648,8.65238,5.10329,8.67558,5.10329,8.67558,5.05689,8.69877,5.05689,8.69877,5.0337,8.72197,5.0337,8.72197,4.9873,8.74517,4.9873,8.74517,4.96411,8.76836,4.96411,8.76836,4.89452,8.79156,4.89452,8.79156,4.87132,8.81476,4.87132,8.81476,4.82493,8.83795,4.82493,8.83795,4.77853,8.86115,4.77853,8.86115,4.75534,8.88435,4.75534,8.88435,4.73214,8.90754,4.73214,8.90754,4.66255,8.93074,4.66255,8.93074,4.61616,8.95394,4.61616,8.95394,4.59296,8.97713,4.59296,8.97713,4.47697,9.00033,4.47697,9.00033,4.43058,9.02353,4.43058,9.02353,4.40738,9.04672,4.40738,9.04672,4.33779,9.06992,4.33779,9.06992,4.2914,9.09312,4.2914,9.09312,4.2682,9.11631,4.2682,9.11631,4.17542,9.13951,4.17542,9.13951,4.12902,9.16271,4.12902,9.16271,4.08263,9.1859,4.08263,9.1859,4.01304,9.2091,4.01304,9.2091,3.94345,9.2323,3.94345,9.2323,3.87386,9.25549,3.87386,9.25549,3.78107,9.27869,3.78107,9.27869,3.75788,9.30189,3.75788,9.30189,3.68828,9.32508,3.68828,9.32508,3.61869,9.34828,3.61869,9.34828,3.52591,9.37148,3.52591,9.37148,3.45632,9.39467,3.45632,9.39467,3.38673,9.41787,3.38673,9.41787,3.31714,9.44107,3.31714,9.44107,3.22435,9.46426,3.22435,9.46426,3.15476,9.48746,3.15476,9.48746,3.06197,9.51066,3.06197,9.51066,2.99238,9.53385,2.99238,9.53385,2.8532,9.51066,2.8532,9.51066,2.66763,9.48746,2.66763,9.48746,2.43566,9.46426,2.43566,9.46426,2.1341,9.44107,2.1341,9.44107,2.04131,9.41787,2.04131,9.41787,1.92533,9.39467,1.92533,9.39467,1.76295,9.37148,1.76295,9.37148,1.67017,9.34828,1.67017,9.34828,1.57738,9.32508,1.57738,9.32508,1.4614,9.30189,1.4614,9.30189,1.39181,9.27869,1.39181,9.27869,1.34541,9.25549,1.34541,9.25549,1.22943,9.2323,1.22943,9.2323,1.18303,9.2091,1.18303,9.2091,1.13664,9.1859,1.13664,9.1859,1.04385,9.16271,1.04385,9.16271,0.997461,9.13951,0.997461,9.13951,0.951067,9.11631,0.951067,9.11631,0.881477,9.09312,0.881477,9.09312,0.85828,9.06992,0.85828,9.06992,0.811887,9.04672,0.811887,9.04672,0.742296,9.02353,0.742296,9.02353,0.7191,9.00033,0.7191,9.00033,0.695903,8.97713,0.695903,8.97713,0.649509,8.95394,0.649509,8.95394,0.603116,8.90754,0.603116,8.90754,0.533525,8.86115,0.533525,8.86115,0.487132,8.83795,0.487132,8.83795,0.463935,8.81476,0.463935,8.81476,0.440738,8.79156,0.440738,8.79156,0.417542,8.76836,0.417542,8.76836,0.394345,8.74517,0.394345,8.74517,0.371148,8.72197,0.371148,8.72197,0.347951,8.69877,0.347951,8.69877,0.324755,8.65238,0.324755,8.65238,0.301558,8.62918,0.301558,8.62918,0.255164,8.55959,0.255164,8.55959,0.231968,8.5364,0.231968,8.5364,0.208771,8.49,0.208771,8.49,0.185574,8.42041,0.185574,8.42041,0.162377,8.37402,0.162377,8.37402,0.139181,8.30443,0.139181,8.30443,0.115984"/>
     <polygon fill="black" stroke-width="0" stroke="none" points="7.075,0.7191,7.075,0.742296,7.0518,0.742296,7.0518,0.765493,7.02861,0.765493,7.02861,0.811887,7.00541,0.811887,7.00541,0.835083,6.98221,0.835083,6.98221,0.85828,6.95902,0.85828,6.95902,0.881477,6.93582,0.881477,6.93582,0.92787,6.91262,0.92787,6.91262,0.951067,6.88943,0.951067,6.88943,0.997461,6.86623,0.997461,6.86623,1.02066,6.84303,1.02066,6.84303,1.04385,6.81984,1.04385,6.81984,1.09025,6.79664,1.09025,6.79664,1.13664,6.77344,1.13664,6.77344,1.15984,6.75025,1.15984,6.75025,1.20623,6.72705,1.20623,6.72705,1.22943,6.70385,1.22943,6.70385,1.25263,6.68066,1.25263,6.68066,1.32222,6.65746,1.32222,6.65746,1.36861,6.63426,1.36861,6.63426,1.39181,6.61107,1.39181,6.61107,1.4382,6.58787,1.4382,6.58787,1.48459,6.56467,1.48459,6.56467,1.50779,6.54148,1.50779,6.54148,1.57738,6.51828,1.57738,6.51828,1.62377,6.49508,1.62377,6.49508,1.64697,6.47189,1.64697,6.47189,1.71656,6.44869,1.71656,6.44869,1.76295,6.42549,1.76295,6.42549,1.78615,6.4023,1.78615,6.4023,1.85574,6.3791,1.85574,6.3791,1.92533,6.3559,1.92533,6.3559,1.94853,6.33271,1.94853,6.33271,2.01812,6.30951,2.01812,6.30951,2.06451,6.28631,2.06451,6.28631,2.11091,6.26312,2.11091,6.26312,2.20369,6.23992,2.20369,6.23992,2.25009,6.21672,2.25009,6.21672,2.27328,6.19353,2.27328,6.19353,2.38927,6.17033,2.38927,6.17033,2.43566,6.14713,2.43566,6.14713,2.48205,6.12394,2.48205,6.12394,2.52845,6.10074,2.52845,6.10074,2.57484,6.07754,2.57484,6.07754,2.62123,6.05435,2.62123,6.05435,2.64443,6.03115,2.64443,6.03115,2.71402,6.00795,2.71402,6.00795,2.76041,5.98476,2.76041,5.98476,2.80681,5.96156,2.80681,5.96156,2.8532,5.93836,2.8532,5.93836,2.89959,5.91517,2.89959,5.91517,2.94599,5.89197,2.94599,5.89197,2.96919,5.86877,2.96919,5.86877,3.01558,5.84558,3.01558,5.84558,3.08517,5.82238,3.08517,5.82238,3.10837,5.79918,3.10837,5.79918,3.15476,5.77598,3.15476,5.77598,3.20115,5.75279,3.20115,5.75279,3.22435,5.72959,3.22435,5.72959,3.24755,5.70639,3.24755,5.70639,3.31714,5.6832,3.31714,5.6832,3.34033,5.66,3.34033,5.66,3.36353,5.6368,3.36353,5.6368,3.40992,5.61361,3.40992,5.61361,3.45632,5.56721,3.45632,5.56721,3.52591,5.54402,3.52591,5.54402,3.5491,5.52082,3.5491,5.52082,3.5723,5.49762,3.5723,5.49762,3.64189,5.47443,3.64189,5.47443,3.66509,5.45123,3.66509,5.45123,3.68828,5.42803,3.68828,5.42803,3.73468,5.40484,3.73468,5.40484,3.75788,5.38164,3.75788,5.38164,3.80427,5.35844,3.80427,5.35844,3.85066,5.33525,3.85066,5.33525,3.87386,5.31205,3.87386,5.31205,3.89706,5.28885,3.89706,5.28885,3.94345,5.26566,3.94345,5.26566,3.96665,5.24246,3.96665,5.24246,4.01304,5.21926,4.01304,5.21926,4.05943,5.19607,4.05943,5.19607,4.08263,5.17287,4.08263,5.17287,4.10583,5.14967,4.10583,5.14967,4.15222,5.12648,4.15222,5.12648,4.19861,5.08008,4.19861,5.08008,4.2682,5.05689,4.2682,5.05689,4.2914,5.03369,4.2914,5.03369,4.3146,5.01049,4.3146,5.01049,4.36099,4.9873,4.36099,4.9873,4.40738,4.9409,4.40738,4.9409,4.47697,4.89451,4.47697,4.89451,4.52337,4.87131,4.52337,4.87131,4.56976,4.84812,4.56976,4.84812,4.59296,4.82492,4.59296,4.82492,4.61616,4.80172,4.61616,4.80172,4.68575,4.75533,4.68575,4.75533,4.73214,4.73213,4.73214,4.73213,4.75534,4.70894,4.75534,4.70894,4.80173,4.68574,4.80173,4.68574,4.82493,4.66254,4.82493,4.66254,4.87132,4.63935,4.87132,4.63935,4.89452,4.61615,4.89452,4.61615,4.91771,4.59295,4.91771,4.59295,4.96411,4.56976,4.96411,4.56976,4.9873,4.54656,4.9873,4.54656,5.0105,4.52336,5.0105,4.52336,5.05689,4.50016,5.05689,4.50016,5.10329,4.45377,5.10329,4.45377,5.17288,4.40738,5.17288,4.40738,5.19607,4.38418,5.19607,4.38418,5.24247,4.36098,5.24247,4.36098,5.26566,4.33779,5.26566,4.33779,5.31206,4.31459,5.31206,4.31459,5.33525,4.29139,5.33525,4.29139,5.38165,4.245,5.38165,4.245,5.45124,4.19861,5.45124,4.19861,5.47444,4.17541,5.47444,4.17541,5.52083,4.15221,5.52083,4.15221,5.54403,4.12902,5.54403,4.12902,5.56722,4.10582,5.56722,4.10582,5.59042,4.08262,5.59042,4.08262,5.63681,4.05943,5.63681,4.05943,5.66001,4.03623,5.66001,4.03623,5.68321,4.01303,5.68321,4.01303,5.7296,3.96664,5.7296,3.96664,5.77599,3.94344,5.77599,3.94344,5.79919,3.92025,5.79919,3.92025,5.82239,3.89705,5.82239,3.89705,5.86878,3.87385,5.86878,3.87385,5.89198,3.85066,5.89198,3.85066,5.91517,3.82746,5.91517,3.82746,5.93837,3.80426,5.93837,3.80426,5.96157,3.78107,5.96157,3.78107,6.00796,3.75787,6.00796,3.75787,6.03116,3.73467,6.03116,3.73467,6.05435,3.71148,6.05435,3.71148,6.07755,3.68828,6.07755,3.68828,6.12394,3.66508,6.12394,3.66508,6.14714,3.61869,6.14714,3.61869,6.19353,3.59549,6.19353,3.59549,6.21673,3.5491,6.21673,3.5491,6.28632,3.50271,6.28632,3.50271,6.30952,3.47951,6.30952,3.47951,6.35591,3.43312,6.35591,3.43312,6.40231,3.40992,6.40231,3.40992,6.4255,3.38672,6.4255,3.38672,6.4487,3.36353,6.4487,3.36353,6.49509,3.31713,6.49509,3.31713,6.51829,3.29394,6.51829,3.29394,6.56468,3.24754,6.56468,3.24754,6.58788,3.22435,6.58788,3.22435,6.63427,3.17795,6.63427,3.17795,6.65747,3.15475,6.65747,3.15475,6.70386,3.13156,6.70386,3.13156,6.72706,3.10836,6.72706,3.10836,6.75026,3.08516,6.75026,3.08516,6.77345,3.06197,6.77345,3.06197,6.79665,3.03877,6.79665,3.03877,6.81985,3.01557,6.81985,3.01557,6.84304,2.99238,6.84304,2.99238,6.86624,2.96918,6.86624,2.96918,6.88944,2.94598,6.88944,2.94598,6.91263,2.92279,6.91263,2.92279,6.93583,2.89959,6.93583,2.89959,6.95903,2.87639,6.95903,2.87639,6.98222,2.8532,6.98222,2.8532,7.00542,2.83,7.00542,2.83,7.02862,2.8068,7.02862,2.8068,7.05181,2.78361,7.05181,2.78361,7.07501,2.76041,7.07501,2.76041,7.09821,2.73721,7.09821,2.73721,7.1446,2.71402,7.1446,2.71402,7.1678,2.69082,7.1678,2.69082,7.191,2.66762,7.191,2.66762,7.21419,2.64443,7.21419,2.64443,7.23739,2.62123,7.23739,2.62123,7.26059,2.59803,7.26059,2.59803,7.28378,2.57484,7.28378,2.57484,7.30698,2.55164,7.30698,2.55164,7.33018,2.52844,7.33018,2.52844,7.35337,2.50525,7.35337,2.50525,7.37657,2.48205,7.37657,2.48205,7.39977,2.45885,7.39977,2.45885,7.42296,2.43566,7.42296,2.43566,7.44616,2.41246,7.44616,2.41246,7.46936,2.38926,7.46936,2.38926,7.49255,2.36607,7.49255,2.36607,7.51575,2.34287,7.51575,2.34287,7.53895,2.31967,7.53895,2.31967,7.56214,2.29648,7.56214,2.29648,7.58534,2.27328,7.58534,2.27328,7.60854,2.25008,7.60854,2.25008,7.63173,2.22689,7.63173,2.22689,7.65493,2.20369,7.65493,2.20369,7.67813,2.18049,7.67813,2.18049,7.70132,2.1573,7.70132,2.1573,7.72452,2.1341,7.72452,2.1341,7.74772,2.1109,7.74772,2.1109,7.77091,2.08771,7.77091,2.08771,7.79411,2.06451,7.79411,2.06451,7.81731,2.04131,7.81731,2.04131,7.8405,2.01812,7.8405,2.01812,7.8637,1.99492,7.8637,1.99492,7.8869,1.97172,7.8869,1.97172,7.91009,1.94853,7.91009,1.94853,7.93329,1.92533,7.93329,1.92533,7.95649,1.90213,7.95649,1.90213,7.97969,1.87893,7.97969,1.87893,8.00288,1.85574,8.00288,1.85574,8.02608,1.83254,8.02608,1.83254,8.04928,1.80934,8.04928,1.80934,8.07247,1.78615,8.07247,1.78615,8.09567,1.76295,8.09567,1.76295,8.11887,1.73975,8.11887,1.73975,8.14206,1.71656,8.14206,1.71656,8.16526,1.69336,8.16526,1.69336,8.18846,1.67016,8.18846,1.67016,8.21165,1.64697,8.21165,1.64697,8.23485,1.62377,8.23485,1.62377,8.25805,1.60057,8.25805,1.60057,8.28124,1.57738,8.28124,1.57738,8.30444,1.55418,8.30444,1.55418,8.32764,1.53098,8.32764,1.53098,8.35083,1.50779,8.35083,1.50779,8.37403,1.48459,8.37403,1.48459,8.39723,1.46139,8.39723,1.46139,8.42042,1.4382,8.42042,1.4382,8.44362,1.415,8.44362,1.415,8.46682,1.3918,8.46682,1.3918,8.49001,1.36861,8.49001,1.36861,8.51321,1.34541,8.51321,1.34541,8.53641,1.32221,8.53641,1.32221,8.5596,1.29902,8.5596,1.29902,8.5828,1.25262,8.5828,1.25262,8.606,1.22943,8.606,1.22943,8.62919,1.20623,8.62919,1.20623,8.65239,1.18303,8.65239,1.18303,8.67559,1.15984,8.67559,1.15984,8.69878,1.13664,8.69878,1.13664,8.72198,1.11344,8.72198,1.11344,8.74518,1.09025,8.74518,1.09025,8.76838,1.06705,8.76838,1.06705,8.79157,1.04385,8.79157,1.04385,8.81477,1.02066,8.81477,1.02066,8.83797,0.997459,8.83797,0.997459,8.86116,0.974263,8.86116,0.974263,8.88436,0.951066,8.88436,0.951066,8.90756,0.927869,8.90756,0.927869,8.93075,0.904672,8.93075,0.904672,8.95395,0.881476,8.95395,0.881476,8.97715,0.858279,8.97715,0.858279,9.00034,0.835082,9.00034,0.835082,9.02354,0.811885,9.02354,0.811885,9.04674,0.788689,9.04674,0.788689,9.06993,0.765492,9.06993,0.765492,9.09313,0.742295,9.09313,0.742295,9.11633,0.719099,9.11633,0.719099,9.13952,0.695902,9.13952,0.695902,9.16272,0.672705,9.16272,0.672705,9.18592,0.649508,9.18592,0.649508,9.20911,0.626312,9.20911,0.626312,9.23231,0.603115,9.23231,0.603115,9.25551,0.579918,9.25551,0.579918,9.2787,0.556721,9.2787,0.556721,9.3019,0.510328,9.3019,0.510328,9.3251,0.487131,9.3251,0.487131,9.34829,0.463935,9.34829,0.463935,9.37149,0.440738,9.37149,0.440738,9.41788,0.417541,9.41788,0.417541,9.46428,0.394344,9.46428,0.394344,9.48747,0.371148,9.48747,0.371148,9.55706,0.347951,9.55706,0.347951,9.60346,0.324754,9.60346,0.324754,9.62666,0.301557,9.62666,0.301557,9.71944,0.278361,9.71944,0.278361,9.76584,0.255164,9.76584,0.255164,9.83543,0.231967,9.83543,0.231967,9.95141,0.208771,9.95141,0.208771,9.9978,0.185574,9.9978,0.185574,10.1138,0.162377,10.1138,0.162377,10.3226,0.13918,10.3226,0.13918,10.5313,0.115984,10.5313,0.115984,11.0417,0.13918,11.0417,0.13918,11.2736,0.162377,11.2736,0.162377,11.552,0.185574,11.552,0.185574,11.6448,0.208771,11.6448,0.208771,11.7144,0.231967,11.7144,0.231967,11.9231,0.255164,11.9231,0.255164,11.9927,0.278361,11.9927,0.278361,12.0855,0.301557,12.0855,0.301557,12.2015,0.324754,12.2015,0.324754,12.2711,0.347951,12.2711,0.347951,12.3407,0.371148,12.3407,0.371148,12.4335,0.394344,12.4335,0.394344,12.4799,0.417541,12.4799,0.417541,12.5263,0.440738,12.5263,0.440738,12.619,0.463935,12.619,0.463935,12.6654,0.487131,12.6654,0.487131,12.6886,0.510328,12.6886,0.510328,12.7814,0.533525,12.7814,0.533525,12.8046,0.556721,12.8046,0.556721,12.851,0.579918,12.851,0.579918,12.9206,0.603115,12.9206,0.603115,12.9438,0.626312,12.9438,0.626312,12.967,0.649508,12.967,0.649508,13.0366,0.672705,13.0366,0.672705,13.0598,0.695902,13.0598,0.695902,13.083,0.719099,13.083,0.719099,13.1294,0.742295,13.1294,0.742295,13.1526,0.765492,13.1526,0.765492,13.1758,0.788689,13.1758,0.788689,13.2222,0.835082,13.2222,0.835082,13.2453,0.858279,13.2453,0.858279,13.2917,0.904672,13.2917,0.904672,13.3149,0.927869,13.3149,0.927869,13.3613,0.951066,13.3613,0.951066,13.3845,0.974263,13.3845,0.974263,13.4077,0.997459,13.4077,0.997459,13.4541,1.02066,13.4541,1.02066,13.4773,1.04385,13.4773,1.04385,13.5005,1.06705,13.5005,1.06705,13.5237,1.09025,13.5237,1.09025,13.5469,1.11344,13.5469,1.11344,13.5701,1.13664,13.5701,1.13664,13.5933,1.15984,13.5933,1.15984,13.6165,1.18303,13.6165,1.18303,13.6397,1.20623,13.6397,1.20623,13.6861,1.22943,13.6861,1.22943,13.7093,1.27582,13.7093,1.27582,13.7325,1.29902,13.7325,1.29902,13.7557,1.32221,13.7557,1.32221,13.7789,1.34541,13.7789,1.34541,13.8021,1.36861,13.8021,1.36861,13.8253,1.3918,13.8253,1.3918,13.8485,1.415,13.8485,1.415,13.8717,1.46139,13.8717,1.46139,13.8949,1.48459,13.8949,1.48459,13.9181,1.50779,13.9181,1.50779,13.9413,1.53098,13.9413,1.53098,13.9644,1.55418,13.9644,1.55418,13.9876,1.60057,13.9876,1.60057,14.0108,1.62377,14.0108,1.62377,14.0572,1.69336,14.0572,1.69336,14.1036,1.71656,14.1036,1.71656,14.1268,1.76295,14.1268,1.76295,14.15,1.78615,14.15,1.78615,14.1732,1.80934,14.1732,1.80934,14.1964,1.85574,14.1964,1.85574,14.2196,1.87893,14.2196,1.87893,14.2428,1.90213,14.2428,1.90213,14.266,1.94853,14.266,1.94853,14.2892,1.97172,14.2892,1.97172,14.3124,1.99492,14.3124,1.99492,14.3356,2.04131,14.3356,2.04131,14.3588,2.06451,14.3588,2.06451,14.382,2.08771,14.382,2.08771,14.4052,2.1341,14.4052,2.1341,14.4284,2.18049,14.4284,2.18049,14.4748,2.25008,14.4748,2.25008,14.5212,2.29648,14.5212,2.29648,14.5444,2.34287,14.5444,2.34287,14.5676,2.36607,14.5676,2.36607,14.5908,2.38926,14.5908,2.38926,14.614,2.45885,14.614,2.45885,14.6604,2.50525,14.6604,2.50525,14.6835,2.55164,14.6835,2.55164,14.7067,2.57484,14.7067,2.57484,14.7299,2.59803,14.7299,2.59803,14.7531,2.66762,14.7531,2.66762,14.7995,2.71402,14.7995,2.71402,14.8227,2.76041,14.8227,2.76041,14.8459,2.8068,14.8459,2.8068,14.8923,2.87639,14.8923,2.87639,14.9155,2.89959,14.9155,2.89959,14.9387,2.94598,14.9387,2.94598,14.9619,2.99238,14.9619,2.99238,14.9851,3.01557,14.9851,3.01557,15.0083,3.03877,15.0083,3.03877,15.0315,3.08516,15.0315,3.08516,15.0547,3.13156,15.0547,3.13156,15.0779,3.15475,15.0779,3.15475,15.1011,3.22435,15.1011,3.22435,15.1243,3.24754,15.1243,3.24754,15.1475,3.29394,15.1475,3.29394,15.1707,3.34033,15.1707,3.34033,15.1939,3.36353,15.1939,3.36353,15.2171,3.40992,15.2171,3.40992,15.2403,3.45631,15.2403,3.45631,15.2635,3.47951,15.2635,3.47951,15.2867,3.5259,15.2867,3.5259,15.3099,3.5723,15.3099,3.5723,15.3331,3.61869,15.3331,3.61869,15.3563,3.64189,15.3563,3.64189,15.3795,3.68828,15.3795,3.68828,15.4026,3.73467,15.4026,3.73467,15.4258,3.75787,15.4258,3.75787,15.449,3.82746,15.449,3.82746,15.4722,3.87385,15.4722,3.87385,15.4954,3.89705,15.4954,3.89705,15.5186,3.96664,15.5186,3.96664,15.5418,3.98984,15.5418,3.98984,15.565,4.03623,15.565,4.03623,15.5882,4.10582,15.5882,4.10582,15.6114,4.12902,15.6114,4.12902,15.6346,4.17541,15.6346,4.17541,15.6578,4.2218,15.6578,4.2218,15.681,4.245,15.681,4.245,15.7042,4.29139,15.7042,4.29139,15.7274,4.31459,15.7274,4.31459,15.9594,4.63935,15.9594,4.63935,15.9362,4.61615,15.9362,4.61615,15.913,4.59295,15.913,4.59295,15.8898,4.56976,15.8898,4.56976,15.4026,4.54656,15.4026,4.54656,15.3795,4.47697,15.3795,4.47697,15.3563,4.45377,15.3563,4.45377,15.3331,4.40738,15.3331,4.40738,15.3099,4.36098,15.3099,4.36098,15.2867,4.31459,15.2867,4.31459,15.2403,4.245,15.2403,4.245,15.2171,4.17541,15.2171,4.17541,15.1939,4.12902,15.1939,4.12902,15.1707,4.08262,15.1707,4.08262,15.1475,4.03623,15.1475,4.03623,15.1243,4.01303,15.1243,4.01303,15.1011,3.96664,15.1011,3.96664,15.0779,3.92025,15.0779,3.92025,15.0547,3.89705,15.0547,3.89705,15.0315,3.82746,15.0315,3.82746,15.0083,3.80426,15.0083,3.80426,14.9851,3.78107,14.9851,3.78107,14.9619,3.71148,14.9619,3.71148,14.9387,3.68828,14.9387,3.68828,14.9155,3.66508,14.9155,3.66508,14.8923,3.5723,14.8923,3.5723,14.8691,3.5491,14.8691,3.5491,14.8459,3.5259,14.8459,3.5259,14.8227,3.45631,14.8227,3.45631,14.7995,3.43312,14.7995,3.43312,14.7763,3.40992,14.7763,3.40992,14.7531,3.36353,14.7531,3.36353,14.7299,3.34033,14.7299,3.34033,14.7067,3.31713,14.7067,3.31713,14.6835,3.24754,14.6835,3.24754,14.6604,3.22435,14.6604,3.22435,14.6372,3.20115,14.6372,3.20115,14.614,3.15475,14.614,3.15475,14.5908,3.10836,14.5908,3.10836,14.5676,3.06197,14.5676,3.06197,14.5444,3.01557,14.5444,3.01557,14.5212,2.99238,14.5212,2.99238,14.498,2.96918,14.498,2.96918,14.4748,2.92279,14.4748,2.92279,14.4516,2.87639,14.4516,2.87639,14.4052,2.8068,14.4052,2.8068,14.382,2.78361,14.382,2.78361,14.3588,2.76041,14.3588,2.76041,14.3356,2.71402,14.3356,2.71402,14.3124,2.66762,14.3124,2.66762,14.266,2.62123,14.266,2.62123,14.2428,2.57484,14.2428,2.57484,14.2196,2.55164,14.2196,2.55164,14.1964,2.50525,14.1964,2.50525,14.1732,2.45885,14.1732,2.45885,14.1268,2.38926,14.1268,2.38926,14.0804,2.34287,14.0804,2.34287,14.0572,2.31967,14.0572,2.31967,14.034,2.29648,14.034,2.29648,14.0108,2.27328,14.0108,2.27328,13.9876,2.22689,13.9876,2.22689,13.9644,2.20369,13.9644,2.20369,13.9413,2.18049,13.9413,2.18049,13.9181,2.1109,13.9181,2.1109,13.8949,2.08771,13.8949,2.08771,13.8717,2.06451,13.8717,2.06451,13.8485,2.04131,13.8485,2.04131,13.8253,1.99492,13.8253,1.99492,13.7789,1.97172,13.7789,1.97172,13.7557,1.92533,13.7557,1.92533,13.7325,1.90213,13.7325,1.90213,13.7093,1.87893,13.7093,1.87893,13.6861,1.85574,13.6861,1.85574,13.6629,1.83254,13.6629,1.83254,13.6397,1.78615,13.6397,1.78615,13.6165,1.76295,13.6165,1.76295,13.5701,1.69336,13.5701,1.69336,13.5237,1.67016,13.5237,1.67016,13.5005,1.64697,13.5005,1.64697,13.4773,1.62377,13.4773,1.62377,13.4541,1.60057,13.4541,1.60057,13.4309,1.57738,13.4309,1.57738,13.4077,1.55418,13.4077,1.55418,13.3613,1.50779,13.3613,1.50779,13.3381,1.48459,13.3381,1.48459,13.2917,1.4382,13.2917,1.4382,13.2685,1.415,13.2685,1.415,13.2222,1.36861,13.2222,1.36861,13.199,1.34541,13.199,1.34541,13.1294,1.32221,13.1294,1.32221,13.1062,1.29902,13.1062,1.29902,13.083,1.27582,13.083,1.27582,13.0598,1.25262,13.0598,1.25262,13.0366,1.22943,13.0366,1.22943,13.0134,1.20623,13.0134,1.20623,12.9902,1.18303,12.9902,1.18303,12.967,1.15984,12.967,1.15984,12.9438,1.13664,12.9438,1.13664,12.8974,1.11344,12.8974,1.11344,12.8742,1.06705,12.8742,1.06705,12.8046,1.04385,12.8046,1.04385,12.7582,1.02066,12.7582,1.02066,12.735,0.997459,12.735,0.997459,12.6422,0.974263,12.6422,0.974263,12.619,0.951066,12.619,0.951066,12.5726,0.927869,12.5726,0.927869,12.5031,0.904672,12.5031,0.904672,12.4567,0.881476,12.4567,0.881476,12.4103,0.858279,12.4103,0.858279,12.3175,0.835082,12.3175,0.835082,12.2711,0.811885,12.2711,0.811885,12.2247,0.788689,12.2247,0.788689,12.1087,0.765492,12.1087,0.765492,12.0391,0.742295,12.0391,0.742295,11.9927,0.719099,11.9927,0.719099,11.8303,0.695902,11.8303,0.695902,11.7144,0.672705,11.7144,0.672705,11.5752,0.649508,11.5752,0.649508,11.3664,0.626312,11.3664,0.626312,11.2272,0.603115,11.2272,0.603115,10.9953,0.579918,10.9953,0.579918,10.5313,0.603115,10.5313,0.603115,10.3458,0.626312,10.3458,0.626312,10.253,0.649508,10.253,0.649508,10.0442,0.672705,10.0442,0.672705,9.92821,0.695902,9.92821,0.695902,9.88182,0.719099,9.88182,0.719099,9.76584,0.742295,9.76584,0.742295,9.71944,0.765492,9.71944,0.765492,9.69625,0.788689,9.69625,0.788689,9.62666,0.811885,9.62666,0.811885,9.60346,0.835082,9.60346,0.835082,9.55706,0.858279,9.55706,0.858279,9.51067,0.881476,9.51067,0.881476,9.48747,0.927869,9.48747,0.927869,9.44108,0.951066,9.44108,0.951066,9.41788,0.997459,9.41788,0.997459,9.34829,1.04385,9.34829,1.04385,9.3251,1.06705,9.3251,1.06705,9.3019,1.09025,9.3019,1.09025,9.2787,1.13664,9.2787,1.13664,9.23231,1.15984,9.23231,1.15984,9.20911,1.20623,9.20911,1.20623,9.16272,1.22943,9.16272,1.22943,9.13952,1.27582,9.13952,1.27582,9.09313,1.29902,9.09313,1.29902,9.06993,1.34541,9.06993,1.34541,9.00034,1.415,9.00034,1.415,8.95395,1.4382,8.95395,1.4382,8.93075,1.48459,8.93075,1.48459,8.88436,1.50779,8.88436,1.50779,8.86116,1.55418,8.86116,1.55418,8.81477,1.57738,8.81477,1.57738,8.79157,1.62377,8.79157,1.62377,8.74518,1.64697,8.74518,1.64697,8.72198,1.69336,8.72198,1.69336,8.67559,1.71656,8.67559,1.71656,8.65239,1.76295,8.65239,1.76295,8.62919,1.78615,8.62919,1.78615,8.606,1.80934,8.606,1.80934,8.5828,1.83254,8.5828,1.83254,8.5596,1.85574,8.5596,1.85574,8.53641,1.87893,8.53641,1.87893,8.51321,1.90213,8.51321,1.90213,8.49001,1.92533,8.49001,1.92533,8.46682,1.94853,8.46682,1.94853,8.44362,1.97172,8.44362,1.97172,8.42042,1.99492,8.42042,1.99492,8.37403,2.04131,8.37403,2.04131,8.35083,2.06451,8.35083,2.06451,8.32764,2.08771,8.32764,2.08771,8.30444,2.1109,8.30444,2.1109,8.28124,2.1341,8.28124,2.1341,8.25805,2.1573,8.25805,2.1573,8.23485,2.18049,8.23485,2.18049,8.21165,2.20369,8.21165,2.20369,8.18846,2.22689,8.18846,2.22689,8.16526,2.25008,8.16526,2.25008,8.14206,2.27328,8.14206,2.27328,8.11887,2.29648,8.11887,2.29648,8.09567,2.31967,8.09567,2.31967,8.07247,2.34287,8.07247,2.34287,8.02608,2.38926,8.02608,2.38926,8.00288,2.41246,8.00288,2.41246,7.97969,2.43566,7.97969,2.43566,7.95649,2.45885,7.95649,2.45885,7.93329,2.48205,7.93329,2.48205,7.91009,2.50525,7.91009,2.50525,7.8869,2.52844,7.8869,2.52844,7.8637,2.55164,7.8637,2.55164,7.8405,2.57484,7.8405,2.57484,7.81731,2.59803,7.81731,2.59803,7.79411,2.62123,7.79411,2.62123,7.77091,2.64443,7.77091,2.64443,7.74772,2.66762,7.74772,2.66762,7.70132,2.69082,7.70132,2.69082,7.67813,2.73721,7.67813,2.73721,7.65493,2.76041,7.65493,2.76041,7.63173,2.78361,7.63173,2.78361,7.60854,2.8068,7.60854,2.8068,7.58534,2.83,7.58534,2.83,7.56214,2.8532,7.56214,2.8532,7.53895,2.87639,7.53895,2.87639,7.51575,2.89959,7.51575,2.89959,7.49255,2.92279,7.49255,2.92279,7.46936,2.94598,7.46936,2.94598,7.44616,2.96918,7.44616,2.96918,7.42296,2.99238,7.42296,2.99238,7.39977,3.01557,7.39977,3.01557,7.35337,3.06197,7.35337,3.06197,7.33018,3.08516,7.33018,3.08516,7.28378,3.10836,7.28378,3.10836,7.26059,3.15475,7.26059,3.15475,7.21419,3.17795,7.21419,3.17795,7.191,3.22435,7.191,3.22435,7.1446,3.24754,7.1446,3.24754,7.12141,3.29394,7.12141,3.29394,7.07501,3.31713,7.07501,3.31713,7.05181,3.34033,7.05181,3.34033,7.02862,3.36353,7.02862,3.36353,7.00542,3.38672,7.00542,3.38672,6.98222,3.43312,6.98222,3.43312,6.93583,3.45631,6.93583,3.45631,6.91263,3.47951,6.91263,3.47951,6.86624,3.50271,6.86624,3.50271,6.84304,3.5491,6.84304,3.5491,6.79665,3.5723,6.79665,3.5723,6.77345,3.61869,6.77345,3.61869,6.72706,3.64189,6.72706,3.64189,6.70386,3.66508,6.70386,3.66508,6.68067,3.68828,6.68067,3.68828,6.63427,3.73467,6.63427,3.73467,6.61108,3.75787,6.61108,3.75787,6.56468,3.80426,6.56468,3.80426,6.54149,3.82746,6.54149,3.82746,6.49509,3.85066,6.49509,3.85066,6.4719,3.87385,6.4719,3.87385,6.4487,3.89705,6.4487,3.89705,6.4255,3.92025,6.4255,3.92025,6.40231,3.94344,6.40231,3.94344,6.37911,3.96664,6.37911,3.96664,6.35591,3.98984,6.35591,3.98984,6.30952,4.01303,6.30952,4.01303,6.28632,4.03623,6.28632,4.03623,6.23993,4.05943,6.23993,4.05943,6.21673,4.10582,6.21673,4.10582,6.17034,4.12902,6.17034,4.12902,6.14714,4.15221,6.14714,4.15221,6.12394,4.17541,6.12394,4.17541,6.07755,4.19861,6.07755,4.19861,6.05435,4.245,6.05435,4.245,6.00796,4.2682,6.00796,4.2682,5.98476,4.29139,5.98476,4.29139,5.96157,4.31459,5.96157,4.31459,5.89198,4.33779,5.89198,4.33779,5.86878,4.38418,5.86878,4.38418,5.82239,4.40738,5.82239,4.40738,5.79919,4.43057,5.79919,4.43057,5.77599,4.45377,5.77599,4.45377,5.7296,4.50016,5.7296,4.50016,5.7064,4.52336,5.7064,4.52336,5.66001,4.54656,5.66001,4.54656,5.63681,4.56976,5.63681,4.56976,5.61362,4.59295,5.61362,4.59295,5.56722,4.61615,5.56722,4.61615,5.54403,4.63935,5.54403,4.63935,5.52083,4.66254,5.52083,4.66254,5.45124,4.68574,5.45124,4.68574,5.42804,4.70894,5.42804,4.70894,5.40484,4.73213,5.40484,4.73213,5.38165,4.75533,5.38165,4.75533,5.33525,4.77853,5.33525,4.77853,5.31206,4.80172,5.31206,4.80172,5.26566,4.82492,5.26566,4.82492,5.24247,4.84812,5.24247,4.84812,5.21927,4.87131,5.21927,4.87131,5.17288,4.89451,5.17288,4.89451,5.14968,4.91771,5.14968,4.91771,5.12648,4.9409,5.12648,4.9409,5.08009,4.9641,5.08009,4.9641,5.05689,4.9873,5.05689,4.9873,5.0337,5.01049,5.0337,5.01049,4.96411,5.03369,4.96411,5.03369,4.94091,5.05689,4.94091,5.05689,4.91771,5.08008,4.91771,5.08008,4.87132,5.10328,4.87132,5.10328,4.82493,5.14967,4.82493,5.14967,4.75534,5.19607,4.75534,5.19607,4.73214,5.21926,4.73214,5.21926,4.68575,5.24246,4.68575,5.24246,4.66255,5.26566,4.66255,5.26566,4.61616,5.28885,4.61616,5.28885,4.56976,5.31205,4.56976,5.31205,4.52337,5.33525,4.52337,5.33525,4.50017,5.35844,4.50017,5.35844,4.45378,5.38164,4.45378,5.38164,4.40738,5.42803,4.40738,5.42803,4.33779,5.47443,4.33779,5.47443,4.2914,5.49762,4.2914,5.49762,4.24501,5.52082,4.24501,5.52082,4.22181,5.54402,4.22181,5.54402,4.19861,5.56721,4.19861,5.56721,4.15222,5.59041,4.15222,5.59041,4.12902,5.61361,4.12902,5.61361,4.08263,5.6368,4.08263,5.6368,4.05943,5.66,4.05943,5.66,4.01304,5.6832,4.01304,5.6832,3.96665,5.70639,3.96665,5.70639,3.92025,5.72959,3.92025,5.72959,3.89706,5.75279,3.89706,5.75279,3.87386,5.77598,3.87386,5.77598,3.80427,5.82238,3.80427,5.82238,3.75788,5.84558,3.75788,5.84558,3.73468,5.86877,3.73468,5.86877,3.68828,5.89197,3.68828,5.89197,3.61869,5.91517,3.61869,5.91517,3.5955,5.93836,3.5955,5.93836,3.5491,5.96156,3.5491,5.96156,3.52591,5.98476,3.52591,5.98476,3.47951,6.00795,3.47951,6.00795,3.45632,6.03115,3.45632,6.03115,3.43312,6.05435,3.43312,6.05435,3.40992,6.07754,3.40992,6.07754,3.36353,6.10074,3.36353,6.10074,3.34033,6.12394,3.34033,6.12394,3.29394,6.14713,3.29394,6.14713,3.24755,6.17033,3.24755,6.17033,3.20115,6.19353,3.20115,6.19353,3.15476,6.21672,3.15476,6.21672,3.10837,6.23992,3.10837,6.23992,3.06197,6.26312,3.06197,6.26312,2.99238,6.28631,2.99238,6.28631,2.94599,6.30951,2.94599,6.30951,2.89959,6.33271,2.89959,6.33271,2.76041,6.3559,2.76041,6.3559,2.71402,6.3791,2.71402,6.3791,2.69082,6.4023,2.69082,6.4023,2.59804,6.42549,2.59804,6.42549,2.55164,6.44869,2.55164,6.44869,2.50525,6.47189,2.50525,6.47189,2.43566,6.49508,2.43566,6.49508,2.41246,6.51828,2.41246,6.51828,2.36607,6.54148,2.36607,6.54148,2.27328,6.56467,2.27328,6.56467,2.25009,6.58787,2.25009,6.58787,2.20369,6.61107,2.20369,6.61107,2.1341,6.63426,2.1341,6.63426,2.11091,6.65746,2.11091,6.65746,2.06451,6.68066,2.06451,6.68066,1.99492,6.70385,1.99492,6.70385,1.94853,6.72705,1.94853,6.72705,1.92533,6.75025,1.92533,6.75025,1.85574,6.77344,1.85574,6.77344,1.83254,6.79664,1.83254,6.79664,1.78615,6.81984,1.78615,6.81984,1.76295,6.84303,1.76295,6.84303,1.71656,6.88943,1.71656,6.88943,1.64697,6.91262,1.64697,6.91262,1.62377,6.93582,1.62377,6.93582,1.57738,6.95902,1.57738,6.95902,1.53099,6.98221,1.53099,6.98221,1.50779,7.00541,1.50779,7.00541,1.4614,7.02861,1.4614,7.02861,1.4382,7.0518,1.4382,7.0518,1.415,7.075,1.415,7.075,1.39181,7.0982,1.39181,7.0982,1.34541,7.1214,1.34541,7.1214,1.32222,7.14459,1.32222,7.14459,1.29902,7.16779,1.29902,7.16779,1.25263,7.19099,1.25263,7.19099,1.22943,7.23738,1.22943,7.23738,1.18303,7.26058,1.18303,7.26058,1.15984,7.30697,1.15984,7.30697,1.11344,7.33017,1.11344,7.33017,1.09025,7.37656,1.09025,7.37656,1.04385,7.39976,1.04385,7.39976,1.02066,7.44615,1.02066,7.44615,0.997461,7.46935,0.997461,7.46935,0.974264,7.49254,0.974264,7.49254,0.951067,7.53894,0.951067,7.53894,0.92787,7.56213,0.92787,7.56213,0.904674,7.58533,0.904674,7.58533,0.881477,7.65492,0.881477,7.65492,0.835083,7.67812,0.835083,7.67812,0.811887,7.7941,0.811887,7.7941,0.78869,7.84049,0.78869,7.84049,0.765493,7.88689,0.765493,7.88689,0.742296,8.04926,0.742296,8.04926,0.7191"/>
     <polygon fill="black" stroke-width="0" stroke="none" points="11.436,3.66509,11.436,3.68828,11.4128,3.68828,11.4128,3.71148,11.3896,3.71148,11.3896,3.73468,11.3432,3.73468,11.3432,3.75788,11.2968,3.75788,11.2968,3.78107,11.2736,3.78107,11.2736,3.80427,11.2504,3.80427,11.2504,3.82747,11.2272,3.82747,11.2272,3.85066,11.204,3.85066,11.204,3.87386,11.1576,3.87386,11.1576,3.89706,11.1344,3.89706,11.1344,3.94345,11.088,3.94345,11.088,3.96665,11.0648,3.96665,11.0648,3.98984,11.0416,3.98984,11.0416,4.01304,10.9952,4.01304,10.9952,4.05943,10.9721,4.05943,10.9721,4.08263,11.4128,4.08263,11.4128,4.10583,11.436,4.10583,11.436,4.12902,11.4592,4.12902,11.4592,4.15222,11.5056,4.15222,11.5056,4.17542,11.5288,4.17542,11.5288,4.19861,11.552,4.19861,11.552,4.22181,11.5984,4.22181,11.5984,4.2682,11.6216,4.2682,11.6216,4.2914,11.6448,4.2914,11.6448,4.3146,11.668,4.3146,11.668,4.33779,11.7143,4.33779,11.7143,4.36099,11.7375,4.36099,11.7375,4.40738,11.8071,4.40738,11.8071,4.94091,11.7839,4.94091,11.7839,5.0337,11.7607,5.0337,11.7607,5.08009,11.7375,5.08009,11.7375,5.24247,11.7143,5.24247,11.7143,5.31206,11.7607,5.31206,11.7607,5.33525,11.7839,5.33525,11.7839,5.35845,11.8303,5.35845,11.8303,5.38165,11.8767,5.38165,11.8767,5.40484,11.9231,5.40484,11.9231,5.42804,11.9463,5.42804,11.9463,5.45124,11.9695,5.45124,11.9695,5.47444,12.0159,5.47444,12.0159,5.52083,12.0623,5.52083,12.0623,5.54403,12.0855,5.54403,12.0855,5.59042,12.1551,5.59042,12.1551,5.63681,12.1783,5.63681,12.1783,5.66001,12.2247,5.66001,12.2247,5.7064,12.2479,5.7064,12.2479,5.7296,12.2943,5.7296,12.2943,5.7528,12.3175,5.7528,12.3175,5.77599,12.3407,5.77599,12.3407,5.79919,12.3639,5.79919,12.3639,5.82239,12.3871,5.82239,12.3871,5.84558,12.4102,5.84558,12.4102,5.86878,12.4334,5.86878,12.4334,5.89198,12.4566,5.89198,12.4566,5.91517,12.4798,5.91517,12.4798,5.93837,12.503,5.93837,12.503,5.96157,12.5262,5.96157,12.5262,5.98476,12.5494,5.98476,12.5494,6.00796,12.5726,6.00796,12.5726,6.03116,12.5958,6.03116,12.5958,6.05435,12.6422,6.05435,12.6422,6.10075,12.6654,6.10075,12.6654,6.12394,12.6886,6.12394,12.6886,6.14714,12.7118,6.14714,12.7118,6.19353,12.735,6.19353,12.735,6.21673,12.7814,6.21673,12.7814,6.26313,12.8046,6.26313,12.8046,6.28632,12.8278,6.28632,12.8278,6.30952,12.851,6.30952,12.851,6.35591,12.8974,6.35591,12.8974,6.37911,12.9206,6.37911,12.9206,6.4255,12.9438,6.4255,12.9438,6.4719,12.967,6.4719,12.967,6.51829,12.9902,6.51829,12.9902,6.56468,13.0134,6.56468,13.0134,6.58788,13.0366,6.58788,13.0366,6.63427,13.0598,6.63427,13.0598,6.70386,13.1062,6.70386,13.1062,6.72706,13.1293,6.72706,13.1293,6.79665,13.1525,6.79665,13.1525,6.84304,13.1757,6.84304,13.1757,6.86624,13.1989,6.86624,13.1989,6.95903,13.2221,6.95903,13.2221,6.98222,13.2453,6.98222,13.2453,7.02862,13.2685,7.02862,13.2685,7.07501,13.2917,7.07501,13.2917,7.1678,13.3149,7.1678,13.3149,7.21419,13.3381,7.21419,13.3381,7.28378,13.3613,7.28378,13.3613,7.33018,13.3845,7.33018,13.3845,7.35337,13.4077,7.35337,13.4077,7.44616,13.4309,7.44616,13.4309,7.49255,13.4541,7.49255,13.4541,7.53895,13.4773,7.53895,13.4773,7.63173,13.5005,7.63173,13.5005,7.74772,13.5237,7.74772,13.5237,7.77091,13.5469,7.77091,13.5469,7.81731,13.5701,7.81731,13.5701,7.8405,13.5933,7.8405,13.5933,7.91009,13.6165,7.91009,13.6165,8.04928,13.6397,8.04928,13.6397,8.09567,13.6629,8.09567,13.6629,8.16526,13.6861,8.16526,13.6861,8.30444,13.6629,8.30444,13.6629,8.35083,13.6397,8.35083,13.6397,8.37403,13.6165,8.37403,13.6165,8.39723,13.5933,8.39723,13.5933,8.42042,13.5701,8.42042,13.5701,8.44362,13.5005,8.44362,13.5005,8.46682,13.4773,8.46682,13.4773,8.51321,13.4309,8.51321,13.4309,8.53641,13.4077,8.53641,13.4077,8.5596,13.3845,8.5596,13.3845,8.5828,13.3381,8.5828,13.3381,8.62919,13.3149,8.62919,13.3149,8.65239,13.2221,8.65239,13.2221,8.67559,13.1989,8.67559,13.1989,8.69878,13.1525,8.69878,13.1525,8.72198,13.083,8.72198,13.083,8.74518,13.0598,8.74518,13.0598,8.76838,13.0134,8.76838,13.0134,8.79157,12.967,8.79157,12.967,8.81477,12.9206,8.81477,12.9206,8.86116,12.851,8.86116,12.851,8.90756,12.7814,8.90756,12.7814,8.93075,12.6422,8.93075,12.6422,8.95395,12.5958,8.95395,12.5958,8.97715,12.5494,8.97715,12.5494,9.00034,12.3639,9.00034,12.3639,9.02354,12.2943,9.02354,12.2943,9.04674,12.2247,9.04674,12.2247,9.06993,12.8974,9.06993,12.8974,9.04674,12.9206,9.04674,12.9206,9.02354,12.967,9.02354,12.967,9.00034,13.0366,9.00034,13.0366,8.97715,13.0598,8.97715,13.0598,8.95395,13.1062,8.95395,13.1062,8.93075,13.1757,8.93075,13.1757,8.90756,13.1989,8.90756,13.1989,8.88436,13.2453,8.88436,13.2453,8.86116,13.2917,8.86116,13.2917,8.83797,13.3381,8.83797,13.3381,8.79157,13.4077,8.79157,13.4077,8.76838,13.4309,8.76838,13.4309,8.74518,13.4773,8.74518,13.4773,8.72198,13.5237,8.72198,13.5237,8.69878,13.5469,8.69878,13.5469,8.67559,13.5933,8.67559,13.5933,8.65239,13.6397,8.65239,13.6397,8.62919,13.6861,8.62919,13.6861,8.606,13.7093,8.606,13.7093,8.5828,13.7557,8.5828,13.7557,8.5596,13.7789,8.5596,13.7789,8.51321,13.8252,8.51321,13.8252,8.49001,13.8484,8.49001,13.8484,8.46682,13.8948,8.46682,13.8948,8.44362,13.918,8.44362,13.918,8.42042,13.9412,8.42042,13.9412,8.39723,13.9644,8.39723,13.9644,8.37403,13.9876,8.37403,13.9876,8.35083,14.0108,8.35083,14.0108,8.30444,14.034,8.30444,14.034,8.23485,14.0572,8.23485,14.0572,8.21165,14.0804,8.21165,14.0804,8.16526,14.1036,8.16526,14.1036,7.81731,14.0804,7.81731,14.0804,7.74772,14.0572,7.74772,14.0572,7.72452,14.034,7.72452,14.034,7.67813,13.9644,7.67813,13.9644,7.63173,13.9412,7.63173,13.9412,7.60854,13.918,7.60854,13.918,7.53895,13.8948,7.53895,13.8948,7.46936,13.8716,7.46936,13.8716,7.39977,13.8484,7.39977,13.8484,7.37657,13.8252,7.37657,13.8252,7.26059,13.8021,7.26059,13.8021,7.23739,13.7789,7.23739,13.7789,7.191,13.7557,7.191,13.7557,7.09821,13.7325,7.09821,13.7325,7.05181,13.7093,7.05181,13.7093,7.02862,13.6861,7.02862,13.6861,6.93583,13.6629,6.93583,13.6629,6.88944,13.6397,6.88944,13.6397,6.84304,13.6165,6.84304,13.6165,6.77345,13.5933,6.77345,13.5933,6.75026,13.5701,6.75026,13.5701,6.70386,13.5469,6.70386,13.5469,6.63427,13.5237,6.63427,13.5237,6.58788,13.5005,6.58788,13.5005,6.56468,13.4773,6.56468,13.4773,6.49509,13.4541,6.49509,13.4541,6.4487,13.4309,6.4487,13.4309,6.4255,13.4077,6.4255,13.4077,6.35591,13.3845,6.35591,13.3845,6.33272,13.3613,6.33272,13.3613,6.30952,13.3381,6.30952,13.3381,6.26313,13.3149,6.26313,13.3149,6.21673,13.2685,6.21673,13.2685,6.14714,13.2453,6.14714,13.2453,6.12394,13.2221,6.12394,13.2221,6.10075,13.1989,6.10075,13.1989,6.05435,13.1757,6.05435,13.1757,6.03116,13.1525,6.03116,13.1525,6.00796,13.1293,6.00796,13.1293,5.96157,13.1062,5.96157,13.1062,5.93837,13.0598,5.93837,13.0598,5.86878,13.0134,5.86878,13.0134,5.84558,12.9902,5.84558,12.9902,5.79919,12.9438,5.79919,12.9438,5.77599,12.9206,5.77599,12.9206,5.7296,12.8742,5.7296,12.8742,5.7064,12.851,5.7064,12.851,5.66001,12.8046,5.66001,12.8046,5.63681,12.7814,5.63681,12.7814,5.59042,12.735,5.59042,12.735,5.56722,12.7118,5.56722,12.7118,5.52083,12.6654,5.52083,12.6654,5.49763,12.6422,5.49763,12.6422,5.45124,12.5958,5.45124,12.5958,5.42804,12.5726,5.42804,12.5726,5.40484,12.5494,5.40484,12.5494,5.38165,12.503,5.38165,12.503,5.33525,12.4798,5.33525,12.4798,5.31206,12.4334,5.31206,12.4334,5.26566,12.3871,5.26566,12.3871,5.24247,12.3639,5.24247,12.3639,5.21927,12.3407,5.21927,12.3407,5.19607,12.3175,5.19607,12.3175,5.17288,12.2943,5.17288,12.2943,5.14968,12.2479,5.14968,12.2479,5.12648,12.2247,5.12648,12.2247,5.10329,12.2015,5.10329,12.2015,5.08009,12.1783,5.08009,12.1783,5.05689,12.1551,5.05689,12.1551,5.0337,12.1087,5.0337,12.1087,5.0105,12.0855,5.0105,12.0855,4.96411,12.0159,4.96411,12.0159,4.89452,12.0391,4.89452,12.0391,4.82493,12.0623,4.82493,12.0623,4.75534,12.0855,4.75534,12.0855,4.52337,12.1087,4.52337,12.1087,4.12902,12.1319,4.12902,12.1319,4.08263,12.1087,4.08263,12.1087,4.05943,12.0855,4.05943,12.0855,4.03624,12.0623,4.03624,12.0623,4.01304,12.0159,4.01304,12.0159,3.98984,11.9927,3.98984,11.9927,3.96665,11.9695,3.96665,11.9695,3.94345,11.9231,3.94345,11.9231,3.92025,11.8999,3.92025,11.8999,3.89706,11.8767,3.89706,11.8767,3.87386,11.8535,3.87386,11.8535,3.85066,11.8303,3.85066,11.8303,3.82747,11.8071,3.82747,11.8071,3.80427,11.7607,3.80427,11.7607,3.78107,11.7375,3.78107,11.7375,3.73468,11.668,3.73468,11.668,3.68828,11.6216,3.68828,11.6216,3.66509"/>
     <polygon fill="black" stroke-width="0" stroke="none" points="10.9721,4.08263,10.9721,4.12902,10.9489,4.12902,10.9489,4.15222,10.9257,4.15222,10.9257,4.19861,10.9025,4.19861,10.9025,4.24501,10.8793,4.24501,10.8793,4.2682,10.8561,4.2682,10.8561,4.33779,10.8329,4.33779,10.8329,4.38419,10.8097,4.38419,10.8097,4.43058,10.7865,4.43058,10.7865,4.47697,10.7633,4.47697,10.7633,4.52337,10.7401,4.52337,10.7401,4.54656,10.7169,4.54656,10.7169,4.61616,10.8561,4.61616,10.8561,4.47697,10.8793,4.47697,10.8793,4.45378,10.9025,4.45378,10.9025,4.40738,10.9257,4.40738,10.9257,4.38419,10.9489,4.38419,10.9489,4.36099,10.9721,4.36099,10.9721,4.33779,10.9952,4.33779,10.9952,4.3146,11.0184,4.3146,11.0184,4.2914,11.0416,4.2914,11.0416,4.2682,11.0648,4.2682,11.0648,4.24501,11.1112,4.24501,11.1112,4.22181,11.1344,4.22181,11.1344,4.19861,11.1576,4.19861,11.1576,4.17542,11.1808,4.17542,11.1808,4.15222,11.2272,4.15222,11.2272,4.12902,11.2736,4.12902,11.2736,4.08263"/>
     <polygon fill="black" stroke-width="0" stroke="none" points="9.88181,4.54656,9.88181,4.56976,9.81222,4.56976,9.81222,4.59296,9.74263,4.59296,9.74263,4.61616,10.6241,4.61616,10.6241,4.59296,10.5545,4.59296,10.5545,4.56976,10.4849,4.56976,10.4849,4.54656"/>
     <polygon fill="black" stroke-width="0" stroke="none" points="9.67304,4.61616,9.67304,4.63935,10.8329,4.63935,10.8329,4.61616"/>
     <polygon fill="black" stroke-width="0" stroke="none" points="9.67304,4.61616,9.67304,4.63935,10.8329,4.63935,10.8329,4.61616"/>
     <polygon fill="black" stroke-width="0" stroke="none" points="9.62664,4.63935,9.62664,4.66255,9.60344,4.66255,9.60344,4.68575,9.51066,4.68575,9.51066,4.70894,9.48746,4.70894,9.48746,4.73214,9.46426,4.73214,9.46426,4.75534,9.39467,4.75534,9.39467,4.77853,9.37148,4.77853,9.37148,4.80173,9.32508,4.80173,9.32508,4.82493,9.30189,4.82493,9.30189,4.84812,9.25549,4.84812,9.25549,4.89452,9.1859,4.89452,9.1859,4.91771,10.253,4.91771,10.253,4.94091,10.3225,4.94091,10.3225,4.96411,10.4617,4.96411,10.4617,4.9873,10.5081,4.9873,10.5081,5.0105,10.5777,5.0105,10.5777,5.0337,10.7401,5.0337,10.7401,5.0105,10.7633,5.0105,10.7633,4.9873,10.7865,4.9873,10.7865,4.73214,10.8097,4.73214,10.8097,4.70894,10.8329,4.70894,10.8329,4.63935"/>
     <polygon fill="black" stroke-width="0" stroke="none" points="9.16271,4.91771,9.16271,4.94091,9.13951,4.94091,9.13951,4.96411,9.11631,4.96411,9.11631,4.9873,9.06992,4.9873,9.06992,5.0105,9.04672,5.0105,9.04672,5.0337,9.02353,5.0337,9.02353,5.05689,8.97713,5.05689,8.97713,5.10329,8.93074,5.10329,8.93074,5.12648,8.90754,5.12648,8.90754,5.17288,8.83795,5.17288,8.83795,5.21927,8.81476,5.21927,8.81476,5.24247,8.76836,5.24247,8.76836,5.28886,8.74517,5.28886,8.74517,5.31206,8.69877,5.31206,8.69877,5.33525,8.67558,5.33525,8.67558,5.35845,8.65238,5.35845,8.65238,5.38165,8.62918,5.38165,8.62918,5.40484,8.60599,5.40484,8.60599,5.42804,8.58279,5.42804,8.58279,5.45124,8.55959,5.45124,8.55959,5.47444,8.5364,5.47444,8.5364,5.49763,8.5132,5.49763,8.5132,5.52083,8.49,5.52083,8.49,5.54403,8.46681,5.54403,8.46681,5.56722,8.81476,5.56722,8.81476,5.54403,8.83795,5.54403,8.83795,5.52083,8.86115,5.52083,8.86115,5.49763,8.90754,5.49763,8.90754,5.45124,8.95394,5.45124,8.95394,5.42804,8.97713,5.42804,8.97713,5.38165,9.04672,5.38165,9.04672,5.33525,9.09312,5.33525,9.09312,5.31206,9.11631,5.31206,9.11631,5.28886,9.13951,5.28886,9.13951,5.26566,9.1859,5.26566,9.1859,5.24247,9.2323,5.24247,9.2323,5.21927,9.25549,5.21927,9.25549,5.19607,9.27869,5.19607,9.27869,5.17288,9.32508,5.17288,9.32508,5.12648,9.37148,5.12648,9.37148,5.10329,9.41787,5.10329,9.41787,5.08009,9.46426,5.08009,9.46426,5.05689,9.53385,5.05689,9.53385,5.0337,9.60344,5.0337,9.60344,5.0105,9.62664,5.0105,9.62664,4.9873,9.67304,4.9873,9.67304,4.96411,9.78902,4.96411,9.78902,4.94091,9.88181,4.94091,9.88181,4.91771"/>
     <polygon fill="black" stroke-width="0" stroke="none" points="8.14205,5.56722,8.14205,5.59042,8.79156,5.59042,8.79156,5.56722"/>
     <polygon fill="black" stroke-width="0" stroke="none" points="8.14205,5.56722,8.14205,5.59042,8.79156,5.59042,8.79156,5.56722"/>
     <polygon fill="black" stroke-width="0" stroke="none" points="8.11885,5.59042,8.11885,5.63681,8.09566,5.63681,8.09566,5.66001,8.07246,5.66001,8.07246,5.7064,8.04926,5.7064,8.04926,5.7296,8.02607,5.7296,8.02607,5.7528,8.00287,5.7528,8.00287,5.79919,7.97967,5.79919,7.97967,5.84558,7.95648,5.84558,7.95648,5.86878,7.93328,5.86878,7.93328,5.91517,7.91008,5.91517,7.91008,5.93837,7.88689,5.93837,7.88689,5.96157,7.86369,5.96157,7.86369,6.00796,7.84049,6.00796,7.84049,6.05435,7.8173,6.05435,7.8173,6.07755,7.7941,6.07755,7.7941,6.12394,7.7709,6.12394,7.7709,6.14714,7.74771,6.14714,7.74771,6.17034,7.72451,6.17034,7.72451,6.21673,7.70131,6.21673,7.70131,6.26313,7.67812,6.26313,7.67812,6.28632,7.65492,6.28632,7.65492,6.33272,7.63172,6.33272,7.63172,6.35591,7.60853,6.35591,7.60853,6.37911,7.58533,6.37911,7.58533,6.4255,7.56213,6.4255,7.56213,6.4487,7.53894,6.4487,7.53894,6.4719,7.51574,6.4719,7.51574,6.49509,7.49254,6.49509,7.49254,6.51829,7.46935,6.51829,7.46935,6.56468,7.44615,6.56468,7.44615,6.63427,7.42295,6.63427,7.42295,6.65747,7.39976,6.65747,7.39976,6.70386,7.37656,6.70386,7.37656,6.72706,7.35336,6.72706,7.35336,6.75026,7.33017,6.75026,7.33017,6.77345,7.30697,6.77345,7.30697,6.84304,7.28377,6.84304,7.28377,6.86624,7.26058,6.86624,7.26058,6.91263,7.23738,6.91263,7.23738,6.98222,7.28377,6.98222,7.28377,7.00542,7.33017,7.00542,7.33017,6.98222,7.37656,6.98222,7.37656,6.95903,7.39976,6.95903,7.39976,6.93583,7.42295,6.93583,7.42295,6.91263,7.44615,6.91263,7.44615,6.88944,7.46935,6.88944,7.46935,6.86624,7.49254,6.86624,7.49254,6.84304,7.51574,6.84304,7.51574,6.81985,7.53894,6.81985,7.53894,6.79665,7.56213,6.79665,7.56213,6.77345,7.58533,6.77345,7.58533,6.72706,7.60853,6.72706,7.60853,6.70386,7.65492,6.70386,7.65492,6.65747,7.67812,6.65747,7.67812,6.63427,7.72451,6.63427,7.72451,6.58788,7.74771,6.58788,7.74771,6.56468,7.7941,6.56468,7.7941,6.51829,7.8173,6.51829,7.8173,6.49509,7.86369,6.49509,7.86369,6.4487,7.88689,6.4487,7.88689,6.4255,7.93328,6.4255,7.93328,6.37911,7.95648,6.37911,7.95648,6.35591,8.00287,6.35591,8.00287,6.30952,8.02607,6.30952,8.02607,6.28632,8.07246,6.28632,8.07246,6.23993,8.09566,6.23993,8.09566,6.21673,8.14205,6.21673,8.14205,6.17034,8.16525,6.17034,8.16525,6.14714,8.21164,6.14714,8.21164,6.10075,8.23484,6.10075,8.23484,6.07755,8.28123,6.07755,8.28123,6.03116,8.30443,6.03116,8.30443,6.00796,8.35082,6.00796,8.35082,5.96157,8.37402,5.96157,8.37402,5.93837,8.42041,5.93837,8.42041,5.89198,8.44361,5.89198,8.44361,5.86878,8.49,5.86878,8.49,5.84558,8.5132,5.84558,8.5132,5.82239,8.5364,5.82239,8.5364,5.79919,8.55959,5.79919,8.55959,5.77599,8.58279,5.77599,8.58279,5.7528,8.60599,5.7528,8.60599,5.7296,8.62918,5.7296,8.62918,5.7064,8.65238,5.7064,8.65238,5.68321,8.67558,5.68321,8.67558,5.66001,8.69877,5.66001,8.69877,5.63681,8.74517,5.63681,8.74517,5.61362,8.76836,5.61362,8.76836,5.59042"/>
     <polygon fill="black" stroke-width="0" stroke="none" points="11.3432,9.04674,11.3432,9.06993,11.9463,9.06993,11.9463,9.04674"/>
     <polygon fill="black" stroke-width="0" stroke="none" points="11.1344,9.06993,11.1344,9.09313,12.7814,9.09313,12.7814,9.06993"/>
     <polygon fill="black" stroke-width="0" stroke="none" points="11.1344,9.06993,11.1344,9.09313,12.7814,9.09313,12.7814,9.06993"/>
     <polygon fill="black" stroke-width="0" stroke="none" points="11.0648,9.09313,11.0648,9.13952,11.0184,9.13952,11.0184,9.16272,10.9952,9.16272,10.9952,9.18592,10.9721,9.18592,10.9721,9.20911,11.7607,9.20911,11.7607,9.23231,11.9463,9.23231,11.9463,9.25551,12.0623,9.25551,12.0623,9.23231,12.2943,9.23231,12.2943,9.20911,12.4334,9.20911,12.4334,9.18592,12.5494,9.18592,12.5494,9.16272,12.5726,9.16272,12.5726,9.13952,12.6886,9.13952,12.6886,9.11633,12.735,9.11633,12.735,9.09313"/>
     <polygon fill="black" stroke-width="0" stroke="none" points="10.9489,9.20911,10.9489,9.23231,10.9257,9.23231,10.9257,9.2787,10.9025,9.2787,10.9025,9.3019,10.8793,9.3019,10.8793,9.3251,10.8561,9.3251,10.8561,9.37149,10.8329,9.37149,10.8329,9.41788,10.8097,9.41788,10.8097,9.46428,10.8329,9.46428,10.8329,9.48747,10.8561,9.48747,10.8561,9.76584,10.8793,9.76584,10.8793,10.1138,10.8561,10.1138,10.8561,10.3226,10.8329,10.3226,10.8329,10.3458,10.8097,10.3458,10.8097,10.3921,10.7865,10.3921,10.7865,10.5081,10.7633,10.5081,10.7633,10.5313,10.7401,10.5313,10.7401,10.5777,10.7169,10.5777,10.7169,10.6241,10.6937,10.6241,10.6937,10.6705,10.6473,10.6705,10.6473,10.7633,10.6241,10.7633,10.6241,10.7865,10.6009,10.7865,10.6009,10.8097,10.5777,10.8097,10.5777,10.8793,10.5313,10.8793,10.5313,10.9257,10.5081,10.9257,10.5081,10.9489,10.4617,10.9489,10.4617,10.9721,10.4385,10.9721,10.4385,11.0185,10.4153,11.0185,10.4153,11.0417,10.3921,11.0417,10.3921,11.0649,10.3689,11.0649,10.3689,11.0881,10.3457,11.0881,10.3457,11.1112,10.3225,11.1112,10.3225,11.1344,10.2993,11.1344,10.2993,11.1808,10.2761,11.1808,10.2761,11.204,10.2298,11.204,10.2298,11.2272,10.2066,11.2272,10.2066,11.2504,10.1834,11.2504,10.1834,11.2736,10.1602,11.2736,10.1602,11.2968,10.0906,11.2968,10.0906,11.32,10.4153,11.32,10.4153,11.2968,10.4617,11.2968,10.4617,11.2736,10.4849,11.2736,10.4849,11.2504,10.5081,11.2504,10.5081,11.2272,10.5545,11.2272,10.5545,11.204,10.5777,11.204,10.5777,11.1576,10.6009,11.1576,10.6009,11.1344,10.6241,11.1344,10.6241,11.1112,10.6473,11.1112,10.6473,11.0649,10.6705,11.0649,10.6705,11.0417,10.6937,11.0417,10.6937,11.0185,10.7169,11.0185,10.7169,10.9953,10.7401,10.9953,10.7401,10.9489,10.7865,10.9489,10.7865,10.8793,10.8097,10.8793,10.8097,10.8561,10.8329,10.8561,10.8329,10.8329,10.8561,10.8329,10.8561,10.7865,10.8793,10.7865,10.8793,10.7401,10.9257,10.7401,10.9257,10.6705,10.9489,10.6705,10.9489,10.6241,10.9721,10.6241,10.9721,10.6009,10.9952,10.6009,10.9952,10.5313,11.0184,10.5313,11.0184,10.4617,11.0416,10.4617,11.0416,10.4153,11.0648,10.4153,11.0648,10.3226,11.088,10.3226,11.088,10.2298,11.1112,10.2298,11.1112,10.1138,11.1344,10.1138,11.1344,9.71944,11.1112,9.71944,11.1112,9.55706,11.088,9.55706,11.088,9.41788,11.0648,9.41788,11.0648,9.34829,11.088,9.34829,11.088,9.3251,11.1112,9.3251,11.1112,9.2787,11.1344,9.2787,11.1344,9.23231,11.1576,9.23231,11.1576,9.20911"/>
     <polygon fill="black" stroke-width="0" stroke="none" points="9.81222,11.204,9.81222,11.2272,9.78902,11.2272,9.78902,11.2504,9.76582,11.2504,9.76582,11.2736,9.74263,11.2736,9.74263,11.2968,9.71943,11.2968,9.71943,11.32,10.0674,11.32,10.0674,11.2968,10.021,11.2968,10.021,11.2504,9.97459,11.2504,9.97459,11.2272,9.905,11.2272,9.905,11.204"/>
     <polygon fill="black" stroke-width="0" stroke="none" points="9.69623,11.32,9.69623,11.3432,10.3921,11.3432,10.3921,11.32"/>
     <polygon fill="black" stroke-width="0" stroke="none" points="9.69623,11.32,9.69623,11.3432,10.3921,11.3432,10.3921,11.32"/>
     <polygon fill="black" stroke-width="0" stroke="none" points="9.67304,11.3432,9.67304,11.3664,9.55705,11.3664,9.55705,11.3896,9.32508,11.3896,9.32508,11.4128,9.9282,11.4128,9.9282,11.436,9.99779,11.436,9.99779,11.4592,10.021,11.4592,10.021,11.4824,10.2066,11.4824,10.2066,11.4592,10.2298,11.4592,10.2298,11.436,10.2993,11.436,10.2993,11.4128,10.3225,11.4128,10.3225,11.3896,10.3457,11.3896,10.3457,11.3664,10.3689,11.3664,10.3689,11.3432"/>
     <polygon fill="black" stroke-width="0" stroke="none" points="9.32508,11.4128,9.32508,13.0134,9.30189,13.0134,9.30189,13.2222,9.27869,13.2222,9.27869,13.3613,9.25549,13.3613,9.25549,13.5237,9.2323,13.5237,9.2323,13.5701,9.2091,13.5701,9.2091,13.6397,9.1859,13.6397,9.1859,13.7325,9.16271,13.7325,9.16271,13.7789,9.13951,13.7789,9.13951,13.8253,9.11631,13.8253,9.11631,13.8949,9.09312,13.8949,9.09312,13.9181,9.04672,13.9181,9.04672,13.9876,9.02353,13.9876,9.02353,14.0108,9.00033,14.0108,9.00033,14.0572,8.97713,14.0572,8.97713,14.1036,8.95394,14.1036,8.95394,14.1268,8.93074,14.1268,8.93074,14.15,8.90754,14.15,8.90754,14.1964,8.88435,14.1964,8.88435,14.2196,8.86115,14.2196,8.86115,14.2428,8.83795,14.2428,8.83795,14.266,8.79156,14.266,8.79156,14.2892,8.76836,14.2892,8.76836,14.3356,8.72197,14.3356,8.72197,14.3588,8.69877,14.3588,8.69877,14.4052,8.65238,14.4052,8.65238,14.4284,8.62918,14.4284,8.62918,14.4748,8.60599,14.4748,8.60599,14.498,8.58279,14.498,8.58279,14.5212,8.55959,14.5212,8.55959,14.5444,8.5364,14.5444,8.5364,14.5676,8.49,14.5676,8.49,14.614,8.44361,14.614,8.44361,14.6372,8.42041,14.6372,8.42041,14.6835,8.37402,14.6835,8.37402,14.7067,8.35082,14.7067,8.35082,14.7531,8.30443,14.7531,8.30443,14.7763,8.28123,14.7763,8.28123,14.8227,8.21164,14.8227,8.21164,14.8923,8.16525,14.8923,8.16525,14.9387,8.14205,14.9387,8.14205,14.9851,8.11885,14.9851,8.11885,15.0083,8.09566,15.0083,8.09566,15.0315,8.07246,15.0315,8.07246,15.1243,8.04926,15.1243,8.04926,15.2171,8.83795,15.2171,8.83795,15.1939,8.65238,15.1939,8.65238,15.1707,8.35082,15.1707,8.35082,15.1475,8.32762,15.1475,8.32762,15.1011,8.35082,15.1011,8.35082,15.0779,8.37402,15.0779,8.37402,15.0547,8.42041,15.0547,8.42041,15.0315,8.44361,15.0315,8.44361,15.0083,8.46681,15.0083,8.46681,14.9851,8.49,14.9851,8.49,14.9619,8.5132,14.9619,8.5132,14.9387,8.5364,14.9387,8.5364,14.9155,8.55959,14.9155,8.55959,14.8923,8.58279,14.8923,8.58279,14.8691,8.60599,14.8691,8.60599,14.8459,8.62918,14.8459,8.62918,14.8227,8.65238,14.8227,8.65238,14.7995,8.67558,14.7995,8.67558,14.7763,8.69877,14.7763,8.69877,14.7531,8.72197,14.7531,8.72197,14.7299,8.74517,14.7299,8.74517,14.7067,8.76836,14.7067,8.76836,14.6835,8.79156,14.6835,8.79156,14.6604,8.81476,14.6604,8.81476,14.6372,8.83795,14.6372,8.83795,14.614,8.86115,14.614,8.86115,14.5908,8.88435,14.5908,8.88435,14.5676,8.90754,14.5676,8.90754,14.5444,8.93074,14.5444,8.93074,14.5212,8.95394,14.5212,8.95394,14.498,8.97713,14.498,8.97713,14.4748,9.00033,14.4748,9.00033,14.4516,9.02353,14.4516,9.02353,14.4052,9.04672,14.4052,9.04672,14.382,9.06992,14.382,9.06992,14.3356,9.11631,14.3356,9.11631,14.2892,9.13951,14.2892,9.13951,14.266,9.16271,14.266,9.16271,14.2196,9.1859,14.2196,9.1859,14.1732,9.2091,14.1732,9.2091,14.15,9.2323,14.15,9.2323,14.1268,9.25549,14.1268,9.25549,14.0572,9.27869,14.0572,9.27869,14.0108,9.30189,14.0108,9.30189,13.9876,9.32508,13.9876,9.32508,13.8717,9.34828,13.8717,9.34828,13.8485,9.37148,13.8485,9.37148,13.7789,9.39467,13.7789,9.39467,13.6397,9.41787,13.6397,9.41787,13.5237,9.44107,13.5237,9.44107,13.3845,9.46426,13.3845,9.46426,11.5288,9.67304,11.5288,9.67304,11.5056,9.81222,11.5056,9.81222,11.4824,9.83541,11.4824,9.83541,11.4592,9.88181,11.4592,9.88181,11.4128"/>
     <polygon fill="black" stroke-width="0" stroke="none" points="9.78902,14.9851,9.78902,15.0083,9.74263,15.0083,9.74263,15.0315,9.67304,15.0315,9.67304,15.0547,9.64984,15.0547,9.64984,15.0779,9.62664,15.0779,9.62664,15.1011,9.53385,15.1011,9.53385,15.1243,9.51066,15.1243,9.51066,15.1475,9.46426,15.1475,9.46426,15.1707,9.34828,15.1707,9.34828,15.1939,9.32508,15.1939,9.32508,15.2171,10.4849,15.2171,10.4849,15.1939,10.4385,15.1939,10.4385,15.1707,10.3225,15.1707,10.3225,15.1475,10.2993,15.1475,10.2993,15.1243,10.2298,15.1243,10.2298,15.1011,10.137,15.1011,10.137,15.0779,10.0674,15.0779,10.0674,15.0547,10.021,15.0547,10.021,15.0315,9.905,15.0315,9.905,15.0083,9.85861,15.0083,9.85861,14.9851"/>
     <polygon fill="black" stroke-width="0" stroke="none" points="8.07246,15.2171,8.07246,15.2403,10.5777,15.2403,10.5777,15.2171"/>
     <polygon fill="black" stroke-width="0" stroke="none" points="8.07246,15.2171,8.07246,15.2403,10.5777,15.2403,10.5777,15.2171"/>
     <polygon fill="black" stroke-width="0" stroke="none" points="8.07246,15.2403,8.07246,15.2867,8.09566,15.2867,8.09566,15.3099,9.9514,15.3099,9.9514,15.3331,9.99779,15.3331,9.99779,15.3563,10.0442,15.3563,10.0442,15.3795,10.1602,15.3795,10.1602,15.4026,10.2298,15.4026,10.2298,15.4258,10.2993,15.4258,10.2993,15.449,10.3921,15.449,10.3921,15.4722,10.4385,15.4722,10.4385,15.4954,10.5081,15.4954,10.5081,15.5186,10.5777,15.5186,10.5777,15.5882,10.5545,15.5882,10.5545,15.6114,10.5313,15.6114,10.5313,15.6346,10.5081,15.6346,10.5081,15.6578,10.4849,15.6578,10.4849,15.681,10.4617,15.681,10.4617,15.7042,10.4385,15.7042,10.4385,15.7274,10.4153,15.7274,10.4153,15.7506,10.3921,15.7506,10.3921,15.7738,10.3689,15.7738,10.3689,15.797,10.3457,15.797,10.3457,15.8202,10.2993,15.8202,10.2993,15.8434,10.0906,15.8434,10.0906,15.8666,9.27869,15.8666,9.27869,15.8898,8.86115,15.8898,8.86115,15.913,8.37402,15.913,8.37402,15.9362,6.84303,15.9362,6.84303,15.9594,10.7401,15.9594,10.7401,15.9362,10.7865,15.9362,10.7865,15.8898,10.8097,15.8898,10.8097,15.8666,10.8561,15.8666,10.8561,15.797,10.9025,15.797,10.9025,15.7506,10.9257,15.7506,10.9257,15.4954,10.9025,15.4954,10.9025,15.449,10.8561,15.449,10.8561,15.4026,10.8329,15.4026,10.8329,15.3795,10.7865,15.3795,10.7865,15.3331,10.7633,15.3331,10.7633,15.3099,10.7169,15.3099,10.7169,15.2867,10.6937,15.2867,10.6937,15.2635,10.6473,15.2635,10.6473,15.2403"/>
     <polygon fill="black" stroke-width="0" stroke="none" points="8.11885,15.3099,8.11885,15.3331,8.14205,15.3331,8.14205,15.3795,8.18844,15.3795,8.18844,15.4026,8.21164,15.4026,8.21164,15.449,8.28123,15.449,8.28123,15.4722,8.37402,15.4722,8.37402,15.4954,8.5364,15.4954,8.5364,15.5186,8.86115,15.5186,8.86115,15.5418,9.06992,15.5418,9.06992,15.565,9.27869,15.565,9.27869,15.5418,9.39467,15.5418,9.39467,15.5186,9.53385,15.5186,9.53385,15.4954,9.58025,15.4954,9.58025,15.4722,9.60344,15.4722,9.60344,15.449,9.69623,15.449,9.69623,15.4258,9.74263,15.4258,9.74263,15.4026,9.76582,15.4026,9.76582,15.3795,9.83541,15.3795,9.83541,15.3563,9.88181,15.3563,9.88181,15.3331,9.905,15.3331,9.905,15.3099"/>
     <polygon fill="black" stroke-width="0" stroke="none" points="4.31459,15.9594,4.31459,15.9826,10.7169,15.9826,10.7169,15.9594"/>
     <polygon fill="black" stroke-width="0" stroke="none" points="4.31459,15.9594,4.31459,15.9826,10.7169,15.9826,10.7169,15.9594"/>
     <polygon fill="black" stroke-width="0" stroke="none" points="4.31459,15.9826,4.31459,16.2609,4.33779,16.2609,4.33779,16.2841,4.36098,16.2841,4.36098,16.3073,4.38418,16.3073,4.38418,16.3305,4.40738,16.3305,4.40738,16.3537,6.81984,16.3537,6.81984,16.3305,7.7709,16.3305,7.7709,16.3073,8.42041,16.3073,8.42041,16.2841,9.37148,16.2841,9.37148,16.2609,9.71943,16.2609,9.71943,16.2377,9.99779,16.2377,9.99779,16.2145,10.4385,16.2145,10.4385,16.1913,10.5313,16.1913,10.5313,16.1681,10.5545,16.1681,10.5545,16.1449,10.5777,16.1449,10.5777,16.0986,10.6009,16.0986,10.6009,16.0754,10.6473,16.0754,10.6473,16.029,10.6705,16.029,10.6705,16.0058,10.7169,16.0058,10.7169,15.9826"/>
    </g>
   </g>
  </g>
 </g>
 <g partID="855195480">
  <g transform="translate(78.4998,77.6647)">
   <g transform="matrix(-1, 0, 0, 1, 57.6831, 0)">
    <g id="copper0" _flipped_="1">
     <text id="label" xml:space="preserve" x="28.8415" fill="black" y="3.24468" xmlns:xml="http://www.w3.org/XML/1998/namespace" stroke-width="0" text-anchor="middle" font-size="3.60519" font-family="OCRA">BikeNav Ver. 1.0</text>
    </g>
   </g>
  </g>
 </g>
 <g partID="855121440">
  <g transform="translate(62.2451,11.0939)">
   <g id="copper0" >
    <circle id="connector0pin" fill="none"  cx="3.01733" cy="3.01733" stroke-width="0.850392" r="0.992124" stroke="black"/>
   </g>
  </g>
 </g>
 <g partID="855123630">
  <g transform="translate(67.2057,23.1411)">
   <g id="copper0" >
    <circle id="connector0pin" fill="none"  cx="3.01733" cy="3.01733" stroke-width="0.850392" r="0.992124" stroke="black"/>
   </g>
  </g>
 </g>
 <g partID="855123660">
  <g transform="translate(60.1191,23.1411)">
   <g id="copper0" >
    <circle id="connector0pin" fill="none"  cx="3.01733" cy="3.01733" stroke-width="0.850392" r="0.992124" stroke="black"/>
   </g>
  </g>
 </g>
 <g partID="855124540">
  <g transform="translate(67.2057,61.4089)">
   <g id="copper0" >
    <circle id="connector0pin" fill="none"  cx="3.01733" cy="3.01733" stroke-width="0.850392" r="0.992124" stroke="black"/>
   </g>
  </g>
 </g>
 <g partID="855124570">
  <g transform="translate(60.1191,61.4089)">
   <g id="copper0" >
    <circle id="connector0pin" fill="none"  cx="3.01733" cy="3.01733" stroke-width="0.850392" r="0.992124" stroke="black"/>
   </g>
  </g>
 </g>
 <g partID="855125370">
  <g transform="translate(29.6467,52.9049)">
   <g id="copper0" >
    <circle id="connector0pin" fill="none"  cx="3.01733" cy="3.01733" stroke-width="0.850392" r="0.992124" stroke="black"/>
   </g>
  </g>
 </g>
 <g partID="855125800">
  <g transform="translate(36.7332,91.8814)">
   <g id="copper0" >
    <circle id="connector0pin" fill="none"  cx="3.01733" cy="3.01733" stroke-width="0.850392" r="0.992124" stroke="black"/>
   </g>
  </g>
 </g>
 <g partID="855127310">
  <g transform="translate(94.1346,92.5902)">
   <g id="copper0" >
    <circle id="connector0pin" fill="none"  cx="3.01733" cy="3.01733" stroke-width="0.850392" r="0.992124" stroke="black"/>
   </g>
  </g>
 </g>
 <g partID="855128370">
  <g transform="translate(87.0482,103.22)">
   <g id="copper0" >
    <circle id="connector0pin" fill="none"  cx="3.01733" cy="3.01733" stroke-width="0.850392" r="0.992124" stroke="black"/>
   </g>
  </g>
 </g>
 <g partID="855128400">
  <g transform="translate(82.0876,103.22)">
   <g id="copper0" >
    <circle id="connector0pin" fill="none"  cx="3.01733" cy="3.01733" stroke-width="0.850392" r="0.992124" stroke="black"/>
   </g>
  </g>
 </g>
 <g partID="855128520">
  <g transform="translate(49.4892,68.4954)">
   <g id="copper0" >
    <circle id="connector0pin" fill="none"  cx="3.01733" cy="3.01733" stroke-width="0.850392" r="0.992124" stroke="black"/>
   </g>
  </g>
 </g>
 <g partID="855128960">
  <g transform="translate(49.4892,75.5821)">
   <g id="copper0" >
    <circle id="connector0pin" fill="none"  cx="3.01733" cy="3.01733" stroke-width="0.850392" r="0.992124" stroke="black"/>
   </g>
  </g>
 </g>
 <g partID="855129710">
  <g transform="translate(85.1074,89.755)">
   <g id="copper0" >
    <circle id="connector0pin" fill="none"  cx="3.01733" cy="3.01733" stroke-width="0.850392" r="0.992124" stroke="black"/>
   </g>
  </g>
 </g>
 <g partID="855129780">
  <g transform="translate(49.4892,80.5427)">
   <g id="copper0" >
    <circle id="connector0pin" fill="none"  cx="3.01733" cy="3.01733" stroke-width="0.850392" r="0.992124" stroke="black"/>
   </g>
  </g>
 </g>
 <g partID="855117690">
  <g transform="translate(89.8826,39.4403)">
   <g id="copper0" >
    <circle id="connector0pin" fill="none"  cx="3.01733" cy="3.01733" stroke-width="0.850392" r="0.992124" stroke="black"/>
   </g>
  </g>
 </g>
 <g partID="854591750">
  <g transform="translate(58.0964,37.5681)">
   <g transform="matrix(2.77556e-17,-1,1,2.77556e-17,0,0)">
    <g id="copper0" >
     <circle id="connector0pin" fill="none"  cx="5.04" cy="5.04" stroke-width="1.44" r="2.088" stroke="black"/>
     <circle id="connector1pin" fill="none"  cx="5.04" cy="12.24" stroke-width="1.44" r="2.088" stroke="black"/>
     <circle id="connector2pin" fill="none"  cx="5.04" cy="19.44" stroke-width="1.44" r="2.088" stroke="black"/>
     <circle id="connector3pin" fill="none"  cx="5.04" cy="26.64" stroke-width="1.44" r="2.088" stroke="black"/>
    </g>
   </g>
  </g>
 </g>
 <g partID="854704410">
  <g transform="translate(58.0964,47.3983)">
   <g transform="matrix(0,-1,1,0,0,0)">
    <g id="copper0" >
     <circle id="connector0pin" fill="none"  cx="5.04" cy="5.04" stroke-width="1.44" r="2.088" stroke="black"/>
     <circle id="connector1pin" fill="none"  cx="5.04" cy="12.24" stroke-width="1.44" r="2.088" stroke="black"/>
     <circle id="connector2pin" fill="none"  cx="5.04" cy="19.44" stroke-width="1.44" r="2.088" stroke="black"/>
     <circle id="connector3pin" fill="none"  cx="5.04" cy="26.64" stroke-width="1.44" r="2.088" stroke="black"/>
    </g>
   </g>
  </g>
 </g>
 <g partID="854637780">
  <g transform="translate(64.852,19.442)">
   <g transform="matrix(-0.909961,0.414693,-0.414693,-0.909961,0,0)">
    <g id="copper0" >
     <circle id="connector0pin" fill="none"  cx="5.04" cy="5.04" stroke-width="1.44" r="2.088" stroke="black"/>
     <circle id="connector1pin" fill="none"  cx="5.04" cy="12.24" stroke-width="1.44" r="2.088" stroke="black"/>
    </g>
   </g>
  </g>
 </g>
 <g partID="854205040">
  <g transform="translate(35.2486,43.587)">
   <g transform="matrix(1,1.11022e-16,-1.11022e-16,1,0,0)">
    <g id="copper0" >
     <circle id="connector0pad" fill="none" connectorname="1"  cx="2.376" cy="5.95728" stroke-width="1.24214" r="1.75493" stroke="black"/>
     <circle id="connector1pad" fill="none" connectorname="2"  cx="13.7146" cy="5.95728" stroke-width="1.24214" r="1.75493" stroke="black"/>
    </g>
   </g>
  </g>
 </g>
 <g partID="855214230">
  <line stroke-linecap="round" y1="116.865" y2="122.937" stroke-width="1.152" x1="69.595" x2="69.3551" stroke="black"/>
 </g>
 <g partID="855213920">
  <line stroke-linecap="round" y1="101.928" y2="116.866" stroke-width="1.152" x1="53.2208" x2="69.595" stroke="black"/>
 </g>
 <g partID="855220870">
  <line stroke-linecap="round" y1="42.4897" y2="39.223" stroke-width="1.152" x1="107.813" x2="107.803" stroke="black"/>
 </g>
 <g partID="855220620">
  <line stroke-linecap="round" y1="42.4597" y2="42.4898" stroke-width="1.152" x1="93.8671" x2="107.814" stroke="black"/>
 </g>
 <g partID="855220490">
  <line stroke-linecap="round" y1="116.865" y2="117.615" stroke-width="1.152" x1="106.315" x2="78.0255" stroke="black"/>
 </g>
 <g partID="855220460">
  <line stroke-linecap="round" y1="117.615" y2="122.937" stroke-width="1.152" x1="78.0255" x2="78.1992" stroke="black"/>
 </g>
 <g partID="855220430">
  <line stroke-linecap="round" y1="110.089" y2="116.865" stroke-width="1.152" x1="106.34" x2="106.315" stroke="black"/>
 </g>
 <g partID="855208550">
  <line stroke-linecap="round" y1="107.666" y2="120.862" stroke-width="1.152" x1="34.0906" x2="33.4216" stroke="black"/>
 </g>
 <g partID="855208280">
  <line stroke-linecap="round" y1="101.257" y2="107.666" stroke-width="1.152" x1="41.8882" x2="34.0906" stroke="black"/>
 </g>
 <g partID="855208010">
  <line stroke-linecap="round" y1="101.275" y2="101.258" stroke-width="1.152" x1="51.5396" x2="41.8882" stroke="black"/>
 </g>
 <g partID="855123340">
  <line stroke-linecap="round" y1="32.4957" y2="41.4908" stroke-width="1.152" x1="92.9698" x2="92.9066" stroke="black"/>
 </g>
 <g partID="855189120">
  <line stroke-linecap="round" y1="14.1214" y2="32.4957" stroke-width="1.152" x1="74.4156" x2="92.9699" stroke="black"/>
 </g>
 <g partID="855123050">
  <line stroke-linecap="round" y1="14.1123" y2="14.1215" stroke-width="1.152" x1="66.2294" x2="74.4156" stroke="black"/>
 </g>
 <g partID="855224500">
  <line stroke-linecap="round" y1="61.5471" y2="64.4858" stroke-width="1.152" x1="56.8344" x2="59.6002" stroke="black"/>
 </g>
 <g partID="855224800">
  <line stroke-linecap="round" y1="64.4858" y2="64.4425" stroke-width="1.152" x1="59.6002" x2="62.1696" stroke="black"/>
 </g>
 <g partID="855224450">
  <line stroke-linecap="round" y1="26.1095" y2="61.5471" stroke-width="1.152" x1="56.8344" x2="56.8344" stroke="black"/>
 </g>
 <g partID="855124720">
  <line stroke-linecap="round" y1="26.1509" y2="26.1095" stroke-width="1.152" x1="62.1695" x2="56.8344" stroke="black"/>
 </g>
 <g partID="855224750">
  <line stroke-linecap="round" y1="67.9431" y2="67.9431" stroke-width="1.152" x1="57.5258" x2="70.1451" stroke="black"/>
 </g>
 <g partID="855224650">
  <line stroke-linecap="round" y1="67.9431" y2="65.3929" stroke-width="1.152" x1="70.1451" x2="70.2016" stroke="black"/>
 </g>
 <g partID="855224700">
  <line stroke-linecap="round" y1="65.1772" y2="67.9431" stroke-width="1.152" x1="54.5871" x2="57.5258" stroke="black"/>
 </g>
 <g partID="855124790">
  <line stroke-linecap="round" y1="25.1919" y2="23.3437" stroke-width="1.152" x1="70.1963" x2="70.1451" stroke="black"/>
 </g>
 <g partID="855224600">
  <line stroke-linecap="round" y1="23.3437" y2="65.1772" stroke-width="1.152" x1="54.5871" x2="54.5871" stroke="black"/>
 </g>
 <g partID="855224550">
  <line stroke-linecap="round" y1="23.3437" y2="23.3437" stroke-width="1.152" x1="70.1451" x2="54.5871" stroke="black"/>
 </g>
 <g partID="855126180">
  <line stroke-linecap="round" y1="94.9374" y2="56.8888" stroke-width="1.152" x1="32.6809" x2="32.6644" stroke="black"/>
 </g>
 <g partID="855125890">
  <line stroke-linecap="round" y1="94.9036" y2="94.9373" stroke-width="1.152" x1="38.7837" x2="32.681" stroke="black"/>
 </g>
 <g partID="855131390">
  <line stroke-linecap="round" y1="110.463" y2="110.463" stroke-width="1.152" x1="97.1826" x2="85.0444" stroke="black"/>
 </g>
 <g partID="855131140">
  <line stroke-linecap="round" y1="110.463" y2="94.9375" stroke-width="1.152" x1="85.0442" x2="68.813" stroke="black"/>
 </g>
 <g partID="855130890">
  <line stroke-linecap="round" y1="94.9374" y2="94.8996" stroke-width="1.152" x1="68.8131" x2="40.7175" stroke="black"/>
 </g>
 <g partID="855128120">
  <line stroke-linecap="round" y1="96.574" y2="110.463" stroke-width="1.152" x1="97.1542" x2="97.1824" stroke="black"/>
 </g>
 <g partID="855128740">
  <line stroke-linecap="round" y1="72.1692" y2="105.581" stroke-width="1.152" x1="53.2165" x2="89.3556" stroke="black"/>
 </g>
 <g partID="855130820">
  <line stroke-linecap="round" y1="78.5653" y2="105.578" stroke-width="1.152" x1="55.4047" x2="84.3975" stroke="black"/>
 </g>
 <g partID="855129240">
  <line stroke-linecap="round" y1="78.5881" y2="78.5654" stroke-width="1.152" x1="53.4734" x2="55.4047" stroke="black"/>
 </g>
 <g partID="855130710">
  <line stroke-linecap="round" y1="67.2741" y2="92.7888" stroke-width="1.152" x1="52.4407" x2="80.1363" stroke="black"/>
 </g>
 <g partID="855130580">
  <line stroke-linecap="round" y1="92.7886" y2="92.7744" stroke-width="1.152" x1="80.1363" x2="87.1578" stroke="black"/>
 </g>
 <g partID="855130490">
  <line stroke-linecap="round" y1="67.2742" y2="67.2741" stroke-width="1.152" x1="47.5008" x2="52.4407" stroke="black"/>
 </g>
 <g partID="855130400">
  <line stroke-linecap="round" y1="83.5054" y2="67.2742" stroke-width="1.152" x1="47.5008" x2="47.5008" stroke="black"/>
 </g>
 <g partID="855130310">
  <line stroke-linecap="round" y1="83.5493" y2="83.5051" stroke-width="1.152" x1="51.5396" x2="47.5008" stroke="black"/>
 </g>
</svg>
