<?xml version='1.0' encoding='UTF-8' standalone='no'?>
<!-- Created with Fritzing (http://www.fritzing.org/) -->
<svg xmlns="http://www.w3.org/2000/svg" version="1.2" x="0in" y="0in" height="2.04724in"  viewBox="0 0 147.402 147.402" baseProfile="tiny" xmlns:svg="http://www.w3.org/2000/svg" width="2.04724in">
 <g partID="854298100">
  <g id="board" >
   <ellipse id="boardoutline" fill="none"  cx="73.7008" stroke-width="0.5" cy="73.7008" fill-opacity="0.5" rx="73.4128" ry="73.4128" stroke="black"/>
  </g>
 </g>
 <g partID="855207101">
  <g transform="translate(49.4892,98.259)">
   <g id="copper1" >
    <circle id="connector0pin" fill="black"  cx="3.01733" cy="3.01733" stroke-width="1.57039" r="0.992124" stroke="black"/>
   </g>
  </g>
 </g>
 <g partID="855207401">
  <g transform="translate(30.3553,118.81)">
   <g id="copper1" >
    <circle id="connector0pin" fill="black"  cx="3.01733" cy="3.01733" stroke-width="1.57039" r="0.992124" stroke="black"/>
   </g>
  </g>
 </g>
 <g partID="855121441">
  <g transform="translate(62.2451,11.0939)">
   <g id="copper1" >
    <circle id="connector0pin" fill="black"  cx="3.01733" cy="3.01733" stroke-width="1.57039" r="0.992124" stroke="black"/>
   </g>
  </g>
 </g>
 <g partID="855123631">
  <g transform="translate(67.2057,23.1411)">
   <g id="copper1" >
    <circle id="connector0pin" fill="black"  cx="3.01733" cy="3.01733" stroke-width="1.57039" r="0.992124" stroke="black"/>
   </g>
  </g>
 </g>
 <g partID="855123661">
  <g transform="translate(60.1191,23.1411)">
   <g id="copper1" >
    <circle id="connector0pin" fill="black"  cx="3.01733" cy="3.01733" stroke-width="1.57039" r="0.992124" stroke="black"/>
   </g>
  </g>
 </g>
 <g partID="855124541">
  <g transform="translate(67.2057,61.4089)">
   <g id="copper1" >
    <circle id="connector0pin" fill="black"  cx="3.01733" cy="3.01733" stroke-width="1.57039" r="0.992124" stroke="black"/>
   </g>
  </g>
 </g>
 <g partID="855124571">
  <g transform="translate(60.1191,61.4089)">
   <g id="copper1" >
    <circle id="connector0pin" fill="black"  cx="3.01733" cy="3.01733" stroke-width="1.57039" r="0.992124" stroke="black"/>
   </g>
  </g>
 </g>
 <g partID="855125371">
  <g transform="translate(29.6467,52.9049)">
   <g id="copper1" >
    <circle id="connector0pin" fill="black"  cx="3.01733" cy="3.01733" stroke-width="1.57039" r="0.992124" stroke="black"/>
   </g>
  </g>
 </g>
 <g partID="855125801">
  <g transform="translate(36.7332,91.8814)">
   <g id="copper1" >
    <circle id="connector0pin" fill="black"  cx="3.01733" cy="3.01733" stroke-width="1.57039" r="0.992124" stroke="black"/>
   </g>
  </g>
 </g>
 <g partID="855127311">
  <g transform="translate(94.1346,92.5902)">
   <g id="copper1" >
    <circle id="connector0pin" fill="black"  cx="3.01733" cy="3.01733" stroke-width="1.57039" r="0.992124" stroke="black"/>
   </g>
  </g>
 </g>
 <g partID="855128371">
  <g transform="translate(87.0482,103.22)">
   <g id="copper1" >
    <circle id="connector0pin" fill="black"  cx="3.01733" cy="3.01733" stroke-width="1.57039" r="0.992124" stroke="black"/>
   </g>
  </g>
 </g>
 <g partID="855128401">
  <g transform="translate(82.0876,103.22)">
   <g id="copper1" >
    <circle id="connector0pin" fill="black"  cx="3.01733" cy="3.01733" stroke-width="1.57039" r="0.992124" stroke="black"/>
   </g>
  </g>
 </g>
 <g partID="855128521">
  <g transform="translate(49.4892,68.4954)">
   <g id="copper1" >
    <circle id="connector0pin" fill="black"  cx="3.01733" cy="3.01733" stroke-width="1.57039" r="0.992124" stroke="black"/>
   </g>
  </g>
 </g>
 <g partID="855128961">
  <g transform="translate(49.4892,75.5821)">
   <g id="copper1" >
    <circle id="connector0pin" fill="black"  cx="3.01733" cy="3.01733" stroke-width="1.57039" r="0.992124" stroke="black"/>
   </g>
  </g>
 </g>
 <g partID="855129711">
  <g transform="translate(85.1074,89.755)">
   <g id="copper1" >
    <circle id="connector0pin" fill="black"  cx="3.01733" cy="3.01733" stroke-width="1.57039" r="0.992124" stroke="black"/>
   </g>
  </g>
 </g>
 <g partID="855129781">
  <g transform="translate(49.4892,80.5427)">
   <g id="copper1" >
    <circle id="connector0pin" fill="black"  cx="3.01733" cy="3.01733" stroke-width="1.57039" r="0.992124" stroke="black"/>
   </g>
  </g>
 </g>
 <g partID="855117691">
  <g transform="translate(89.8826,39.4403)">
   <g id="copper1" >
    <circle id="connector0pin" fill="black"  cx="3.01733" cy="3.01733" stroke-width="1.57039" r="0.992124" stroke="black"/>
   </g>
  </g>
 </g>
 <g partID="855120290">
  <g transform="translate(51.6561,58.7569)">
   <g id="copper1" >
    <rect id="connector0pad" x="0.566929" height="3.11811" y="0.566929" fill="black"  stroke-width="0.72" fill-opacity="1" width="3.40157" stroke="black"/>
    <rect id="connector1pad" x="5.38583" height="3.11811" y="0.566929" fill="black"  stroke-width="0.72" fill-opacity="1" width="3.40157" stroke="black"/>
   </g>
  </g>
 </g>
 <g partID="855003670">
  <g transform="translate(61.0104,109.781)">
   <g id="copper1" >
    <rect id="connector0pin" x="0" height="5.66929" y="4.25197" fill="black"  stroke-width="0.72" fill-opacity="1" style="fill-rule:nonzero;" width="12.7559" stroke="black"/>
    <rect id="connector1pin" x="24.0945" height="5.66929" y="4.25197" fill="black"  stroke-width="0.72" fill-opacity="1" style="fill-rule:nonzero;" width="12.7559" stroke="black"/>
   </g>
  </g>
 </g>
 <g partID="854718240">
  <g transform="translate(137.052,103.669)">
   <g transform="matrix(-0.92388,-0.382684,0.382684,-0.92388,0,0)">
    <g id="copper1" >
     <rect id="connector0pad" x="0.566929" height="4.25197" y="0.566929" fill="black"  stroke-width="0.72" fill-opacity="1" width="3.9685" stroke="black"/>
     <rect id="connector1pad" x="6.37795" height="4.25197" y="0.566929" fill="black"  stroke-width="0.72" fill-opacity="1" width="3.9685" stroke="black"/>
    </g>
   </g>
  </g>
 </g>
 <g partID="854719100">
  <g transform="translate(120.858,125.075)">
   <g transform="matrix(-0.707107,-0.707107,0.707107,-0.707107,0,0)">
    <g id="copper1" >
     <rect id="connector0pad" x="0.566929" height="4.25197" y="0.566929" fill="black"  stroke-width="0.72" fill-opacity="1" width="3.9685" stroke="black"/>
     <rect id="connector1pad" x="6.37795" height="4.25197" y="0.566929" fill="black"  stroke-width="0.72" fill-opacity="1" width="3.9685" stroke="black"/>
    </g>
   </g>
  </g>
 </g>
 <g partID="854719960">
  <g transform="translate(98.6411,139.164)">
   <g transform="matrix(-0.382684,-0.92388,0.92388,-0.382684,0,0)">
    <g id="copper1" >
     <rect id="connector0pad" x="0.566929" height="4.25197" y="0.566929" fill="black"  stroke-width="0.72" fill-opacity="1" width="3.9685" stroke="black"/>
     <rect id="connector1pad" x="6.37795" height="4.25197" y="0.566929" fill="black"  stroke-width="0.72" fill-opacity="1" width="3.9685" stroke="black"/>
    </g>
   </g>
  </g>
 </g>
 <g partID="854720840">
  <g transform="translate(112.977,125.157)">
   <g transform="matrix(-0.829038,0.559193,-0.559193,-0.829038,0,0)">
    <g id="copper1" >
     <rect id="connector0pad" x="0.566929" height="3.11811" y="0.566929" fill="black"  stroke-width="0.72" fill-opacity="1" width="3.40157" stroke="black"/>
     <rect id="connector1pad" x="5.38583" height="3.11811" y="0.566929" fill="black"  stroke-width="0.72" fill-opacity="1" width="3.40157" stroke="black"/>
    </g>
   </g>
  </g>
 </g>
 <g partID="854720940">
  <g transform="translate(129.27,107.123)">
   <g transform="matrix(-0.601815,0.798636,-0.798636,-0.601815,0,0)">
    <g id="copper1" >
     <rect id="connector0pad" x="0.566929" height="3.11811" y="0.566929" fill="black"  stroke-width="0.72" fill-opacity="1" width="3.40157" stroke="black"/>
     <rect id="connector1pad" x="5.38583" height="3.11811" y="0.566929" fill="black"  stroke-width="0.72" fill-opacity="1" width="3.40157" stroke="black"/>
    </g>
   </g>
  </g>
 </g>
 <g partID="854721040">
  <g transform="translate(137.198,83.1129)">
   <g transform="matrix(-0.173648,0.984808,-0.984808,-0.173648,0,0)">
    <g id="copper1" >
     <rect id="connector0pad" x="0.566929" height="3.11811" y="0.566929" fill="black"  stroke-width="0.72" fill-opacity="1" width="3.40157" stroke="black"/>
     <rect id="connector1pad" x="5.38583" height="3.11811" y="0.566929" fill="black"  stroke-width="0.72" fill-opacity="1" width="3.40157" stroke="black"/>
    </g>
   </g>
  </g>
 </g>
 <g partID="854721140">
  <g transform="translate(135.611,57.514)">
   <g transform="matrix(0.207912,0.978148,-0.978148,0.207912,0,0)">
    <g id="copper1" >
     <rect id="connector0pad" x="0.566929" height="3.11811" y="0.566929" fill="black"  stroke-width="0.72" fill-opacity="1" width="3.40157" stroke="black"/>
     <rect id="connector1pad" x="5.38583" height="3.11811" y="0.566929" fill="black"  stroke-width="0.72" fill-opacity="1" width="3.40157" stroke="black"/>
    </g>
   </g>
  </g>
 </g>
 <g partID="854721240">
  <g transform="translate(124.841,35.1916)">
   <g transform="matrix(0.48481,0.87462,-0.87462,0.48481,0,0)">
    <g id="copper1" >
     <rect id="connector0pad" x="0.566929" height="3.11811" y="0.566929" fill="black"  stroke-width="0.72" fill-opacity="1" width="3.40157" stroke="black"/>
     <rect id="connector1pad" x="5.38583" height="3.11811" y="0.566929" fill="black"  stroke-width="0.72" fill-opacity="1" width="3.40157" stroke="black"/>
    </g>
   </g>
  </g>
 </g>
 <g partID="854721340">
  <g transform="translate(106.329,17.471)">
   <g transform="matrix(0.838671,0.544639,-0.544639,0.838671,0,0)">
    <g id="copper1" >
     <rect id="connector0pad" x="0.566929" height="3.11811" y="0.566929" fill="black"  stroke-width="0.72" fill-opacity="1" width="3.40157" stroke="black"/>
     <rect id="connector1pad" x="5.38583" height="3.11811" y="0.566929" fill="black"  stroke-width="0.72" fill-opacity="1" width="3.40157" stroke="black"/>
    </g>
   </g>
  </g>
 </g>
 <g partID="854721540">
  <g transform="translate(143.363,76.9296)">
   <g transform="matrix(-1,0,0,-1,0,0)">
    <g id="copper1" >
     <rect id="connector0pad" x="0.566929" height="4.25197" y="0.566929" fill="black"  stroke-width="0.72" fill-opacity="1" width="3.9685" stroke="black"/>
     <rect id="connector1pad" x="6.37795" height="4.25197" y="0.566929" fill="black"  stroke-width="0.72" fill-opacity="1" width="3.9685" stroke="black"/>
    </g>
   </g>
  </g>
 </g>
 <g partID="854722420">
  <g transform="translate(139.291,50.3167)">
   <g transform="matrix(-0.92388,0.382684,-0.382684,-0.92388,0,0)">
    <g id="copper1" >
     <rect id="connector0pad" x="0.566929" height="4.25197" y="0.566929" fill="black"  stroke-width="0.72" fill-opacity="1" width="3.9685" stroke="black"/>
     <rect id="connector1pad" x="6.37795" height="4.25197" y="0.566929" fill="black"  stroke-width="0.72" fill-opacity="1" width="3.9685" stroke="black"/>
    </g>
   </g>
  </g>
 </g>
 <g partID="854723300">
  <g transform="translate(125.952,26.2031)">
   <g transform="matrix(-0.713251,0.700909,-0.700909,-0.713251,0,0)">
    <g id="copper1" >
     <rect id="connector0pad" x="0.566929" height="4.25197" y="0.566929" fill="black"  stroke-width="0.72" fill-opacity="1" width="3.9685" stroke="black"/>
     <rect id="connector1pad" x="6.37795" height="4.25197" y="0.566929" fill="black"  stroke-width="0.72" fill-opacity="1" width="3.9685" stroke="black"/>
    </g>
   </g>
  </g>
 </g>
 <g partID="854724180">
  <g transform="translate(103.617,10.4775)">
   <g transform="matrix(-0.382684,0.92388,-0.92388,-0.382684,0,0)">
    <g id="copper1" >
     <rect id="connector0pad" x="0.566929" height="4.25197" y="0.566929" fill="black"  stroke-width="0.72" fill-opacity="1" width="3.9685" stroke="black"/>
     <rect id="connector1pad" x="6.37795" height="4.25197" y="0.566929" fill="black"  stroke-width="0.72" fill-opacity="1" width="3.9685" stroke="black"/>
    </g>
   </g>
  </g>
 </g>
 <g partID="854725960">
  <g transform="translate(50.2387,107.654)">
   <g transform="matrix(1,0,0,1,0,0)">
    <g id="copper1" >
     <rect id="connector0pad" x="0.566929" height="3.11811" y="0.566929" fill="black"  stroke-width="0.72" fill-opacity="1" width="3.40157" stroke="black"/>
     <rect id="connector1pad" x="5.38583" height="3.11811" y="0.566929" fill="black"  stroke-width="0.72" fill-opacity="1" width="3.40157" stroke="black"/>
    </g>
   </g>
  </g>
 </g>
 <g partID="854726860">
  <g transform="translate(50.2387,112.615)">
   <g transform="matrix(1,0,0,1,0,0)">
    <g id="copper1" >
     <rect id="connector0pad" x="0.566929" height="3.11811" y="0.566929" fill="black"  stroke-width="0.72" fill-opacity="1" width="3.40157" stroke="black"/>
     <rect id="connector1pad" x="5.38583" height="3.11811" y="0.566929" fill="black"  stroke-width="0.72" fill-opacity="1" width="3.40157" stroke="black"/>
    </g>
   </g>
  </g>
 </g>
 <g partID="854743060">
  <g transform="translate(52.2299,92.6296)">
   <g transform="matrix(0.707107,-0.707107,0.707107,0.707107,0,0)">
    <g id="copper1" >
     <rect id="connector0pad" stroke-linecap="round" x="0" y="5.23899" height="1.584" fill="black" connectorname="1"  stroke-width="0.72" width="3.6" stroke="black"/>
     <rect id="connector1pad" stroke-linecap="round" x="0" y="7.50671" height="1.584" fill="black" connectorname="2"  stroke-width="0.72" width="3.6" stroke="black"/>
     <rect id="connector2pad" stroke-linecap="round" x="0" y="9.77443" height="1.584" fill="black" connectorname="3"  stroke-width="0.72" width="3.6" stroke="black"/>
     <rect id="connector3pad" stroke-linecap="round" x="0" y="12.0421" height="1.584" fill="black" connectorname="4"  stroke-width="0.72" width="3.6" stroke="black"/>
     <rect id="connector4pad" stroke-linecap="round" x="0" y="14.3099" height="1.584" fill="black" connectorname="5"  stroke-width="0.72" width="3.6" stroke="black"/>
     <rect id="connector5pad" stroke-linecap="round" x="0" y="16.5776" height="1.584" fill="black" connectorname="6"  stroke-width="0.72" width="3.6" stroke="black"/>
     <rect id="connector6pad" stroke-linecap="round" x="0" y="18.8453" height="1.584" fill="black" connectorname="7"  stroke-width="0.72" width="3.6" stroke="black"/>
     <rect id="connector7pad" stroke-linecap="round" x="0" y="21.113" height="1.584" fill="black" connectorname="8"  stroke-width="0.72" width="3.6" stroke="black"/>
     <rect id="connector8pad" stroke-linecap="round" x="5.23899" y="24.336" height="3.6" fill="black" connectorname="9"  stroke-width="0.72" width="1.584" stroke="black"/>
     <rect id="connector9pad" stroke-linecap="round" x="7.50671" y="24.336" height="3.6" fill="black" connectorname="10"  stroke-width="0.72" width="1.584" stroke="black"/>
     <rect id="connector10pad" stroke-linecap="round" x="9.77443" y="24.336" height="3.6" fill="black" connectorname="11"  stroke-width="0.72" width="1.584" stroke="black"/>
     <rect id="connector11pad" stroke-linecap="round" x="12.0421" y="24.336" height="3.6" fill="black" connectorname="12"  stroke-width="0.72" width="1.584" stroke="black"/>
     <rect id="connector12pad" stroke-linecap="round" x="14.3099" y="24.336" height="3.6" fill="black" connectorname="13"  stroke-width="0.72" width="1.584" stroke="black"/>
     <rect id="connector13pad" stroke-linecap="round" x="16.5776" y="24.336" height="3.6" fill="black" connectorname="14"  stroke-width="0.72" width="1.584" stroke="black"/>
     <rect id="connector14pad" stroke-linecap="round" x="18.8453" y="24.336" height="3.6" fill="black" connectorname="15"  stroke-width="0.72" width="1.584" stroke="black"/>
     <rect id="connector15pad" stroke-linecap="round" x="21.113" y="24.336" height="3.6" fill="black" connectorname="16"  stroke-width="0.72" width="1.584" stroke="black"/>
     <rect id="connector16pad" stroke-linecap="round" x="24.336" y="21.113" height="1.584" fill="black" connectorname="17"  stroke-width="0.72" width="3.6" stroke="black"/>
     <rect id="connector17pad" stroke-linecap="round" x="24.336" y="18.8453" height="1.584" fill="black" connectorname="18"  stroke-width="0.72" width="3.6" stroke="black"/>
     <rect id="connector18pad" stroke-linecap="round" x="24.336" y="16.5776" height="1.584" fill="black" connectorname="19"  stroke-width="0.72" width="3.6" stroke="black"/>
     <rect id="connector19pad" stroke-linecap="round" x="24.336" y="14.3099" height="1.584" fill="black" connectorname="20"  stroke-width="0.72" width="3.6" stroke="black"/>
     <rect id="connector20pad" stroke-linecap="round" x="24.336" y="12.0421" height="1.584" fill="black" connectorname="21"  stroke-width="0.72" width="3.6" stroke="black"/>
     <rect id="connector21pad" stroke-linecap="round" x="24.336" y="9.77443" height="1.584" fill="black" connectorname="22"  stroke-width="0.72" width="3.6" stroke="black"/>
     <rect id="connector22pad" stroke-linecap="round" x="24.336" y="7.50671" height="1.584" fill="black" connectorname="23"  stroke-width="0.72" width="3.6" stroke="black"/>
     <rect id="connector23pad" stroke-linecap="round" x="24.336" y="5.23899" height="1.584" fill="black" connectorname="24"  stroke-width="0.72" width="3.6" stroke="black"/>
     <rect id="connector24pad" stroke-linecap="round" x="21.113" y="0" height="3.6" fill="black" connectorname="25"  stroke-width="0.72" width="1.584" stroke="black"/>
     <rect id="connector25pad" stroke-linecap="round" x="18.8453" y="0" height="3.6" fill="black" connectorname="26"  stroke-width="0.72" width="1.584" stroke="black"/>
     <rect id="connector26pad" stroke-linecap="round" x="16.5776" y="0" height="3.6" fill="black" connectorname="27"  stroke-width="0.72" width="1.584" stroke="black"/>
     <rect id="connector27pad" stroke-linecap="round" x="14.3099" y="0" height="3.6" fill="black" connectorname="28"  stroke-width="0.72" width="1.584" stroke="black"/>
     <rect id="connector28pad" stroke-linecap="round" x="12.0421" y="0" height="3.6" fill="black" connectorname="29"  stroke-width="0.72" width="1.584" stroke="black"/>
     <rect id="connector29pad" stroke-linecap="round" x="9.77443" y="0" height="3.6" fill="black" connectorname="30"  stroke-width="0.72" width="1.584" stroke="black"/>
     <rect id="connector30pad" stroke-linecap="round" x="7.50671" y="0" height="3.6" fill="black" connectorname="31"  stroke-width="0.72" width="1.584" stroke="black"/>
     <rect id="connector31pad" stroke-linecap="round" x="5.23899" y="0" height="3.6" fill="black" connectorname="32"  stroke-width="0.72" width="1.584" stroke="black"/>
     <g id="copper0" />
    </g>
   </g>
  </g>
 </g>
 <g partID="854685140">
  <g transform="translate(36.8806,120.935)">
   <g transform="matrix(0.838671,0.544639,-0.544639,0.838671,0,0)">
    <g id="copper1" >
     <rect id="connector0pad" x="0.566929" height="3.11811" y="0.566929" fill="black"  stroke-width="0.72" fill-opacity="1" width="3.40157" stroke="black"/>
     <rect id="connector1pad" x="5.38583" height="3.11811" y="0.566929" fill="black"  stroke-width="0.72" fill-opacity="1" width="3.40157" stroke="black"/>
    </g>
   </g>
  </g>
 </g>
 <g partID="854687180">
  <g transform="translate(57.6301,130.829)">
   <g transform="matrix(0.990268,0.139173,-0.139173,0.990268,0,0)">
    <g id="copper1" >
     <rect id="connector0pad" x="0.566929" height="3.11811" y="0.566929" fill="black"  stroke-width="0.72" fill-opacity="1" width="3.40157" stroke="black"/>
     <rect id="connector1pad" x="5.38583" height="3.11811" y="0.566929" fill="black"  stroke-width="0.72" fill-opacity="1" width="3.40157" stroke="black"/>
    </g>
   </g>
  </g>
 </g>
 <g partID="854687280">
  <g transform="translate(14.544,80.9723)">
   <g transform="matrix(0.165048,0.986286,-0.986286,0.165048,0,0)">
    <g id="copper1" >
     <rect id="connector0pad" x="0.566929" height="3.11811" y="0.566929" fill="black"  stroke-width="0.72" fill-opacity="1" width="3.40157" stroke="black"/>
     <rect id="connector1pad" x="5.38583" height="3.11811" y="0.566929" fill="black"  stroke-width="0.72" fill-opacity="1" width="3.40157" stroke="black"/>
    </g>
   </g>
  </g>
 </g>
 <g partID="854687380">
  <g transform="translate(21.0709,103.811)">
   <g transform="matrix(0.587785,0.809017,-0.809017,0.587785,0,0)">
    <g id="copper1" >
     <rect id="connector0pad" x="0.566929" height="3.11811" y="0.566929" fill="black"  stroke-width="0.72" fill-opacity="1" width="3.40157" stroke="black"/>
     <rect id="connector1pad" x="5.38583" height="3.11811" y="0.566929" fill="black"  stroke-width="0.72" fill-opacity="1" width="3.40157" stroke="black"/>
    </g>
   </g>
  </g>
 </g>
 <g partID="854687480">
  <g transform="translate(15.3411,56.9365)">
   <g transform="matrix(-0.190809,0.981627,-0.981627,-0.190809,0,0)">
    <g id="copper1" >
     <rect id="connector0pad" x="0.566929" height="3.11811" y="0.566929" fill="black"  stroke-width="0.72" fill-opacity="1" width="3.40157" stroke="black"/>
     <rect id="connector1pad" x="5.38583" height="3.11811" y="0.566929" fill="black"  stroke-width="0.72" fill-opacity="1" width="3.40157" stroke="black"/>
    </g>
   </g>
  </g>
 </g>
 <g partID="854687580">
  <g transform="translate(71.0734,143.513)">
   <g transform="matrix(0,-1,1,0,0,0)">
    <g id="copper1" >
     <rect id="connector0pad" x="0.566929" height="4.25197" y="0.566929" fill="black"  stroke-width="0.72" fill-opacity="1" width="3.9685" stroke="black"/>
     <rect id="connector1pad" x="6.37795" height="4.25197" y="0.566929" fill="black"  stroke-width="0.72" fill-opacity="1" width="3.9685" stroke="black"/>
    </g>
   </g>
  </g>
 </g>
 <g partID="854689120">
  <g transform="translate(44.9325,136.924)">
   <g transform="matrix(0.382684,-0.92388,0.92388,0.382684,0,0)">
    <g id="copper1" >
     <rect id="connector0pad" x="0.566929" height="4.25197" y="0.566929" fill="black"  stroke-width="0.72" fill-opacity="1" width="3.9685" stroke="black"/>
     <rect id="connector1pad" x="6.37795" height="4.25197" y="0.566929" fill="black"  stroke-width="0.72" fill-opacity="1" width="3.9685" stroke="black"/>
    </g>
   </g>
  </g>
 </g>
 <g partID="854691530">
  <g transform="translate(7.92329,97.6698)">
   <g transform="matrix(0.92388,-0.382684,0.382684,0.92388,0,0)">
    <g id="copper1" >
     <rect id="connector0pad" x="0.566929" height="4.25197" y="0.566929" fill="black"  stroke-width="0.72" fill-opacity="1" width="3.9685" stroke="black"/>
     <rect id="connector1pad" x="6.37795" height="4.25197" y="0.566929" fill="black"  stroke-width="0.72" fill-opacity="1" width="3.9685" stroke="black"/>
    </g>
   </g>
  </g>
 </g>
 <g partID="854692390">
  <g transform="translate(22.5779,121.019)">
   <g transform="matrix(0.707107,-0.707107,0.707107,0.707107,0,0)">
    <g id="copper1" >
     <rect id="connector0pad" x="0.566929" height="4.25197" y="0.566929" fill="black"  stroke-width="0.72" fill-opacity="1" width="3.9685" stroke="black"/>
     <rect id="connector1pad" x="6.37795" height="4.25197" y="0.566929" fill="black"  stroke-width="0.72" fill-opacity="1" width="3.9685" stroke="black"/>
    </g>
   </g>
  </g>
 </g>
 <g partID="854695030">
  <g transform="translate(26.2622,22.3263)">
   <g transform="matrix(0.707107,0.707107,-0.707107,0.707107,0,0)">
    <g id="copper1" >
     <rect id="connector0pad" x="0.566929" height="4.25197" y="0.566929" fill="black"  stroke-width="0.72" fill-opacity="1" width="3.9685" stroke="black"/>
     <rect id="connector1pad" x="6.37795" height="4.25197" y="0.566929" fill="black"  stroke-width="0.72" fill-opacity="1" width="3.9685" stroke="black"/>
    </g>
   </g>
  </g>
 </g>
 <g partID="854695890">
  <g transform="translate(49.0085,61.7037)">
   <g transform="matrix(0,1,-1,0,0,0)">
    <g transform="matrix(1, 0, 0, 1, -0.687661, 0)">
     <g id="copper1">
      <rect id="connector0pin" x="2.304" height="5.76" y="17.424" fill="black" stroke-width="0.72" width="1.872" stroke="black"/>
      <rect id="connector1pin" x="5.904" height="5.76" y="17.424" fill="black" stroke-width="0.72" width="1.872" stroke="black"/>
      <rect id="connector2pin" x="9.504" height="5.76" y="17.424" fill="black" stroke-width="0.72" width="1.872" stroke="black"/>
      <rect id="connector3pin" x="13.104" height="5.76" y="17.424" fill="black" stroke-width="0.72" width="1.872" stroke="black"/>
      <rect id="connector4pin" x="16.704" height="5.76" y="17.424" fill="black" stroke-width="0.72" width="1.872" stroke="black"/>
      <rect id="connector5pin" x="20.304" height="5.76" y="17.424" fill="black" stroke-width="0.72" width="1.872" stroke="black"/>
      <rect id="connector6pin" x="23.904" height="5.76" y="17.424" fill="black" stroke-width="0.72" width="1.872" stroke="black"/>
      <rect id="connector7pin" x="27.504" height="5.76" y="17.424" fill="black" stroke-width="0.72" width="1.872" stroke="black"/>
      <rect id="connector8pin" x="27.504" height="5.76" y="0" fill="black" stroke-width="0.72" width="1.872" stroke="black"/>
      <rect id="connector9pin" x="23.904" height="5.76" y="0" fill="black" stroke-width="0.72" width="1.872" stroke="black"/>
      <rect id="connector10pin" x="20.304" height="5.76" y="0" fill="black" stroke-width="0.72" width="1.872" stroke="black"/>
      <rect id="connector11pin" x="16.704" height="5.76" y="0" fill="black" stroke-width="0.72" width="1.872" stroke="black"/>
      <rect id="connector12pin" x="13.104" height="5.76" y="0" fill="black" stroke-width="0.72" width="1.872" stroke="black"/>
      <rect id="connector13pin" x="9.504" height="5.76" y="0" fill="black" stroke-width="0.72" width="1.872" stroke="black"/>
      <rect id="connector14pin" x="5.904" height="5.76" y="0" fill="black" stroke-width="0.72" width="1.872" stroke="black"/>
      <rect id="connector15pin" x="2.304" height="5.76" y="0" fill="black" stroke-width="0.72" width="1.872" stroke="black"/>
     </g>
    </g>
   </g>
  </g>
 </g>
 <g partID="854697710">
  <g transform="translate(94.2722,92.6604)">
   <g transform="matrix(0,-1,1,0,0,0)">
    <g transform="matrix(1, 0, 0, 1, -0.687661, 0)">
     <g id="copper1">
      <rect id="connector0pin" x="2.304" height="5.76" y="17.424" fill="black" stroke-width="0.72" width="1.872" stroke="black"/>
      <rect id="connector1pin" x="5.904" height="5.76" y="17.424" fill="black" stroke-width="0.72" width="1.872" stroke="black"/>
      <rect id="connector2pin" x="9.504" height="5.76" y="17.424" fill="black" stroke-width="0.72" width="1.872" stroke="black"/>
      <rect id="connector3pin" x="13.104" height="5.76" y="17.424" fill="black" stroke-width="0.72" width="1.872" stroke="black"/>
      <rect id="connector4pin" x="16.704" height="5.76" y="17.424" fill="black" stroke-width="0.72" width="1.872" stroke="black"/>
      <rect id="connector5pin" x="20.304" height="5.76" y="17.424" fill="black" stroke-width="0.72" width="1.872" stroke="black"/>
      <rect id="connector6pin" x="23.904" height="5.76" y="17.424" fill="black" stroke-width="0.72" width="1.872" stroke="black"/>
      <rect id="connector7pin" x="27.504" height="5.76" y="17.424" fill="black" stroke-width="0.72" width="1.872" stroke="black"/>
      <rect id="connector8pin" x="27.504" height="5.76" y="0" fill="black" stroke-width="0.72" width="1.872" stroke="black"/>
      <rect id="connector9pin" x="23.904" height="5.76" y="0" fill="black" stroke-width="0.72" width="1.872" stroke="black"/>
      <rect id="connector10pin" x="20.304" height="5.76" y="0" fill="black" stroke-width="0.72" width="1.872" stroke="black"/>
      <rect id="connector11pin" x="16.704" height="5.76" y="0" fill="black" stroke-width="0.72" width="1.872" stroke="black"/>
      <rect id="connector12pin" x="13.104" height="5.76" y="0" fill="black" stroke-width="0.72" width="1.872" stroke="black"/>
      <rect id="connector13pin" x="9.504" height="5.76" y="0" fill="black" stroke-width="0.72" width="1.872" stroke="black"/>
      <rect id="connector14pin" x="5.904" height="5.76" y="0" fill="black" stroke-width="0.72" width="1.872" stroke="black"/>
      <rect id="connector15pin" x="2.304" height="5.76" y="0" fill="black" stroke-width="0.72" width="1.872" stroke="black"/>
     </g>
    </g>
   </g>
  </g>
 </g>
 <g partID="854699610">
  <g transform="translate(10.0691,44.0903)">
   <g transform="matrix(0.92388,0.382684,-0.382684,0.92388,0,0)">
    <g id="copper1" >
     <rect id="connector0pad" x="0.566929" height="4.25197" y="0.566929" fill="black"  stroke-width="0.72" fill-opacity="1" width="3.9685" stroke="black"/>
     <rect id="connector1pad" x="6.37795" height="4.25197" y="0.566929" fill="black"  stroke-width="0.72" fill-opacity="1" width="3.9685" stroke="black"/>
    </g>
   </g>
  </g>
 </g>
 <g partID="854700470">
  <g transform="translate(25.7849,36.1502)">
   <g transform="matrix(-0.573577,0.819153,-0.819153,-0.573577,0,0)">
    <g id="copper1" >
     <rect id="connector0pad" x="0.566929" height="3.11811" y="0.566929" fill="black"  stroke-width="0.72" fill-opacity="1" width="3.40157" stroke="black"/>
     <rect id="connector1pad" x="5.38583" height="3.11811" y="0.566929" fill="black"  stroke-width="0.72" fill-opacity="1" width="3.40157" stroke="black"/>
    </g>
   </g>
  </g>
 </g>
 <g partID="854700570">
  <g transform="translate(42.1108,23.1095)">
   <g transform="matrix(-0.829038,0.559193,-0.559193,-0.829038,0,0)">
    <g id="copper1" >
     <rect id="connector0pad" x="0.566929" height="3.11811" y="0.566929" fill="black"  stroke-width="0.72" fill-opacity="1" width="3.40157" stroke="black"/>
     <rect id="connector1pad" x="5.38583" height="3.11811" y="0.566929" fill="black"  stroke-width="0.72" fill-opacity="1" width="3.40157" stroke="black"/>
    </g>
   </g>
  </g>
 </g>
 <g partID="854700690">
  <g transform="translate(49.4246,7.91068)">
   <g transform="matrix(0.414693,0.909962,-0.909962,0.414693,0,0)">
    <g id="copper1" >
     <rect id="connector0pad" x="0.566929" height="4.25197" y="0.566929" fill="black"  stroke-width="0.72" fill-opacity="1" width="3.9685" stroke="black"/>
     <rect id="connector1pad" x="6.37795" height="4.25197" y="0.566929" fill="black"  stroke-width="0.72" fill-opacity="1" width="3.9685" stroke="black"/>
    </g>
   </g>
  </g>
 </g>
 <g partID="854701550">
  <g transform="translate(46.2155,25.8818)">
   <g transform="matrix(-0.382684,-0.92388,0.92388,-0.382684,0,0)">
    <g id="copper1" >
     <rect id="connector0pad" x="0.566929" height="3.11811" y="0.566929" fill="black"  stroke-width="0.72" fill-opacity="1" width="3.40157" stroke="black"/>
     <rect id="connector1pad" x="5.38583" height="3.11811" y="0.566929" fill="black"  stroke-width="0.72" fill-opacity="1" width="3.40157" stroke="black"/>
    </g>
   </g>
  </g>
 </g>
 <g partID="854701650">
  <g transform="translate(4.29315,70.8292)">
   <g transform="matrix(1,0,0,1,0,0)">
    <g id="copper1" >
     <rect id="connector0pad" x="0.566929" height="4.25197" y="0.566929" fill="black"  stroke-width="0.72" fill-opacity="1" width="3.9685" stroke="black"/>
     <rect id="connector1pad" x="6.37795" height="4.25197" y="0.566929" fill="black"  stroke-width="0.72" fill-opacity="1" width="3.9685" stroke="black"/>
    </g>
   </g>
  </g>
 </g>
 <g partID="854713980">
  <g transform="translate(78.727,19.9223)">
   <g transform="matrix(5.89806e-17,-1,1,5.89806e-17,0,0)">
    <g id="copper1" >
     <rect id="connector0pad" x="0.566929" height="3.11811" y="0.566929" fill="black"  stroke-width="0.72" fill-opacity="1" width="3.40157" stroke="black"/>
     <rect id="connector1pad" x="5.38583" height="3.11811" y="0.566929" fill="black"  stroke-width="0.72" fill-opacity="1" width="3.40157" stroke="black"/>
    </g>
   </g>
  </g>
 </g>
 <g partID="854725040">
  <g transform="translate(76.6999,3.57554)">
   <g transform="matrix(0,1,-1,0,0,0)">
    <g id="copper1" >
     <rect id="connector0pad" x="0.566929" height="4.25197" y="0.566929" fill="black"  stroke-width="0.72" fill-opacity="1" width="3.9685" stroke="black"/>
     <rect id="connector1pad" x="6.37795" height="4.25197" y="0.566929" fill="black"  stroke-width="0.72" fill-opacity="1" width="3.9685" stroke="black"/>
    </g>
   </g>
  </g>
 </g>
 <g partID="854721440">
  <g transform="translate(85.4548,10.8515)">
   <g transform="matrix(0.978148,0.207912,-0.207912,0.978148,0,0)">
    <g id="copper1" >
     <rect id="connector0pad" x="0.566929" height="3.11811" y="0.566929" fill="black"  stroke-width="0.72" fill-opacity="1" width="3.40157" stroke="black"/>
     <rect id="connector1pad" x="5.38583" height="3.11811" y="0.566929" fill="black"  stroke-width="0.72" fill-opacity="1" width="3.40157" stroke="black"/>
    </g>
   </g>
  </g>
 </g>
 <g partID="855071450">
  <g transform="translate(41.0262,37.497)">
   <g id="copper1" >
    <rect id="connector0pad" x="0.566929" height="3.11811" y="0.566929" fill="black"  stroke-width="0.72" fill-opacity="1" width="3.40157" stroke="black"/>
    <rect id="connector1pad" x="5.38583" height="3.11811" y="0.566929" fill="black"  stroke-width="0.72" fill-opacity="1" width="3.40157" stroke="black"/>
   </g>
  </g>
 </g>
 <g partID="854591752">
  <g transform="translate(58.0964,37.5681)">
   <g transform="matrix(2.77556e-17,-1,1,2.77556e-17,0,0)">
    <g id="copper1" >
     <g id="copper0" >
      <circle id="connector0pin" fill="black"  cx="5.04" cy="5.04" stroke-width="2.16" r="2.088" stroke="black"/>
      <circle id="connector1pin" fill="black"  cx="5.04" cy="12.24" stroke-width="2.16" r="2.088" stroke="black"/>
      <circle id="connector2pin" fill="black"  cx="5.04" cy="19.44" stroke-width="2.16" r="2.088" stroke="black"/>
      <circle id="connector3pin" fill="black"  cx="5.04" cy="26.64" stroke-width="2.16" r="2.088" stroke="black"/>
     </g>
    </g>
   </g>
  </g>
 </g>
 <g partID="854704412">
  <g transform="translate(58.0964,47.3983)">
   <g transform="matrix(0,-1,1,0,0,0)">
    <g id="copper1" >
     <g id="copper0" >
      <circle id="connector0pin" fill="black"  cx="5.04" cy="5.04" stroke-width="2.16" r="2.088" stroke="black"/>
      <circle id="connector1pin" fill="black"  cx="5.04" cy="12.24" stroke-width="2.16" r="2.088" stroke="black"/>
      <circle id="connector2pin" fill="black"  cx="5.04" cy="19.44" stroke-width="2.16" r="2.088" stroke="black"/>
      <circle id="connector3pin" fill="black"  cx="5.04" cy="26.64" stroke-width="2.16" r="2.088" stroke="black"/>
     </g>
    </g>
   </g>
  </g>
 </g>
 <g partID="854637782">
  <g transform="translate(64.852,19.442)">
   <g transform="matrix(-0.909961,0.414693,-0.414693,-0.909961,0,0)">
    <g id="copper1" >
     <g id="copper0" >
      <circle id="connector0pin" fill="black"  cx="5.04" cy="5.04" stroke-width="2.16" r="2.088" stroke="black"/>
      <circle id="connector1pin" fill="black"  cx="5.04" cy="12.24" stroke-width="2.16" r="2.088" stroke="black"/>
     </g>
    </g>
   </g>
  </g>
 </g>
 <g partID="854205042">
  <g transform="translate(35.2486,43.587)">
   <g transform="matrix(1,1.11022e-16,-1.11022e-16,1,0,0)">
    <g id="copper1" >
     <circle id="connector0pad" fill="black" connectorname="1"  cx="2.376" cy="5.95728" stroke-width="1.96214" r="1.75493" stroke="black"/>
     <circle id="connector1pad" fill="black" connectorname="2"  cx="13.7146" cy="5.95728" stroke-width="1.96214" r="1.75493" stroke="black"/>
     <g id="copper0" >
      <circle id="connector0pad" fill="black" connectorname="1"  cx="2.376" cy="5.95728" stroke-width="1.96214" r="1.75493" stroke="black"/>
      <circle id="connector1pad" fill="black" connectorname="2"  cx="13.7146" cy="5.95728" stroke-width="1.96214" r="1.75493" stroke="black"/>
     </g>
    </g>
   </g>
  </g>
 </g>
</svg>
