G04 MADE WITH FRITZING*
G04 WWW.FRITZING.ORG*
G04 DOUBLE SIDED*
G04 HOLES PLATED*
G04 CONTOUR ON CENTER OF CONTOUR VECTOR*
%ASAXBY*%
%FSLAX23Y23*%
%MOIN*%
%OFA0B0*%
%SFA1.0B1.0*%
%ADD10C,0.039370*%
%ADD11C,0.078000*%
%ADD12C,0.066000*%
%ADD13R,0.047244X0.043307*%
%ADD14R,0.177165X0.078740*%
%ADD15R,0.055118X0.059055*%
%ADD16R,0.059055X0.055118*%
%ADD17R,0.080000X0.026000*%
%ADD18C,0.016000*%
%LNCOPPER1*%
G90*
G70*
G54D10*
X729Y641D03*
X464Y355D03*
X906Y1851D03*
X975Y1684D03*
X877Y1684D03*
X975Y1152D03*
X877Y1152D03*
X454Y1271D03*
X552Y729D03*
X1349Y719D03*
X1251Y572D03*
X1182Y572D03*
X729Y1054D03*
X729Y956D03*
X1224Y759D03*
X729Y887D03*
X1290Y1458D03*
G54D11*
X877Y1595D03*
X977Y1595D03*
X1077Y1595D03*
X1177Y1595D03*
X877Y1459D03*
X977Y1459D03*
X1077Y1459D03*
X1177Y1459D03*
X808Y1812D03*
X767Y1903D03*
G54D12*
X523Y1359D03*
X680Y1359D03*
X523Y1359D03*
X680Y1359D03*
G54D13*
X749Y1202D03*
X816Y1202D03*
G54D14*
X936Y424D03*
X1271Y424D03*
G54D15*
X1956Y1016D03*
X1875Y1016D03*
G54D13*
X729Y523D03*
X796Y523D03*
X729Y454D03*
X796Y454D03*
G54D16*
X1025Y89D03*
X1025Y170D03*
G54D17*
X399Y1155D03*
X399Y1105D03*
X399Y1055D03*
X399Y1005D03*
X399Y955D03*
X399Y905D03*
X399Y855D03*
X399Y805D03*
X641Y805D03*
X641Y855D03*
X641Y905D03*
X641Y955D03*
X641Y1005D03*
X641Y1055D03*
X641Y1105D03*
X641Y1155D03*
X1591Y796D03*
X1591Y846D03*
X1591Y896D03*
X1591Y946D03*
X1591Y996D03*
X1591Y1046D03*
X1591Y1096D03*
X1591Y1146D03*
X1349Y1146D03*
X1349Y1096D03*
X1349Y1046D03*
X1349Y996D03*
X1349Y946D03*
X1349Y896D03*
X1349Y846D03*
X1349Y796D03*
G54D15*
X95Y1026D03*
X176Y1026D03*
G54D16*
X1028Y1962D03*
X1028Y1881D03*
G54D13*
X601Y1497D03*
X668Y1497D03*
G54D18*
X641Y406D02*
X641Y797D01*
D02*
X444Y316D02*
X457Y343D01*
D02*
X386Y352D02*
X444Y316D01*
D02*
X729Y539D02*
X729Y627D01*
D02*
X966Y660D02*
X927Y622D01*
D02*
X926Y700D02*
X966Y660D01*
D02*
X729Y552D02*
X798Y621D01*
D02*
X729Y539D02*
X729Y552D01*
D02*
X798Y621D02*
X834Y660D01*
D02*
X1300Y523D02*
X1300Y621D01*
D02*
X1241Y523D02*
X1300Y523D01*
D02*
X1300Y621D02*
X1260Y660D01*
D02*
X1260Y660D02*
X1260Y848D01*
D02*
X1260Y848D02*
X1231Y886D01*
D02*
X1231Y886D02*
X1300Y995D01*
D02*
X1300Y995D02*
X1315Y995D01*
D02*
X1192Y563D02*
X1241Y523D01*
D02*
X1290Y1595D02*
X1290Y1471D01*
D02*
X1201Y1595D02*
X1290Y1595D01*
D02*
X976Y1671D02*
X976Y1620D01*
D02*
X877Y1670D02*
X877Y1620D01*
D02*
X831Y1821D02*
X894Y1846D01*
D02*
X779Y878D02*
X779Y1152D01*
D02*
X812Y839D02*
X779Y878D01*
D02*
X779Y1152D02*
X863Y1152D01*
D02*
X606Y856D02*
X552Y857D01*
D02*
X552Y857D02*
X552Y743D01*
D02*
X523Y1270D02*
X467Y1270D01*
D02*
X975Y1103D02*
X975Y1139D01*
D02*
X809Y1103D02*
X975Y1103D01*
D02*
X834Y861D02*
X809Y887D01*
D02*
X809Y887D02*
X809Y1103D01*
D02*
X716Y1054D02*
X675Y1054D01*
D02*
X1349Y788D02*
X1349Y733D01*
D02*
X1291Y897D02*
X1315Y897D01*
D02*
X1291Y670D02*
X1291Y897D01*
D02*
X1477Y670D02*
X1291Y670D01*
D02*
X1477Y366D02*
X1477Y670D01*
D02*
X1340Y295D02*
X1477Y366D01*
D02*
X1103Y266D02*
X1340Y295D01*
D02*
X848Y276D02*
X1103Y266D01*
D02*
X799Y325D02*
X848Y276D01*
D02*
X641Y406D02*
X799Y325D01*
D02*
X1108Y630D02*
X1113Y631D01*
D02*
X1113Y631D02*
X1172Y580D01*
D02*
X675Y955D02*
X716Y955D01*
D02*
X1252Y621D02*
X1251Y585D01*
D02*
X1188Y683D02*
X1191Y680D01*
D02*
X1191Y680D02*
X1252Y621D01*
D02*
X1200Y798D02*
X1217Y770D01*
D02*
X699Y907D02*
X675Y906D01*
D02*
X718Y894D02*
X699Y907D01*
D02*
X1192Y896D02*
X1232Y838D01*
D02*
X1232Y838D02*
X1211Y816D01*
D02*
X1315Y1045D02*
X1290Y1044D01*
D02*
X1290Y1044D02*
X1192Y896D01*
D02*
X926Y700D02*
X884Y665D01*
D02*
X798Y758D02*
X867Y759D01*
D02*
X690Y857D02*
X798Y758D01*
D02*
X675Y856D02*
X690Y857D01*
D02*
X867Y759D02*
X926Y700D01*
D02*
X838Y582D02*
X798Y621D01*
D02*
X877Y617D02*
X838Y582D01*
D02*
X798Y621D02*
X834Y660D01*
D02*
X1083Y828D02*
X1116Y856D01*
D02*
X1133Y778D02*
X1083Y828D01*
D02*
X1115Y857D02*
X985Y749D01*
D02*
X985Y749D02*
X884Y665D01*
D02*
X1162Y810D02*
X1133Y778D01*
D02*
X936Y523D02*
X814Y523D01*
D02*
X936Y458D02*
X936Y523D01*
D02*
X838Y355D02*
X803Y438D01*
D02*
X1202Y355D02*
X838Y355D01*
D02*
X1237Y390D02*
X1202Y355D01*
D02*
X1202Y493D02*
X966Y493D01*
D02*
X966Y493D02*
X965Y543D01*
D02*
X965Y543D02*
X960Y557D01*
D02*
X907Y552D02*
X923Y571D01*
D02*
X937Y522D02*
X907Y552D01*
D02*
X1237Y458D02*
X1202Y493D01*
D02*
X936Y458D02*
X937Y522D01*
D02*
X1614Y1261D02*
X1614Y1231D01*
D02*
X1133Y996D02*
X1078Y949D01*
D02*
X1281Y1231D02*
X1133Y996D01*
D02*
X1614Y1231D02*
X1281Y1231D01*
D02*
X1526Y1448D02*
X1614Y1261D01*
D02*
X1507Y1202D02*
X1300Y1202D01*
D02*
X1300Y1202D02*
X1119Y908D01*
D02*
X1507Y1142D02*
X1507Y1202D01*
D02*
X1005Y1527D02*
X877Y1527D01*
D02*
X877Y1527D02*
X877Y1483D01*
D02*
X1059Y1578D02*
X1005Y1527D01*
D02*
X818Y1703D02*
X937Y1763D01*
D02*
X1359Y1665D02*
X1526Y1448D01*
D02*
X937Y1763D02*
X1152Y1753D01*
D02*
X748Y1458D02*
X852Y1459D01*
D02*
X601Y1290D02*
X750Y1290D01*
D02*
X750Y1290D02*
X748Y1458D01*
D02*
X601Y1481D02*
X601Y1290D01*
D02*
X1152Y1753D02*
X1359Y1665D01*
D02*
X672Y1599D02*
X818Y1703D01*
D02*
X669Y1513D02*
X672Y1599D01*
D02*
X868Y1044D02*
X1083Y1044D01*
D02*
X1083Y1044D02*
X1201Y1230D01*
D02*
X1201Y1230D02*
X1073Y1230D01*
D02*
X1073Y1230D02*
X1076Y1434D01*
D02*
X896Y936D02*
X896Y1015D01*
D02*
X868Y916D02*
X868Y1044D01*
D02*
X896Y1015D02*
X1103Y1015D01*
D02*
X1103Y1015D02*
X1261Y1261D01*
D02*
X1261Y1261D02*
X1172Y1262D01*
D02*
X902Y929D02*
X896Y936D01*
D02*
X1172Y1262D02*
X1176Y1434D01*
D02*
X1315Y1094D02*
X1281Y1093D01*
D02*
X1281Y1093D02*
X1141Y886D01*
D02*
X878Y906D02*
X868Y916D01*
D02*
X1053Y1527D02*
X1103Y1527D01*
D02*
X1103Y1527D02*
X1159Y1579D01*
D02*
X995Y1475D02*
X1053Y1527D01*
D02*
X838Y1074D02*
X1064Y1074D01*
D02*
X1064Y1074D02*
X1142Y1201D01*
D02*
X1142Y1201D02*
X837Y1202D01*
D02*
X838Y897D02*
X838Y1074D01*
D02*
X855Y882D02*
X838Y897D01*
D02*
X837Y1202D02*
X834Y1202D01*
D02*
X642Y1202D02*
X731Y1202D01*
D02*
X640Y1202D02*
X642Y1202D01*
D02*
X1664Y583D02*
X1654Y650D01*
D02*
X1654Y650D02*
X1674Y710D01*
D02*
X1674Y710D02*
X1466Y710D01*
D02*
X1466Y710D02*
X1466Y848D01*
D02*
X1506Y425D02*
X1664Y583D01*
D02*
X1466Y848D02*
X1384Y846D01*
D02*
X1389Y1693D02*
X1566Y1458D01*
D02*
X1566Y1458D02*
X1654Y1261D01*
D02*
X1654Y1261D02*
X1654Y1093D01*
D02*
X1654Y1093D02*
X1626Y1094D01*
D02*
X1694Y1043D02*
X1626Y1045D01*
D02*
X1694Y1271D02*
X1694Y1043D01*
D02*
X1596Y1478D02*
X1694Y1271D01*
D02*
X1419Y1724D02*
X1596Y1478D01*
D02*
X1734Y995D02*
X1626Y996D01*
D02*
X1734Y1281D02*
X1734Y995D01*
D02*
X1634Y1488D02*
X1734Y1281D01*
D02*
X1772Y1221D02*
X1772Y945D01*
D02*
X1734Y650D02*
X1792Y798D01*
D02*
X1792Y798D02*
X1626Y796D01*
D02*
X1802Y848D02*
X1854Y862D01*
D02*
X1772Y945D02*
X1626Y946D01*
D02*
X1812Y895D02*
X1626Y896D01*
D02*
X1144Y1801D02*
X1389Y1693D01*
D02*
X1139Y1801D02*
X1144Y1801D01*
D02*
X1192Y1822D02*
X1419Y1724D01*
D02*
X1204Y1846D02*
X1192Y1822D01*
D02*
X1466Y1724D02*
X1634Y1488D01*
D02*
X1480Y1748D02*
X1466Y1724D01*
D02*
X1762Y1311D02*
X1772Y1221D01*
D02*
X1674Y1488D02*
X1762Y1311D01*
D02*
X1709Y1509D02*
X1674Y1488D01*
D02*
X1812Y1191D02*
X1812Y895D01*
D02*
X1846Y1205D02*
X1812Y1191D01*
D02*
X1626Y846D02*
X1802Y848D01*
D02*
X1749Y573D02*
X1734Y650D01*
D02*
X1523Y333D02*
X1506Y425D01*
D02*
X729Y470D02*
X729Y506D01*
D02*
X1094Y237D02*
X828Y247D01*
D02*
X828Y247D02*
X788Y295D01*
D02*
X1094Y110D02*
X1094Y237D01*
D02*
X591Y385D02*
X581Y443D01*
D02*
X788Y295D02*
X591Y385D01*
D02*
X581Y443D02*
X423Y600D01*
D02*
X376Y798D02*
X399Y805D01*
D02*
X423Y600D02*
X376Y798D01*
D02*
X1049Y97D02*
X1094Y110D01*
D02*
X1507Y1142D02*
X1557Y1144D01*
D02*
X1506Y748D02*
X1507Y1142D01*
D02*
X1704Y573D02*
X1694Y650D01*
D02*
X1694Y650D02*
X1724Y749D01*
D02*
X1724Y749D02*
X1506Y748D01*
D02*
X1546Y415D02*
X1704Y573D01*
D02*
X1634Y325D02*
X1546Y415D01*
D02*
X1661Y347D02*
X1634Y325D01*
D02*
X1506Y945D02*
X1506Y1143D01*
D02*
X1384Y946D02*
X1506Y945D01*
D02*
X1506Y1143D02*
X1557Y1145D01*
D02*
X513Y1002D02*
X513Y806D01*
D02*
X606Y1004D02*
X513Y1002D01*
D02*
X513Y806D02*
X433Y805D01*
D02*
X746Y1890D02*
X748Y1891D01*
D02*
X748Y1891D02*
X693Y1890D01*
D02*
X523Y1103D02*
X523Y1191D01*
D02*
X326Y1191D02*
X326Y1251D01*
D02*
X523Y1191D02*
X326Y1191D01*
D02*
X483Y1576D02*
X644Y1717D01*
D02*
X425Y1478D02*
X483Y1576D01*
D02*
X326Y1251D02*
X425Y1478D01*
D02*
X606Y1104D02*
X523Y1103D01*
D02*
X758Y277D02*
X812Y215D01*
D02*
X563Y365D02*
X758Y277D01*
D02*
X553Y425D02*
X563Y365D01*
D02*
X396Y583D02*
X553Y425D01*
D02*
X513Y415D02*
X366Y563D01*
D02*
X366Y563D02*
X275Y905D01*
D02*
X238Y895D02*
X258Y955D01*
D02*
X296Y1261D02*
X295Y1153D01*
D02*
X326Y858D02*
X396Y583D01*
D02*
X275Y905D02*
X364Y905D01*
D02*
X258Y955D02*
X364Y955D01*
D02*
X295Y1153D02*
X364Y1154D01*
D02*
X265Y1103D02*
X364Y1104D01*
D02*
X238Y1005D02*
X364Y1005D01*
D02*
X238Y1053D02*
X364Y1054D01*
D02*
X364Y856D02*
X326Y858D01*
D02*
X520Y346D02*
X513Y415D01*
D02*
X315Y610D02*
X238Y895D01*
D02*
X296Y578D02*
X315Y610D01*
D02*
X188Y907D02*
X238Y1005D01*
D02*
X218Y1211D02*
X238Y1053D01*
D02*
X193Y1223D02*
X218Y1211D01*
D02*
X266Y1270D02*
X265Y1103D01*
D02*
X356Y1506D02*
X266Y1270D01*
D02*
X329Y1526D02*
X356Y1506D01*
D02*
X396Y1496D02*
X296Y1261D01*
D02*
X453Y1586D02*
X396Y1496D01*
D02*
X571Y1693D02*
X453Y1586D01*
D02*
X552Y1720D02*
X571Y1693D01*
D02*
X523Y1270D02*
X523Y1338D01*
D02*
X601Y1202D02*
X523Y1270D01*
D02*
X640Y1202D02*
X601Y1202D01*
D02*
X641Y1162D02*
X640Y1202D01*
D02*
X750Y1733D02*
X793Y1792D01*
D02*
X522Y1566D02*
X750Y1733D01*
D02*
X523Y1380D02*
X522Y1566D01*
D02*
X681Y1458D02*
X673Y1481D01*
D02*
X680Y1380D02*
X681Y1458D01*
D02*
X601Y1585D02*
X601Y1513D01*
D02*
X788Y1723D02*
X601Y1585D01*
D02*
X966Y1812D02*
X788Y1723D01*
D02*
X966Y1950D02*
X966Y1812D01*
D02*
X790Y1909D02*
X966Y1950D01*
D02*
X1001Y95D02*
X696Y159D01*
D02*
X1001Y173D02*
X912Y185D01*
D02*
X703Y239D02*
X596Y282D01*
D02*
X703Y239D02*
X703Y239D01*
D02*
X404Y438D02*
X340Y496D01*
D02*
X224Y723D02*
X195Y803D01*
D02*
X174Y1050D02*
X167Y1147D01*
D02*
X99Y1002D02*
X153Y694D01*
D02*
X171Y649D02*
X351Y385D01*
D02*
X386Y352D02*
X652Y177D01*
D02*
X1660Y348D02*
X1411Y175D01*
D02*
X1623Y419D02*
X1623Y419D01*
D02*
X1699Y486D02*
X1623Y419D01*
D02*
X1383Y245D02*
X1454Y272D01*
D02*
X437Y1646D02*
X474Y1683D01*
D02*
X678Y1808D02*
X647Y1796D01*
D02*
X647Y1876D02*
X384Y1699D01*
D02*
X350Y1666D02*
X172Y1407D01*
D02*
X154Y1363D02*
X99Y1050D01*
D02*
X271Y1464D02*
X241Y1378D01*
D02*
X1852Y784D02*
X1820Y708D01*
D02*
X1367Y157D02*
X1049Y94D01*
D02*
X1951Y992D02*
X1890Y680D01*
D02*
X1875Y1128D02*
X1875Y1040D01*
D02*
X1694Y382D02*
X1871Y635D01*
D02*
X1052Y1957D02*
X1367Y1888D01*
D02*
X1052Y1878D02*
X1107Y1871D01*
D02*
X1338Y1819D02*
X1294Y1839D01*
D02*
X1411Y1870D02*
X1677Y1698D01*
D02*
X1711Y1664D02*
X1875Y1390D01*
D02*
X1623Y1646D02*
X1556Y1713D01*
D02*
X1803Y1360D02*
X1764Y1442D01*
D02*
X1892Y1345D02*
X1951Y1040D01*
G36*
X1848Y639D02*
X1871Y693D01*
X1922Y672D01*
X1899Y618D01*
X1848Y639D01*
G37*
D02*
G36*
X1774Y670D02*
X1796Y724D01*
X1847Y703D01*
X1825Y649D01*
X1774Y670D01*
G37*
D02*
G36*
X1640Y360D02*
X1681Y402D01*
X1720Y363D01*
X1679Y321D01*
X1640Y360D01*
G37*
D02*
G36*
X1583Y417D02*
X1624Y459D01*
X1663Y420D01*
X1622Y378D01*
X1583Y417D01*
G37*
D02*
G36*
X1353Y176D02*
X1408Y198D01*
X1429Y147D01*
X1374Y125D01*
X1353Y176D01*
G37*
D02*
G36*
X1322Y250D02*
X1377Y273D01*
X1398Y222D01*
X1343Y199D01*
X1322Y250D01*
G37*
D02*
G36*
X1519Y285D02*
X1495Y321D01*
X1534Y347D01*
X1558Y311D01*
X1519Y285D01*
G37*
D02*
G36*
X1464Y247D02*
X1439Y283D01*
X1478Y310D01*
X1503Y274D01*
X1464Y247D01*
G37*
D02*
G36*
X1756Y520D02*
X1721Y546D01*
X1750Y584D01*
X1784Y558D01*
X1756Y520D01*
G37*
D02*
G36*
X1716Y467D02*
X1681Y493D01*
X1710Y530D01*
X1744Y504D01*
X1716Y467D01*
G37*
D02*
G36*
X1888Y840D02*
X1846Y848D01*
X1854Y894D01*
X1896Y887D01*
X1888Y840D01*
G37*
D02*
G36*
X1877Y774D02*
X1834Y782D01*
X1842Y828D01*
X1885Y821D01*
X1877Y774D01*
G37*
D02*
G36*
X1887Y1193D02*
X1845Y1184D01*
X1835Y1230D01*
X1877Y1239D01*
X1887Y1193D01*
G37*
D02*
G36*
X1901Y1127D02*
X1859Y1118D01*
X1849Y1165D01*
X1891Y1174D01*
X1901Y1127D01*
G37*
D02*
G36*
X1754Y1506D02*
X1716Y1485D01*
X1693Y1527D01*
X1731Y1548D01*
X1754Y1506D01*
G37*
D02*
G36*
X1786Y1448D02*
X1748Y1427D01*
X1725Y1468D01*
X1763Y1489D01*
X1786Y1448D01*
G37*
D02*
G36*
X1519Y1768D02*
X1495Y1732D01*
X1456Y1757D01*
X1479Y1794D01*
X1519Y1768D01*
G37*
D02*
G36*
X1575Y1732D02*
X1551Y1695D01*
X1512Y1721D01*
X1535Y1757D01*
X1575Y1732D01*
G37*
D02*
G36*
X1873Y1332D02*
X1851Y1386D01*
X1902Y1407D01*
X1924Y1353D01*
X1873Y1332D01*
G37*
D02*
G36*
X1799Y1301D02*
X1776Y1355D01*
X1827Y1376D01*
X1850Y1322D01*
X1799Y1301D01*
G37*
D02*
G36*
X1699Y1645D02*
X1658Y1687D01*
X1697Y1726D01*
X1738Y1683D01*
X1699Y1645D01*
G37*
D02*
G36*
X1641Y1588D02*
X1600Y1630D01*
X1639Y1669D01*
X1681Y1627D01*
X1641Y1588D01*
G37*
D02*
G36*
X1408Y1847D02*
X1353Y1869D01*
X1374Y1920D01*
X1429Y1897D01*
X1408Y1847D01*
G37*
D02*
G36*
X1377Y1772D02*
X1322Y1795D01*
X1343Y1845D01*
X1398Y1823D01*
X1377Y1772D01*
G37*
D02*
G36*
X812Y745D02*
X828Y729D01*
X792Y694D01*
X777Y709D01*
X812Y745D01*
G37*
D02*
G36*
X834Y722D02*
X850Y707D01*
X815Y671D01*
X799Y687D01*
X834Y722D01*
G37*
D02*
G36*
X857Y700D02*
X872Y685D01*
X837Y649D01*
X821Y665D01*
X857Y700D01*
G37*
D02*
G36*
X879Y678D02*
X895Y662D01*
X859Y627D01*
X844Y642D01*
X879Y678D01*
G37*
D02*
G36*
X901Y656D02*
X917Y640D01*
X882Y605D01*
X866Y620D01*
X901Y656D01*
G37*
D02*
G36*
X924Y633D02*
X939Y618D01*
X904Y582D01*
X888Y598D01*
X924Y633D01*
G37*
D02*
G36*
X946Y611D02*
X961Y595D01*
X926Y560D01*
X910Y576D01*
X946Y611D01*
G37*
D02*
G36*
X968Y589D02*
X984Y573D01*
X948Y538D01*
X933Y553D01*
X968Y589D01*
G37*
D02*
G36*
X1031Y589D02*
X1067Y553D01*
X1051Y538D01*
X1016Y573D01*
X1031Y589D01*
G37*
D02*
G36*
X1054Y611D02*
X1089Y576D01*
X1073Y560D01*
X1038Y595D01*
X1054Y611D01*
G37*
D02*
G36*
X1076Y633D02*
X1111Y598D01*
X1096Y582D01*
X1060Y618D01*
X1076Y633D01*
G37*
D02*
G36*
X1098Y656D02*
X1134Y620D01*
X1118Y605D01*
X1083Y640D01*
X1098Y656D01*
G37*
D02*
G36*
X1121Y678D02*
X1156Y642D01*
X1140Y627D01*
X1105Y662D01*
X1121Y678D01*
G37*
D02*
G36*
X1143Y700D02*
X1178Y665D01*
X1163Y649D01*
X1127Y685D01*
X1143Y700D01*
G37*
D02*
G36*
X1165Y722D02*
X1200Y687D01*
X1185Y671D01*
X1149Y707D01*
X1165Y722D01*
G37*
D02*
G36*
X1187Y745D02*
X1223Y709D01*
X1207Y694D01*
X1172Y729D01*
X1187Y745D01*
G37*
D02*
G36*
X1207Y828D02*
X1223Y812D01*
X1187Y777D01*
X1172Y792D01*
X1207Y828D01*
G37*
D02*
G36*
X1185Y850D02*
X1200Y834D01*
X1165Y799D01*
X1149Y815D01*
X1185Y850D01*
G37*
D02*
G36*
X1163Y872D02*
X1178Y857D01*
X1143Y821D01*
X1127Y837D01*
X1163Y872D01*
G37*
D02*
G36*
X1140Y895D02*
X1156Y879D01*
X1121Y844D01*
X1105Y859D01*
X1140Y895D01*
G37*
D02*
G36*
X1118Y917D02*
X1134Y901D01*
X1098Y866D01*
X1083Y881D01*
X1118Y917D01*
G37*
D02*
G36*
X1096Y939D02*
X1111Y924D01*
X1076Y888D01*
X1060Y904D01*
X1096Y939D01*
G37*
D02*
G36*
X1073Y961D02*
X1089Y946D01*
X1054Y910D01*
X1038Y926D01*
X1073Y961D01*
G37*
D02*
G36*
X1051Y984D02*
X1067Y968D01*
X1031Y933D01*
X1016Y948D01*
X1051Y984D01*
G37*
D02*
G36*
X948Y984D02*
X984Y948D01*
X968Y933D01*
X933Y968D01*
X948Y984D01*
G37*
D02*
G36*
X926Y961D02*
X961Y926D01*
X946Y910D01*
X910Y946D01*
X926Y961D01*
G37*
D02*
G36*
X904Y939D02*
X939Y904D01*
X924Y888D01*
X888Y924D01*
X904Y939D01*
G37*
D02*
G36*
X882Y917D02*
X917Y881D01*
X901Y866D01*
X866Y901D01*
X882Y917D01*
G37*
D02*
G36*
X859Y895D02*
X895Y859D01*
X879Y844D01*
X844Y879D01*
X859Y895D01*
G37*
D02*
G36*
X837Y872D02*
X872Y837D01*
X857Y821D01*
X821Y857D01*
X837Y872D01*
G37*
D02*
G36*
X815Y850D02*
X850Y815D01*
X834Y799D01*
X799Y834D01*
X815Y850D01*
G37*
D02*
G36*
X792Y828D02*
X828Y792D01*
X812Y777D01*
X777Y812D01*
X792Y828D01*
G37*
D02*
G36*
X554Y331D02*
X531Y295D01*
X491Y320D01*
X515Y357D01*
X554Y331D01*
G37*
D02*
G36*
X610Y295D02*
X587Y258D01*
X547Y284D01*
X571Y320D01*
X610Y295D01*
G37*
D02*
G36*
X854Y215D02*
X848Y172D01*
X801Y178D01*
X807Y221D01*
X854Y215D01*
G37*
D02*
G36*
X920Y205D02*
X914Y163D01*
X867Y169D01*
X873Y212D01*
X920Y205D01*
G37*
D02*
G36*
X203Y867D02*
X161Y860D01*
X153Y906D01*
X196Y914D01*
X203Y867D01*
G37*
D02*
G36*
X214Y801D02*
X172Y794D01*
X164Y840D01*
X207Y848D01*
X214Y801D01*
G37*
D02*
G36*
X319Y556D02*
X284Y531D01*
X256Y569D01*
X291Y594D01*
X319Y556D01*
G37*
D02*
G36*
X358Y502D02*
X323Y477D01*
X295Y515D01*
X330Y540D01*
X358Y502D01*
G37*
D02*
G36*
X195Y1204D02*
X152Y1212D01*
X161Y1258D01*
X204Y1250D01*
X195Y1204D01*
G37*
D02*
G36*
X182Y1138D02*
X140Y1146D01*
X149Y1193D01*
X191Y1185D01*
X182Y1138D01*
G37*
D02*
G36*
X655Y201D02*
X710Y178D01*
X689Y127D01*
X634Y150D01*
X655Y201D01*
G37*
D02*
G36*
X686Y275D02*
X741Y253D01*
X720Y202D01*
X665Y224D01*
X686Y275D01*
G37*
D02*
G36*
X171Y708D02*
X194Y653D01*
X143Y632D01*
X120Y686D01*
X171Y708D01*
G37*
D02*
G36*
X246Y738D02*
X268Y684D01*
X217Y663D01*
X195Y717D01*
X246Y738D01*
G37*
D02*
G36*
X364Y405D02*
X405Y364D01*
X366Y325D01*
X325Y366D01*
X364Y405D01*
G37*
D02*
G36*
X421Y462D02*
X463Y421D01*
X424Y382D01*
X382Y423D01*
X421Y462D01*
G37*
D02*
G36*
X404Y1687D02*
X362Y1645D01*
X323Y1684D01*
X365Y1726D01*
X404Y1687D01*
G37*
D02*
G36*
X461Y1630D02*
X419Y1588D01*
X380Y1627D01*
X422Y1669D01*
X461Y1630D01*
G37*
D02*
G36*
X195Y1403D02*
X172Y1349D01*
X122Y1370D01*
X144Y1425D01*
X195Y1403D01*
G37*
D02*
G36*
X270Y1373D02*
X247Y1318D01*
X196Y1339D01*
X219Y1394D01*
X270Y1373D01*
G37*
D02*
G36*
X320Y1505D02*
X285Y1529D01*
X312Y1568D01*
X347Y1543D01*
X320Y1505D01*
G37*
D02*
G36*
X282Y1450D02*
X246Y1475D01*
X273Y1513D01*
X309Y1488D01*
X282Y1450D01*
G37*
D02*
G36*
X535Y1702D02*
X511Y1738D01*
X550Y1764D01*
X574Y1728D01*
X535Y1702D01*
G37*
D02*
G36*
X479Y1665D02*
X455Y1700D01*
X494Y1727D01*
X518Y1691D01*
X479Y1665D01*
G37*
D02*
G36*
X705Y1877D02*
X652Y1852D01*
X629Y1902D01*
X683Y1927D01*
X705Y1877D01*
G37*
D02*
G36*
X739Y1803D02*
X685Y1779D01*
X662Y1829D01*
X716Y1853D01*
X739Y1803D01*
G37*
D02*
G36*
X628Y1742D02*
X668Y1758D01*
X686Y1715D01*
X646Y1698D01*
X628Y1742D01*
G37*
D02*
G36*
X602Y1804D02*
X642Y1820D01*
X661Y1776D01*
X621Y1760D01*
X602Y1804D01*
G37*
D02*
G36*
X1101Y1826D02*
X1145Y1826D01*
X1145Y1778D01*
X1101Y1778D01*
X1101Y1826D01*
G37*
D02*
G36*
X1101Y1893D02*
X1145Y1893D01*
X1145Y1845D01*
X1101Y1845D01*
X1101Y1893D01*
G37*
D02*
G36*
X1239Y1877D02*
X1230Y1835D01*
X1184Y1845D01*
X1193Y1887D01*
X1239Y1877D01*
G37*
D02*
G36*
X1305Y1863D02*
X1296Y1821D01*
X1249Y1831D01*
X1258Y1873D01*
X1305Y1863D01*
G37*
D02*
G04 End of Copper1*
M02*