; NON-PLATED HOLES START AT T1
; THROUGH (PLATED) HOLES START AT T100
M48
INCH
T1C0.035433
T100C0.015748
T101C0.038000
T102C0.031496
%
T1
X011111Y001977
X009379Y001977
T100
X009064Y018512
X004536Y012705
X007292Y009555
X013493Y007193
X005520Y007292
X009753Y016839
X008768Y016839
X004635Y003551
X007292Y006406
X011820Y005717
X009753Y011524
X007292Y010540
X007292Y008866
X008768Y011524
X012239Y007587
X012509Y005717
X012902Y014575
T101
X010768Y015954
X011768Y015954
X009768Y015954
X007665Y019028
X008079Y018118
X008768Y014589
X010768Y014589
X011768Y014589
X009768Y014589
X008768Y015954
T102
X006800Y013591
X005225Y013591
T00
M30
