G04 MADE WITH FRITZING*
G04 WWW.FRITZING.ORG*
G04 DOUBLE SIDED*
G04 HOLES PLATED*
G04 CONTOUR ON CENTER OF CONTOUR VECTOR*
%ASAXBY*%
%FSLAX23Y23*%
%MOIN*%
%OFA0B0*%
%SFA1.0B1.0*%
%ADD10C,0.045433*%
%ADD11C,0.049370*%
%ADD12C,0.088000*%
%ADD13C,0.076000*%
%ADD14R,0.029685X0.108425*%
%ADD15R,0.088740X0.108425*%
%ADD16R,0.088740X0.206850*%
%LNMASK0*%
G90*
G70*
G54D10*
X1111Y198D03*
X938Y198D03*
X1111Y198D03*
X938Y198D03*
X1111Y198D03*
X938Y198D03*
G54D11*
X729Y641D03*
X464Y355D03*
X906Y1851D03*
X975Y1684D03*
X877Y1684D03*
X975Y1152D03*
X877Y1152D03*
X454Y1271D03*
X552Y729D03*
X1349Y719D03*
X1251Y572D03*
X1182Y572D03*
X729Y1054D03*
X729Y956D03*
X1224Y759D03*
X729Y887D03*
X1290Y1458D03*
G54D12*
X877Y1595D03*
X977Y1595D03*
X1077Y1595D03*
X1177Y1595D03*
X877Y1459D03*
X977Y1459D03*
X1077Y1459D03*
X1177Y1459D03*
X808Y1812D03*
X767Y1903D03*
G54D13*
X523Y1359D03*
X680Y1359D03*
G54D14*
X1025Y296D03*
X1056Y296D03*
X962Y296D03*
X993Y296D03*
G54D15*
X847Y80D03*
X1202Y80D03*
X847Y296D03*
X1202Y296D03*
G54D14*
X1088Y296D03*
G54D16*
X1497Y1595D03*
X1477Y611D03*
G04 End of Mask0*
M02*