G04 MADE WITH FRITZING*
G04 WWW.FRITZING.ORG*
G04 DOUBLE SIDED*
G04 HOLES PLATED*
G04 CONTOUR ON CENTER OF CONTOUR VECTOR*
%ASAXBY*%
%FSLAX23Y23*%
%MOIN*%
%OFA0B0*%
%SFA1.0B1.0*%
%ADD10C,0.039370*%
%ADD11C,0.078000*%
%ADD12C,0.066000*%
%ADD13R,0.019685X0.098425*%
%ADD14R,0.078740X0.098425*%
%ADD15R,0.078740X0.196850*%
%ADD16C,0.016000*%
%ADD17R,0.001000X0.001000*%
%LNCOPPER0*%
G90*
G70*
G54D10*
X729Y641D03*
X464Y355D03*
X906Y1851D03*
X975Y1684D03*
X877Y1684D03*
X975Y1152D03*
X877Y1152D03*
X454Y1271D03*
X552Y729D03*
X1349Y719D03*
X1251Y572D03*
X1182Y572D03*
X729Y1054D03*
X729Y956D03*
X1224Y759D03*
X729Y887D03*
X1290Y1458D03*
G54D11*
X877Y1595D03*
X977Y1595D03*
X1077Y1595D03*
X1177Y1595D03*
X877Y1459D03*
X977Y1459D03*
X1077Y1459D03*
X1177Y1459D03*
X808Y1812D03*
X767Y1903D03*
G54D12*
X523Y1359D03*
X680Y1359D03*
G54D13*
X1025Y296D03*
X1056Y296D03*
X962Y296D03*
X993Y296D03*
G54D14*
X847Y80D03*
X1202Y80D03*
X847Y296D03*
X1202Y296D03*
G54D13*
X1088Y296D03*
G54D15*
X1497Y1595D03*
X1477Y611D03*
G54D16*
X967Y424D02*
X963Y340D01*
D02*
X739Y632D02*
X967Y424D01*
D02*
X1497Y1457D02*
X1497Y1502D01*
D02*
X1304Y1458D02*
X1497Y1457D01*
D02*
X1477Y424D02*
X1084Y414D01*
D02*
X1084Y414D02*
X1086Y340D01*
D02*
X1477Y518D02*
X1477Y424D01*
D02*
X473Y552D02*
X464Y369D01*
D02*
X582Y641D02*
X473Y552D01*
D02*
X716Y641D02*
X582Y641D01*
D02*
X1291Y1596D02*
X1290Y1471D01*
D02*
X1034Y1851D02*
X1291Y1596D01*
D02*
X920Y1851D02*
X1034Y1851D01*
D02*
X789Y1192D02*
X828Y1152D01*
D02*
X828Y1152D02*
X863Y1152D01*
D02*
X789Y1685D02*
X789Y1192D01*
D02*
X863Y1684D02*
X789Y1685D01*
D02*
X799Y1104D02*
X974Y1104D01*
D02*
X974Y1104D02*
X975Y1139D01*
D02*
X758Y1142D02*
X799Y1104D01*
D02*
X975Y1697D02*
X974Y1723D01*
D02*
X758Y1723D02*
X758Y1142D01*
D02*
X974Y1723D02*
X758Y1723D01*
D02*
X454Y729D02*
X454Y1257D01*
D02*
X539Y729D02*
X454Y729D01*
D02*
X1350Y513D02*
X1181Y513D01*
D02*
X1181Y513D02*
X956Y729D01*
D02*
X956Y729D02*
X566Y729D01*
D02*
X1349Y706D02*
X1350Y513D01*
D02*
X739Y1045D02*
X1241Y581D01*
D02*
X770Y956D02*
X1172Y581D01*
D02*
X743Y956D02*
X770Y956D01*
D02*
X728Y1113D02*
X1113Y759D01*
D02*
X1113Y759D02*
X1211Y759D01*
D02*
X660Y1113D02*
X728Y1113D01*
D02*
X660Y887D02*
X660Y1113D01*
D02*
X716Y887D02*
X660Y887D01*
G36*
X1483Y1221D02*
X1483Y1220D01*
X1484Y1220D01*
X1484Y1220D01*
X1485Y1220D01*
X1485Y1220D01*
X1486Y1220D01*
X1486Y1219D01*
X1487Y1219D01*
X1487Y1219D01*
X1487Y1219D01*
X1487Y1219D01*
X1488Y1219D01*
X1488Y1218D01*
X1489Y1218D01*
X1489Y1218D01*
X1489Y1218D01*
X1489Y1217D01*
X1490Y1217D01*
X1490Y1217D01*
X1490Y1217D01*
X1490Y1217D01*
X1491Y1217D01*
X1491Y1216D01*
X1491Y1216D01*
X1491Y1216D01*
X1491Y1216D01*
X1491Y1216D01*
X1492Y1216D01*
X1492Y1215D01*
X1492Y1215D01*
X1492Y1215D01*
X1493Y1215D01*
X1493Y1214D01*
X1493Y1214D01*
X1493Y1214D01*
X1494Y1214D01*
X1494Y1213D01*
X1494Y1213D01*
X1494Y1213D01*
X1495Y1213D01*
X1495Y1212D01*
X1480Y1212D01*
X1480Y1212D01*
X1478Y1212D01*
X1478Y1212D01*
X1477Y1212D01*
X1477Y1211D01*
X1477Y1211D01*
X1477Y1211D01*
X1476Y1211D01*
X1476Y1211D01*
X1475Y1211D01*
X1475Y1210D01*
X1475Y1210D01*
X1475Y1210D01*
X1474Y1210D01*
X1474Y1210D01*
X1474Y1210D01*
X1474Y1209D01*
X1473Y1209D01*
X1473Y1209D01*
X1473Y1209D01*
X1473Y1208D01*
X1473Y1208D01*
X1473Y1208D01*
X1472Y1208D01*
X1472Y1208D01*
X1472Y1208D01*
X1472Y1207D01*
X1472Y1207D01*
X1472Y1207D01*
X1471Y1207D01*
X1471Y1206D01*
X1471Y1206D01*
X1471Y1206D01*
X1471Y1206D01*
X1471Y1205D01*
X1470Y1205D01*
X1470Y1205D01*
X1470Y1205D01*
X1470Y1205D01*
X1470Y1205D01*
X1470Y1204D01*
X1469Y1204D01*
X1469Y1203D01*
X1469Y1203D01*
X1469Y1203D01*
X1469Y1203D01*
X1469Y1202D01*
X1469Y1202D01*
X1469Y1201D01*
X1468Y1201D01*
X1468Y1200D01*
X1468Y1200D01*
X1468Y1199D01*
X1468Y1199D01*
X1468Y1198D01*
X1467Y1198D01*
X1467Y1197D01*
X1467Y1197D01*
X1467Y1196D01*
X1467Y1196D01*
X1467Y1195D01*
X1466Y1195D01*
X1466Y1194D01*
X1466Y1194D01*
X1466Y1193D01*
X1466Y1193D01*
X1466Y1192D01*
X1465Y1192D01*
X1465Y1191D01*
X1465Y1191D01*
X1465Y1188D01*
X1465Y1188D01*
X1465Y1186D01*
X1464Y1186D01*
X1464Y1184D01*
X1464Y1184D01*
X1464Y1181D01*
X1464Y1181D01*
X1464Y1180D01*
X1465Y1180D01*
X1465Y1178D01*
X1465Y1178D01*
X1465Y1177D01*
X1465Y1177D01*
X1465Y1176D01*
X1466Y1176D01*
X1466Y1175D01*
X1466Y1175D01*
X1466Y1173D01*
X1466Y1173D01*
X1466Y1173D01*
X1467Y1173D01*
X1467Y1172D01*
X1467Y1172D01*
X1467Y1171D01*
X1467Y1171D01*
X1467Y1169D01*
X1468Y1169D01*
X1468Y1168D01*
X1468Y1168D01*
X1468Y1167D01*
X1468Y1167D01*
X1468Y1166D01*
X1469Y1166D01*
X1469Y1165D01*
X1469Y1165D01*
X1469Y1165D01*
X1469Y1165D01*
X1469Y1164D01*
X1469Y1164D01*
X1469Y1163D01*
X1470Y1163D01*
X1470Y1162D01*
X1470Y1162D01*
X1470Y1162D01*
X1470Y1162D01*
X1470Y1161D01*
X1471Y1161D01*
X1471Y1160D01*
X1471Y1160D01*
X1471Y1159D01*
X1472Y1159D01*
X1472Y1158D01*
X1472Y1158D01*
X1472Y1158D01*
X1472Y1158D01*
X1472Y1158D01*
X1473Y1158D01*
X1473Y1157D01*
X1473Y1157D01*
X1473Y1156D01*
X1473Y1156D01*
X1473Y1156D01*
X1474Y1156D01*
X1474Y1155D01*
X1474Y1155D01*
X1474Y1155D01*
X1474Y1155D01*
X1474Y1154D01*
X1475Y1154D01*
X1475Y1154D01*
X1475Y1154D01*
X1475Y1153D01*
X1475Y1153D01*
X1475Y1153D01*
X1476Y1153D01*
X1476Y1152D01*
X1476Y1152D01*
X1476Y1152D01*
X1476Y1152D01*
X1476Y1151D01*
X1477Y1151D01*
X1477Y1150D01*
X1477Y1150D01*
X1477Y1150D01*
X1477Y1150D01*
X1477Y1150D01*
X1478Y1150D01*
X1478Y1149D01*
X1478Y1149D01*
X1478Y1148D01*
X1478Y1148D01*
X1478Y1148D01*
X1478Y1148D01*
X1478Y1147D01*
X1479Y1147D01*
X1479Y1147D01*
X1479Y1147D01*
X1479Y1146D01*
X1479Y1146D01*
X1479Y1146D01*
X1480Y1146D01*
X1480Y1146D01*
X1480Y1146D01*
X1480Y1145D01*
X1480Y1145D01*
X1480Y1145D01*
X1477Y1145D01*
X1477Y1146D01*
X1477Y1146D01*
X1477Y1146D01*
X1476Y1146D01*
X1476Y1146D01*
X1476Y1146D01*
X1476Y1147D01*
X1476Y1147D01*
X1476Y1147D01*
X1475Y1147D01*
X1475Y1148D01*
X1475Y1148D01*
X1475Y1148D01*
X1475Y1148D01*
X1475Y1149D01*
X1474Y1149D01*
X1474Y1149D01*
X1474Y1149D01*
X1474Y1150D01*
X1474Y1150D01*
X1474Y1151D01*
X1473Y1151D01*
X1473Y1151D01*
X1473Y1151D01*
X1473Y1152D01*
X1473Y1152D01*
X1473Y1152D01*
X1472Y1152D01*
X1472Y1153D01*
X1472Y1153D01*
X1472Y1153D01*
X1472Y1153D01*
X1472Y1154D01*
X1471Y1154D01*
X1471Y1155D01*
X1471Y1155D01*
X1471Y1155D01*
X1471Y1155D01*
X1471Y1156D01*
X1470Y1156D01*
X1470Y1156D01*
X1470Y1156D01*
X1470Y1156D01*
X1470Y1156D01*
X1470Y1157D01*
X1469Y1157D01*
X1469Y1158D01*
X1469Y1158D01*
X1469Y1158D01*
X1469Y1158D01*
X1469Y1160D01*
X1469Y1160D01*
X1469Y1161D01*
X1468Y1161D01*
X1468Y1161D01*
X1468Y1161D01*
X1468Y1162D01*
X1468Y1162D01*
X1468Y1163D01*
X1467Y1163D01*
X1467Y1163D01*
X1467Y1163D01*
X1467Y1164D01*
X1467Y1164D01*
X1467Y1165D01*
X1466Y1165D01*
X1466Y1165D01*
X1466Y1165D01*
X1466Y1166D01*
X1466Y1166D01*
X1466Y1167D01*
X1465Y1167D01*
X1465Y1168D01*
X1465Y1168D01*
X1465Y1170D01*
X1465Y1170D01*
X1465Y1170D01*
X1464Y1170D01*
X1464Y1171D01*
X1464Y1171D01*
X1464Y1172D01*
X1464Y1172D01*
X1464Y1173D01*
X1463Y1173D01*
X1463Y1174D01*
X1463Y1174D01*
X1463Y1175D01*
X1463Y1175D01*
X1463Y1176D01*
X1462Y1176D01*
X1462Y1177D01*
X1462Y1177D01*
X1462Y1178D01*
X1462Y1178D01*
X1462Y1180D01*
X1461Y1180D01*
X1461Y1181D01*
X1461Y1181D01*
X1461Y1183D01*
X1461Y1183D01*
X1461Y1185D01*
X1462Y1185D01*
X1462Y1188D01*
X1462Y1188D01*
X1462Y1193D01*
X1462Y1193D01*
X1462Y1194D01*
X1463Y1194D01*
X1463Y1195D01*
X1463Y1195D01*
X1463Y1198D01*
X1463Y1198D01*
X1463Y1199D01*
X1464Y1199D01*
X1464Y1200D01*
X1464Y1200D01*
X1464Y1202D01*
X1464Y1202D01*
X1464Y1203D01*
X1465Y1203D01*
X1465Y1203D01*
X1465Y1203D01*
X1465Y1205D01*
X1465Y1205D01*
X1465Y1206D01*
X1466Y1206D01*
X1466Y1206D01*
X1466Y1206D01*
X1466Y1208D01*
X1466Y1208D01*
X1466Y1208D01*
X1467Y1208D01*
X1467Y1209D01*
X1467Y1209D01*
X1467Y1210D01*
X1467Y1210D01*
X1467Y1210D01*
X1468Y1210D01*
X1468Y1211D01*
X1468Y1211D01*
X1468Y1212D01*
X1468Y1212D01*
X1468Y1212D01*
X1469Y1212D01*
X1469Y1213D01*
X1469Y1213D01*
X1469Y1213D01*
X1469Y1213D01*
X1469Y1214D01*
X1470Y1214D01*
X1470Y1215D01*
X1470Y1215D01*
X1470Y1215D01*
X1471Y1215D01*
X1471Y1216D01*
X1471Y1216D01*
X1471Y1216D01*
X1471Y1216D01*
X1471Y1216D01*
X1472Y1216D01*
X1472Y1217D01*
X1472Y1217D01*
X1472Y1217D01*
X1472Y1217D01*
X1472Y1217D01*
X1473Y1217D01*
X1473Y1218D01*
X1473Y1218D01*
X1473Y1218D01*
X1474Y1218D01*
X1474Y1219D01*
X1475Y1219D01*
X1475Y1219D01*
X1475Y1219D01*
X1475Y1219D01*
X1476Y1219D01*
X1476Y1220D01*
X1477Y1220D01*
X1477Y1220D01*
X1477Y1220D01*
X1477Y1220D01*
X1478Y1220D01*
X1478Y1221D01*
X1483Y1221D01*
G37*
D02*
G36*
X1495Y1212D02*
X1495Y1212D01*
X1496Y1212D01*
X1496Y1212D01*
X1496Y1212D01*
X1496Y1211D01*
X1496Y1211D01*
X1496Y1211D01*
X1497Y1211D01*
X1497Y1210D01*
X1497Y1210D01*
X1497Y1210D01*
X1497Y1210D01*
X1497Y1209D01*
X1498Y1209D01*
X1498Y1209D01*
X1498Y1209D01*
X1498Y1208D01*
X1498Y1208D01*
X1498Y1208D01*
X1498Y1208D01*
X1498Y1208D01*
X1499Y1208D01*
X1499Y1207D01*
X1499Y1207D01*
X1499Y1206D01*
X1499Y1206D01*
X1499Y1206D01*
X1500Y1206D01*
X1500Y1205D01*
X1500Y1205D01*
X1500Y1205D01*
X1500Y1205D01*
X1500Y1205D01*
X1501Y1205D01*
X1501Y1204D01*
X1501Y1204D01*
X1501Y1203D01*
X1501Y1203D01*
X1501Y1203D01*
X1502Y1203D01*
X1502Y1202D01*
X1502Y1202D01*
X1502Y1202D01*
X1502Y1202D01*
X1502Y1201D01*
X1503Y1201D01*
X1503Y1200D01*
X1503Y1200D01*
X1503Y1200D01*
X1503Y1200D01*
X1503Y1199D01*
X1504Y1199D01*
X1504Y1198D01*
X1504Y1198D01*
X1504Y1198D01*
X1504Y1198D01*
X1504Y1197D01*
X1505Y1197D01*
X1505Y1196D01*
X1505Y1196D01*
X1505Y1195D01*
X1505Y1195D01*
X1505Y1195D01*
X1506Y1195D01*
X1506Y1194D01*
X1506Y1194D01*
X1506Y1194D01*
X1506Y1194D01*
X1506Y1193D01*
X1507Y1193D01*
X1507Y1192D01*
X1507Y1192D01*
X1507Y1191D01*
X1507Y1191D01*
X1507Y1191D01*
X1507Y1191D01*
X1507Y1189D01*
X1508Y1189D01*
X1508Y1188D01*
X1508Y1188D01*
X1508Y1188D01*
X1508Y1188D01*
X1508Y1187D01*
X1509Y1187D01*
X1509Y1186D01*
X1509Y1186D01*
X1509Y1186D01*
X1509Y1186D01*
X1509Y1185D01*
X1510Y1185D01*
X1510Y1184D01*
X1510Y1184D01*
X1510Y1184D01*
X1510Y1184D01*
X1510Y1183D01*
X1511Y1183D01*
X1511Y1183D01*
X1511Y1183D01*
X1511Y1182D01*
X1511Y1182D01*
X1511Y1181D01*
X1512Y1181D01*
X1512Y1181D01*
X1512Y1181D01*
X1512Y1180D01*
X1512Y1180D01*
X1512Y1179D01*
X1513Y1179D01*
X1513Y1179D01*
X1513Y1179D01*
X1513Y1178D01*
X1513Y1178D01*
X1513Y1178D01*
X1514Y1178D01*
X1514Y1177D01*
X1514Y1177D01*
X1514Y1177D01*
X1514Y1177D01*
X1514Y1176D01*
X1515Y1176D01*
X1515Y1176D01*
X1515Y1176D01*
X1515Y1175D01*
X1515Y1175D01*
X1515Y1175D01*
X1516Y1175D01*
X1516Y1174D01*
X1516Y1174D01*
X1516Y1173D01*
X1517Y1173D01*
X1517Y1173D01*
X1517Y1173D01*
X1517Y1173D01*
X1517Y1173D01*
X1517Y1172D01*
X1517Y1172D01*
X1517Y1171D01*
X1518Y1171D01*
X1518Y1171D01*
X1518Y1171D01*
X1518Y1170D01*
X1518Y1170D01*
X1518Y1170D01*
X1519Y1170D01*
X1519Y1169D01*
X1519Y1169D01*
X1519Y1169D01*
X1519Y1169D01*
X1519Y1168D01*
X1520Y1168D01*
X1520Y1168D01*
X1520Y1168D01*
X1520Y1167D01*
X1520Y1167D01*
X1520Y1167D01*
X1521Y1167D01*
X1521Y1166D01*
X1521Y1166D01*
X1521Y1166D01*
X1521Y1166D01*
X1521Y1165D01*
X1522Y1165D01*
X1522Y1165D01*
X1522Y1165D01*
X1522Y1165D01*
X1522Y1165D01*
X1522Y1164D01*
X1523Y1164D01*
X1523Y1163D01*
X1523Y1163D01*
X1523Y1163D01*
X1524Y1163D01*
X1524Y1162D01*
X1524Y1162D01*
X1524Y1162D01*
X1524Y1162D01*
X1524Y1161D01*
X1525Y1161D01*
X1525Y1160D01*
X1526Y1160D01*
X1526Y1159D01*
X1526Y1159D01*
X1526Y1159D01*
X1526Y1159D01*
X1526Y1158D01*
X1527Y1158D01*
X1527Y1158D01*
X1527Y1158D01*
X1527Y1157D01*
X1527Y1157D01*
X1527Y1156D01*
X1528Y1156D01*
X1528Y1156D01*
X1528Y1156D01*
X1528Y1155D01*
X1528Y1155D01*
X1528Y1155D01*
X1529Y1155D01*
X1529Y1155D01*
X1529Y1155D01*
X1529Y1154D01*
X1529Y1154D01*
X1529Y1154D01*
X1530Y1154D01*
X1530Y1153D01*
X1530Y1153D01*
X1530Y1153D01*
X1530Y1153D01*
X1530Y1153D01*
X1531Y1153D01*
X1531Y1152D01*
X1531Y1152D01*
X1531Y1151D01*
X1532Y1151D01*
X1532Y1150D01*
X1532Y1150D01*
X1532Y1150D01*
X1533Y1150D01*
X1533Y1149D01*
X1533Y1149D01*
X1533Y1149D01*
X1533Y1149D01*
X1533Y1148D01*
X1534Y1148D01*
X1534Y1148D01*
X1534Y1148D01*
X1534Y1147D01*
X1535Y1147D01*
X1535Y1146D01*
X1535Y1146D01*
X1535Y1146D01*
X1536Y1146D01*
X1536Y1146D01*
X1536Y1146D01*
X1536Y1145D01*
X1536Y1145D01*
X1536Y1145D01*
X1536Y1145D01*
X1536Y1145D01*
X1537Y1145D01*
X1537Y1144D01*
X1537Y1144D01*
X1537Y1144D01*
X1537Y1144D01*
X1537Y1143D01*
X1538Y1143D01*
X1538Y1143D01*
X1538Y1143D01*
X1538Y1142D01*
X1539Y1142D01*
X1539Y1142D01*
X1539Y1142D01*
X1539Y1141D01*
X1539Y1141D01*
X1539Y1141D01*
X1540Y1141D01*
X1540Y1140D01*
X1540Y1140D01*
X1540Y1140D01*
X1540Y1140D01*
X1540Y1140D01*
X1541Y1140D01*
X1541Y1139D01*
X1541Y1139D01*
X1541Y1139D01*
X1541Y1139D01*
X1541Y1138D01*
X1542Y1138D01*
X1542Y1138D01*
X1542Y1138D01*
X1542Y1138D01*
X1542Y1138D01*
X1542Y1137D01*
X1543Y1137D01*
X1543Y1137D01*
X1543Y1137D01*
X1543Y1136D01*
X1544Y1136D01*
X1544Y1136D01*
X1544Y1136D01*
X1544Y1135D01*
X1545Y1135D01*
X1545Y1135D01*
X1545Y1135D01*
X1545Y1134D01*
X1546Y1134D01*
X1546Y1133D01*
X1546Y1133D01*
X1546Y1133D01*
X1546Y1133D01*
X1546Y1133D01*
X1547Y1133D01*
X1547Y1132D01*
X1547Y1132D01*
X1547Y1132D01*
X1548Y1132D01*
X1548Y1131D01*
X1548Y1131D01*
X1548Y1131D01*
X1549Y1131D01*
X1549Y1130D01*
X1549Y1130D01*
X1549Y1130D01*
X1550Y1130D01*
X1550Y1129D01*
X1550Y1129D01*
X1550Y1129D01*
X1550Y1129D01*
X1550Y1128D01*
X1551Y1128D01*
X1551Y1128D01*
X1551Y1128D01*
X1551Y1128D01*
X1551Y1128D01*
X1551Y1127D01*
X1552Y1127D01*
X1552Y1127D01*
X1552Y1127D01*
X1552Y1127D01*
X1552Y1127D01*
X1552Y1126D01*
X1553Y1126D01*
X1553Y1126D01*
X1553Y1126D01*
X1553Y1126D01*
X1553Y1126D01*
X1553Y1126D01*
X1554Y1126D01*
X1554Y1125D01*
X1554Y1125D01*
X1554Y1125D01*
X1554Y1125D01*
X1554Y1125D01*
X1555Y1125D01*
X1555Y1124D01*
X1555Y1124D01*
X1555Y1124D01*
X1555Y1124D01*
X1555Y1124D01*
X1555Y1124D01*
X1555Y1123D01*
X1556Y1123D01*
X1556Y1123D01*
X1556Y1123D01*
X1556Y1122D01*
X1556Y1122D01*
X1556Y1122D01*
X1557Y1122D01*
X1557Y1122D01*
X1557Y1122D01*
X1557Y1121D01*
X1557Y1121D01*
X1557Y1121D01*
X1558Y1121D01*
X1558Y1121D01*
X1558Y1121D01*
X1558Y1120D01*
X1558Y1120D01*
X1558Y1120D01*
X1559Y1120D01*
X1559Y1120D01*
X1559Y1120D01*
X1559Y1119D01*
X1559Y1119D01*
X1559Y1119D01*
X1560Y1119D01*
X1560Y1119D01*
X1560Y1119D01*
X1560Y1118D01*
X1560Y1118D01*
X1560Y1118D01*
X1561Y1118D01*
X1561Y1118D01*
X1561Y1118D01*
X1561Y1117D01*
X1561Y1117D01*
X1561Y1117D01*
X1562Y1117D01*
X1562Y1117D01*
X1562Y1117D01*
X1562Y1117D01*
X1562Y1117D01*
X1562Y1116D01*
X1563Y1116D01*
X1563Y1116D01*
X1563Y1116D01*
X1563Y1116D01*
X1563Y1116D01*
X1563Y1115D01*
X1564Y1115D01*
X1564Y1115D01*
X1564Y1115D01*
X1564Y1115D01*
X1564Y1115D01*
X1564Y1114D01*
X1565Y1114D01*
X1565Y1114D01*
X1565Y1114D01*
X1565Y1114D01*
X1565Y1114D01*
X1565Y1113D01*
X1565Y1113D01*
X1565Y1113D01*
X1566Y1113D01*
X1566Y1113D01*
X1566Y1113D01*
X1566Y1112D01*
X1566Y1112D01*
X1566Y1112D01*
X1567Y1112D01*
X1567Y1112D01*
X1567Y1112D01*
X1567Y1111D01*
X1567Y1111D01*
X1567Y1111D01*
X1568Y1111D01*
X1568Y1111D01*
X1568Y1111D01*
X1568Y1110D01*
X1568Y1110D01*
X1568Y1110D01*
X1569Y1110D01*
X1569Y1110D01*
X1569Y1110D01*
X1569Y1109D01*
X1569Y1109D01*
X1569Y1109D01*
X1570Y1109D01*
X1570Y1109D01*
X1570Y1109D01*
X1570Y1108D01*
X1570Y1108D01*
X1570Y1108D01*
X1571Y1108D01*
X1571Y1108D01*
X1571Y1108D01*
X1571Y1107D01*
X1571Y1107D01*
X1571Y1107D01*
X1572Y1107D01*
X1572Y1107D01*
X1572Y1107D01*
X1572Y1107D01*
X1572Y1107D01*
X1572Y1106D01*
X1573Y1106D01*
X1573Y1106D01*
X1573Y1106D01*
X1573Y1106D01*
X1573Y1106D01*
X1573Y1105D01*
X1574Y1105D01*
X1574Y1105D01*
X1574Y1105D01*
X1574Y1105D01*
X1574Y1105D01*
X1574Y1104D01*
X1575Y1104D01*
X1575Y1104D01*
X1575Y1104D01*
X1575Y1104D01*
X1575Y1104D01*
X1575Y1103D01*
X1575Y1103D01*
X1575Y1103D01*
X1576Y1103D01*
X1576Y1103D01*
X1576Y1103D01*
X1576Y1102D01*
X1577Y1102D01*
X1577Y1102D01*
X1577Y1102D01*
X1577Y1102D01*
X1577Y1102D01*
X1577Y1101D01*
X1578Y1101D01*
X1578Y1101D01*
X1578Y1101D01*
X1578Y1101D01*
X1578Y1101D01*
X1578Y1100D01*
X1579Y1100D01*
X1579Y1100D01*
X1579Y1100D01*
X1579Y1100D01*
X1579Y1100D01*
X1579Y1099D01*
X1580Y1099D01*
X1580Y1099D01*
X1580Y1099D01*
X1580Y1099D01*
X1580Y1099D01*
X1580Y1098D01*
X1581Y1098D01*
X1581Y1098D01*
X1581Y1098D01*
X1581Y1098D01*
X1581Y1098D01*
X1581Y1097D01*
X1582Y1097D01*
X1582Y1097D01*
X1582Y1097D01*
X1582Y1097D01*
X1582Y1097D01*
X1582Y1097D01*
X1583Y1097D01*
X1583Y1096D01*
X1583Y1096D01*
X1583Y1096D01*
X1583Y1096D01*
X1583Y1096D01*
X1584Y1096D01*
X1584Y1095D01*
X1584Y1095D01*
X1584Y1095D01*
X1584Y1095D01*
X1584Y1095D01*
X1584Y1095D01*
X1584Y1094D01*
X1585Y1094D01*
X1585Y1094D01*
X1585Y1094D01*
X1585Y1094D01*
X1585Y1094D01*
X1585Y1093D01*
X1586Y1093D01*
X1586Y1093D01*
X1586Y1093D01*
X1586Y1093D01*
X1587Y1093D01*
X1587Y1092D01*
X1587Y1092D01*
X1587Y1092D01*
X1587Y1092D01*
X1587Y1091D01*
X1588Y1091D01*
X1588Y1091D01*
X1588Y1091D01*
X1588Y1090D01*
X1588Y1090D01*
X1588Y1089D01*
X1589Y1089D01*
X1589Y1089D01*
X1589Y1089D01*
X1589Y1088D01*
X1589Y1088D01*
X1589Y1087D01*
X1590Y1087D01*
X1590Y1087D01*
X1590Y1087D01*
X1590Y1086D01*
X1590Y1086D01*
X1590Y1084D01*
X1591Y1084D01*
X1591Y1083D01*
X1591Y1083D01*
X1591Y1082D01*
X1591Y1082D01*
X1591Y1079D01*
X1592Y1079D01*
X1592Y1076D01*
X1592Y1076D01*
X1592Y1069D01*
X1592Y1069D01*
X1592Y1066D01*
X1591Y1066D01*
X1591Y1062D01*
X1591Y1062D01*
X1591Y1060D01*
X1591Y1060D01*
X1591Y1059D01*
X1590Y1059D01*
X1590Y1057D01*
X1590Y1057D01*
X1590Y1056D01*
X1590Y1056D01*
X1590Y1054D01*
X1589Y1054D01*
X1589Y1053D01*
X1589Y1053D01*
X1589Y1052D01*
X1589Y1052D01*
X1589Y1051D01*
X1588Y1051D01*
X1588Y1049D01*
X1588Y1049D01*
X1588Y1049D01*
X1588Y1049D01*
X1588Y1048D01*
X1587Y1048D01*
X1587Y1047D01*
X1587Y1047D01*
X1587Y1046D01*
X1587Y1046D01*
X1587Y1046D01*
X1586Y1046D01*
X1586Y1045D01*
X1586Y1045D01*
X1586Y1044D01*
X1586Y1044D01*
X1586Y1044D01*
X1585Y1044D01*
X1585Y1043D01*
X1585Y1043D01*
X1585Y1042D01*
X1585Y1042D01*
X1585Y1042D01*
X1584Y1042D01*
X1584Y1041D01*
X1584Y1041D01*
X1584Y1041D01*
X1584Y1041D01*
X1584Y1040D01*
X1584Y1040D01*
X1584Y1040D01*
X1583Y1040D01*
X1583Y1040D01*
X1583Y1040D01*
X1583Y1039D01*
X1583Y1039D01*
X1583Y1039D01*
X1582Y1039D01*
X1582Y1038D01*
X1582Y1038D01*
X1582Y1038D01*
X1581Y1038D01*
X1581Y1037D01*
X1581Y1037D01*
X1581Y1037D01*
X1580Y1037D01*
X1580Y1036D01*
X1580Y1036D01*
X1580Y1036D01*
X1580Y1036D01*
X1580Y1035D01*
X1579Y1035D01*
X1579Y1035D01*
X1579Y1035D01*
X1579Y1035D01*
X1579Y1035D01*
X1579Y1034D01*
X1578Y1034D01*
X1578Y1034D01*
X1578Y1034D01*
X1578Y1034D01*
X1578Y1034D01*
X1578Y1033D01*
X1577Y1033D01*
X1577Y1033D01*
X1577Y1033D01*
X1577Y1033D01*
X1577Y1033D01*
X1577Y1032D01*
X1576Y1032D01*
X1576Y1032D01*
X1576Y1032D01*
X1576Y1031D01*
X1575Y1031D01*
X1575Y1031D01*
X1575Y1031D01*
X1575Y1031D01*
X1575Y1031D01*
X1575Y1030D01*
X1575Y1030D01*
X1575Y1030D01*
X1574Y1030D01*
X1574Y1030D01*
X1574Y1030D01*
X1574Y1030D01*
X1573Y1030D01*
X1573Y1029D01*
X1573Y1029D01*
X1573Y1029D01*
X1573Y1029D01*
X1573Y1029D01*
X1572Y1029D01*
X1572Y1028D01*
X1572Y1028D01*
X1572Y1028D01*
X1571Y1028D01*
X1571Y1028D01*
X1571Y1028D01*
X1571Y1027D01*
X1570Y1027D01*
X1570Y1026D01*
X1570Y1026D01*
X1570Y1026D01*
X1569Y1026D01*
X1569Y1026D01*
X1569Y1026D01*
X1569Y1025D01*
X1568Y1025D01*
X1568Y1025D01*
X1568Y1025D01*
X1568Y1025D01*
X1567Y1025D01*
X1567Y1024D01*
X1567Y1024D01*
X1567Y1024D01*
X1566Y1024D01*
X1566Y1024D01*
X1566Y1024D01*
X1566Y1023D01*
X1566Y1023D01*
X1566Y1023D01*
X1565Y1023D01*
X1565Y1023D01*
X1565Y1023D01*
X1565Y1022D01*
X1565Y1022D01*
X1565Y1022D01*
X1564Y1022D01*
X1564Y1022D01*
X1563Y1022D01*
X1563Y1021D01*
X1562Y1021D01*
X1562Y1021D01*
X1562Y1021D01*
X1562Y1020D01*
X1561Y1020D01*
X1561Y1020D01*
X1561Y1020D01*
X1561Y1020D01*
X1560Y1020D01*
X1560Y1019D01*
X1559Y1019D01*
X1559Y1019D01*
X1559Y1019D01*
X1559Y1018D01*
X1558Y1018D01*
X1558Y1018D01*
X1558Y1018D01*
X1558Y1018D01*
X1557Y1018D01*
X1557Y1017D01*
X1556Y1017D01*
X1556Y1017D01*
X1556Y1017D01*
X1556Y1016D01*
X1555Y1016D01*
X1555Y1016D01*
X1555Y1016D01*
X1555Y1015D01*
X1554Y1015D01*
X1554Y1015D01*
X1553Y1015D01*
X1553Y1015D01*
X1553Y1015D01*
X1553Y1014D01*
X1552Y1014D01*
X1552Y1014D01*
X1552Y1014D01*
X1552Y1014D01*
X1551Y1014D01*
X1551Y1013D01*
X1551Y1013D01*
X1551Y1013D01*
X1550Y1013D01*
X1550Y1013D01*
X1550Y1013D01*
X1550Y1012D01*
X1549Y1012D01*
X1549Y1012D01*
X1548Y1012D01*
X1548Y1012D01*
X1548Y1012D01*
X1548Y1011D01*
X1547Y1011D01*
X1547Y1011D01*
X1547Y1011D01*
X1547Y1011D01*
X1546Y1011D01*
X1546Y1011D01*
X1546Y1011D01*
X1546Y1010D01*
X1545Y1010D01*
X1545Y1010D01*
X1545Y1010D01*
X1545Y1010D01*
X1544Y1010D01*
X1544Y1009D01*
X1543Y1009D01*
X1543Y1009D01*
X1543Y1009D01*
X1543Y1009D01*
X1542Y1009D01*
X1542Y1008D01*
X1542Y1008D01*
X1542Y1008D01*
X1541Y1008D01*
X1541Y1008D01*
X1540Y1008D01*
X1540Y1007D01*
X1540Y1007D01*
X1540Y1007D01*
X1539Y1007D01*
X1539Y1007D01*
X1538Y1007D01*
X1538Y1006D01*
X1538Y1006D01*
X1538Y1006D01*
X1537Y1006D01*
X1537Y1006D01*
X1536Y1006D01*
X1536Y1005D01*
X1536Y1005D01*
X1536Y1005D01*
X1536Y1005D01*
X1536Y1005D01*
X1535Y1005D01*
X1535Y1004D01*
X1535Y1004D01*
X1535Y1004D01*
X1534Y1004D01*
X1534Y1004D01*
X1534Y1004D01*
X1534Y1001D01*
X1529Y1001D01*
X1529Y1001D01*
X1529Y1001D01*
X1529Y1001D01*
X1530Y1001D01*
X1530Y1001D01*
X1530Y1001D01*
X1530Y1008D01*
X1530Y1008D01*
X1530Y1009D01*
X1531Y1009D01*
X1531Y1009D01*
X1532Y1009D01*
X1532Y1009D01*
X1532Y1009D01*
X1532Y1010D01*
X1533Y1010D01*
X1533Y1010D01*
X1534Y1010D01*
X1534Y1011D01*
X1535Y1011D01*
X1535Y1011D01*
X1536Y1011D01*
X1536Y1011D01*
X1536Y1011D01*
X1536Y1011D01*
X1537Y1011D01*
X1537Y1012D01*
X1537Y1012D01*
X1537Y1012D01*
X1538Y1012D01*
X1538Y1012D01*
X1538Y1012D01*
X1538Y1013D01*
X1539Y1013D01*
X1539Y1013D01*
X1539Y1013D01*
X1539Y1013D01*
X1540Y1013D01*
X1540Y1014D01*
X1541Y1014D01*
X1541Y1014D01*
X1541Y1014D01*
X1541Y1014D01*
X1542Y1014D01*
X1542Y1015D01*
X1542Y1015D01*
X1542Y1015D01*
X1543Y1015D01*
X1543Y1015D01*
X1544Y1015D01*
X1544Y1016D01*
X1544Y1016D01*
X1544Y1016D01*
X1545Y1016D01*
X1545Y1016D01*
X1546Y1016D01*
X1546Y1017D01*
X1546Y1017D01*
X1546Y1017D01*
X1546Y1017D01*
X1546Y1017D01*
X1547Y1017D01*
X1547Y1018D01*
X1547Y1018D01*
X1547Y1018D01*
X1547Y1018D01*
X1547Y1018D01*
X1548Y1018D01*
X1548Y1019D01*
X1549Y1019D01*
X1549Y1019D01*
X1549Y1019D01*
X1549Y1019D01*
X1550Y1019D01*
X1550Y1020D01*
X1550Y1020D01*
X1550Y1020D01*
X1551Y1020D01*
X1551Y1020D01*
X1552Y1020D01*
X1552Y1021D01*
X1552Y1021D01*
X1552Y1021D01*
X1552Y1021D01*
X1552Y1021D01*
X1553Y1021D01*
X1553Y1021D01*
X1554Y1021D01*
X1554Y1022D01*
X1555Y1022D01*
X1555Y1022D01*
X1555Y1022D01*
X1555Y1023D01*
X1555Y1023D01*
X1555Y1023D01*
X1556Y1023D01*
X1556Y1023D01*
X1556Y1023D01*
X1556Y1024D01*
X1557Y1024D01*
X1557Y1024D01*
X1558Y1024D01*
X1558Y1025D01*
X1558Y1025D01*
X1558Y1025D01*
X1559Y1025D01*
X1559Y1025D01*
X1559Y1025D01*
X1559Y1026D01*
X1560Y1026D01*
X1560Y1027D01*
X1561Y1027D01*
X1561Y1027D01*
X1561Y1027D01*
X1561Y1027D01*
X1562Y1027D01*
X1562Y1028D01*
X1562Y1028D01*
X1562Y1028D01*
X1563Y1028D01*
X1563Y1028D01*
X1563Y1028D01*
X1563Y1029D01*
X1563Y1029D01*
X1563Y1029D01*
X1564Y1029D01*
X1564Y1029D01*
X1565Y1029D01*
X1565Y1030D01*
X1565Y1030D01*
X1565Y1030D01*
X1565Y1030D01*
X1565Y1030D01*
X1566Y1030D01*
X1566Y1031D01*
X1566Y1031D01*
X1566Y1031D01*
X1567Y1031D01*
X1567Y1031D01*
X1567Y1031D01*
X1567Y1032D01*
X1567Y1032D01*
X1567Y1032D01*
X1568Y1032D01*
X1568Y1032D01*
X1568Y1032D01*
X1568Y1033D01*
X1569Y1033D01*
X1569Y1033D01*
X1569Y1033D01*
X1569Y1034D01*
X1570Y1034D01*
X1570Y1034D01*
X1570Y1034D01*
X1570Y1035D01*
X1571Y1035D01*
X1571Y1035D01*
X1571Y1035D01*
X1571Y1035D01*
X1571Y1035D01*
X1571Y1036D01*
X1572Y1036D01*
X1572Y1036D01*
X1572Y1036D01*
X1572Y1037D01*
X1573Y1037D01*
X1573Y1037D01*
X1573Y1037D01*
X1573Y1038D01*
X1574Y1038D01*
X1574Y1038D01*
X1574Y1038D01*
X1574Y1039D01*
X1575Y1039D01*
X1575Y1039D01*
X1575Y1039D01*
X1575Y1040D01*
X1575Y1040D01*
X1575Y1040D01*
X1575Y1040D01*
X1575Y1040D01*
X1576Y1040D01*
X1576Y1041D01*
X1576Y1041D01*
X1576Y1041D01*
X1576Y1041D01*
X1576Y1041D01*
X1577Y1041D01*
X1577Y1042D01*
X1577Y1042D01*
X1577Y1042D01*
X1577Y1042D01*
X1577Y1042D01*
X1578Y1042D01*
X1578Y1043D01*
X1578Y1043D01*
X1578Y1043D01*
X1579Y1043D01*
X1579Y1044D01*
X1579Y1044D01*
X1579Y1045D01*
X1579Y1045D01*
X1579Y1045D01*
X1580Y1045D01*
X1580Y1047D01*
X1580Y1047D01*
X1580Y1047D01*
X1580Y1047D01*
X1580Y1048D01*
X1581Y1048D01*
X1581Y1049D01*
X1581Y1049D01*
X1581Y1049D01*
X1581Y1049D01*
X1581Y1050D01*
X1582Y1050D01*
X1582Y1051D01*
X1582Y1051D01*
X1582Y1052D01*
X1582Y1052D01*
X1582Y1052D01*
X1583Y1052D01*
X1583Y1054D01*
X1583Y1054D01*
X1583Y1055D01*
X1583Y1055D01*
X1583Y1056D01*
X1584Y1056D01*
X1584Y1058D01*
X1584Y1058D01*
X1584Y1059D01*
X1584Y1059D01*
X1584Y1061D01*
X1584Y1061D01*
X1584Y1064D01*
X1585Y1064D01*
X1585Y1066D01*
X1585Y1066D01*
X1585Y1069D01*
X1585Y1069D01*
X1585Y1076D01*
X1585Y1076D01*
X1585Y1078D01*
X1585Y1078D01*
X1585Y1080D01*
X1584Y1080D01*
X1584Y1083D01*
X1584Y1083D01*
X1584Y1084D01*
X1584Y1084D01*
X1584Y1085D01*
X1584Y1085D01*
X1584Y1087D01*
X1583Y1087D01*
X1583Y1087D01*
X1583Y1087D01*
X1583Y1088D01*
X1583Y1088D01*
X1583Y1088D01*
X1582Y1088D01*
X1582Y1089D01*
X1582Y1089D01*
X1582Y1089D01*
X1582Y1089D01*
X1582Y1090D01*
X1581Y1090D01*
X1581Y1090D01*
X1581Y1090D01*
X1581Y1091D01*
X1580Y1091D01*
X1580Y1091D01*
X1580Y1091D01*
X1580Y1092D01*
X1579Y1092D01*
X1579Y1093D01*
X1579Y1093D01*
X1579Y1093D01*
X1578Y1093D01*
X1578Y1093D01*
X1578Y1093D01*
X1578Y1094D01*
X1577Y1094D01*
X1577Y1094D01*
X1577Y1094D01*
X1577Y1095D01*
X1576Y1095D01*
X1576Y1095D01*
X1576Y1095D01*
X1576Y1096D01*
X1575Y1096D01*
X1575Y1096D01*
X1575Y1096D01*
X1575Y1097D01*
X1574Y1097D01*
X1574Y1098D01*
X1574Y1098D01*
X1574Y1098D01*
X1573Y1098D01*
X1573Y1099D01*
X1573Y1099D01*
X1573Y1099D01*
X1572Y1099D01*
X1572Y1100D01*
X1572Y1100D01*
X1572Y1100D01*
X1571Y1100D01*
X1571Y1101D01*
X1571Y1101D01*
X1571Y1101D01*
X1570Y1101D01*
X1570Y1102D01*
X1570Y1102D01*
X1570Y1102D01*
X1569Y1102D01*
X1569Y1102D01*
X1569Y1102D01*
X1569Y1103D01*
X1568Y1103D01*
X1568Y1103D01*
X1568Y1103D01*
X1568Y1103D01*
X1568Y1103D01*
X1568Y1104D01*
X1567Y1104D01*
X1567Y1104D01*
X1567Y1104D01*
X1567Y1104D01*
X1567Y1104D01*
X1567Y1105D01*
X1566Y1105D01*
X1566Y1105D01*
X1566Y1105D01*
X1566Y1105D01*
X1566Y1105D01*
X1566Y1106D01*
X1565Y1106D01*
X1565Y1106D01*
X1565Y1106D01*
X1565Y1107D01*
X1565Y1107D01*
X1565Y1107D01*
X1564Y1107D01*
X1564Y1107D01*
X1564Y1107D01*
X1564Y1107D01*
X1564Y1107D01*
X1564Y1108D01*
X1563Y1108D01*
X1563Y1108D01*
X1563Y1108D01*
X1563Y1108D01*
X1563Y1108D01*
X1563Y1109D01*
X1562Y1109D01*
X1562Y1109D01*
X1562Y1109D01*
X1562Y1109D01*
X1562Y1109D01*
X1562Y1110D01*
X1561Y1110D01*
X1561Y1110D01*
X1561Y1110D01*
X1561Y1111D01*
X1560Y1111D01*
X1560Y1111D01*
X1560Y1111D01*
X1560Y1111D01*
X1560Y1111D01*
X1560Y1112D01*
X1559Y1112D01*
X1559Y1112D01*
X1559Y1112D01*
X1559Y1112D01*
X1559Y1112D01*
X1559Y1113D01*
X1558Y1113D01*
X1558Y1113D01*
X1558Y1113D01*
X1558Y1113D01*
X1558Y1113D01*
X1558Y1114D01*
X1557Y1114D01*
X1557Y1114D01*
X1557Y1114D01*
X1557Y1114D01*
X1557Y1114D01*
X1557Y1115D01*
X1556Y1115D01*
X1556Y1115D01*
X1556Y1115D01*
X1556Y1116D01*
X1555Y1116D01*
X1555Y1116D01*
X1555Y1116D01*
X1555Y1116D01*
X1555Y1116D01*
X1555Y1117D01*
X1555Y1117D01*
X1555Y1117D01*
X1554Y1117D01*
X1554Y1117D01*
X1554Y1117D01*
X1554Y1117D01*
X1554Y1117D01*
X1554Y1118D01*
X1553Y1118D01*
X1553Y1118D01*
X1553Y1118D01*
X1553Y1118D01*
X1553Y1118D01*
X1553Y1119D01*
X1552Y1119D01*
X1552Y1119D01*
X1552Y1119D01*
X1552Y1119D01*
X1552Y1119D01*
X1552Y1120D01*
X1551Y1120D01*
X1551Y1120D01*
X1551Y1120D01*
X1551Y1121D01*
X1550Y1121D01*
X1550Y1121D01*
X1550Y1121D01*
X1550Y1122D01*
X1549Y1122D01*
X1549Y1122D01*
X1549Y1122D01*
X1549Y1123D01*
X1548Y1123D01*
X1548Y1123D01*
X1548Y1123D01*
X1548Y1124D01*
X1547Y1124D01*
X1547Y1124D01*
X1547Y1124D01*
X1547Y1125D01*
X1547Y1125D01*
X1547Y1125D01*
X1546Y1125D01*
X1546Y1125D01*
X1546Y1125D01*
X1546Y1126D01*
X1546Y1126D01*
X1546Y1126D01*
X1545Y1126D01*
X1545Y1127D01*
X1545Y1127D01*
X1545Y1127D01*
X1544Y1127D01*
X1544Y1128D01*
X1544Y1128D01*
X1544Y1128D01*
X1543Y1128D01*
X1543Y1129D01*
X1543Y1129D01*
X1543Y1129D01*
X1543Y1129D01*
X1543Y1129D01*
X1542Y1129D01*
X1542Y1130D01*
X1542Y1130D01*
X1542Y1130D01*
X1541Y1130D01*
X1541Y1131D01*
X1541Y1131D01*
X1541Y1131D01*
X1540Y1131D01*
X1540Y1132D01*
X1540Y1132D01*
X1540Y1132D01*
X1540Y1132D01*
X1540Y1133D01*
X1539Y1133D01*
X1539Y1133D01*
X1539Y1133D01*
X1539Y1133D01*
X1539Y1133D01*
X1539Y1134D01*
X1538Y1134D01*
X1538Y1134D01*
X1538Y1134D01*
X1538Y1135D01*
X1538Y1135D01*
X1538Y1135D01*
X1537Y1135D01*
X1537Y1136D01*
X1537Y1136D01*
X1537Y1136D01*
X1536Y1136D01*
X1536Y1136D01*
X1536Y1136D01*
X1536Y1137D01*
X1536Y1137D01*
X1536Y1137D01*
X1536Y1137D01*
X1536Y1138D01*
X1535Y1138D01*
X1535Y1138D01*
X1535Y1138D01*
X1535Y1139D01*
X1534Y1139D01*
X1534Y1139D01*
X1534Y1139D01*
X1534Y1139D01*
X1534Y1139D01*
X1534Y1140D01*
X1533Y1140D01*
X1533Y1141D01*
X1533Y1141D01*
X1533Y1141D01*
X1532Y1141D01*
X1532Y1142D01*
X1532Y1142D01*
X1532Y1142D01*
X1532Y1142D01*
X1532Y1143D01*
X1531Y1143D01*
X1531Y1143D01*
X1531Y1143D01*
X1531Y1144D01*
X1530Y1144D01*
X1530Y1144D01*
X1530Y1144D01*
X1530Y1144D01*
X1530Y1144D01*
X1530Y1145D01*
X1529Y1145D01*
X1529Y1145D01*
X1529Y1145D01*
X1529Y1146D01*
X1529Y1146D01*
X1529Y1146D01*
X1528Y1146D01*
X1528Y1147D01*
X1528Y1147D01*
X1528Y1147D01*
X1528Y1147D01*
X1528Y1147D01*
X1527Y1147D01*
X1527Y1148D01*
X1527Y1148D01*
X1527Y1148D01*
X1527Y1148D01*
X1527Y1149D01*
X1527Y1149D01*
X1527Y1149D01*
X1526Y1149D01*
X1526Y1150D01*
X1526Y1150D01*
X1526Y1150D01*
X1526Y1150D01*
X1526Y1151D01*
X1525Y1151D01*
X1525Y1151D01*
X1525Y1151D01*
X1525Y1152D01*
X1525Y1152D01*
X1525Y1152D01*
X1524Y1152D01*
X1524Y1152D01*
X1524Y1152D01*
X1524Y1153D01*
X1524Y1153D01*
X1524Y1154D01*
X1523Y1154D01*
X1523Y1154D01*
X1523Y1154D01*
X1523Y1155D01*
X1523Y1155D01*
X1523Y1155D01*
X1522Y1155D01*
X1522Y1156D01*
X1521Y1156D01*
X1521Y1156D01*
X1521Y1156D01*
X1521Y1157D01*
X1521Y1157D01*
X1521Y1157D01*
X1520Y1157D01*
X1520Y1158D01*
X1520Y1158D01*
X1520Y1159D01*
X1520Y1159D01*
X1520Y1159D01*
X1519Y1159D01*
X1519Y1160D01*
X1519Y1160D01*
X1519Y1160D01*
X1519Y1160D01*
X1519Y1161D01*
X1518Y1161D01*
X1518Y1162D01*
X1517Y1162D01*
X1517Y1163D01*
X1517Y1163D01*
X1517Y1163D01*
X1517Y1163D01*
X1517Y1164D01*
X1517Y1164D01*
X1517Y1164D01*
X1516Y1164D01*
X1516Y1165D01*
X1516Y1165D01*
X1516Y1165D01*
X1516Y1165D01*
X1516Y1165D01*
X1515Y1165D01*
X1515Y1166D01*
X1515Y1166D01*
X1515Y1166D01*
X1515Y1166D01*
X1515Y1167D01*
X1514Y1167D01*
X1514Y1168D01*
X1514Y1168D01*
X1514Y1168D01*
X1514Y1168D01*
X1514Y1168D01*
X1513Y1168D01*
X1513Y1169D01*
X1513Y1169D01*
X1513Y1170D01*
X1512Y1170D01*
X1512Y1170D01*
X1512Y1170D01*
X1512Y1171D01*
X1512Y1171D01*
X1512Y1172D01*
X1511Y1172D01*
X1511Y1172D01*
X1511Y1172D01*
X1511Y1173D01*
X1511Y1173D01*
X1511Y1173D01*
X1510Y1173D01*
X1510Y1174D01*
X1510Y1174D01*
X1510Y1174D01*
X1510Y1174D01*
X1510Y1175D01*
X1509Y1175D01*
X1509Y1175D01*
X1509Y1175D01*
X1509Y1175D01*
X1509Y1175D01*
X1509Y1176D01*
X1508Y1176D01*
X1508Y1176D01*
X1508Y1176D01*
X1508Y1177D01*
X1508Y1177D01*
X1508Y1178D01*
X1507Y1178D01*
X1507Y1178D01*
X1507Y1178D01*
X1507Y1179D01*
X1507Y1179D01*
X1507Y1180D01*
X1507Y1180D01*
X1507Y1181D01*
X1506Y1181D01*
X1506Y1181D01*
X1506Y1181D01*
X1506Y1182D01*
X1506Y1182D01*
X1506Y1184D01*
X1505Y1184D01*
X1505Y1184D01*
X1505Y1184D01*
X1505Y1185D01*
X1505Y1185D01*
X1505Y1186D01*
X1504Y1186D01*
X1504Y1187D01*
X1504Y1187D01*
X1504Y1187D01*
X1504Y1187D01*
X1504Y1188D01*
X1503Y1188D01*
X1503Y1189D01*
X1503Y1189D01*
X1503Y1189D01*
X1503Y1189D01*
X1503Y1191D01*
X1502Y1191D01*
X1502Y1191D01*
X1502Y1191D01*
X1502Y1192D01*
X1502Y1192D01*
X1502Y1193D01*
X1501Y1193D01*
X1501Y1193D01*
X1501Y1193D01*
X1501Y1194D01*
X1501Y1194D01*
X1501Y1194D01*
X1500Y1194D01*
X1500Y1195D01*
X1500Y1195D01*
X1500Y1195D01*
X1500Y1195D01*
X1500Y1196D01*
X1499Y1196D01*
X1499Y1197D01*
X1499Y1197D01*
X1499Y1197D01*
X1499Y1197D01*
X1499Y1198D01*
X1498Y1198D01*
X1498Y1198D01*
X1498Y1198D01*
X1498Y1199D01*
X1498Y1199D01*
X1498Y1200D01*
X1497Y1200D01*
X1497Y1200D01*
X1497Y1200D01*
X1497Y1201D01*
X1497Y1201D01*
X1497Y1201D01*
X1496Y1201D01*
X1496Y1202D01*
X1496Y1202D01*
X1496Y1202D01*
X1496Y1202D01*
X1496Y1203D01*
X1495Y1203D01*
X1495Y1203D01*
X1495Y1203D01*
X1495Y1203D01*
X1495Y1203D01*
X1495Y1204D01*
X1494Y1204D01*
X1494Y1204D01*
X1494Y1204D01*
X1494Y1205D01*
X1494Y1205D01*
X1494Y1205D01*
X1493Y1205D01*
X1493Y1206D01*
X1493Y1206D01*
X1493Y1206D01*
X1492Y1206D01*
X1492Y1207D01*
X1492Y1207D01*
X1492Y1207D01*
X1491Y1207D01*
X1491Y1208D01*
X1491Y1208D01*
X1491Y1208D01*
X1490Y1208D01*
X1490Y1208D01*
X1490Y1208D01*
X1490Y1209D01*
X1489Y1209D01*
X1489Y1209D01*
X1489Y1209D01*
X1489Y1209D01*
X1488Y1209D01*
X1488Y1210D01*
X1488Y1210D01*
X1488Y1210D01*
X1487Y1210D01*
X1487Y1211D01*
X1487Y1211D01*
X1487Y1211D01*
X1485Y1211D01*
X1485Y1211D01*
X1485Y1211D01*
X1485Y1212D01*
X1484Y1212D01*
X1484Y1212D01*
X1482Y1212D01*
X1482Y1212D01*
X1495Y1212D01*
G37*
D02*
G36*
X1435Y1171D02*
X1435Y1171D01*
X1435Y1171D01*
X1435Y1171D01*
X1435Y1171D01*
X1435Y1170D01*
X1436Y1170D01*
X1436Y1170D01*
X1437Y1170D01*
X1437Y1170D01*
X1437Y1170D01*
X1437Y1169D01*
X1437Y1169D01*
X1437Y1169D01*
X1438Y1169D01*
X1438Y1169D01*
X1438Y1169D01*
X1438Y1168D01*
X1439Y1168D01*
X1439Y1168D01*
X1439Y1168D01*
X1439Y1167D01*
X1440Y1167D01*
X1440Y1167D01*
X1440Y1167D01*
X1440Y1167D01*
X1440Y1167D01*
X1440Y1166D01*
X1441Y1166D01*
X1441Y1166D01*
X1441Y1166D01*
X1441Y1165D01*
X1435Y1165D01*
X1435Y1165D01*
X1435Y1165D01*
X1435Y1165D01*
X1434Y1165D01*
X1434Y1165D01*
X1434Y1165D01*
X1434Y1164D01*
X1433Y1164D01*
X1433Y1164D01*
X1433Y1164D01*
X1433Y1164D01*
X1432Y1164D01*
X1432Y1163D01*
X1432Y1163D01*
X1432Y1163D01*
X1432Y1163D01*
X1432Y1162D01*
X1431Y1162D01*
X1431Y1162D01*
X1431Y1162D01*
X1431Y1162D01*
X1430Y1162D01*
X1430Y1161D01*
X1430Y1161D01*
X1430Y1154D01*
X1430Y1154D01*
X1430Y1152D01*
X1430Y1152D01*
X1430Y1152D01*
X1430Y1152D01*
X1430Y1149D01*
X1431Y1149D01*
X1431Y1148D01*
X1430Y1148D01*
X1430Y1148D01*
X1430Y1148D01*
X1430Y1148D01*
X1429Y1148D01*
X1429Y1147D01*
X1429Y1147D01*
X1429Y1147D01*
X1428Y1147D01*
X1428Y1147D01*
X1428Y1147D01*
X1428Y1146D01*
X1427Y1146D01*
X1427Y1146D01*
X1427Y1146D01*
X1427Y1146D01*
X1426Y1146D01*
X1426Y1145D01*
X1426Y1145D01*
X1426Y1145D01*
X1425Y1145D01*
X1425Y1144D01*
X1424Y1144D01*
X1424Y1144D01*
X1424Y1144D01*
X1424Y1143D01*
X1423Y1143D01*
X1423Y1143D01*
X1423Y1143D01*
X1423Y1142D01*
X1422Y1142D01*
X1422Y1142D01*
X1422Y1142D01*
X1422Y1142D01*
X1422Y1142D01*
X1422Y1141D01*
X1421Y1141D01*
X1421Y1141D01*
X1421Y1141D01*
X1421Y1141D01*
X1421Y1141D01*
X1421Y1140D01*
X1421Y1140D01*
X1421Y1140D01*
X1420Y1140D01*
X1420Y1140D01*
X1420Y1140D01*
X1420Y1139D01*
X1420Y1139D01*
X1420Y1139D01*
X1419Y1139D01*
X1419Y1139D01*
X1419Y1139D01*
X1419Y1138D01*
X1419Y1138D01*
X1419Y1138D01*
X1418Y1138D01*
X1418Y1137D01*
X1418Y1137D01*
X1418Y1137D01*
X1417Y1137D01*
X1417Y1137D01*
X1417Y1137D01*
X1417Y1136D01*
X1417Y1136D01*
X1417Y1136D01*
X1416Y1136D01*
X1416Y1135D01*
X1416Y1135D01*
X1416Y1135D01*
X1415Y1135D01*
X1415Y1135D01*
X1415Y1135D01*
X1415Y1134D01*
X1414Y1134D01*
X1414Y1134D01*
X1414Y1134D01*
X1414Y1133D01*
X1414Y1133D01*
X1414Y1132D01*
X1413Y1132D01*
X1413Y1132D01*
X1413Y1132D01*
X1413Y1131D01*
X1413Y1131D01*
X1413Y1131D01*
X1412Y1131D01*
X1412Y1130D01*
X1412Y1130D01*
X1412Y1129D01*
X1411Y1129D01*
X1411Y1129D01*
X1411Y1129D01*
X1411Y1128D01*
X1411Y1128D01*
X1411Y1127D01*
X1411Y1127D01*
X1411Y1127D01*
X1410Y1127D01*
X1410Y1126D01*
X1410Y1126D01*
X1410Y1125D01*
X1410Y1125D01*
X1410Y1125D01*
X1409Y1125D01*
X1409Y1124D01*
X1409Y1124D01*
X1409Y1123D01*
X1409Y1123D01*
X1409Y1122D01*
X1408Y1122D01*
X1408Y1121D01*
X1408Y1121D01*
X1408Y1120D01*
X1408Y1120D01*
X1408Y1120D01*
X1407Y1120D01*
X1407Y1119D01*
X1407Y1119D01*
X1407Y1118D01*
X1407Y1118D01*
X1407Y1117D01*
X1406Y1117D01*
X1406Y1116D01*
X1406Y1116D01*
X1406Y1115D01*
X1406Y1115D01*
X1406Y1114D01*
X1405Y1114D01*
X1405Y1114D01*
X1405Y1114D01*
X1405Y1113D01*
X1405Y1113D01*
X1405Y1112D01*
X1404Y1112D01*
X1404Y1110D01*
X1404Y1110D01*
X1404Y1110D01*
X1404Y1110D01*
X1404Y1109D01*
X1403Y1109D01*
X1403Y1107D01*
X1404Y1107D01*
X1404Y1106D01*
X1404Y1106D01*
X1404Y1106D01*
X1404Y1106D01*
X1404Y1106D01*
X1405Y1106D01*
X1405Y1105D01*
X1405Y1105D01*
X1405Y1105D01*
X1406Y1105D01*
X1406Y1105D01*
X1406Y1105D01*
X1406Y1104D01*
X1407Y1104D01*
X1407Y1104D01*
X1407Y1104D01*
X1407Y1103D01*
X1408Y1103D01*
X1408Y1103D01*
X1408Y1103D01*
X1408Y1102D01*
X1409Y1102D01*
X1409Y1102D01*
X1410Y1102D01*
X1410Y1102D01*
X1410Y1102D01*
X1410Y1101D01*
X1411Y1101D01*
X1411Y1101D01*
X1412Y1101D01*
X1412Y1101D01*
X1412Y1101D01*
X1412Y1100D01*
X1413Y1100D01*
X1413Y1100D01*
X1413Y1100D01*
X1413Y1100D01*
X1414Y1100D01*
X1414Y1099D01*
X1415Y1099D01*
X1415Y1098D01*
X1416Y1098D01*
X1416Y1098D01*
X1418Y1098D01*
X1418Y1098D01*
X1419Y1098D01*
X1419Y1097D01*
X1419Y1097D01*
X1419Y1097D01*
X1422Y1097D01*
X1422Y1097D01*
X1423Y1097D01*
X1423Y1097D01*
X1424Y1097D01*
X1424Y1096D01*
X1414Y1096D01*
X1414Y1097D01*
X1414Y1097D01*
X1414Y1097D01*
X1413Y1097D01*
X1413Y1097D01*
X1412Y1097D01*
X1412Y1097D01*
X1412Y1097D01*
X1412Y1098D01*
X1411Y1098D01*
X1411Y1098D01*
X1411Y1098D01*
X1411Y1098D01*
X1410Y1098D01*
X1410Y1099D01*
X1410Y1099D01*
X1410Y1099D01*
X1409Y1099D01*
X1409Y1099D01*
X1408Y1099D01*
X1408Y1100D01*
X1407Y1100D01*
X1407Y1100D01*
X1407Y1100D01*
X1407Y1101D01*
X1406Y1101D01*
X1406Y1101D01*
X1406Y1101D01*
X1406Y1101D01*
X1405Y1101D01*
X1405Y1102D01*
X1405Y1102D01*
X1405Y1102D01*
X1404Y1102D01*
X1404Y1102D01*
X1403Y1102D01*
X1403Y1103D01*
X1403Y1103D01*
X1403Y1103D01*
X1402Y1103D01*
X1402Y1103D01*
X1402Y1103D01*
X1402Y1104D01*
X1401Y1104D01*
X1401Y1104D01*
X1401Y1104D01*
X1401Y1105D01*
X1401Y1105D01*
X1401Y1105D01*
X1400Y1105D01*
X1400Y1105D01*
X1400Y1105D01*
X1400Y1106D01*
X1400Y1106D01*
X1400Y1106D01*
X1399Y1106D01*
X1399Y1106D01*
X1399Y1106D01*
X1399Y1107D01*
X1399Y1107D01*
X1399Y1108D01*
X1398Y1108D01*
X1398Y1108D01*
X1398Y1108D01*
X1398Y1109D01*
X1398Y1109D01*
X1398Y1114D01*
X1398Y1114D01*
X1398Y1115D01*
X1398Y1115D01*
X1398Y1115D01*
X1399Y1115D01*
X1399Y1116D01*
X1400Y1116D01*
X1400Y1116D01*
X1400Y1116D01*
X1400Y1117D01*
X1400Y1117D01*
X1400Y1117D01*
X1401Y1117D01*
X1401Y1118D01*
X1401Y1118D01*
X1401Y1119D01*
X1401Y1119D01*
X1401Y1120D01*
X1401Y1120D01*
X1401Y1121D01*
X1402Y1121D01*
X1402Y1122D01*
X1402Y1122D01*
X1402Y1122D01*
X1402Y1122D01*
X1402Y1124D01*
X1403Y1124D01*
X1403Y1124D01*
X1403Y1124D01*
X1403Y1125D01*
X1403Y1125D01*
X1403Y1126D01*
X1404Y1126D01*
X1404Y1126D01*
X1404Y1126D01*
X1404Y1127D01*
X1404Y1127D01*
X1404Y1128D01*
X1405Y1128D01*
X1405Y1128D01*
X1405Y1128D01*
X1405Y1129D01*
X1405Y1129D01*
X1405Y1130D01*
X1406Y1130D01*
X1406Y1131D01*
X1406Y1131D01*
X1406Y1131D01*
X1406Y1131D01*
X1406Y1132D01*
X1407Y1132D01*
X1407Y1133D01*
X1407Y1133D01*
X1407Y1133D01*
X1407Y1133D01*
X1407Y1134D01*
X1408Y1134D01*
X1408Y1134D01*
X1408Y1134D01*
X1408Y1135D01*
X1408Y1135D01*
X1408Y1135D01*
X1409Y1135D01*
X1409Y1136D01*
X1409Y1136D01*
X1409Y1137D01*
X1410Y1137D01*
X1410Y1137D01*
X1410Y1137D01*
X1410Y1137D01*
X1410Y1137D01*
X1410Y1138D01*
X1411Y1138D01*
X1411Y1138D01*
X1411Y1138D01*
X1411Y1139D01*
X1411Y1139D01*
X1411Y1139D01*
X1411Y1139D01*
X1411Y1140D01*
X1412Y1140D01*
X1412Y1141D01*
X1413Y1141D01*
X1413Y1141D01*
X1413Y1141D01*
X1413Y1142D01*
X1414Y1142D01*
X1414Y1142D01*
X1414Y1142D01*
X1414Y1143D01*
X1415Y1143D01*
X1415Y1143D01*
X1415Y1143D01*
X1415Y1144D01*
X1416Y1144D01*
X1416Y1144D01*
X1416Y1144D01*
X1416Y1145D01*
X1417Y1145D01*
X1417Y1145D01*
X1417Y1145D01*
X1417Y1146D01*
X1418Y1146D01*
X1418Y1146D01*
X1418Y1146D01*
X1418Y1146D01*
X1419Y1146D01*
X1419Y1147D01*
X1419Y1147D01*
X1419Y1147D01*
X1419Y1147D01*
X1419Y1147D01*
X1420Y1147D01*
X1420Y1148D01*
X1420Y1148D01*
X1420Y1148D01*
X1421Y1148D01*
X1421Y1149D01*
X1421Y1149D01*
X1421Y1149D01*
X1422Y1149D01*
X1422Y1150D01*
X1422Y1150D01*
X1422Y1150D01*
X1422Y1150D01*
X1422Y1150D01*
X1423Y1150D01*
X1423Y1151D01*
X1423Y1151D01*
X1423Y1151D01*
X1424Y1151D01*
X1424Y1151D01*
X1424Y1151D01*
X1424Y1152D01*
X1424Y1152D01*
X1424Y1152D01*
X1425Y1152D01*
X1425Y1152D01*
X1425Y1152D01*
X1425Y1153D01*
X1426Y1153D01*
X1426Y1153D01*
X1427Y1153D01*
X1427Y1154D01*
X1426Y1154D01*
X1426Y1155D01*
X1426Y1155D01*
X1426Y1156D01*
X1426Y1156D01*
X1426Y1159D01*
X1425Y1159D01*
X1425Y1165D01*
X1425Y1165D01*
X1425Y1165D01*
X1425Y1165D01*
X1425Y1166D01*
X1426Y1166D01*
X1426Y1166D01*
X1426Y1166D01*
X1426Y1166D01*
X1427Y1166D01*
X1427Y1167D01*
X1427Y1167D01*
X1427Y1167D01*
X1427Y1167D01*
X1427Y1167D01*
X1428Y1167D01*
X1428Y1168D01*
X1428Y1168D01*
X1428Y1168D01*
X1429Y1168D01*
X1429Y1168D01*
X1429Y1168D01*
X1429Y1169D01*
X1429Y1169D01*
X1429Y1169D01*
X1430Y1169D01*
X1430Y1169D01*
X1430Y1169D01*
X1430Y1170D01*
X1430Y1170D01*
X1430Y1170D01*
X1431Y1170D01*
X1431Y1171D01*
X1432Y1171D01*
X1432Y1171D01*
X1435Y1171D01*
G37*
D02*
G36*
X1441Y1165D02*
X1441Y1165D01*
X1441Y1165D01*
X1441Y1165D01*
X1442Y1165D01*
X1442Y1164D01*
X1442Y1164D01*
X1442Y1163D01*
X1442Y1163D01*
X1442Y1163D01*
X1443Y1163D01*
X1443Y1162D01*
X1443Y1162D01*
X1443Y1161D01*
X1443Y1161D01*
X1443Y1161D01*
X1444Y1161D01*
X1444Y1160D01*
X1444Y1160D01*
X1444Y1159D01*
X1444Y1159D01*
X1444Y1159D01*
X1445Y1159D01*
X1445Y1158D01*
X1443Y1158D01*
X1443Y1160D01*
X1442Y1160D01*
X1442Y1160D01*
X1442Y1160D01*
X1442Y1161D01*
X1442Y1161D01*
X1442Y1161D01*
X1441Y1161D01*
X1441Y1162D01*
X1441Y1162D01*
X1441Y1162D01*
X1441Y1162D01*
X1441Y1162D01*
X1440Y1162D01*
X1440Y1163D01*
X1440Y1163D01*
X1440Y1163D01*
X1440Y1163D01*
X1440Y1163D01*
X1439Y1163D01*
X1439Y1164D01*
X1439Y1164D01*
X1439Y1164D01*
X1439Y1164D01*
X1439Y1164D01*
X1438Y1164D01*
X1438Y1165D01*
X1438Y1165D01*
X1438Y1165D01*
X1437Y1165D01*
X1437Y1165D01*
X1441Y1165D01*
G37*
D02*
G36*
X1456Y1159D02*
X1456Y1159D01*
X1457Y1159D01*
X1457Y1158D01*
X1458Y1158D01*
X1458Y1158D01*
X1446Y1158D01*
X1446Y1158D01*
X1447Y1158D01*
X1447Y1159D01*
X1448Y1159D01*
X1448Y1159D01*
X1456Y1159D01*
G37*
D02*
G36*
X1459Y1158D02*
X1459Y1158D01*
X1443Y1158D01*
X1443Y1158D01*
X1459Y1158D01*
G37*
D02*
G36*
X1459Y1158D02*
X1459Y1158D01*
X1443Y1158D01*
X1443Y1158D01*
X1459Y1158D01*
G37*
D02*
G36*
X1460Y1158D02*
X1460Y1157D01*
X1460Y1157D01*
X1460Y1157D01*
X1461Y1157D01*
X1461Y1157D01*
X1462Y1157D01*
X1462Y1156D01*
X1462Y1156D01*
X1462Y1156D01*
X1463Y1156D01*
X1463Y1156D01*
X1463Y1156D01*
X1463Y1155D01*
X1464Y1155D01*
X1464Y1155D01*
X1464Y1155D01*
X1464Y1155D01*
X1465Y1155D01*
X1465Y1154D01*
X1466Y1154D01*
X1466Y1154D01*
X1451Y1154D01*
X1451Y1154D01*
X1450Y1154D01*
X1450Y1153D01*
X1448Y1153D01*
X1448Y1153D01*
X1448Y1153D01*
X1448Y1153D01*
X1447Y1153D01*
X1447Y1152D01*
X1444Y1152D01*
X1444Y1153D01*
X1444Y1153D01*
X1444Y1153D01*
X1444Y1153D01*
X1444Y1156D01*
X1443Y1156D01*
X1443Y1157D01*
X1443Y1157D01*
X1443Y1158D01*
X1460Y1158D01*
G37*
D02*
G36*
X1466Y1154D02*
X1466Y1154D01*
X1467Y1154D01*
X1467Y1153D01*
X1467Y1153D01*
X1467Y1153D01*
X1468Y1153D01*
X1468Y1153D01*
X1468Y1153D01*
X1468Y1152D01*
X1468Y1152D01*
X1468Y1152D01*
X1469Y1152D01*
X1469Y1151D01*
X1469Y1151D01*
X1469Y1151D01*
X1470Y1151D01*
X1470Y1150D01*
X1471Y1150D01*
X1471Y1150D01*
X1471Y1150D01*
X1471Y1149D01*
X1472Y1149D01*
X1472Y1149D01*
X1472Y1149D01*
X1472Y1148D01*
X1473Y1148D01*
X1473Y1148D01*
X1473Y1148D01*
X1473Y1148D01*
X1473Y1148D01*
X1473Y1147D01*
X1474Y1147D01*
X1474Y1147D01*
X1474Y1147D01*
X1474Y1147D01*
X1474Y1147D01*
X1474Y1146D01*
X1475Y1146D01*
X1475Y1146D01*
X1475Y1146D01*
X1475Y1146D01*
X1475Y1146D01*
X1475Y1146D01*
X1476Y1146D01*
X1476Y1145D01*
X1476Y1145D01*
X1476Y1145D01*
X1471Y1145D01*
X1471Y1145D01*
X1471Y1145D01*
X1471Y1146D01*
X1470Y1146D01*
X1470Y1146D01*
X1470Y1146D01*
X1470Y1146D01*
X1469Y1146D01*
X1469Y1147D01*
X1469Y1147D01*
X1469Y1147D01*
X1468Y1147D01*
X1468Y1148D01*
X1467Y1148D01*
X1467Y1148D01*
X1467Y1148D01*
X1467Y1149D01*
X1467Y1149D01*
X1467Y1149D01*
X1466Y1149D01*
X1466Y1149D01*
X1465Y1149D01*
X1465Y1150D01*
X1465Y1150D01*
X1465Y1150D01*
X1465Y1150D01*
X1465Y1150D01*
X1464Y1150D01*
X1464Y1151D01*
X1463Y1151D01*
X1463Y1151D01*
X1463Y1151D01*
X1463Y1152D01*
X1462Y1152D01*
X1462Y1152D01*
X1461Y1152D01*
X1461Y1152D01*
X1460Y1152D01*
X1460Y1153D01*
X1460Y1153D01*
X1460Y1153D01*
X1459Y1153D01*
X1459Y1153D01*
X1458Y1153D01*
X1458Y1154D01*
X1456Y1154D01*
X1456Y1154D01*
X1466Y1154D01*
G37*
D02*
G36*
X1480Y1145D02*
X1480Y1145D01*
X1471Y1145D01*
X1471Y1145D01*
X1480Y1145D01*
G37*
D02*
G36*
X1480Y1145D02*
X1480Y1145D01*
X1471Y1145D01*
X1471Y1145D01*
X1480Y1145D01*
G37*
D02*
G36*
X1481Y1145D02*
X1481Y1144D01*
X1481Y1144D01*
X1481Y1144D01*
X1481Y1144D01*
X1481Y1143D01*
X1482Y1143D01*
X1482Y1143D01*
X1482Y1143D01*
X1482Y1142D01*
X1482Y1142D01*
X1482Y1142D01*
X1483Y1142D01*
X1483Y1141D01*
X1483Y1141D01*
X1483Y1141D01*
X1483Y1141D01*
X1483Y1140D01*
X1484Y1140D01*
X1484Y1140D01*
X1484Y1140D01*
X1484Y1139D01*
X1484Y1139D01*
X1484Y1139D01*
X1485Y1139D01*
X1485Y1138D01*
X1485Y1138D01*
X1485Y1138D01*
X1485Y1138D01*
X1485Y1137D01*
X1486Y1137D01*
X1486Y1137D01*
X1486Y1137D01*
X1486Y1136D01*
X1486Y1136D01*
X1486Y1136D01*
X1487Y1136D01*
X1487Y1135D01*
X1487Y1135D01*
X1487Y1135D01*
X1487Y1135D01*
X1487Y1134D01*
X1488Y1134D01*
X1488Y1134D01*
X1488Y1134D01*
X1488Y1134D01*
X1488Y1134D01*
X1488Y1133D01*
X1488Y1133D01*
X1488Y1133D01*
X1489Y1133D01*
X1489Y1132D01*
X1489Y1132D01*
X1489Y1132D01*
X1489Y1132D01*
X1489Y1132D01*
X1490Y1132D01*
X1490Y1131D01*
X1490Y1131D01*
X1490Y1130D01*
X1490Y1130D01*
X1490Y1130D01*
X1491Y1130D01*
X1491Y1129D01*
X1491Y1129D01*
X1491Y1129D01*
X1491Y1129D01*
X1491Y1128D01*
X1492Y1128D01*
X1492Y1128D01*
X1492Y1128D01*
X1492Y1127D01*
X1492Y1127D01*
X1492Y1127D01*
X1493Y1127D01*
X1493Y1126D01*
X1493Y1126D01*
X1493Y1125D01*
X1492Y1125D01*
X1492Y1125D01*
X1492Y1125D01*
X1492Y1125D01*
X1491Y1125D01*
X1491Y1126D01*
X1491Y1126D01*
X1491Y1126D01*
X1490Y1126D01*
X1490Y1126D01*
X1490Y1126D01*
X1490Y1126D01*
X1490Y1126D01*
X1490Y1127D01*
X1489Y1127D01*
X1489Y1127D01*
X1489Y1127D01*
X1489Y1127D01*
X1489Y1127D01*
X1489Y1128D01*
X1488Y1128D01*
X1488Y1128D01*
X1488Y1128D01*
X1488Y1129D01*
X1488Y1129D01*
X1488Y1129D01*
X1487Y1129D01*
X1487Y1130D01*
X1487Y1130D01*
X1487Y1130D01*
X1486Y1130D01*
X1486Y1131D01*
X1486Y1131D01*
X1486Y1131D01*
X1485Y1131D01*
X1485Y1132D01*
X1485Y1132D01*
X1485Y1132D01*
X1484Y1132D01*
X1484Y1133D01*
X1484Y1133D01*
X1484Y1133D01*
X1483Y1133D01*
X1483Y1134D01*
X1483Y1134D01*
X1483Y1134D01*
X1482Y1134D01*
X1482Y1135D01*
X1482Y1135D01*
X1482Y1135D01*
X1481Y1135D01*
X1481Y1136D01*
X1481Y1136D01*
X1481Y1136D01*
X1480Y1136D01*
X1480Y1136D01*
X1480Y1136D01*
X1480Y1137D01*
X1479Y1137D01*
X1479Y1137D01*
X1479Y1137D01*
X1479Y1138D01*
X1478Y1138D01*
X1478Y1138D01*
X1478Y1138D01*
X1478Y1139D01*
X1478Y1139D01*
X1478Y1139D01*
X1477Y1139D01*
X1477Y1140D01*
X1477Y1140D01*
X1477Y1140D01*
X1476Y1140D01*
X1476Y1141D01*
X1476Y1141D01*
X1476Y1141D01*
X1475Y1141D01*
X1475Y1141D01*
X1475Y1141D01*
X1475Y1142D01*
X1475Y1142D01*
X1475Y1142D01*
X1474Y1142D01*
X1474Y1142D01*
X1474Y1142D01*
X1474Y1143D01*
X1474Y1143D01*
X1474Y1143D01*
X1473Y1143D01*
X1473Y1143D01*
X1473Y1143D01*
X1473Y1144D01*
X1473Y1144D01*
X1473Y1144D01*
X1472Y1144D01*
X1472Y1144D01*
X1472Y1144D01*
X1472Y1145D01*
X1481Y1145D01*
G37*
D02*
G36*
X1436Y1097D02*
X1436Y1096D01*
X1428Y1096D01*
X1428Y1097D01*
X1436Y1097D01*
G37*
D02*
G36*
X1439Y1096D02*
X1439Y1096D01*
X1416Y1096D01*
X1416Y1096D01*
X1439Y1096D01*
G37*
D02*
G36*
X1439Y1096D02*
X1439Y1096D01*
X1416Y1096D01*
X1416Y1096D01*
X1439Y1096D01*
G37*
D02*
G36*
X1440Y1096D02*
X1440Y1095D01*
X1440Y1095D01*
X1440Y1095D01*
X1441Y1095D01*
X1441Y1095D01*
X1441Y1095D01*
X1441Y1094D01*
X1430Y1094D01*
X1430Y1094D01*
X1428Y1094D01*
X1428Y1094D01*
X1426Y1094D01*
X1426Y1094D01*
X1423Y1094D01*
X1423Y1094D01*
X1421Y1094D01*
X1421Y1095D01*
X1419Y1095D01*
X1419Y1095D01*
X1419Y1095D01*
X1419Y1095D01*
X1417Y1095D01*
X1417Y1096D01*
X1417Y1096D01*
X1417Y1096D01*
X1440Y1096D01*
G37*
D02*
G36*
X1441Y1094D02*
X1441Y1094D01*
X1442Y1094D01*
X1442Y1093D01*
X1442Y1093D01*
X1442Y1093D01*
X1442Y1093D01*
X1442Y1093D01*
X1443Y1093D01*
X1443Y1092D01*
X1443Y1092D01*
X1443Y1091D01*
X1443Y1091D01*
X1443Y1091D01*
X1443Y1091D01*
X1443Y1090D01*
X1443Y1090D01*
X1443Y1087D01*
X1442Y1087D01*
X1442Y1082D01*
X1443Y1082D01*
X1443Y1079D01*
X1443Y1079D01*
X1443Y1078D01*
X1443Y1078D01*
X1443Y1078D01*
X1444Y1078D01*
X1444Y1076D01*
X1444Y1076D01*
X1444Y1076D01*
X1444Y1076D01*
X1444Y1075D01*
X1445Y1075D01*
X1445Y1075D01*
X1445Y1075D01*
X1445Y1074D01*
X1446Y1074D01*
X1446Y1073D01*
X1446Y1073D01*
X1446Y1072D01*
X1446Y1072D01*
X1446Y1072D01*
X1447Y1072D01*
X1447Y1071D01*
X1447Y1071D01*
X1447Y1070D01*
X1448Y1070D01*
X1448Y1070D01*
X1448Y1070D01*
X1448Y1070D01*
X1449Y1070D01*
X1449Y1069D01*
X1449Y1069D01*
X1449Y1069D01*
X1449Y1069D01*
X1449Y1069D01*
X1450Y1069D01*
X1450Y1068D01*
X1450Y1068D01*
X1450Y1068D01*
X1450Y1068D01*
X1450Y1068D01*
X1450Y1068D01*
X1450Y1067D01*
X1451Y1067D01*
X1451Y1067D01*
X1451Y1067D01*
X1451Y1066D01*
X1452Y1066D01*
X1452Y1066D01*
X1452Y1066D01*
X1452Y1066D01*
X1452Y1066D01*
X1452Y1065D01*
X1453Y1065D01*
X1453Y1065D01*
X1449Y1065D01*
X1449Y1065D01*
X1448Y1065D01*
X1448Y1066D01*
X1448Y1066D01*
X1448Y1066D01*
X1448Y1066D01*
X1448Y1066D01*
X1447Y1066D01*
X1447Y1067D01*
X1447Y1067D01*
X1447Y1067D01*
X1446Y1067D01*
X1446Y1068D01*
X1446Y1068D01*
X1446Y1068D01*
X1446Y1068D01*
X1446Y1069D01*
X1445Y1069D01*
X1445Y1069D01*
X1445Y1069D01*
X1445Y1069D01*
X1445Y1069D01*
X1445Y1069D01*
X1444Y1069D01*
X1444Y1070D01*
X1444Y1070D01*
X1444Y1071D01*
X1443Y1071D01*
X1443Y1071D01*
X1443Y1071D01*
X1443Y1072D01*
X1443Y1072D01*
X1443Y1072D01*
X1442Y1072D01*
X1442Y1073D01*
X1442Y1073D01*
X1442Y1074D01*
X1441Y1074D01*
X1441Y1075D01*
X1441Y1075D01*
X1441Y1075D01*
X1441Y1075D01*
X1441Y1076D01*
X1440Y1076D01*
X1440Y1077D01*
X1440Y1077D01*
X1440Y1078D01*
X1440Y1078D01*
X1440Y1079D01*
X1440Y1079D01*
X1440Y1080D01*
X1439Y1080D01*
X1439Y1082D01*
X1439Y1082D01*
X1439Y1087D01*
X1439Y1087D01*
X1439Y1089D01*
X1440Y1089D01*
X1440Y1091D01*
X1440Y1091D01*
X1440Y1092D01*
X1440Y1092D01*
X1440Y1093D01*
X1439Y1093D01*
X1439Y1093D01*
X1439Y1093D01*
X1439Y1094D01*
X1439Y1094D01*
X1439Y1094D01*
X1441Y1094D01*
G37*
D02*
G36*
X1457Y1067D02*
X1457Y1066D01*
X1458Y1066D01*
X1458Y1066D01*
X1458Y1066D01*
X1458Y1066D01*
X1458Y1066D01*
X1458Y1065D01*
X1459Y1065D01*
X1459Y1065D01*
X1454Y1065D01*
X1454Y1065D01*
X1454Y1065D01*
X1454Y1066D01*
X1455Y1066D01*
X1455Y1066D01*
X1456Y1066D01*
X1456Y1067D01*
X1457Y1067D01*
G37*
D02*
G36*
X1459Y1065D02*
X1459Y1065D01*
X1449Y1065D01*
X1449Y1065D01*
X1459Y1065D01*
G37*
D02*
G36*
X1459Y1065D02*
X1459Y1065D01*
X1449Y1065D01*
X1449Y1065D01*
X1459Y1065D01*
G37*
D02*
G36*
X1459Y1065D02*
X1459Y1064D01*
X1461Y1064D01*
X1461Y1064D01*
X1464Y1064D01*
X1464Y1064D01*
X1456Y1064D01*
X1456Y1063D01*
X1455Y1063D01*
X1455Y1063D01*
X1454Y1063D01*
X1454Y1063D01*
X1452Y1063D01*
X1452Y1063D01*
X1451Y1063D01*
X1451Y1063D01*
X1450Y1063D01*
X1450Y1064D01*
X1450Y1064D01*
X1450Y1064D01*
X1450Y1064D01*
X1450Y1064D01*
X1450Y1064D01*
X1450Y1065D01*
X1459Y1065D01*
G37*
D02*
G36*
X1464Y1064D02*
X1464Y1041D01*
X1464Y1041D01*
X1464Y1039D01*
X1465Y1039D01*
X1465Y1037D01*
X1465Y1037D01*
X1465Y1034D01*
X1465Y1034D01*
X1465Y1034D01*
X1466Y1034D01*
X1466Y1033D01*
X1466Y1033D01*
X1466Y1031D01*
X1466Y1031D01*
X1466Y1031D01*
X1467Y1031D01*
X1467Y1030D01*
X1467Y1030D01*
X1467Y1029D01*
X1467Y1029D01*
X1467Y1029D01*
X1468Y1029D01*
X1468Y1028D01*
X1468Y1028D01*
X1468Y1028D01*
X1469Y1028D01*
X1469Y1027D01*
X1469Y1027D01*
X1469Y1026D01*
X1469Y1026D01*
X1469Y1026D01*
X1469Y1026D01*
X1469Y1026D01*
X1470Y1026D01*
X1470Y1025D01*
X1470Y1025D01*
X1470Y1025D01*
X1470Y1025D01*
X1470Y1024D01*
X1471Y1024D01*
X1471Y1024D01*
X1471Y1024D01*
X1471Y1024D01*
X1472Y1024D01*
X1472Y1023D01*
X1472Y1023D01*
X1472Y1023D01*
X1473Y1023D01*
X1473Y1022D01*
X1473Y1022D01*
X1473Y1022D01*
X1474Y1022D01*
X1474Y1021D01*
X1474Y1021D01*
X1474Y1021D01*
X1474Y1021D01*
X1474Y1021D01*
X1475Y1021D01*
X1475Y1020D01*
X1475Y1020D01*
X1475Y1020D01*
X1476Y1020D01*
X1476Y1019D01*
X1476Y1019D01*
X1476Y1019D01*
X1477Y1019D01*
X1477Y1018D01*
X1477Y1018D01*
X1477Y1018D01*
X1478Y1018D01*
X1478Y1017D01*
X1478Y1017D01*
X1478Y1017D01*
X1478Y1017D01*
X1478Y1016D01*
X1479Y1016D01*
X1479Y1015D01*
X1480Y1015D01*
X1480Y1015D01*
X1480Y1015D01*
X1480Y1014D01*
X1481Y1014D01*
X1481Y1014D01*
X1481Y1014D01*
X1481Y1013D01*
X1481Y1013D01*
X1481Y1012D01*
X1482Y1012D01*
X1482Y1011D01*
X1471Y1011D01*
X1471Y1011D01*
X1473Y1011D01*
X1473Y1011D01*
X1478Y1011D01*
X1478Y1012D01*
X1478Y1012D01*
X1478Y1012D01*
X1478Y1012D01*
X1478Y1013D01*
X1477Y1013D01*
X1477Y1013D01*
X1477Y1013D01*
X1477Y1013D01*
X1476Y1013D01*
X1476Y1014D01*
X1476Y1014D01*
X1476Y1014D01*
X1476Y1014D01*
X1476Y1014D01*
X1475Y1014D01*
X1475Y1015D01*
X1475Y1015D01*
X1475Y1015D01*
X1475Y1015D01*
X1475Y1015D01*
X1474Y1015D01*
X1474Y1016D01*
X1474Y1016D01*
X1474Y1016D01*
X1474Y1016D01*
X1474Y1016D01*
X1473Y1016D01*
X1473Y1017D01*
X1473Y1017D01*
X1473Y1017D01*
X1473Y1017D01*
X1473Y1017D01*
X1472Y1017D01*
X1472Y1018D01*
X1472Y1018D01*
X1472Y1018D01*
X1472Y1018D01*
X1472Y1018D01*
X1471Y1018D01*
X1471Y1019D01*
X1471Y1019D01*
X1471Y1019D01*
X1471Y1019D01*
X1471Y1019D01*
X1470Y1019D01*
X1470Y1020D01*
X1470Y1020D01*
X1470Y1020D01*
X1470Y1020D01*
X1470Y1020D01*
X1469Y1020D01*
X1469Y1021D01*
X1469Y1021D01*
X1469Y1021D01*
X1469Y1021D01*
X1469Y1021D01*
X1469Y1021D01*
X1469Y1021D01*
X1468Y1021D01*
X1468Y1022D01*
X1468Y1022D01*
X1468Y1022D01*
X1468Y1022D01*
X1468Y1023D01*
X1467Y1023D01*
X1467Y1024D01*
X1467Y1024D01*
X1467Y1024D01*
X1466Y1024D01*
X1466Y1025D01*
X1466Y1025D01*
X1466Y1025D01*
X1466Y1025D01*
X1466Y1026D01*
X1465Y1026D01*
X1465Y1026D01*
X1465Y1026D01*
X1465Y1027D01*
X1465Y1027D01*
X1465Y1028D01*
X1464Y1028D01*
X1464Y1028D01*
X1464Y1028D01*
X1464Y1030D01*
X1464Y1030D01*
X1464Y1030D01*
X1463Y1030D01*
X1463Y1031D01*
X1463Y1031D01*
X1463Y1033D01*
X1463Y1033D01*
X1463Y1034D01*
X1462Y1034D01*
X1462Y1036D01*
X1462Y1036D01*
X1462Y1062D01*
X1459Y1062D01*
X1459Y1062D01*
X1457Y1062D01*
X1457Y1063D01*
X1457Y1063D01*
X1457Y1063D01*
X1456Y1063D01*
X1456Y1064D01*
X1464Y1064D01*
G37*
D02*
G36*
X1458Y1014D02*
X1458Y1014D01*
X1458Y1014D01*
X1458Y1013D01*
X1459Y1013D01*
X1459Y1013D01*
X1459Y1013D01*
X1459Y1013D01*
X1460Y1013D01*
X1460Y1012D01*
X1461Y1012D01*
X1461Y1012D01*
X1461Y1012D01*
X1461Y1012D01*
X1462Y1012D01*
X1462Y1011D01*
X1464Y1011D01*
X1464Y1011D01*
X1464Y1011D01*
X1464Y1011D01*
X1448Y1011D01*
X1448Y1011D01*
X1449Y1011D01*
X1449Y1011D01*
X1450Y1011D01*
X1450Y1012D01*
X1450Y1012D01*
X1450Y1012D01*
X1451Y1012D01*
X1451Y1012D01*
X1453Y1012D01*
X1453Y1013D01*
X1454Y1013D01*
X1454Y1013D01*
X1454Y1013D01*
X1454Y1013D01*
X1456Y1013D01*
X1456Y1014D01*
X1457Y1014D01*
X1457Y1014D01*
X1458Y1014D01*
G37*
D02*
G36*
X1481Y1011D02*
X1481Y1011D01*
X1447Y1011D01*
X1447Y1011D01*
X1481Y1011D01*
G37*
D02*
G36*
X1481Y1011D02*
X1481Y1011D01*
X1447Y1011D01*
X1447Y1011D01*
X1481Y1011D01*
G37*
D02*
G36*
X1481Y1011D02*
X1481Y1010D01*
X1481Y1010D01*
X1481Y1010D01*
X1455Y1010D01*
X1455Y1009D01*
X1455Y1009D01*
X1455Y1009D01*
X1454Y1009D01*
X1454Y1009D01*
X1452Y1009D01*
X1452Y1008D01*
X1451Y1008D01*
X1451Y1008D01*
X1450Y1008D01*
X1450Y1008D01*
X1449Y1008D01*
X1449Y1007D01*
X1449Y1007D01*
X1449Y1007D01*
X1448Y1007D01*
X1448Y1007D01*
X1447Y1007D01*
X1447Y1006D01*
X1447Y1006D01*
X1447Y1005D01*
X1447Y1005D01*
X1447Y1005D01*
X1448Y1005D01*
X1448Y1005D01*
X1448Y1005D01*
X1448Y1004D01*
X1448Y1004D01*
X1448Y1004D01*
X1449Y1004D01*
X1449Y1004D01*
X1449Y1004D01*
X1449Y1003D01*
X1449Y1003D01*
X1449Y1003D01*
X1450Y1003D01*
X1450Y1003D01*
X1450Y1003D01*
X1450Y1002D01*
X1450Y1002D01*
X1450Y1002D01*
X1453Y1002D01*
X1453Y1002D01*
X1465Y1002D01*
X1465Y1001D01*
X1470Y1001D01*
X1470Y1001D01*
X1477Y1001D01*
X1477Y1001D01*
X1498Y1001D01*
X1498Y1001D01*
X1444Y1001D01*
X1444Y1001D01*
X1444Y1001D01*
X1444Y1001D01*
X1443Y1001D01*
X1443Y1002D01*
X1443Y1002D01*
X1443Y1003D01*
X1442Y1003D01*
X1442Y1003D01*
X1442Y1003D01*
X1442Y1007D01*
X1442Y1007D01*
X1442Y1008D01*
X1443Y1008D01*
X1443Y1008D01*
X1443Y1008D01*
X1443Y1009D01*
X1444Y1009D01*
X1444Y1009D01*
X1444Y1009D01*
X1444Y1010D01*
X1445Y1010D01*
X1445Y1010D01*
X1445Y1010D01*
X1445Y1010D01*
X1446Y1010D01*
X1446Y1011D01*
X1481Y1011D01*
G37*
D02*
G36*
X1481Y1010D02*
X1481Y1009D01*
X1480Y1009D01*
X1480Y1009D01*
X1480Y1009D01*
X1480Y1008D01*
X1479Y1008D01*
X1479Y1008D01*
X1478Y1008D01*
X1478Y1007D01*
X1477Y1007D01*
X1477Y1007D01*
X1475Y1007D01*
X1475Y1007D01*
X1470Y1007D01*
X1470Y1006D01*
X1468Y1006D01*
X1468Y1006D01*
X1465Y1006D01*
X1465Y1006D01*
X1463Y1006D01*
X1463Y1007D01*
X1461Y1007D01*
X1461Y1007D01*
X1460Y1007D01*
X1460Y1007D01*
X1460Y1007D01*
X1460Y1008D01*
X1459Y1008D01*
X1459Y1008D01*
X1458Y1008D01*
X1458Y1008D01*
X1458Y1008D01*
X1458Y1009D01*
X1457Y1009D01*
X1457Y1009D01*
X1456Y1009D01*
X1456Y1009D01*
X1456Y1009D01*
X1456Y1010D01*
X1481Y1010D01*
G37*
D02*
G36*
X1534Y1001D02*
X1534Y1000D01*
X1445Y1000D01*
X1445Y1001D01*
X1534Y1001D01*
G37*
D02*
G36*
X1534Y1001D02*
X1534Y1000D01*
X1445Y1000D01*
X1445Y1001D01*
X1534Y1001D01*
G37*
D02*
G36*
X1534Y1000D02*
X1534Y996D01*
X1533Y996D01*
X1533Y996D01*
X1533Y996D01*
X1533Y996D01*
X1533Y996D01*
X1533Y995D01*
X1532Y995D01*
X1532Y995D01*
X1499Y995D01*
X1499Y995D01*
X1486Y995D01*
X1486Y996D01*
X1477Y996D01*
X1477Y996D01*
X1463Y996D01*
X1463Y996D01*
X1459Y996D01*
X1459Y997D01*
X1455Y997D01*
X1455Y997D01*
X1449Y997D01*
X1449Y997D01*
X1447Y997D01*
X1447Y998D01*
X1447Y998D01*
X1447Y998D01*
X1447Y998D01*
X1447Y999D01*
X1446Y999D01*
X1446Y999D01*
X1446Y999D01*
X1446Y1000D01*
X1445Y1000D01*
X1445Y1000D01*
X1445Y1000D01*
X1445Y1000D01*
X1534Y1000D01*
G37*
D02*
G54D17*
X1725Y965D02*
X1727Y965D01*
X1723Y964D02*
X1728Y964D01*
X1722Y963D02*
X1729Y963D01*
X1210Y962D02*
X1229Y962D01*
X1290Y962D02*
X1303Y962D01*
X1461Y962D02*
X1464Y962D01*
X1481Y962D02*
X1483Y962D01*
X1605Y962D02*
X1608Y962D01*
X1622Y962D02*
X1628Y962D01*
X1697Y962D02*
X1700Y962D01*
X1722Y962D02*
X1729Y962D01*
X1754Y962D02*
X1772Y962D01*
X1209Y961D02*
X1230Y961D01*
X1290Y961D02*
X1304Y961D01*
X1460Y961D02*
X1464Y961D01*
X1480Y961D02*
X1484Y961D01*
X1604Y961D02*
X1608Y961D01*
X1622Y961D02*
X1628Y961D01*
X1696Y961D02*
X1700Y961D01*
X1722Y961D02*
X1729Y961D01*
X1753Y961D02*
X1772Y961D01*
X1208Y960D02*
X1231Y960D01*
X1290Y960D02*
X1304Y960D01*
X1460Y960D02*
X1464Y960D01*
X1480Y960D02*
X1484Y960D01*
X1604Y960D02*
X1608Y960D01*
X1621Y960D02*
X1628Y960D01*
X1696Y960D02*
X1700Y960D01*
X1722Y960D02*
X1729Y960D01*
X1752Y960D02*
X1772Y960D01*
X1208Y959D02*
X1231Y959D01*
X1290Y959D02*
X1303Y959D01*
X1460Y959D02*
X1464Y959D01*
X1480Y959D02*
X1484Y959D01*
X1604Y959D02*
X1608Y959D01*
X1621Y959D02*
X1628Y959D01*
X1696Y959D02*
X1700Y959D01*
X1723Y959D02*
X1728Y959D01*
X1751Y959D02*
X1772Y959D01*
X1208Y958D02*
X1232Y958D01*
X1290Y958D02*
X1302Y958D01*
X1460Y958D02*
X1464Y958D01*
X1480Y958D02*
X1484Y958D01*
X1604Y958D02*
X1608Y958D01*
X1620Y958D02*
X1628Y958D01*
X1696Y958D02*
X1700Y958D01*
X1724Y958D02*
X1727Y958D01*
X1750Y958D02*
X1772Y958D01*
X1208Y957D02*
X1212Y957D01*
X1228Y957D02*
X1232Y957D01*
X1290Y957D02*
X1294Y957D01*
X1460Y957D02*
X1464Y957D01*
X1480Y957D02*
X1484Y957D01*
X1604Y957D02*
X1608Y957D01*
X1620Y957D02*
X1628Y957D01*
X1696Y957D02*
X1700Y957D01*
X1749Y957D02*
X1755Y957D01*
X1768Y957D02*
X1772Y957D01*
X1208Y956D02*
X1212Y956D01*
X1228Y956D02*
X1232Y956D01*
X1290Y956D02*
X1294Y956D01*
X1460Y956D02*
X1464Y956D01*
X1480Y956D02*
X1484Y956D01*
X1604Y956D02*
X1608Y956D01*
X1619Y956D02*
X1628Y956D01*
X1696Y956D02*
X1700Y956D01*
X1749Y956D02*
X1754Y956D01*
X1768Y956D02*
X1772Y956D01*
X1208Y955D02*
X1212Y955D01*
X1228Y955D02*
X1232Y955D01*
X1290Y955D02*
X1294Y955D01*
X1460Y955D02*
X1464Y955D01*
X1480Y955D02*
X1484Y955D01*
X1604Y955D02*
X1608Y955D01*
X1619Y955D02*
X1628Y955D01*
X1696Y955D02*
X1700Y955D01*
X1749Y955D02*
X1753Y955D01*
X1768Y955D02*
X1772Y955D01*
X1208Y954D02*
X1212Y954D01*
X1228Y954D02*
X1232Y954D01*
X1290Y954D02*
X1294Y954D01*
X1460Y954D02*
X1464Y954D01*
X1480Y954D02*
X1484Y954D01*
X1604Y954D02*
X1608Y954D01*
X1619Y954D02*
X1628Y954D01*
X1696Y954D02*
X1700Y954D01*
X1749Y954D02*
X1753Y954D01*
X1768Y954D02*
X1772Y954D01*
X1208Y953D02*
X1212Y953D01*
X1228Y953D02*
X1232Y953D01*
X1290Y953D02*
X1294Y953D01*
X1460Y953D02*
X1464Y953D01*
X1480Y953D02*
X1484Y953D01*
X1604Y953D02*
X1608Y953D01*
X1618Y953D02*
X1628Y953D01*
X1696Y953D02*
X1700Y953D01*
X1748Y953D02*
X1753Y953D01*
X1768Y953D02*
X1772Y953D01*
X1208Y952D02*
X1212Y952D01*
X1228Y952D02*
X1232Y952D01*
X1290Y952D02*
X1294Y952D01*
X1393Y952D02*
X1401Y952D01*
X1409Y952D02*
X1411Y952D01*
X1431Y952D02*
X1441Y952D01*
X1460Y952D02*
X1464Y952D01*
X1480Y952D02*
X1484Y952D01*
X1534Y952D02*
X1535Y952D01*
X1553Y952D02*
X1555Y952D01*
X1574Y952D02*
X1586Y952D01*
X1604Y952D02*
X1608Y952D01*
X1618Y952D02*
X1622Y952D01*
X1624Y952D02*
X1628Y952D01*
X1647Y952D02*
X1657Y952D01*
X1680Y952D02*
X1682Y952D01*
X1696Y952D02*
X1700Y952D01*
X1724Y952D02*
X1732Y952D01*
X1748Y952D02*
X1753Y952D01*
X1768Y952D02*
X1772Y952D01*
X1208Y951D02*
X1212Y951D01*
X1228Y951D02*
X1232Y951D01*
X1290Y951D02*
X1294Y951D01*
X1391Y951D02*
X1402Y951D01*
X1408Y951D02*
X1412Y951D01*
X1429Y951D02*
X1443Y951D01*
X1460Y951D02*
X1465Y951D01*
X1479Y951D02*
X1484Y951D01*
X1533Y951D02*
X1536Y951D01*
X1552Y951D02*
X1556Y951D01*
X1572Y951D02*
X1587Y951D01*
X1604Y951D02*
X1608Y951D01*
X1617Y951D02*
X1622Y951D01*
X1624Y951D02*
X1628Y951D01*
X1645Y951D02*
X1659Y951D01*
X1679Y951D02*
X1683Y951D01*
X1696Y951D02*
X1700Y951D01*
X1723Y951D02*
X1734Y951D01*
X1748Y951D02*
X1753Y951D01*
X1768Y951D02*
X1772Y951D01*
X1208Y950D02*
X1212Y950D01*
X1228Y950D02*
X1232Y950D01*
X1290Y950D02*
X1294Y950D01*
X1390Y950D02*
X1403Y950D01*
X1408Y950D02*
X1412Y950D01*
X1428Y950D02*
X1444Y950D01*
X1461Y950D02*
X1465Y950D01*
X1479Y950D02*
X1483Y950D01*
X1532Y950D02*
X1536Y950D01*
X1552Y950D02*
X1556Y950D01*
X1571Y950D02*
X1587Y950D01*
X1604Y950D02*
X1608Y950D01*
X1617Y950D02*
X1621Y950D01*
X1624Y950D02*
X1628Y950D01*
X1644Y950D02*
X1660Y950D01*
X1679Y950D02*
X1684Y950D01*
X1696Y950D02*
X1700Y950D01*
X1722Y950D02*
X1734Y950D01*
X1749Y950D02*
X1753Y950D01*
X1768Y950D02*
X1772Y950D01*
X1208Y949D02*
X1212Y949D01*
X1228Y949D02*
X1232Y949D01*
X1290Y949D02*
X1294Y949D01*
X1389Y949D02*
X1404Y949D01*
X1408Y949D02*
X1412Y949D01*
X1427Y949D02*
X1445Y949D01*
X1461Y949D02*
X1465Y949D01*
X1479Y949D02*
X1483Y949D01*
X1532Y949D02*
X1536Y949D01*
X1552Y949D02*
X1556Y949D01*
X1570Y949D02*
X1587Y949D01*
X1604Y949D02*
X1608Y949D01*
X1616Y949D02*
X1621Y949D01*
X1624Y949D02*
X1628Y949D01*
X1643Y949D02*
X1662Y949D01*
X1679Y949D02*
X1685Y949D01*
X1696Y949D02*
X1700Y949D01*
X1722Y949D02*
X1734Y949D01*
X1749Y949D02*
X1753Y949D01*
X1768Y949D02*
X1772Y949D01*
X1208Y948D02*
X1212Y948D01*
X1228Y948D02*
X1232Y948D01*
X1290Y948D02*
X1294Y948D01*
X1389Y948D02*
X1405Y948D01*
X1408Y948D02*
X1412Y948D01*
X1426Y948D02*
X1446Y948D01*
X1461Y948D02*
X1466Y948D01*
X1478Y948D02*
X1483Y948D01*
X1532Y948D02*
X1536Y948D01*
X1552Y948D02*
X1556Y948D01*
X1570Y948D02*
X1586Y948D01*
X1604Y948D02*
X1608Y948D01*
X1616Y948D02*
X1621Y948D01*
X1624Y948D02*
X1628Y948D01*
X1642Y948D02*
X1662Y948D01*
X1680Y948D02*
X1686Y948D01*
X1696Y948D02*
X1700Y948D01*
X1722Y948D02*
X1733Y948D01*
X1749Y948D02*
X1754Y948D01*
X1768Y948D02*
X1772Y948D01*
X1208Y947D02*
X1212Y947D01*
X1228Y947D02*
X1232Y947D01*
X1290Y947D02*
X1294Y947D01*
X1388Y947D02*
X1393Y947D01*
X1400Y947D02*
X1412Y947D01*
X1425Y947D02*
X1431Y947D01*
X1441Y947D02*
X1447Y947D01*
X1462Y947D02*
X1466Y947D01*
X1478Y947D02*
X1482Y947D01*
X1532Y947D02*
X1536Y947D01*
X1552Y947D02*
X1556Y947D01*
X1569Y947D02*
X1574Y947D01*
X1604Y947D02*
X1608Y947D01*
X1616Y947D02*
X1620Y947D01*
X1624Y947D02*
X1628Y947D01*
X1641Y947D02*
X1648Y947D01*
X1657Y947D02*
X1663Y947D01*
X1681Y947D02*
X1688Y947D01*
X1696Y947D02*
X1700Y947D01*
X1722Y947D02*
X1727Y947D01*
X1749Y947D02*
X1755Y947D01*
X1768Y947D02*
X1772Y947D01*
X1208Y946D02*
X1212Y946D01*
X1228Y946D02*
X1232Y946D01*
X1290Y946D02*
X1294Y946D01*
X1388Y946D02*
X1392Y946D01*
X1401Y946D02*
X1412Y946D01*
X1425Y946D02*
X1430Y946D01*
X1442Y946D02*
X1447Y946D01*
X1462Y946D02*
X1467Y946D01*
X1477Y946D02*
X1482Y946D01*
X1532Y946D02*
X1536Y946D01*
X1552Y946D02*
X1556Y946D01*
X1569Y946D02*
X1573Y946D01*
X1604Y946D02*
X1608Y946D01*
X1615Y946D02*
X1620Y946D01*
X1624Y946D02*
X1628Y946D01*
X1641Y946D02*
X1646Y946D01*
X1658Y946D02*
X1664Y946D01*
X1682Y946D02*
X1689Y946D01*
X1696Y946D02*
X1700Y946D01*
X1722Y946D02*
X1726Y946D01*
X1750Y946D02*
X1758Y946D01*
X1768Y946D02*
X1772Y946D01*
X1208Y945D02*
X1212Y945D01*
X1228Y945D02*
X1232Y945D01*
X1290Y945D02*
X1294Y945D01*
X1388Y945D02*
X1392Y945D01*
X1402Y945D02*
X1412Y945D01*
X1424Y945D02*
X1429Y945D01*
X1443Y945D02*
X1448Y945D01*
X1463Y945D02*
X1467Y945D01*
X1477Y945D02*
X1482Y945D01*
X1532Y945D02*
X1537Y945D01*
X1552Y945D02*
X1556Y945D01*
X1569Y945D02*
X1573Y945D01*
X1604Y945D02*
X1608Y945D01*
X1615Y945D02*
X1619Y945D01*
X1624Y945D02*
X1628Y945D01*
X1641Y945D02*
X1645Y945D01*
X1659Y945D02*
X1664Y945D01*
X1683Y945D02*
X1690Y945D01*
X1696Y945D02*
X1700Y945D01*
X1722Y945D02*
X1726Y945D01*
X1751Y945D02*
X1772Y945D01*
X1208Y944D02*
X1212Y944D01*
X1228Y944D02*
X1232Y944D01*
X1290Y944D02*
X1294Y944D01*
X1388Y944D02*
X1392Y944D01*
X1403Y944D02*
X1412Y944D01*
X1424Y944D02*
X1428Y944D01*
X1444Y944D02*
X1448Y944D01*
X1463Y944D02*
X1467Y944D01*
X1477Y944D02*
X1481Y944D01*
X1533Y944D02*
X1537Y944D01*
X1551Y944D02*
X1556Y944D01*
X1569Y944D02*
X1573Y944D01*
X1604Y944D02*
X1608Y944D01*
X1614Y944D02*
X1619Y944D01*
X1624Y944D02*
X1628Y944D01*
X1640Y944D02*
X1645Y944D01*
X1660Y944D02*
X1664Y944D01*
X1684Y944D02*
X1691Y944D01*
X1696Y944D02*
X1700Y944D01*
X1722Y944D02*
X1726Y944D01*
X1751Y944D02*
X1772Y944D01*
X1208Y943D02*
X1212Y943D01*
X1228Y943D02*
X1232Y943D01*
X1290Y943D02*
X1294Y943D01*
X1388Y943D02*
X1392Y943D01*
X1405Y943D02*
X1412Y943D01*
X1424Y943D02*
X1428Y943D01*
X1444Y943D02*
X1448Y943D01*
X1463Y943D02*
X1468Y943D01*
X1476Y943D02*
X1481Y943D01*
X1533Y943D02*
X1538Y943D01*
X1551Y943D02*
X1555Y943D01*
X1569Y943D02*
X1573Y943D01*
X1604Y943D02*
X1608Y943D01*
X1614Y943D02*
X1618Y943D01*
X1624Y943D02*
X1628Y943D01*
X1640Y943D02*
X1644Y943D01*
X1660Y943D02*
X1664Y943D01*
X1685Y943D02*
X1692Y943D01*
X1696Y943D02*
X1700Y943D01*
X1722Y943D02*
X1726Y943D01*
X1752Y943D02*
X1772Y943D01*
X1208Y942D02*
X1212Y942D01*
X1228Y942D02*
X1232Y942D01*
X1290Y942D02*
X1294Y942D01*
X1388Y942D02*
X1392Y942D01*
X1406Y942D02*
X1412Y942D01*
X1424Y942D02*
X1428Y942D01*
X1444Y942D02*
X1448Y942D01*
X1464Y942D02*
X1468Y942D01*
X1476Y942D02*
X1480Y942D01*
X1534Y942D02*
X1538Y942D01*
X1550Y942D02*
X1555Y942D01*
X1569Y942D02*
X1573Y942D01*
X1604Y942D02*
X1608Y942D01*
X1613Y942D02*
X1618Y942D01*
X1624Y942D02*
X1628Y942D01*
X1640Y942D02*
X1644Y942D01*
X1660Y942D02*
X1664Y942D01*
X1687Y942D02*
X1693Y942D01*
X1696Y942D02*
X1700Y942D01*
X1722Y942D02*
X1726Y942D01*
X1751Y942D02*
X1772Y942D01*
X1208Y941D02*
X1212Y941D01*
X1228Y941D02*
X1232Y941D01*
X1281Y941D02*
X1283Y941D01*
X1290Y941D02*
X1294Y941D01*
X1390Y941D02*
X1390Y941D01*
X1407Y941D02*
X1412Y941D01*
X1424Y941D02*
X1428Y941D01*
X1444Y941D02*
X1448Y941D01*
X1464Y941D02*
X1469Y941D01*
X1475Y941D02*
X1480Y941D01*
X1534Y941D02*
X1538Y941D01*
X1550Y941D02*
X1554Y941D01*
X1569Y941D02*
X1588Y941D01*
X1604Y941D02*
X1608Y941D01*
X1613Y941D02*
X1617Y941D01*
X1624Y941D02*
X1628Y941D01*
X1640Y941D02*
X1644Y941D01*
X1660Y941D02*
X1664Y941D01*
X1688Y941D02*
X1700Y941D01*
X1722Y941D02*
X1726Y941D01*
X1750Y941D02*
X1772Y941D01*
X1208Y940D02*
X1212Y940D01*
X1228Y940D02*
X1232Y940D01*
X1280Y940D02*
X1284Y940D01*
X1290Y940D02*
X1294Y940D01*
X1408Y940D02*
X1412Y940D01*
X1424Y940D02*
X1428Y940D01*
X1444Y940D02*
X1448Y940D01*
X1465Y940D02*
X1469Y940D01*
X1475Y940D02*
X1480Y940D01*
X1534Y940D02*
X1539Y940D01*
X1549Y940D02*
X1554Y940D01*
X1569Y940D02*
X1589Y940D01*
X1604Y940D02*
X1608Y940D01*
X1612Y940D02*
X1617Y940D01*
X1624Y940D02*
X1628Y940D01*
X1640Y940D02*
X1644Y940D01*
X1660Y940D02*
X1664Y940D01*
X1689Y940D02*
X1700Y940D01*
X1722Y940D02*
X1726Y940D01*
X1749Y940D02*
X1755Y940D01*
X1768Y940D02*
X1772Y940D01*
X1208Y939D02*
X1212Y939D01*
X1228Y939D02*
X1232Y939D01*
X1252Y939D02*
X1259Y939D01*
X1280Y939D02*
X1284Y939D01*
X1290Y939D02*
X1294Y939D01*
X1360Y939D02*
X1367Y939D01*
X1408Y939D02*
X1412Y939D01*
X1424Y939D02*
X1448Y939D01*
X1465Y939D02*
X1469Y939D01*
X1475Y939D02*
X1479Y939D01*
X1535Y939D02*
X1539Y939D01*
X1549Y939D02*
X1553Y939D01*
X1569Y939D02*
X1590Y939D01*
X1604Y939D02*
X1608Y939D01*
X1612Y939D02*
X1617Y939D01*
X1624Y939D02*
X1628Y939D01*
X1640Y939D02*
X1664Y939D01*
X1690Y939D02*
X1700Y939D01*
X1722Y939D02*
X1726Y939D01*
X1749Y939D02*
X1754Y939D01*
X1768Y939D02*
X1772Y939D01*
X1208Y938D02*
X1212Y938D01*
X1228Y938D02*
X1232Y938D01*
X1251Y938D02*
X1260Y938D01*
X1280Y938D02*
X1284Y938D01*
X1290Y938D02*
X1294Y938D01*
X1360Y938D02*
X1368Y938D01*
X1408Y938D02*
X1412Y938D01*
X1424Y938D02*
X1448Y938D01*
X1465Y938D02*
X1470Y938D01*
X1474Y938D02*
X1479Y938D01*
X1535Y938D02*
X1540Y938D01*
X1549Y938D02*
X1553Y938D01*
X1569Y938D02*
X1591Y938D01*
X1604Y938D02*
X1608Y938D01*
X1612Y938D02*
X1616Y938D01*
X1624Y938D02*
X1628Y938D01*
X1640Y938D02*
X1664Y938D01*
X1689Y938D02*
X1700Y938D01*
X1722Y938D02*
X1726Y938D01*
X1749Y938D02*
X1753Y938D01*
X1768Y938D02*
X1772Y938D01*
X1208Y937D02*
X1212Y937D01*
X1228Y937D02*
X1232Y937D01*
X1251Y937D02*
X1260Y937D01*
X1280Y937D02*
X1284Y937D01*
X1290Y937D02*
X1294Y937D01*
X1359Y937D02*
X1368Y937D01*
X1408Y937D02*
X1412Y937D01*
X1424Y937D02*
X1448Y937D01*
X1466Y937D02*
X1470Y937D01*
X1474Y937D02*
X1478Y937D01*
X1536Y937D02*
X1540Y937D01*
X1548Y937D02*
X1553Y937D01*
X1569Y937D02*
X1592Y937D01*
X1604Y937D02*
X1608Y937D01*
X1611Y937D02*
X1616Y937D01*
X1624Y937D02*
X1628Y937D01*
X1640Y937D02*
X1664Y937D01*
X1687Y937D02*
X1700Y937D01*
X1722Y937D02*
X1726Y937D01*
X1749Y937D02*
X1753Y937D01*
X1768Y937D02*
X1772Y937D01*
X1208Y936D02*
X1212Y936D01*
X1228Y936D02*
X1232Y936D01*
X1251Y936D02*
X1260Y936D01*
X1280Y936D02*
X1284Y936D01*
X1290Y936D02*
X1294Y936D01*
X1359Y936D02*
X1368Y936D01*
X1408Y936D02*
X1412Y936D01*
X1424Y936D02*
X1448Y936D01*
X1466Y936D02*
X1471Y936D01*
X1474Y936D02*
X1478Y936D01*
X1536Y936D02*
X1541Y936D01*
X1548Y936D02*
X1552Y936D01*
X1569Y936D02*
X1573Y936D01*
X1587Y936D02*
X1592Y936D01*
X1604Y936D02*
X1608Y936D01*
X1611Y936D02*
X1615Y936D01*
X1624Y936D02*
X1628Y936D01*
X1641Y936D02*
X1664Y936D01*
X1686Y936D02*
X1700Y936D01*
X1722Y936D02*
X1726Y936D01*
X1748Y936D02*
X1753Y936D01*
X1768Y936D02*
X1772Y936D01*
X1208Y935D02*
X1212Y935D01*
X1228Y935D02*
X1232Y935D01*
X1251Y935D02*
X1260Y935D01*
X1280Y935D02*
X1284Y935D01*
X1290Y935D02*
X1294Y935D01*
X1359Y935D02*
X1368Y935D01*
X1408Y935D02*
X1412Y935D01*
X1425Y935D02*
X1448Y935D01*
X1466Y935D02*
X1471Y935D01*
X1473Y935D02*
X1478Y935D01*
X1537Y935D02*
X1541Y935D01*
X1547Y935D02*
X1552Y935D01*
X1569Y935D02*
X1573Y935D01*
X1588Y935D02*
X1592Y935D01*
X1604Y935D02*
X1608Y935D01*
X1610Y935D02*
X1615Y935D01*
X1624Y935D02*
X1628Y935D01*
X1641Y935D02*
X1664Y935D01*
X1685Y935D02*
X1692Y935D01*
X1695Y935D02*
X1700Y935D01*
X1722Y935D02*
X1726Y935D01*
X1748Y935D02*
X1753Y935D01*
X1768Y935D02*
X1772Y935D01*
X1208Y934D02*
X1212Y934D01*
X1228Y934D02*
X1232Y934D01*
X1251Y934D02*
X1260Y934D01*
X1280Y934D02*
X1284Y934D01*
X1290Y934D02*
X1294Y934D01*
X1359Y934D02*
X1368Y934D01*
X1408Y934D02*
X1412Y934D01*
X1444Y934D02*
X1448Y934D01*
X1467Y934D02*
X1477Y934D01*
X1537Y934D02*
X1542Y934D01*
X1547Y934D02*
X1551Y934D01*
X1568Y934D02*
X1573Y934D01*
X1588Y934D02*
X1592Y934D01*
X1604Y934D02*
X1608Y934D01*
X1610Y934D02*
X1614Y934D01*
X1624Y934D02*
X1628Y934D01*
X1660Y934D02*
X1664Y934D01*
X1684Y934D02*
X1691Y934D01*
X1696Y934D02*
X1700Y934D01*
X1722Y934D02*
X1726Y934D01*
X1748Y934D02*
X1753Y934D01*
X1768Y934D02*
X1772Y934D01*
X1208Y933D02*
X1212Y933D01*
X1228Y933D02*
X1232Y933D01*
X1251Y933D02*
X1260Y933D01*
X1280Y933D02*
X1284Y933D01*
X1290Y933D02*
X1294Y933D01*
X1359Y933D02*
X1368Y933D01*
X1408Y933D02*
X1412Y933D01*
X1444Y933D02*
X1448Y933D01*
X1467Y933D02*
X1477Y933D01*
X1537Y933D02*
X1542Y933D01*
X1546Y933D02*
X1551Y933D01*
X1568Y933D02*
X1573Y933D01*
X1588Y933D02*
X1592Y933D01*
X1604Y933D02*
X1614Y933D01*
X1624Y933D02*
X1628Y933D01*
X1660Y933D02*
X1664Y933D01*
X1683Y933D02*
X1689Y933D01*
X1696Y933D02*
X1700Y933D01*
X1722Y933D02*
X1726Y933D01*
X1749Y933D02*
X1753Y933D01*
X1768Y933D02*
X1772Y933D01*
X1208Y932D02*
X1212Y932D01*
X1228Y932D02*
X1232Y932D01*
X1251Y932D02*
X1260Y932D01*
X1280Y932D02*
X1284Y932D01*
X1290Y932D02*
X1294Y932D01*
X1360Y932D02*
X1368Y932D01*
X1408Y932D02*
X1412Y932D01*
X1444Y932D02*
X1448Y932D01*
X1468Y932D02*
X1476Y932D01*
X1538Y932D02*
X1542Y932D01*
X1546Y932D02*
X1550Y932D01*
X1568Y932D02*
X1573Y932D01*
X1588Y932D02*
X1592Y932D01*
X1604Y932D02*
X1614Y932D01*
X1624Y932D02*
X1628Y932D01*
X1660Y932D02*
X1664Y932D01*
X1682Y932D02*
X1688Y932D01*
X1696Y932D02*
X1700Y932D01*
X1722Y932D02*
X1726Y932D01*
X1749Y932D02*
X1753Y932D01*
X1768Y932D02*
X1772Y932D01*
X1208Y931D02*
X1212Y931D01*
X1228Y931D02*
X1232Y931D01*
X1252Y931D02*
X1259Y931D01*
X1280Y931D02*
X1284Y931D01*
X1290Y931D02*
X1294Y931D01*
X1360Y931D02*
X1368Y931D01*
X1408Y931D02*
X1412Y931D01*
X1443Y931D02*
X1448Y931D01*
X1468Y931D02*
X1476Y931D01*
X1538Y931D02*
X1543Y931D01*
X1546Y931D02*
X1550Y931D01*
X1568Y931D02*
X1574Y931D01*
X1588Y931D02*
X1592Y931D01*
X1604Y931D02*
X1613Y931D01*
X1624Y931D02*
X1628Y931D01*
X1659Y931D02*
X1664Y931D01*
X1680Y931D02*
X1687Y931D01*
X1696Y931D02*
X1700Y931D01*
X1722Y931D02*
X1726Y931D01*
X1749Y931D02*
X1754Y931D01*
X1768Y931D02*
X1772Y931D01*
X1208Y930D02*
X1212Y930D01*
X1228Y930D02*
X1232Y930D01*
X1280Y930D02*
X1284Y930D01*
X1290Y930D02*
X1294Y930D01*
X1408Y930D02*
X1412Y930D01*
X1442Y930D02*
X1447Y930D01*
X1468Y930D02*
X1476Y930D01*
X1539Y930D02*
X1543Y930D01*
X1545Y930D02*
X1550Y930D01*
X1568Y930D02*
X1576Y930D01*
X1588Y930D02*
X1592Y930D01*
X1604Y930D02*
X1613Y930D01*
X1624Y930D02*
X1628Y930D01*
X1658Y930D02*
X1664Y930D01*
X1679Y930D02*
X1686Y930D01*
X1696Y930D02*
X1700Y930D01*
X1722Y930D02*
X1726Y930D01*
X1749Y930D02*
X1755Y930D01*
X1768Y930D02*
X1772Y930D01*
X1208Y929D02*
X1212Y929D01*
X1227Y929D02*
X1232Y929D01*
X1280Y929D02*
X1284Y929D01*
X1289Y929D02*
X1294Y929D01*
X1408Y929D02*
X1412Y929D01*
X1440Y929D02*
X1447Y929D01*
X1469Y929D02*
X1475Y929D01*
X1539Y929D02*
X1549Y929D01*
X1568Y929D02*
X1578Y929D01*
X1586Y929D02*
X1592Y929D01*
X1604Y929D02*
X1612Y929D01*
X1624Y929D02*
X1628Y929D01*
X1656Y929D02*
X1663Y929D01*
X1678Y929D02*
X1685Y929D01*
X1696Y929D02*
X1700Y929D01*
X1722Y929D02*
X1727Y929D01*
X1750Y929D02*
X1757Y929D01*
X1768Y929D02*
X1772Y929D01*
X1208Y928D02*
X1231Y928D01*
X1280Y928D02*
X1303Y928D01*
X1408Y928D02*
X1412Y928D01*
X1425Y928D02*
X1446Y928D01*
X1469Y928D02*
X1475Y928D01*
X1540Y928D02*
X1549Y928D01*
X1568Y928D02*
X1591Y928D01*
X1604Y928D02*
X1612Y928D01*
X1624Y928D02*
X1628Y928D01*
X1641Y928D02*
X1662Y928D01*
X1677Y928D02*
X1684Y928D01*
X1696Y928D02*
X1700Y928D01*
X1716Y928D02*
X1733Y928D01*
X1751Y928D02*
X1772Y928D01*
X1208Y927D02*
X1231Y927D01*
X1280Y927D02*
X1304Y927D01*
X1408Y927D02*
X1412Y927D01*
X1424Y927D02*
X1445Y927D01*
X1470Y927D02*
X1475Y927D01*
X1540Y927D02*
X1548Y927D01*
X1568Y927D02*
X1591Y927D01*
X1604Y927D02*
X1611Y927D01*
X1624Y927D02*
X1628Y927D01*
X1640Y927D02*
X1661Y927D01*
X1676Y927D02*
X1682Y927D01*
X1696Y927D02*
X1700Y927D01*
X1715Y927D02*
X1734Y927D01*
X1751Y927D02*
X1772Y927D01*
X1209Y926D02*
X1231Y926D01*
X1280Y926D02*
X1304Y926D01*
X1408Y926D02*
X1412Y926D01*
X1424Y926D02*
X1444Y926D01*
X1470Y926D02*
X1474Y926D01*
X1541Y926D02*
X1548Y926D01*
X1568Y926D02*
X1572Y926D01*
X1574Y926D02*
X1590Y926D01*
X1604Y926D02*
X1611Y926D01*
X1624Y926D02*
X1628Y926D01*
X1640Y926D02*
X1660Y926D01*
X1676Y926D02*
X1681Y926D01*
X1696Y926D02*
X1700Y926D01*
X1715Y926D02*
X1734Y926D01*
X1753Y926D02*
X1772Y926D01*
X1210Y925D02*
X1230Y925D01*
X1280Y925D02*
X1303Y925D01*
X1408Y925D02*
X1411Y925D01*
X1425Y925D02*
X1443Y925D01*
X1471Y925D02*
X1474Y925D01*
X1541Y925D02*
X1547Y925D01*
X1569Y925D02*
X1572Y925D01*
X1576Y925D02*
X1589Y925D01*
X1604Y925D02*
X1610Y925D01*
X1625Y925D02*
X1628Y925D01*
X1641Y925D02*
X1659Y925D01*
X1677Y925D02*
X1680Y925D01*
X1697Y925D02*
X1700Y925D01*
X1715Y925D02*
X1733Y925D01*
X1754Y925D02*
X1772Y925D01*
X1212Y924D02*
X1227Y924D01*
X1282Y924D02*
X1302Y924D01*
X1410Y924D02*
X1410Y924D01*
X1426Y924D02*
X1440Y924D01*
X1472Y924D02*
X1472Y924D01*
X1543Y924D02*
X1546Y924D01*
X1570Y924D02*
X1570Y924D01*
X1578Y924D02*
X1586Y924D01*
X1605Y924D02*
X1610Y924D01*
X1626Y924D02*
X1626Y924D01*
X1642Y924D02*
X1656Y924D01*
X1678Y924D02*
X1678Y924D01*
X1698Y924D02*
X1698Y924D01*
X1717Y924D02*
X1732Y924D01*
X1757Y924D02*
X1772Y924D01*
D02*
G04 End of Copper0*
M02*