G04 MADE WITH FRITZING*
G04 WWW.FRITZING.ORG*
G04 DOUBLE SIDED*
G04 HOLES PLATED*
G04 CONTOUR ON CENTER OF CONTOUR VECTOR*
%ASAXBY*%
%FSLAX23Y23*%
%MOIN*%
%OFA0B0*%
%SFA1.0B1.0*%
%ADD10C,0.008000*%
%ADD11R,0.001000X0.001000*%
%LNSILK0*%
G90*
G70*
G54D10*
X1174Y147D02*
X1174Y229D01*
D02*
X1147Y328D02*
X1111Y328D01*
D02*
X938Y328D02*
X902Y328D01*
D02*
X875Y229D02*
X875Y147D01*
G54D11*
X992Y2047D02*
X1054Y2047D01*
X968Y2046D02*
X1078Y2046D01*
X952Y2045D02*
X1094Y2045D01*
X939Y2044D02*
X1107Y2044D01*
X928Y2043D02*
X1118Y2043D01*
X917Y2042D02*
X1129Y2042D01*
X908Y2041D02*
X1138Y2041D01*
X899Y2040D02*
X1146Y2040D01*
X891Y2039D02*
X992Y2039D01*
X1054Y2039D02*
X1155Y2039D01*
X884Y2038D02*
X967Y2038D01*
X1079Y2038D02*
X1162Y2038D01*
X877Y2037D02*
X951Y2037D01*
X1095Y2037D02*
X1169Y2037D01*
X870Y2036D02*
X938Y2036D01*
X1108Y2036D02*
X1176Y2036D01*
X863Y2035D02*
X927Y2035D01*
X1119Y2035D02*
X1182Y2035D01*
X857Y2034D02*
X916Y2034D01*
X1130Y2034D02*
X1189Y2034D01*
X851Y2033D02*
X907Y2033D01*
X1139Y2033D02*
X1195Y2033D01*
X845Y2032D02*
X899Y2032D01*
X1147Y2032D02*
X1201Y2032D01*
X840Y2031D02*
X890Y2031D01*
X1156Y2031D02*
X1206Y2031D01*
X835Y2030D02*
X883Y2030D01*
X1163Y2030D02*
X1211Y2030D01*
X829Y2029D02*
X876Y2029D01*
X1170Y2029D02*
X1217Y2029D01*
X824Y2028D02*
X869Y2028D01*
X1177Y2028D02*
X1222Y2028D01*
X819Y2027D02*
X863Y2027D01*
X1183Y2027D02*
X1227Y2027D01*
X814Y2026D02*
X857Y2026D01*
X1189Y2026D02*
X1232Y2026D01*
X810Y2025D02*
X851Y2025D01*
X1195Y2025D02*
X1236Y2025D01*
X805Y2024D02*
X845Y2024D01*
X1201Y2024D02*
X1241Y2024D01*
X800Y2023D02*
X839Y2023D01*
X1207Y2023D02*
X1246Y2023D01*
X796Y2022D02*
X834Y2022D01*
X1212Y2022D02*
X1250Y2022D01*
X791Y2021D02*
X829Y2021D01*
X1217Y2021D02*
X1255Y2021D01*
X787Y2020D02*
X823Y2020D01*
X1223Y2020D02*
X1259Y2020D01*
X783Y2019D02*
X818Y2019D01*
X1228Y2019D02*
X1263Y2019D01*
X779Y2018D02*
X814Y2018D01*
X1232Y2018D02*
X1267Y2018D01*
X775Y2017D02*
X809Y2017D01*
X1237Y2017D02*
X1271Y2017D01*
X771Y2016D02*
X804Y2016D01*
X1242Y2016D02*
X1275Y2016D01*
X767Y2015D02*
X800Y2015D01*
X1246Y2015D02*
X1279Y2015D01*
X763Y2014D02*
X795Y2014D01*
X1251Y2014D02*
X1283Y2014D01*
X760Y2013D02*
X791Y2013D01*
X1255Y2013D02*
X1286Y2013D01*
X756Y2012D02*
X787Y2012D01*
X1259Y2012D02*
X1290Y2012D01*
X752Y2011D02*
X783Y2011D01*
X1263Y2011D02*
X1294Y2011D01*
X748Y2010D02*
X778Y2010D01*
X1268Y2010D02*
X1297Y2010D01*
X745Y2009D02*
X774Y2009D01*
X1272Y2009D02*
X1301Y2009D01*
X741Y2008D02*
X770Y2008D01*
X1276Y2008D02*
X1305Y2008D01*
X738Y2007D02*
X766Y2007D01*
X1280Y2007D02*
X1308Y2007D01*
X735Y2006D02*
X763Y2006D01*
X1283Y2006D02*
X1311Y2006D01*
X731Y2005D02*
X759Y2005D01*
X1287Y2005D02*
X1315Y2005D01*
X728Y2004D02*
X755Y2004D01*
X1291Y2004D02*
X1318Y2004D01*
X725Y2003D02*
X752Y2003D01*
X1294Y2003D02*
X1321Y2003D01*
X721Y2002D02*
X748Y2002D01*
X1298Y2002D02*
X1325Y2002D01*
X718Y2001D02*
X744Y2001D01*
X1302Y2001D02*
X1328Y2001D01*
X715Y2000D02*
X741Y2000D01*
X1305Y2000D02*
X1331Y2000D01*
X712Y1999D02*
X737Y1999D01*
X1309Y1999D02*
X1334Y1999D01*
X709Y1998D02*
X734Y1998D01*
X1312Y1998D02*
X1337Y1998D01*
X706Y1997D02*
X731Y1997D01*
X1315Y1997D02*
X1340Y1997D01*
X703Y1996D02*
X727Y1996D01*
X1319Y1996D02*
X1343Y1996D01*
X699Y1995D02*
X724Y1995D01*
X1322Y1995D02*
X1346Y1995D01*
X696Y1994D02*
X721Y1994D01*
X1325Y1994D02*
X1350Y1994D01*
X694Y1993D02*
X718Y1993D01*
X1328Y1993D02*
X1352Y1993D01*
X691Y1992D02*
X714Y1992D01*
X1332Y1992D02*
X1355Y1992D01*
X688Y1991D02*
X711Y1991D01*
X1335Y1991D02*
X1358Y1991D01*
X685Y1990D02*
X708Y1990D01*
X1338Y1990D02*
X1361Y1990D01*
X682Y1989D02*
X705Y1989D01*
X1341Y1989D02*
X1364Y1989D01*
X679Y1988D02*
X702Y1988D01*
X1344Y1988D02*
X1367Y1988D01*
X676Y1987D02*
X699Y1987D01*
X1347Y1987D02*
X1369Y1987D01*
X674Y1986D02*
X696Y1986D01*
X1350Y1986D02*
X1372Y1986D01*
X671Y1985D02*
X693Y1985D01*
X1353Y1985D02*
X1375Y1985D01*
X668Y1984D02*
X690Y1984D01*
X1356Y1984D02*
X1378Y1984D01*
X666Y1983D02*
X687Y1983D01*
X1359Y1983D02*
X1380Y1983D01*
X663Y1982D02*
X685Y1982D01*
X1361Y1982D02*
X1383Y1982D01*
X660Y1981D02*
X682Y1981D01*
X1364Y1981D02*
X1386Y1981D01*
X658Y1980D02*
X679Y1980D01*
X1367Y1980D02*
X1388Y1980D01*
X655Y1979D02*
X676Y1979D01*
X1370Y1979D02*
X1391Y1979D01*
X653Y1978D02*
X673Y1978D01*
X1373Y1978D02*
X1393Y1978D01*
X650Y1977D02*
X671Y1977D01*
X1375Y1977D02*
X1396Y1977D01*
X647Y1976D02*
X668Y1976D01*
X1378Y1976D02*
X1399Y1976D01*
X645Y1975D02*
X665Y1975D01*
X1381Y1975D02*
X1401Y1975D01*
X642Y1974D02*
X663Y1974D01*
X1383Y1974D02*
X1404Y1974D01*
X640Y1973D02*
X660Y1973D01*
X1386Y1973D02*
X1406Y1973D01*
X638Y1972D02*
X657Y1972D01*
X1389Y1972D02*
X1408Y1972D01*
X635Y1971D02*
X655Y1971D01*
X1391Y1971D02*
X1411Y1971D01*
X633Y1970D02*
X652Y1970D01*
X1394Y1970D02*
X1413Y1970D01*
X630Y1969D02*
X650Y1969D01*
X1396Y1969D02*
X1416Y1969D01*
X628Y1968D02*
X647Y1968D01*
X1399Y1968D02*
X1418Y1968D01*
X625Y1967D02*
X645Y1967D01*
X1401Y1967D02*
X1421Y1967D01*
X623Y1966D02*
X642Y1966D01*
X1404Y1966D02*
X1423Y1966D01*
X621Y1965D02*
X640Y1965D01*
X1406Y1965D02*
X1425Y1965D01*
X618Y1964D02*
X637Y1964D01*
X1409Y1964D02*
X1428Y1964D01*
X616Y1963D02*
X635Y1963D01*
X1411Y1963D02*
X1430Y1963D01*
X614Y1962D02*
X632Y1962D01*
X1414Y1962D02*
X1432Y1962D01*
X612Y1961D02*
X630Y1961D01*
X1416Y1961D02*
X1434Y1961D01*
X609Y1960D02*
X628Y1960D01*
X1418Y1960D02*
X1437Y1960D01*
X607Y1959D02*
X625Y1959D01*
X1421Y1959D02*
X1439Y1959D01*
X605Y1958D02*
X623Y1958D01*
X1423Y1958D02*
X1441Y1958D01*
X602Y1957D02*
X621Y1957D01*
X1425Y1957D02*
X1444Y1957D01*
X600Y1956D02*
X618Y1956D01*
X1428Y1956D02*
X1446Y1956D01*
X598Y1955D02*
X616Y1955D01*
X1430Y1955D02*
X1448Y1955D01*
X596Y1954D02*
X614Y1954D01*
X1432Y1954D02*
X1450Y1954D01*
X594Y1953D02*
X611Y1953D01*
X1435Y1953D02*
X1452Y1953D01*
X592Y1952D02*
X609Y1952D01*
X1437Y1952D02*
X1454Y1952D01*
X590Y1951D02*
X607Y1951D01*
X1439Y1951D02*
X1456Y1951D01*
X588Y1950D02*
X605Y1950D01*
X1441Y1950D02*
X1458Y1950D01*
X585Y1949D02*
X602Y1949D01*
X1444Y1949D02*
X1461Y1949D01*
X583Y1948D02*
X600Y1948D01*
X1446Y1948D02*
X1463Y1948D01*
X581Y1947D02*
X598Y1947D01*
X1448Y1947D02*
X1465Y1947D01*
X579Y1946D02*
X596Y1946D01*
X1450Y1946D02*
X1467Y1946D01*
X577Y1945D02*
X594Y1945D01*
X1452Y1945D02*
X1469Y1945D01*
X575Y1944D02*
X592Y1944D01*
X1454Y1944D02*
X1471Y1944D01*
X573Y1943D02*
X590Y1943D01*
X1456Y1943D02*
X1473Y1943D01*
X571Y1942D02*
X587Y1942D01*
X1459Y1942D02*
X1475Y1942D01*
X569Y1941D02*
X585Y1941D01*
X1461Y1941D02*
X1477Y1941D01*
X567Y1940D02*
X583Y1940D01*
X1463Y1940D02*
X1479Y1940D01*
X565Y1939D02*
X581Y1939D01*
X1465Y1939D02*
X1481Y1939D01*
X563Y1938D02*
X579Y1938D01*
X1467Y1938D02*
X1483Y1938D01*
X561Y1937D02*
X577Y1937D01*
X1469Y1937D02*
X1485Y1937D01*
X559Y1936D02*
X575Y1936D01*
X1471Y1936D02*
X1487Y1936D01*
X557Y1935D02*
X573Y1935D01*
X1473Y1935D02*
X1489Y1935D01*
X555Y1934D02*
X571Y1934D01*
X1475Y1934D02*
X1491Y1934D01*
X553Y1933D02*
X569Y1933D01*
X1477Y1933D02*
X1493Y1933D01*
X551Y1932D02*
X567Y1932D01*
X1479Y1932D02*
X1495Y1932D01*
X549Y1931D02*
X565Y1931D01*
X1481Y1931D02*
X1497Y1931D01*
X547Y1930D02*
X563Y1930D01*
X1483Y1930D02*
X1498Y1930D01*
X546Y1929D02*
X561Y1929D01*
X1485Y1929D02*
X1500Y1929D01*
X544Y1928D02*
X559Y1928D01*
X1487Y1928D02*
X1502Y1928D01*
X542Y1927D02*
X557Y1927D01*
X1489Y1927D02*
X1504Y1927D01*
X540Y1926D02*
X555Y1926D01*
X1491Y1926D02*
X1506Y1926D01*
X538Y1925D02*
X553Y1925D01*
X1493Y1925D02*
X1508Y1925D01*
X536Y1924D02*
X551Y1924D01*
X1495Y1924D02*
X1510Y1924D01*
X534Y1923D02*
X549Y1923D01*
X1496Y1923D02*
X1512Y1923D01*
X533Y1922D02*
X548Y1922D01*
X1498Y1922D02*
X1513Y1922D01*
X531Y1921D02*
X546Y1921D01*
X1500Y1921D02*
X1515Y1921D01*
X529Y1920D02*
X544Y1920D01*
X1502Y1920D02*
X1517Y1920D01*
X527Y1919D02*
X542Y1919D01*
X1504Y1919D02*
X1519Y1919D01*
X525Y1918D02*
X540Y1918D01*
X1506Y1918D02*
X1521Y1918D01*
X524Y1917D02*
X538Y1917D01*
X1508Y1917D02*
X1522Y1917D01*
X522Y1916D02*
X536Y1916D01*
X1510Y1916D02*
X1524Y1916D01*
X520Y1915D02*
X535Y1915D01*
X1511Y1915D02*
X1526Y1915D01*
X518Y1914D02*
X533Y1914D01*
X1513Y1914D02*
X1528Y1914D01*
X516Y1913D02*
X531Y1913D01*
X1515Y1913D02*
X1530Y1913D01*
X515Y1912D02*
X529Y1912D01*
X1517Y1912D02*
X1531Y1912D01*
X513Y1911D02*
X527Y1911D01*
X1519Y1911D02*
X1533Y1911D01*
X511Y1910D02*
X526Y1910D01*
X1520Y1910D02*
X1535Y1910D01*
X510Y1909D02*
X524Y1909D01*
X1522Y1909D02*
X1536Y1909D01*
X508Y1908D02*
X522Y1908D01*
X1524Y1908D02*
X1538Y1908D01*
X506Y1907D02*
X520Y1907D01*
X1526Y1907D02*
X1540Y1907D01*
X504Y1906D02*
X518Y1906D01*
X1528Y1906D02*
X1541Y1906D01*
X503Y1905D02*
X517Y1905D01*
X1529Y1905D02*
X1543Y1905D01*
X501Y1904D02*
X515Y1904D01*
X1531Y1904D02*
X1545Y1904D01*
X499Y1903D02*
X513Y1903D01*
X1533Y1903D02*
X1547Y1903D01*
X498Y1902D02*
X512Y1902D01*
X1534Y1902D02*
X1548Y1902D01*
X496Y1901D02*
X510Y1901D01*
X1536Y1901D02*
X1550Y1901D01*
X494Y1900D02*
X508Y1900D01*
X1538Y1900D02*
X1552Y1900D01*
X493Y1899D02*
X506Y1899D01*
X1540Y1899D02*
X1553Y1899D01*
X491Y1898D02*
X505Y1898D01*
X1541Y1898D02*
X1555Y1898D01*
X489Y1897D02*
X503Y1897D01*
X1543Y1897D02*
X1557Y1897D01*
X488Y1896D02*
X501Y1896D01*
X1545Y1896D02*
X1558Y1896D01*
X486Y1895D02*
X500Y1895D01*
X1546Y1895D02*
X1560Y1895D01*
X485Y1894D02*
X498Y1894D01*
X1548Y1894D02*
X1561Y1894D01*
X483Y1893D02*
X496Y1893D01*
X1550Y1893D02*
X1563Y1893D01*
X481Y1892D02*
X495Y1892D01*
X1551Y1892D02*
X1565Y1892D01*
X480Y1891D02*
X493Y1891D01*
X1553Y1891D02*
X1566Y1891D01*
X478Y1890D02*
X491Y1890D01*
X1555Y1890D02*
X1568Y1890D01*
X477Y1889D02*
X490Y1889D01*
X1556Y1889D02*
X1569Y1889D01*
X475Y1888D02*
X488Y1888D01*
X1558Y1888D02*
X1571Y1888D01*
X473Y1887D02*
X487Y1887D01*
X1559Y1887D02*
X1573Y1887D01*
X472Y1886D02*
X485Y1886D01*
X1561Y1886D02*
X1574Y1886D01*
X470Y1885D02*
X483Y1885D01*
X1563Y1885D02*
X1576Y1885D01*
X469Y1884D02*
X482Y1884D01*
X1564Y1884D02*
X1577Y1884D01*
X467Y1883D02*
X480Y1883D01*
X1566Y1883D02*
X1579Y1883D01*
X466Y1882D02*
X479Y1882D01*
X1567Y1882D02*
X1580Y1882D01*
X464Y1881D02*
X477Y1881D01*
X1569Y1881D02*
X1582Y1881D01*
X463Y1880D02*
X475Y1880D01*
X1571Y1880D02*
X1583Y1880D01*
X461Y1879D02*
X474Y1879D01*
X1572Y1879D02*
X1585Y1879D01*
X460Y1878D02*
X472Y1878D01*
X1574Y1878D02*
X1586Y1878D01*
X458Y1877D02*
X471Y1877D01*
X1575Y1877D02*
X1588Y1877D01*
X457Y1876D02*
X469Y1876D01*
X1577Y1876D02*
X1589Y1876D01*
X455Y1875D02*
X468Y1875D01*
X1578Y1875D02*
X1591Y1875D01*
X454Y1874D02*
X466Y1874D01*
X1580Y1874D02*
X1592Y1874D01*
X452Y1873D02*
X465Y1873D01*
X1581Y1873D02*
X1594Y1873D01*
X451Y1872D02*
X463Y1872D01*
X1583Y1872D02*
X1595Y1872D01*
X449Y1871D02*
X462Y1871D01*
X1584Y1871D02*
X1597Y1871D01*
X448Y1870D02*
X460Y1870D01*
X1586Y1870D02*
X1598Y1870D01*
X446Y1869D02*
X459Y1869D01*
X1587Y1869D02*
X1600Y1869D01*
X445Y1868D02*
X457Y1868D01*
X1589Y1868D02*
X1601Y1868D01*
X443Y1867D02*
X456Y1867D01*
X1590Y1867D02*
X1603Y1867D01*
X442Y1866D02*
X454Y1866D01*
X1592Y1866D02*
X1604Y1866D01*
X441Y1865D02*
X453Y1865D01*
X1593Y1865D02*
X1605Y1865D01*
X439Y1864D02*
X451Y1864D01*
X1595Y1864D02*
X1607Y1864D01*
X438Y1863D02*
X450Y1863D01*
X1596Y1863D02*
X1608Y1863D01*
X436Y1862D02*
X448Y1862D01*
X1598Y1862D02*
X1610Y1862D01*
X435Y1861D02*
X447Y1861D01*
X1599Y1861D02*
X1611Y1861D01*
X433Y1860D02*
X445Y1860D01*
X1600Y1860D02*
X1613Y1860D01*
X432Y1859D02*
X444Y1859D01*
X1602Y1859D02*
X1614Y1859D01*
X430Y1858D02*
X443Y1858D01*
X1603Y1858D02*
X1615Y1858D01*
X429Y1857D02*
X441Y1857D01*
X1605Y1857D02*
X1617Y1857D01*
X428Y1856D02*
X440Y1856D01*
X1606Y1856D02*
X1618Y1856D01*
X426Y1855D02*
X438Y1855D01*
X1608Y1855D02*
X1620Y1855D01*
X425Y1854D02*
X437Y1854D01*
X1609Y1854D02*
X1621Y1854D01*
X424Y1853D02*
X435Y1853D01*
X1611Y1853D02*
X1622Y1853D01*
X422Y1852D02*
X434Y1852D01*
X1612Y1852D02*
X1624Y1852D01*
X421Y1851D02*
X433Y1851D01*
X1613Y1851D02*
X1625Y1851D01*
X420Y1850D02*
X431Y1850D01*
X1615Y1850D02*
X1626Y1850D01*
X418Y1849D02*
X430Y1849D01*
X1616Y1849D02*
X1628Y1849D01*
X417Y1848D02*
X428Y1848D01*
X1618Y1848D02*
X1629Y1848D01*
X415Y1847D02*
X427Y1847D01*
X1619Y1847D02*
X1631Y1847D01*
X414Y1846D02*
X426Y1846D01*
X1620Y1846D02*
X1632Y1846D01*
X413Y1845D02*
X424Y1845D01*
X1622Y1845D02*
X1633Y1845D01*
X411Y1844D02*
X423Y1844D01*
X1623Y1844D02*
X1635Y1844D01*
X410Y1843D02*
X422Y1843D01*
X1624Y1843D02*
X1636Y1843D01*
X409Y1842D02*
X420Y1842D01*
X1626Y1842D02*
X1637Y1842D01*
X407Y1841D02*
X419Y1841D01*
X1627Y1841D02*
X1639Y1841D01*
X406Y1840D02*
X418Y1840D01*
X1628Y1840D02*
X1640Y1840D01*
X405Y1839D02*
X416Y1839D01*
X1630Y1839D02*
X1641Y1839D01*
X404Y1838D02*
X415Y1838D01*
X1631Y1838D02*
X1642Y1838D01*
X402Y1837D02*
X413Y1837D01*
X1633Y1837D02*
X1644Y1837D01*
X401Y1836D02*
X412Y1836D01*
X1634Y1836D02*
X1645Y1836D01*
X400Y1835D02*
X411Y1835D01*
X1635Y1835D02*
X1646Y1835D01*
X398Y1834D02*
X410Y1834D01*
X1636Y1834D02*
X1648Y1834D01*
X397Y1833D02*
X408Y1833D01*
X1638Y1833D02*
X1649Y1833D01*
X396Y1832D02*
X407Y1832D01*
X1639Y1832D02*
X1650Y1832D01*
X394Y1831D02*
X406Y1831D01*
X1640Y1831D02*
X1652Y1831D01*
X393Y1830D02*
X404Y1830D01*
X1642Y1830D02*
X1653Y1830D01*
X392Y1829D02*
X403Y1829D01*
X1643Y1829D02*
X1654Y1829D01*
X391Y1828D02*
X402Y1828D01*
X1644Y1828D02*
X1655Y1828D01*
X389Y1827D02*
X400Y1827D01*
X1646Y1827D02*
X1657Y1827D01*
X388Y1826D02*
X399Y1826D01*
X1647Y1826D02*
X1658Y1826D01*
X387Y1825D02*
X398Y1825D01*
X1648Y1825D02*
X1659Y1825D01*
X386Y1824D02*
X396Y1824D01*
X1650Y1824D02*
X1660Y1824D01*
X384Y1823D02*
X395Y1823D01*
X1651Y1823D02*
X1662Y1823D01*
X383Y1822D02*
X394Y1822D01*
X1652Y1822D02*
X1663Y1822D01*
X382Y1821D02*
X393Y1821D01*
X1653Y1821D02*
X1664Y1821D01*
X381Y1820D02*
X391Y1820D01*
X1655Y1820D02*
X1665Y1820D01*
X379Y1819D02*
X390Y1819D01*
X1656Y1819D02*
X1667Y1819D01*
X378Y1818D02*
X389Y1818D01*
X1657Y1818D02*
X1668Y1818D01*
X377Y1817D02*
X388Y1817D01*
X1658Y1817D02*
X1669Y1817D01*
X376Y1816D02*
X386Y1816D01*
X1659Y1816D02*
X1670Y1816D01*
X374Y1815D02*
X385Y1815D01*
X1661Y1815D02*
X1672Y1815D01*
X373Y1814D02*
X384Y1814D01*
X1662Y1814D02*
X1673Y1814D01*
X372Y1813D02*
X383Y1813D01*
X1663Y1813D02*
X1674Y1813D01*
X371Y1812D02*
X382Y1812D01*
X1664Y1812D02*
X1675Y1812D01*
X370Y1811D02*
X380Y1811D01*
X1666Y1811D02*
X1676Y1811D01*
X368Y1810D02*
X379Y1810D01*
X1667Y1810D02*
X1678Y1810D01*
X367Y1809D02*
X378Y1809D01*
X1668Y1809D02*
X1679Y1809D01*
X366Y1808D02*
X377Y1808D01*
X1669Y1808D02*
X1680Y1808D01*
X365Y1807D02*
X375Y1807D01*
X1671Y1807D02*
X1681Y1807D01*
X364Y1806D02*
X374Y1806D01*
X1672Y1806D02*
X1682Y1806D01*
X362Y1805D02*
X373Y1805D01*
X1673Y1805D02*
X1683Y1805D01*
X361Y1804D02*
X372Y1804D01*
X1674Y1804D02*
X1685Y1804D01*
X360Y1803D02*
X371Y1803D01*
X1675Y1803D02*
X1686Y1803D01*
X359Y1802D02*
X369Y1802D01*
X1677Y1802D02*
X1687Y1802D01*
X358Y1801D02*
X368Y1801D01*
X1678Y1801D02*
X1688Y1801D01*
X357Y1800D02*
X367Y1800D01*
X1679Y1800D02*
X1689Y1800D01*
X355Y1799D02*
X366Y1799D01*
X1680Y1799D02*
X1691Y1799D01*
X354Y1798D02*
X365Y1798D01*
X1681Y1798D02*
X1692Y1798D01*
X353Y1797D02*
X364Y1797D01*
X1682Y1797D02*
X1693Y1797D01*
X352Y1796D02*
X362Y1796D01*
X1249Y1796D02*
X1274Y1796D01*
X1296Y1796D02*
X1296Y1796D01*
X1402Y1796D02*
X1426Y1796D01*
X1684Y1796D02*
X1694Y1796D01*
X351Y1795D02*
X361Y1795D01*
X1246Y1795D02*
X1275Y1795D01*
X1294Y1795D02*
X1298Y1795D01*
X1399Y1795D02*
X1426Y1795D01*
X1685Y1795D02*
X1695Y1795D01*
X350Y1794D02*
X360Y1794D01*
X1245Y1794D02*
X1276Y1794D01*
X1293Y1794D02*
X1298Y1794D01*
X1397Y1794D02*
X1426Y1794D01*
X1686Y1794D02*
X1696Y1794D01*
X349Y1793D02*
X359Y1793D01*
X1244Y1793D02*
X1276Y1793D01*
X1293Y1793D02*
X1299Y1793D01*
X1396Y1793D02*
X1426Y1793D01*
X1687Y1793D02*
X1697Y1793D01*
X347Y1792D02*
X358Y1792D01*
X1243Y1792D02*
X1276Y1792D01*
X1293Y1792D02*
X1299Y1792D01*
X1395Y1792D02*
X1426Y1792D01*
X1688Y1792D02*
X1699Y1792D01*
X346Y1791D02*
X357Y1791D01*
X1243Y1791D02*
X1276Y1791D01*
X1293Y1791D02*
X1299Y1791D01*
X1394Y1791D02*
X1426Y1791D01*
X1689Y1791D02*
X1700Y1791D01*
X345Y1790D02*
X355Y1790D01*
X1243Y1790D02*
X1275Y1790D01*
X1293Y1790D02*
X1299Y1790D01*
X1394Y1790D02*
X1426Y1790D01*
X1691Y1790D02*
X1701Y1790D01*
X344Y1789D02*
X354Y1789D01*
X1243Y1789D02*
X1249Y1789D01*
X1293Y1789D02*
X1299Y1789D01*
X1393Y1789D02*
X1402Y1789D01*
X1420Y1789D02*
X1426Y1789D01*
X1692Y1789D02*
X1702Y1789D01*
X343Y1788D02*
X353Y1788D01*
X1243Y1788D02*
X1249Y1788D01*
X1293Y1788D02*
X1299Y1788D01*
X1393Y1788D02*
X1400Y1788D01*
X1420Y1788D02*
X1426Y1788D01*
X1693Y1788D02*
X1703Y1788D01*
X342Y1787D02*
X352Y1787D01*
X1243Y1787D02*
X1249Y1787D01*
X1293Y1787D02*
X1299Y1787D01*
X1393Y1787D02*
X1399Y1787D01*
X1420Y1787D02*
X1426Y1787D01*
X1694Y1787D02*
X1704Y1787D01*
X341Y1786D02*
X351Y1786D01*
X1243Y1786D02*
X1249Y1786D01*
X1293Y1786D02*
X1299Y1786D01*
X1393Y1786D02*
X1399Y1786D01*
X1420Y1786D02*
X1426Y1786D01*
X1695Y1786D02*
X1705Y1786D01*
X340Y1785D02*
X350Y1785D01*
X1243Y1785D02*
X1249Y1785D01*
X1293Y1785D02*
X1299Y1785D01*
X1393Y1785D02*
X1399Y1785D01*
X1420Y1785D02*
X1426Y1785D01*
X1696Y1785D02*
X1706Y1785D01*
X338Y1784D02*
X349Y1784D01*
X1243Y1784D02*
X1249Y1784D01*
X1293Y1784D02*
X1299Y1784D01*
X1393Y1784D02*
X1399Y1784D01*
X1420Y1784D02*
X1426Y1784D01*
X1697Y1784D02*
X1708Y1784D01*
X337Y1783D02*
X347Y1783D01*
X1243Y1783D02*
X1249Y1783D01*
X1293Y1783D02*
X1299Y1783D01*
X1393Y1783D02*
X1399Y1783D01*
X1420Y1783D02*
X1426Y1783D01*
X1698Y1783D02*
X1709Y1783D01*
X336Y1782D02*
X346Y1782D01*
X1243Y1782D02*
X1249Y1782D01*
X1293Y1782D02*
X1299Y1782D01*
X1393Y1782D02*
X1399Y1782D01*
X1420Y1782D02*
X1426Y1782D01*
X1700Y1782D02*
X1710Y1782D01*
X335Y1781D02*
X345Y1781D01*
X1243Y1781D02*
X1249Y1781D01*
X1293Y1781D02*
X1299Y1781D01*
X1306Y1781D02*
X1316Y1781D01*
X1351Y1781D02*
X1368Y1781D01*
X1393Y1781D02*
X1399Y1781D01*
X1420Y1781D02*
X1426Y1781D01*
X1701Y1781D02*
X1711Y1781D01*
X334Y1780D02*
X344Y1780D01*
X1243Y1780D02*
X1249Y1780D01*
X1293Y1780D02*
X1299Y1780D01*
X1304Y1780D02*
X1319Y1780D01*
X1349Y1780D02*
X1369Y1780D01*
X1393Y1780D02*
X1399Y1780D01*
X1420Y1780D02*
X1426Y1780D01*
X1702Y1780D02*
X1712Y1780D01*
X333Y1779D02*
X343Y1779D01*
X1243Y1779D02*
X1249Y1779D01*
X1293Y1779D02*
X1299Y1779D01*
X1303Y1779D02*
X1320Y1779D01*
X1347Y1779D02*
X1369Y1779D01*
X1393Y1779D02*
X1399Y1779D01*
X1420Y1779D02*
X1426Y1779D01*
X1703Y1779D02*
X1713Y1779D01*
X332Y1778D02*
X342Y1778D01*
X1243Y1778D02*
X1249Y1778D01*
X1293Y1778D02*
X1299Y1778D01*
X1301Y1778D02*
X1321Y1778D01*
X1346Y1778D02*
X1369Y1778D01*
X1393Y1778D02*
X1399Y1778D01*
X1420Y1778D02*
X1426Y1778D01*
X1704Y1778D02*
X1714Y1778D01*
X331Y1777D02*
X341Y1777D01*
X1243Y1777D02*
X1249Y1777D01*
X1293Y1777D02*
X1322Y1777D01*
X1346Y1777D02*
X1369Y1777D01*
X1393Y1777D02*
X1399Y1777D01*
X1420Y1777D02*
X1426Y1777D01*
X1705Y1777D02*
X1715Y1777D01*
X330Y1776D02*
X340Y1776D01*
X1243Y1776D02*
X1249Y1776D01*
X1293Y1776D02*
X1323Y1776D01*
X1345Y1776D02*
X1369Y1776D01*
X1393Y1776D02*
X1399Y1776D01*
X1420Y1776D02*
X1426Y1776D01*
X1706Y1776D02*
X1716Y1776D01*
X329Y1775D02*
X339Y1775D01*
X1243Y1775D02*
X1249Y1775D01*
X1293Y1775D02*
X1324Y1775D01*
X1344Y1775D02*
X1368Y1775D01*
X1393Y1775D02*
X1399Y1775D01*
X1420Y1775D02*
X1426Y1775D01*
X1707Y1775D02*
X1717Y1775D01*
X328Y1774D02*
X337Y1774D01*
X1243Y1774D02*
X1249Y1774D01*
X1293Y1774D02*
X1307Y1774D01*
X1316Y1774D02*
X1325Y1774D01*
X1344Y1774D02*
X1351Y1774D01*
X1393Y1774D02*
X1399Y1774D01*
X1420Y1774D02*
X1426Y1774D01*
X1709Y1774D02*
X1718Y1774D01*
X326Y1773D02*
X336Y1773D01*
X1243Y1773D02*
X1249Y1773D01*
X1293Y1773D02*
X1305Y1773D01*
X1317Y1773D02*
X1325Y1773D01*
X1344Y1773D02*
X1350Y1773D01*
X1393Y1773D02*
X1399Y1773D01*
X1420Y1773D02*
X1426Y1773D01*
X1710Y1773D02*
X1720Y1773D01*
X325Y1772D02*
X335Y1772D01*
X1243Y1772D02*
X1272Y1772D01*
X1293Y1772D02*
X1304Y1772D01*
X1319Y1772D02*
X1326Y1772D01*
X1344Y1772D02*
X1350Y1772D01*
X1393Y1772D02*
X1399Y1772D01*
X1420Y1772D02*
X1426Y1772D01*
X1711Y1772D02*
X1721Y1772D01*
X324Y1771D02*
X334Y1771D01*
X1243Y1771D02*
X1274Y1771D01*
X1293Y1771D02*
X1303Y1771D01*
X1319Y1771D02*
X1326Y1771D01*
X1344Y1771D02*
X1350Y1771D01*
X1393Y1771D02*
X1400Y1771D01*
X1420Y1771D02*
X1426Y1771D01*
X1712Y1771D02*
X1722Y1771D01*
X323Y1770D02*
X333Y1770D01*
X1243Y1770D02*
X1275Y1770D01*
X1293Y1770D02*
X1302Y1770D01*
X1320Y1770D02*
X1326Y1770D01*
X1344Y1770D02*
X1350Y1770D01*
X1393Y1770D02*
X1401Y1770D01*
X1420Y1770D02*
X1426Y1770D01*
X1713Y1770D02*
X1723Y1770D01*
X322Y1769D02*
X332Y1769D01*
X1244Y1769D02*
X1275Y1769D01*
X1293Y1769D02*
X1301Y1769D01*
X1320Y1769D02*
X1326Y1769D01*
X1344Y1769D02*
X1350Y1769D01*
X1394Y1769D02*
X1426Y1769D01*
X1714Y1769D02*
X1724Y1769D01*
X321Y1768D02*
X331Y1768D01*
X1245Y1768D02*
X1276Y1768D01*
X1293Y1768D02*
X1300Y1768D01*
X1320Y1768D02*
X1326Y1768D01*
X1344Y1768D02*
X1350Y1768D01*
X1394Y1768D02*
X1426Y1768D01*
X1715Y1768D02*
X1725Y1768D01*
X320Y1767D02*
X330Y1767D01*
X1246Y1767D02*
X1276Y1767D01*
X1293Y1767D02*
X1299Y1767D01*
X1320Y1767D02*
X1326Y1767D01*
X1344Y1767D02*
X1350Y1767D01*
X1395Y1767D02*
X1426Y1767D01*
X1716Y1767D02*
X1726Y1767D01*
X319Y1766D02*
X329Y1766D01*
X1248Y1766D02*
X1276Y1766D01*
X1293Y1766D02*
X1299Y1766D01*
X1320Y1766D02*
X1326Y1766D01*
X1343Y1766D02*
X1370Y1766D01*
X1396Y1766D02*
X1426Y1766D01*
X1717Y1766D02*
X1727Y1766D01*
X318Y1765D02*
X328Y1765D01*
X1270Y1765D02*
X1276Y1765D01*
X1293Y1765D02*
X1299Y1765D01*
X1320Y1765D02*
X1326Y1765D01*
X1343Y1765D02*
X1372Y1765D01*
X1397Y1765D02*
X1426Y1765D01*
X1718Y1765D02*
X1728Y1765D01*
X317Y1764D02*
X327Y1764D01*
X1270Y1764D02*
X1276Y1764D01*
X1293Y1764D02*
X1299Y1764D01*
X1320Y1764D02*
X1326Y1764D01*
X1343Y1764D02*
X1373Y1764D01*
X1398Y1764D02*
X1426Y1764D01*
X1719Y1764D02*
X1729Y1764D01*
X316Y1763D02*
X326Y1763D01*
X1270Y1763D02*
X1276Y1763D01*
X1293Y1763D02*
X1299Y1763D01*
X1320Y1763D02*
X1326Y1763D01*
X1343Y1763D02*
X1374Y1763D01*
X1401Y1763D02*
X1426Y1763D01*
X1720Y1763D02*
X1730Y1763D01*
X315Y1762D02*
X325Y1762D01*
X1270Y1762D02*
X1276Y1762D01*
X1293Y1762D02*
X1299Y1762D01*
X1320Y1762D02*
X1326Y1762D01*
X1343Y1762D02*
X1375Y1762D01*
X1420Y1762D02*
X1426Y1762D01*
X1721Y1762D02*
X1731Y1762D01*
X314Y1761D02*
X323Y1761D01*
X1270Y1761D02*
X1276Y1761D01*
X1293Y1761D02*
X1299Y1761D01*
X1320Y1761D02*
X1326Y1761D01*
X1343Y1761D02*
X1375Y1761D01*
X1420Y1761D02*
X1426Y1761D01*
X1723Y1761D02*
X1732Y1761D01*
X313Y1760D02*
X322Y1760D01*
X1270Y1760D02*
X1276Y1760D01*
X1293Y1760D02*
X1299Y1760D01*
X1320Y1760D02*
X1326Y1760D01*
X1343Y1760D02*
X1376Y1760D01*
X1420Y1760D02*
X1426Y1760D01*
X1724Y1760D02*
X1733Y1760D01*
X312Y1759D02*
X321Y1759D01*
X1270Y1759D02*
X1276Y1759D01*
X1293Y1759D02*
X1299Y1759D01*
X1320Y1759D02*
X1326Y1759D01*
X1343Y1759D02*
X1351Y1759D01*
X1369Y1759D02*
X1376Y1759D01*
X1420Y1759D02*
X1426Y1759D01*
X1725Y1759D02*
X1734Y1759D01*
X311Y1758D02*
X320Y1758D01*
X1270Y1758D02*
X1276Y1758D01*
X1293Y1758D02*
X1299Y1758D01*
X1320Y1758D02*
X1326Y1758D01*
X1343Y1758D02*
X1350Y1758D01*
X1370Y1758D02*
X1376Y1758D01*
X1420Y1758D02*
X1426Y1758D01*
X1726Y1758D02*
X1735Y1758D01*
X310Y1757D02*
X319Y1757D01*
X1270Y1757D02*
X1276Y1757D01*
X1293Y1757D02*
X1299Y1757D01*
X1320Y1757D02*
X1326Y1757D01*
X1343Y1757D02*
X1349Y1757D01*
X1370Y1757D02*
X1376Y1757D01*
X1420Y1757D02*
X1426Y1757D01*
X1727Y1757D02*
X1736Y1757D01*
X309Y1756D02*
X318Y1756D01*
X1270Y1756D02*
X1276Y1756D01*
X1293Y1756D02*
X1299Y1756D01*
X1320Y1756D02*
X1326Y1756D01*
X1343Y1756D02*
X1349Y1756D01*
X1370Y1756D02*
X1376Y1756D01*
X1420Y1756D02*
X1426Y1756D01*
X1728Y1756D02*
X1737Y1756D01*
X308Y1755D02*
X317Y1755D01*
X1270Y1755D02*
X1276Y1755D01*
X1293Y1755D02*
X1300Y1755D01*
X1320Y1755D02*
X1326Y1755D01*
X1343Y1755D02*
X1349Y1755D01*
X1370Y1755D02*
X1376Y1755D01*
X1420Y1755D02*
X1426Y1755D01*
X1729Y1755D02*
X1738Y1755D01*
X307Y1754D02*
X316Y1754D01*
X1270Y1754D02*
X1276Y1754D01*
X1293Y1754D02*
X1301Y1754D01*
X1320Y1754D02*
X1326Y1754D01*
X1343Y1754D02*
X1349Y1754D01*
X1370Y1754D02*
X1376Y1754D01*
X1420Y1754D02*
X1426Y1754D01*
X1730Y1754D02*
X1739Y1754D01*
X306Y1753D02*
X315Y1753D01*
X1270Y1753D02*
X1276Y1753D01*
X1293Y1753D02*
X1302Y1753D01*
X1320Y1753D02*
X1326Y1753D01*
X1343Y1753D02*
X1350Y1753D01*
X1370Y1753D02*
X1376Y1753D01*
X1420Y1753D02*
X1426Y1753D01*
X1731Y1753D02*
X1740Y1753D01*
X305Y1752D02*
X314Y1752D01*
X1270Y1752D02*
X1276Y1752D01*
X1293Y1752D02*
X1304Y1752D01*
X1319Y1752D02*
X1326Y1752D01*
X1343Y1752D02*
X1352Y1752D01*
X1370Y1752D02*
X1376Y1752D01*
X1420Y1752D02*
X1426Y1752D01*
X1732Y1752D02*
X1741Y1752D01*
X304Y1751D02*
X313Y1751D01*
X1270Y1751D02*
X1276Y1751D01*
X1293Y1751D02*
X1305Y1751D01*
X1318Y1751D02*
X1326Y1751D01*
X1343Y1751D02*
X1353Y1751D01*
X1370Y1751D02*
X1376Y1751D01*
X1420Y1751D02*
X1426Y1751D01*
X1733Y1751D02*
X1742Y1751D01*
X302Y1750D02*
X312Y1750D01*
X1270Y1750D02*
X1276Y1750D01*
X1293Y1750D02*
X1306Y1750D01*
X1317Y1750D02*
X1325Y1750D01*
X1343Y1750D02*
X1355Y1750D01*
X1369Y1750D02*
X1376Y1750D01*
X1420Y1750D02*
X1426Y1750D01*
X1734Y1750D02*
X1743Y1750D01*
X301Y1749D02*
X311Y1749D01*
X1247Y1749D02*
X1276Y1749D01*
X1293Y1749D02*
X1325Y1749D01*
X1343Y1749D02*
X1376Y1749D01*
X1420Y1749D02*
X1426Y1749D01*
X1735Y1749D02*
X1745Y1749D01*
X300Y1748D02*
X310Y1748D01*
X1244Y1748D02*
X1276Y1748D01*
X1293Y1748D02*
X1324Y1748D01*
X1343Y1748D02*
X1375Y1748D01*
X1420Y1748D02*
X1426Y1748D01*
X1736Y1748D02*
X1746Y1748D01*
X299Y1747D02*
X309Y1747D01*
X1243Y1747D02*
X1276Y1747D01*
X1293Y1747D02*
X1323Y1747D01*
X1343Y1747D02*
X1375Y1747D01*
X1420Y1747D02*
X1426Y1747D01*
X1737Y1747D02*
X1747Y1747D01*
X298Y1746D02*
X308Y1746D01*
X1243Y1746D02*
X1276Y1746D01*
X1293Y1746D02*
X1299Y1746D01*
X1301Y1746D02*
X1322Y1746D01*
X1343Y1746D02*
X1374Y1746D01*
X1420Y1746D02*
X1426Y1746D01*
X1738Y1746D02*
X1748Y1746D01*
X297Y1745D02*
X307Y1745D01*
X1243Y1745D02*
X1276Y1745D01*
X1293Y1745D02*
X1299Y1745D01*
X1302Y1745D02*
X1321Y1745D01*
X1343Y1745D02*
X1349Y1745D01*
X1351Y1745D02*
X1373Y1745D01*
X1420Y1745D02*
X1426Y1745D01*
X1739Y1745D02*
X1748Y1745D01*
X297Y1744D02*
X306Y1744D01*
X1243Y1744D02*
X1276Y1744D01*
X1293Y1744D02*
X1298Y1744D01*
X1303Y1744D02*
X1320Y1744D01*
X1343Y1744D02*
X1348Y1744D01*
X1352Y1744D02*
X1372Y1744D01*
X1421Y1744D02*
X1426Y1744D01*
X1740Y1744D02*
X1749Y1744D01*
X296Y1743D02*
X305Y1743D01*
X1244Y1743D02*
X1276Y1743D01*
X1294Y1743D02*
X1298Y1743D01*
X1305Y1743D02*
X1318Y1743D01*
X1344Y1743D02*
X1348Y1743D01*
X1354Y1743D02*
X1370Y1743D01*
X1422Y1743D02*
X1425Y1743D01*
X1741Y1743D02*
X1750Y1743D01*
X295Y1742D02*
X304Y1742D01*
X1246Y1742D02*
X1276Y1742D01*
X1309Y1742D02*
X1314Y1742D01*
X1357Y1742D02*
X1366Y1742D01*
X1742Y1742D02*
X1751Y1742D01*
X294Y1741D02*
X303Y1741D01*
X1743Y1741D02*
X1752Y1741D01*
X293Y1740D02*
X302Y1740D01*
X1744Y1740D02*
X1753Y1740D01*
X292Y1739D02*
X301Y1739D01*
X1745Y1739D02*
X1754Y1739D01*
X291Y1738D02*
X300Y1738D01*
X1746Y1738D02*
X1755Y1738D01*
X290Y1737D02*
X299Y1737D01*
X1747Y1737D02*
X1756Y1737D01*
X289Y1736D02*
X298Y1736D01*
X1748Y1736D02*
X1757Y1736D01*
X288Y1735D02*
X297Y1735D01*
X1749Y1735D02*
X1758Y1735D01*
X287Y1734D02*
X296Y1734D01*
X1750Y1734D02*
X1759Y1734D01*
X286Y1733D02*
X295Y1733D01*
X1751Y1733D02*
X1760Y1733D01*
X285Y1732D02*
X294Y1732D01*
X1752Y1732D02*
X1761Y1732D01*
X284Y1731D02*
X293Y1731D01*
X1753Y1731D02*
X1762Y1731D01*
X283Y1730D02*
X292Y1730D01*
X1754Y1730D02*
X1763Y1730D01*
X282Y1729D02*
X291Y1729D01*
X1755Y1729D02*
X1764Y1729D01*
X281Y1728D02*
X290Y1728D01*
X1756Y1728D02*
X1765Y1728D01*
X280Y1727D02*
X289Y1727D01*
X1757Y1727D02*
X1766Y1727D01*
X279Y1726D02*
X288Y1726D01*
X1758Y1726D02*
X1767Y1726D01*
X278Y1725D02*
X287Y1725D01*
X1759Y1725D02*
X1768Y1725D01*
X277Y1724D02*
X286Y1724D01*
X1760Y1724D02*
X1769Y1724D01*
X276Y1723D02*
X285Y1723D01*
X1761Y1723D02*
X1770Y1723D01*
X275Y1722D02*
X285Y1722D01*
X1761Y1722D02*
X1771Y1722D01*
X274Y1721D02*
X284Y1721D01*
X1762Y1721D02*
X1772Y1721D01*
X274Y1720D02*
X283Y1720D01*
X1763Y1720D02*
X1772Y1720D01*
X273Y1719D02*
X282Y1719D01*
X1764Y1719D02*
X1773Y1719D01*
X272Y1718D02*
X281Y1718D01*
X1765Y1718D02*
X1774Y1718D01*
X271Y1717D02*
X280Y1717D01*
X1766Y1717D02*
X1775Y1717D01*
X270Y1716D02*
X279Y1716D01*
X1767Y1716D02*
X1776Y1716D01*
X269Y1715D02*
X278Y1715D01*
X1768Y1715D02*
X1777Y1715D01*
X268Y1714D02*
X277Y1714D01*
X1769Y1714D02*
X1778Y1714D01*
X267Y1713D02*
X276Y1713D01*
X1770Y1713D02*
X1779Y1713D01*
X266Y1712D02*
X275Y1712D01*
X1771Y1712D02*
X1780Y1712D01*
X265Y1711D02*
X274Y1711D01*
X1772Y1711D02*
X1781Y1711D01*
X264Y1710D02*
X273Y1710D01*
X1773Y1710D02*
X1782Y1710D01*
X263Y1709D02*
X272Y1709D01*
X1774Y1709D02*
X1783Y1709D01*
X263Y1708D02*
X272Y1708D01*
X1774Y1708D02*
X1783Y1708D01*
X262Y1707D02*
X271Y1707D01*
X1775Y1707D02*
X1784Y1707D01*
X261Y1706D02*
X270Y1706D01*
X1776Y1706D02*
X1785Y1706D01*
X260Y1705D02*
X269Y1705D01*
X1777Y1705D02*
X1786Y1705D01*
X259Y1704D02*
X268Y1704D01*
X1778Y1704D02*
X1787Y1704D01*
X258Y1703D02*
X267Y1703D01*
X1779Y1703D02*
X1788Y1703D01*
X257Y1702D02*
X266Y1702D01*
X1780Y1702D02*
X1789Y1702D01*
X256Y1701D02*
X265Y1701D01*
X1781Y1701D02*
X1790Y1701D01*
X255Y1700D02*
X264Y1700D01*
X1782Y1700D02*
X1791Y1700D01*
X255Y1699D02*
X263Y1699D01*
X1782Y1699D02*
X1791Y1699D01*
X254Y1698D02*
X263Y1698D01*
X1783Y1698D02*
X1792Y1698D01*
X253Y1697D02*
X262Y1697D01*
X1784Y1697D02*
X1793Y1697D01*
X252Y1696D02*
X261Y1696D01*
X1785Y1696D02*
X1794Y1696D01*
X251Y1695D02*
X260Y1695D01*
X1786Y1695D02*
X1795Y1695D01*
X250Y1694D02*
X259Y1694D01*
X1787Y1694D02*
X1796Y1694D01*
X249Y1693D02*
X258Y1693D01*
X1788Y1693D02*
X1797Y1693D01*
X248Y1692D02*
X257Y1692D01*
X1789Y1692D02*
X1798Y1692D01*
X248Y1691D02*
X256Y1691D01*
X1790Y1691D02*
X1798Y1691D01*
X247Y1690D02*
X256Y1690D01*
X1790Y1690D02*
X1799Y1690D01*
X246Y1689D02*
X255Y1689D01*
X1791Y1689D02*
X1800Y1689D01*
X245Y1688D02*
X254Y1688D01*
X1792Y1688D02*
X1801Y1688D01*
X244Y1687D02*
X253Y1687D01*
X1793Y1687D02*
X1802Y1687D01*
X243Y1686D02*
X252Y1686D01*
X1794Y1686D02*
X1803Y1686D01*
X242Y1685D02*
X251Y1685D01*
X1795Y1685D02*
X1803Y1685D01*
X242Y1684D02*
X250Y1684D01*
X1796Y1684D02*
X1804Y1684D01*
X241Y1683D02*
X250Y1683D01*
X1796Y1683D02*
X1805Y1683D01*
X240Y1682D02*
X249Y1682D01*
X1797Y1682D02*
X1806Y1682D01*
X239Y1681D02*
X248Y1681D01*
X1798Y1681D02*
X1807Y1681D01*
X238Y1680D02*
X247Y1680D01*
X1799Y1680D02*
X1808Y1680D01*
X237Y1679D02*
X246Y1679D01*
X1800Y1679D02*
X1809Y1679D01*
X237Y1678D02*
X245Y1678D01*
X1801Y1678D02*
X1809Y1678D01*
X236Y1677D02*
X244Y1677D01*
X1802Y1677D02*
X1810Y1677D01*
X235Y1676D02*
X244Y1676D01*
X1802Y1676D02*
X1811Y1676D01*
X234Y1675D02*
X243Y1675D01*
X1803Y1675D02*
X1812Y1675D01*
X233Y1674D02*
X242Y1674D01*
X1804Y1674D02*
X1813Y1674D01*
X232Y1673D02*
X241Y1673D01*
X1805Y1673D02*
X1814Y1673D01*
X232Y1672D02*
X240Y1672D01*
X1806Y1672D02*
X1814Y1672D01*
X231Y1671D02*
X239Y1671D01*
X1807Y1671D02*
X1815Y1671D01*
X230Y1670D02*
X239Y1670D01*
X1807Y1670D02*
X1816Y1670D01*
X229Y1669D02*
X238Y1669D01*
X1808Y1669D02*
X1817Y1669D01*
X228Y1668D02*
X237Y1668D01*
X1809Y1668D02*
X1818Y1668D01*
X228Y1667D02*
X236Y1667D01*
X1810Y1667D02*
X1818Y1667D01*
X227Y1666D02*
X235Y1666D01*
X1811Y1666D02*
X1819Y1666D01*
X226Y1665D02*
X235Y1665D01*
X1811Y1665D02*
X1820Y1665D01*
X225Y1664D02*
X234Y1664D01*
X1812Y1664D02*
X1821Y1664D01*
X224Y1663D02*
X233Y1663D01*
X1813Y1663D02*
X1822Y1663D01*
X224Y1662D02*
X232Y1662D01*
X1814Y1662D02*
X1822Y1662D01*
X223Y1661D02*
X231Y1661D01*
X1815Y1661D02*
X1823Y1661D01*
X222Y1660D02*
X230Y1660D01*
X1815Y1660D02*
X1824Y1660D01*
X221Y1659D02*
X230Y1659D01*
X1816Y1659D02*
X1825Y1659D01*
X220Y1658D02*
X229Y1658D01*
X1817Y1658D02*
X1826Y1658D01*
X220Y1657D02*
X228Y1657D01*
X1818Y1657D02*
X1826Y1657D01*
X219Y1656D02*
X227Y1656D01*
X1819Y1656D02*
X1827Y1656D01*
X218Y1655D02*
X226Y1655D01*
X1820Y1655D02*
X1828Y1655D01*
X217Y1654D02*
X226Y1654D01*
X1820Y1654D02*
X1829Y1654D01*
X216Y1653D02*
X225Y1653D01*
X1821Y1653D02*
X1830Y1653D01*
X216Y1652D02*
X224Y1652D01*
X1822Y1652D02*
X1830Y1652D01*
X215Y1651D02*
X223Y1651D01*
X1823Y1651D02*
X1831Y1651D01*
X214Y1650D02*
X222Y1650D01*
X1823Y1650D02*
X1832Y1650D01*
X213Y1649D02*
X222Y1649D01*
X1824Y1649D02*
X1833Y1649D01*
X213Y1648D02*
X221Y1648D01*
X1825Y1648D02*
X1833Y1648D01*
X212Y1647D02*
X220Y1647D01*
X1826Y1647D02*
X1834Y1647D01*
X211Y1646D02*
X219Y1646D01*
X1827Y1646D02*
X1835Y1646D01*
X210Y1645D02*
X219Y1645D01*
X1827Y1645D02*
X1836Y1645D01*
X210Y1644D02*
X218Y1644D01*
X1828Y1644D02*
X1836Y1644D01*
X209Y1643D02*
X217Y1643D01*
X1829Y1643D02*
X1837Y1643D01*
X208Y1642D02*
X216Y1642D01*
X1830Y1642D02*
X1838Y1642D01*
X207Y1641D02*
X216Y1641D01*
X1830Y1641D02*
X1839Y1641D01*
X206Y1640D02*
X215Y1640D01*
X1831Y1640D02*
X1840Y1640D01*
X206Y1639D02*
X214Y1639D01*
X1832Y1639D02*
X1840Y1639D01*
X205Y1638D02*
X213Y1638D01*
X1833Y1638D02*
X1841Y1638D01*
X204Y1637D02*
X213Y1637D01*
X1833Y1637D02*
X1842Y1637D01*
X203Y1636D02*
X212Y1636D01*
X1834Y1636D02*
X1843Y1636D01*
X203Y1635D02*
X211Y1635D01*
X1835Y1635D02*
X1843Y1635D01*
X202Y1634D02*
X210Y1634D01*
X1836Y1634D02*
X1844Y1634D01*
X201Y1633D02*
X209Y1633D01*
X1837Y1633D02*
X1845Y1633D01*
X200Y1632D02*
X209Y1632D01*
X1837Y1632D02*
X1846Y1632D01*
X200Y1631D02*
X208Y1631D01*
X1838Y1631D02*
X1846Y1631D01*
X199Y1630D02*
X207Y1630D01*
X1839Y1630D02*
X1847Y1630D01*
X198Y1629D02*
X207Y1629D01*
X1839Y1629D02*
X1848Y1629D01*
X198Y1628D02*
X206Y1628D01*
X1840Y1628D02*
X1848Y1628D01*
X197Y1627D02*
X205Y1627D01*
X1841Y1627D02*
X1849Y1627D01*
X196Y1626D02*
X204Y1626D01*
X1842Y1626D02*
X1850Y1626D01*
X195Y1625D02*
X204Y1625D01*
X1842Y1625D02*
X1851Y1625D01*
X195Y1624D02*
X203Y1624D01*
X1843Y1624D02*
X1851Y1624D01*
X194Y1623D02*
X202Y1623D01*
X1844Y1623D02*
X1852Y1623D01*
X193Y1622D02*
X201Y1622D01*
X1845Y1622D02*
X1853Y1622D01*
X192Y1621D02*
X201Y1621D01*
X1845Y1621D02*
X1854Y1621D01*
X192Y1620D02*
X200Y1620D01*
X1846Y1620D02*
X1854Y1620D01*
X191Y1619D02*
X199Y1619D01*
X1847Y1619D02*
X1855Y1619D01*
X190Y1618D02*
X198Y1618D01*
X1847Y1618D02*
X1856Y1618D01*
X189Y1617D02*
X198Y1617D01*
X1848Y1617D02*
X1856Y1617D01*
X189Y1616D02*
X197Y1616D01*
X1849Y1616D02*
X1857Y1616D01*
X188Y1615D02*
X196Y1615D01*
X1850Y1615D02*
X1858Y1615D01*
X187Y1614D02*
X196Y1614D01*
X1850Y1614D02*
X1859Y1614D01*
X187Y1613D02*
X195Y1613D01*
X1851Y1613D02*
X1859Y1613D01*
X186Y1612D02*
X194Y1612D01*
X1852Y1612D02*
X1860Y1612D01*
X185Y1611D02*
X193Y1611D01*
X1853Y1611D02*
X1861Y1611D01*
X185Y1610D02*
X193Y1610D01*
X1853Y1610D02*
X1861Y1610D01*
X184Y1609D02*
X192Y1609D01*
X1854Y1609D02*
X1862Y1609D01*
X183Y1608D02*
X191Y1608D01*
X1855Y1608D02*
X1863Y1608D01*
X183Y1607D02*
X191Y1607D01*
X1855Y1607D02*
X1863Y1607D01*
X182Y1606D02*
X190Y1606D01*
X1856Y1606D02*
X1864Y1606D01*
X181Y1605D02*
X189Y1605D01*
X1857Y1605D02*
X1865Y1605D01*
X180Y1604D02*
X189Y1604D01*
X1857Y1604D02*
X1866Y1604D01*
X180Y1603D02*
X188Y1603D01*
X1858Y1603D02*
X1866Y1603D01*
X179Y1602D02*
X187Y1602D01*
X1859Y1602D02*
X1867Y1602D01*
X178Y1601D02*
X186Y1601D01*
X1859Y1601D02*
X1868Y1601D01*
X178Y1600D02*
X186Y1600D01*
X1860Y1600D02*
X1868Y1600D01*
X177Y1599D02*
X185Y1599D01*
X1861Y1599D02*
X1869Y1599D01*
X176Y1598D02*
X184Y1598D01*
X1862Y1598D02*
X1870Y1598D01*
X176Y1597D02*
X184Y1597D01*
X1862Y1597D02*
X1870Y1597D01*
X175Y1596D02*
X183Y1596D01*
X1863Y1596D02*
X1871Y1596D01*
X174Y1595D02*
X182Y1595D01*
X1864Y1595D02*
X1872Y1595D01*
X174Y1594D02*
X182Y1594D01*
X1864Y1594D02*
X1872Y1594D01*
X173Y1593D02*
X181Y1593D01*
X1865Y1593D02*
X1873Y1593D01*
X172Y1592D02*
X180Y1592D01*
X1866Y1592D02*
X1874Y1592D01*
X172Y1591D02*
X180Y1591D01*
X1866Y1591D02*
X1874Y1591D01*
X171Y1590D02*
X179Y1590D01*
X1867Y1590D02*
X1875Y1590D01*
X170Y1589D02*
X178Y1589D01*
X1868Y1589D02*
X1876Y1589D01*
X170Y1588D02*
X178Y1588D01*
X1868Y1588D02*
X1876Y1588D01*
X169Y1587D02*
X177Y1587D01*
X1869Y1587D02*
X1877Y1587D01*
X168Y1586D02*
X176Y1586D01*
X1870Y1586D02*
X1878Y1586D01*
X168Y1585D02*
X176Y1585D01*
X1870Y1585D02*
X1878Y1585D01*
X167Y1584D02*
X175Y1584D01*
X1871Y1584D02*
X1879Y1584D01*
X166Y1583D02*
X174Y1583D01*
X1872Y1583D02*
X1880Y1583D01*
X166Y1582D02*
X174Y1582D01*
X1872Y1582D02*
X1880Y1582D01*
X165Y1581D02*
X173Y1581D01*
X1873Y1581D02*
X1881Y1581D01*
X164Y1580D02*
X172Y1580D01*
X1874Y1580D02*
X1882Y1580D01*
X164Y1579D02*
X172Y1579D01*
X1874Y1579D02*
X1882Y1579D01*
X163Y1578D02*
X171Y1578D01*
X1875Y1578D02*
X1883Y1578D01*
X162Y1577D02*
X170Y1577D01*
X1876Y1577D02*
X1884Y1577D01*
X162Y1576D02*
X170Y1576D01*
X1876Y1576D02*
X1884Y1576D01*
X161Y1575D02*
X169Y1575D01*
X1877Y1575D02*
X1885Y1575D01*
X160Y1574D02*
X168Y1574D01*
X1878Y1574D02*
X1885Y1574D01*
X160Y1573D02*
X168Y1573D01*
X1878Y1573D02*
X1886Y1573D01*
X159Y1572D02*
X167Y1572D01*
X1879Y1572D02*
X1887Y1572D01*
X159Y1571D02*
X166Y1571D01*
X1880Y1571D02*
X1887Y1571D01*
X158Y1570D02*
X166Y1570D01*
X1880Y1570D02*
X1888Y1570D01*
X157Y1569D02*
X165Y1569D01*
X1881Y1569D02*
X1889Y1569D01*
X157Y1568D02*
X165Y1568D01*
X1881Y1568D02*
X1889Y1568D01*
X156Y1567D02*
X164Y1567D01*
X1882Y1567D02*
X1890Y1567D01*
X155Y1566D02*
X163Y1566D01*
X1883Y1566D02*
X1890Y1566D01*
X155Y1565D02*
X163Y1565D01*
X1883Y1565D02*
X1891Y1565D01*
X154Y1564D02*
X162Y1564D01*
X1884Y1564D02*
X1892Y1564D01*
X154Y1563D02*
X161Y1563D01*
X1885Y1563D02*
X1892Y1563D01*
X153Y1562D02*
X161Y1562D01*
X1885Y1562D02*
X1893Y1562D01*
X152Y1561D02*
X160Y1561D01*
X1886Y1561D02*
X1894Y1561D01*
X152Y1560D02*
X160Y1560D01*
X1886Y1560D02*
X1894Y1560D01*
X151Y1559D02*
X159Y1559D01*
X1887Y1559D02*
X1895Y1559D01*
X150Y1558D02*
X158Y1558D01*
X1888Y1558D02*
X1895Y1558D01*
X150Y1557D02*
X158Y1557D01*
X1888Y1557D02*
X1896Y1557D01*
X149Y1556D02*
X157Y1556D01*
X1889Y1556D02*
X1897Y1556D01*
X149Y1555D02*
X156Y1555D01*
X1889Y1555D02*
X1897Y1555D01*
X148Y1554D02*
X156Y1554D01*
X1890Y1554D02*
X1898Y1554D01*
X147Y1553D02*
X155Y1553D01*
X1891Y1553D02*
X1899Y1553D01*
X147Y1552D02*
X155Y1552D01*
X1891Y1552D02*
X1899Y1552D01*
X146Y1551D02*
X154Y1551D01*
X1892Y1551D02*
X1900Y1551D01*
X146Y1550D02*
X153Y1550D01*
X1893Y1550D02*
X1900Y1550D01*
X145Y1549D02*
X153Y1549D01*
X1893Y1549D02*
X1901Y1549D01*
X144Y1548D02*
X152Y1548D01*
X1894Y1548D02*
X1902Y1548D01*
X144Y1547D02*
X152Y1547D01*
X1894Y1547D02*
X1902Y1547D01*
X143Y1546D02*
X151Y1546D01*
X1895Y1546D02*
X1903Y1546D01*
X143Y1545D02*
X150Y1545D01*
X1896Y1545D02*
X1903Y1545D01*
X142Y1544D02*
X150Y1544D01*
X1896Y1544D02*
X1904Y1544D01*
X141Y1543D02*
X149Y1543D01*
X1897Y1543D02*
X1904Y1543D01*
X141Y1542D02*
X149Y1542D01*
X1897Y1542D02*
X1905Y1542D01*
X140Y1541D02*
X148Y1541D01*
X1898Y1541D02*
X1906Y1541D01*
X140Y1540D02*
X147Y1540D01*
X1898Y1540D02*
X1906Y1540D01*
X139Y1539D02*
X147Y1539D01*
X1899Y1539D02*
X1907Y1539D01*
X139Y1538D02*
X146Y1538D01*
X1900Y1538D02*
X1907Y1538D01*
X138Y1537D02*
X146Y1537D01*
X1900Y1537D02*
X1908Y1537D01*
X137Y1536D02*
X145Y1536D01*
X1901Y1536D02*
X1909Y1536D01*
X137Y1535D02*
X145Y1535D01*
X1901Y1535D02*
X1909Y1535D01*
X136Y1534D02*
X144Y1534D01*
X1902Y1534D02*
X1910Y1534D01*
X136Y1533D02*
X143Y1533D01*
X1903Y1533D02*
X1910Y1533D01*
X135Y1532D02*
X143Y1532D01*
X1903Y1532D02*
X1911Y1532D01*
X134Y1531D02*
X142Y1531D01*
X1904Y1531D02*
X1912Y1531D01*
X134Y1530D02*
X142Y1530D01*
X1904Y1530D02*
X1912Y1530D01*
X133Y1529D02*
X141Y1529D01*
X1905Y1529D02*
X1913Y1529D01*
X133Y1528D02*
X140Y1528D01*
X1906Y1528D02*
X1913Y1528D01*
X132Y1527D02*
X140Y1527D01*
X1906Y1527D02*
X1914Y1527D01*
X132Y1526D02*
X139Y1526D01*
X1907Y1526D02*
X1914Y1526D01*
X131Y1525D02*
X139Y1525D01*
X1907Y1525D02*
X1915Y1525D01*
X131Y1524D02*
X138Y1524D01*
X1908Y1524D02*
X1915Y1524D01*
X130Y1523D02*
X138Y1523D01*
X1908Y1523D02*
X1916Y1523D01*
X129Y1522D02*
X137Y1522D01*
X1909Y1522D02*
X1917Y1522D01*
X129Y1521D02*
X137Y1521D01*
X1909Y1521D02*
X1917Y1521D01*
X128Y1520D02*
X136Y1520D01*
X1910Y1520D02*
X1918Y1520D01*
X128Y1519D02*
X135Y1519D01*
X1911Y1519D02*
X1918Y1519D01*
X127Y1518D02*
X135Y1518D01*
X1911Y1518D02*
X1919Y1518D01*
X127Y1517D02*
X134Y1517D01*
X1912Y1517D02*
X1919Y1517D01*
X126Y1516D02*
X134Y1516D01*
X1912Y1516D02*
X1920Y1516D01*
X126Y1515D02*
X133Y1515D01*
X1913Y1515D02*
X1920Y1515D01*
X125Y1514D02*
X133Y1514D01*
X1913Y1514D02*
X1921Y1514D01*
X124Y1513D02*
X132Y1513D01*
X1914Y1513D02*
X1922Y1513D01*
X124Y1512D02*
X132Y1512D01*
X1914Y1512D02*
X1922Y1512D01*
X123Y1511D02*
X131Y1511D01*
X1915Y1511D02*
X1923Y1511D01*
X123Y1510D02*
X130Y1510D01*
X1916Y1510D02*
X1923Y1510D01*
X122Y1509D02*
X130Y1509D01*
X1916Y1509D02*
X1924Y1509D01*
X122Y1508D02*
X129Y1508D01*
X1917Y1508D02*
X1924Y1508D01*
X121Y1507D02*
X129Y1507D01*
X1917Y1507D02*
X1925Y1507D01*
X121Y1506D02*
X128Y1506D01*
X1918Y1506D02*
X1925Y1506D01*
X120Y1505D02*
X128Y1505D01*
X1918Y1505D02*
X1926Y1505D01*
X120Y1504D02*
X127Y1504D01*
X1919Y1504D02*
X1926Y1504D01*
X119Y1503D02*
X127Y1503D01*
X1919Y1503D02*
X1927Y1503D01*
X119Y1502D02*
X126Y1502D01*
X1920Y1502D02*
X1927Y1502D01*
X118Y1501D02*
X126Y1501D01*
X1920Y1501D02*
X1928Y1501D01*
X117Y1500D02*
X125Y1500D01*
X1921Y1500D02*
X1928Y1500D01*
X117Y1499D02*
X125Y1499D01*
X1921Y1499D02*
X1929Y1499D01*
X116Y1498D02*
X124Y1498D01*
X1922Y1498D02*
X1930Y1498D01*
X116Y1497D02*
X123Y1497D01*
X1922Y1497D02*
X1930Y1497D01*
X115Y1496D02*
X123Y1496D01*
X1923Y1496D02*
X1931Y1496D01*
X115Y1495D02*
X122Y1495D01*
X1924Y1495D02*
X1931Y1495D01*
X114Y1494D02*
X122Y1494D01*
X1924Y1494D02*
X1932Y1494D01*
X114Y1493D02*
X121Y1493D01*
X1925Y1493D02*
X1932Y1493D01*
X113Y1492D02*
X121Y1492D01*
X1925Y1492D02*
X1933Y1492D01*
X113Y1491D02*
X120Y1491D01*
X1926Y1491D02*
X1933Y1491D01*
X112Y1490D02*
X120Y1490D01*
X1926Y1490D02*
X1934Y1490D01*
X112Y1489D02*
X119Y1489D01*
X1927Y1489D02*
X1934Y1489D01*
X111Y1488D02*
X119Y1488D01*
X1927Y1488D02*
X1935Y1488D01*
X111Y1487D02*
X118Y1487D01*
X1928Y1487D02*
X1935Y1487D01*
X110Y1486D02*
X118Y1486D01*
X1928Y1486D02*
X1936Y1486D01*
X110Y1485D02*
X117Y1485D01*
X1929Y1485D02*
X1936Y1485D01*
X109Y1484D02*
X117Y1484D01*
X1929Y1484D02*
X1937Y1484D01*
X109Y1483D02*
X116Y1483D01*
X1930Y1483D02*
X1937Y1483D01*
X108Y1482D02*
X116Y1482D01*
X1930Y1482D02*
X1938Y1482D01*
X108Y1481D02*
X115Y1481D01*
X1931Y1481D02*
X1938Y1481D01*
X107Y1480D02*
X115Y1480D01*
X1931Y1480D02*
X1939Y1480D01*
X107Y1479D02*
X114Y1479D01*
X1932Y1479D02*
X1939Y1479D01*
X106Y1478D02*
X114Y1478D01*
X1932Y1478D02*
X1940Y1478D01*
X106Y1477D02*
X113Y1477D01*
X1933Y1477D02*
X1940Y1477D01*
X105Y1476D02*
X113Y1476D01*
X1933Y1476D02*
X1941Y1476D01*
X105Y1475D02*
X112Y1475D01*
X1934Y1475D02*
X1941Y1475D01*
X104Y1474D02*
X112Y1474D01*
X1934Y1474D02*
X1942Y1474D01*
X104Y1473D02*
X111Y1473D01*
X1935Y1473D02*
X1942Y1473D01*
X103Y1472D02*
X111Y1472D01*
X1935Y1472D02*
X1943Y1472D01*
X103Y1471D02*
X110Y1471D01*
X1936Y1471D02*
X1943Y1471D01*
X102Y1470D02*
X110Y1470D01*
X1936Y1470D02*
X1944Y1470D01*
X102Y1469D02*
X109Y1469D01*
X1937Y1469D02*
X1944Y1469D01*
X101Y1468D02*
X109Y1468D01*
X1937Y1468D02*
X1945Y1468D01*
X101Y1467D02*
X108Y1467D01*
X1938Y1467D02*
X1945Y1467D01*
X100Y1466D02*
X108Y1466D01*
X1938Y1466D02*
X1946Y1466D01*
X100Y1465D02*
X107Y1465D01*
X1939Y1465D02*
X1946Y1465D01*
X99Y1464D02*
X107Y1464D01*
X1939Y1464D02*
X1947Y1464D01*
X99Y1463D02*
X106Y1463D01*
X1940Y1463D02*
X1947Y1463D01*
X98Y1462D02*
X106Y1462D01*
X1940Y1462D02*
X1948Y1462D01*
X98Y1461D02*
X105Y1461D01*
X1941Y1461D02*
X1948Y1461D01*
X98Y1460D02*
X105Y1460D01*
X1941Y1460D02*
X1948Y1460D01*
X97Y1459D02*
X104Y1459D01*
X1942Y1459D02*
X1949Y1459D01*
X97Y1458D02*
X104Y1458D01*
X1942Y1458D02*
X1949Y1458D01*
X96Y1457D02*
X104Y1457D01*
X1942Y1457D02*
X1950Y1457D01*
X96Y1456D02*
X103Y1456D01*
X1943Y1456D02*
X1950Y1456D01*
X95Y1455D02*
X103Y1455D01*
X1943Y1455D02*
X1951Y1455D01*
X95Y1454D02*
X102Y1454D01*
X1944Y1454D02*
X1951Y1454D01*
X94Y1453D02*
X102Y1453D01*
X1944Y1453D02*
X1952Y1453D01*
X94Y1452D02*
X101Y1452D01*
X1945Y1452D02*
X1952Y1452D01*
X93Y1451D02*
X101Y1451D01*
X1945Y1451D02*
X1953Y1451D01*
X93Y1450D02*
X100Y1450D01*
X1946Y1450D02*
X1953Y1450D01*
X92Y1449D02*
X100Y1449D01*
X1946Y1449D02*
X1954Y1449D01*
X92Y1448D02*
X99Y1448D01*
X1947Y1448D02*
X1954Y1448D01*
X91Y1447D02*
X99Y1447D01*
X1947Y1447D02*
X1955Y1447D01*
X91Y1446D02*
X98Y1446D01*
X1948Y1446D02*
X1955Y1446D01*
X90Y1445D02*
X98Y1445D01*
X1948Y1445D02*
X1955Y1445D01*
X90Y1444D02*
X97Y1444D01*
X1949Y1444D02*
X1956Y1444D01*
X90Y1443D02*
X97Y1443D01*
X1949Y1443D02*
X1956Y1443D01*
X89Y1442D02*
X97Y1442D01*
X1949Y1442D02*
X1957Y1442D01*
X89Y1441D02*
X96Y1441D01*
X1950Y1441D02*
X1957Y1441D01*
X88Y1440D02*
X96Y1440D01*
X1950Y1440D02*
X1958Y1440D01*
X88Y1439D02*
X95Y1439D01*
X1951Y1439D02*
X1958Y1439D01*
X87Y1438D02*
X95Y1438D01*
X1951Y1438D02*
X1959Y1438D01*
X87Y1437D02*
X94Y1437D01*
X1952Y1437D02*
X1959Y1437D01*
X87Y1436D02*
X94Y1436D01*
X1952Y1436D02*
X1959Y1436D01*
X86Y1435D02*
X93Y1435D01*
X1952Y1435D02*
X1960Y1435D01*
X86Y1434D02*
X93Y1434D01*
X1953Y1434D02*
X1960Y1434D01*
X85Y1433D02*
X93Y1433D01*
X1953Y1433D02*
X1961Y1433D01*
X85Y1432D02*
X92Y1432D01*
X1954Y1432D02*
X1961Y1432D01*
X84Y1431D02*
X92Y1431D01*
X1954Y1431D02*
X1962Y1431D01*
X84Y1430D02*
X91Y1430D01*
X1955Y1430D02*
X1962Y1430D01*
X83Y1429D02*
X91Y1429D01*
X1955Y1429D02*
X1962Y1429D01*
X83Y1428D02*
X90Y1428D01*
X1956Y1428D02*
X1963Y1428D01*
X83Y1427D02*
X90Y1427D01*
X1956Y1427D02*
X1963Y1427D01*
X82Y1426D02*
X90Y1426D01*
X1956Y1426D02*
X1964Y1426D01*
X82Y1425D02*
X89Y1425D01*
X1957Y1425D02*
X1964Y1425D01*
X81Y1424D02*
X89Y1424D01*
X1957Y1424D02*
X1965Y1424D01*
X81Y1423D02*
X88Y1423D01*
X1958Y1423D02*
X1965Y1423D01*
X80Y1422D02*
X88Y1422D01*
X1958Y1422D02*
X1966Y1422D01*
X80Y1421D02*
X87Y1421D01*
X1959Y1421D02*
X1966Y1421D01*
X80Y1420D02*
X87Y1420D01*
X1959Y1420D02*
X1966Y1420D01*
X79Y1419D02*
X87Y1419D01*
X1959Y1419D02*
X1967Y1419D01*
X79Y1418D02*
X86Y1418D01*
X1960Y1418D02*
X1967Y1418D01*
X78Y1417D02*
X86Y1417D01*
X1960Y1417D02*
X1968Y1417D01*
X78Y1416D02*
X85Y1416D01*
X1961Y1416D02*
X1968Y1416D01*
X78Y1415D02*
X85Y1415D01*
X1961Y1415D02*
X1968Y1415D01*
X77Y1414D02*
X84Y1414D01*
X1962Y1414D02*
X1969Y1414D01*
X77Y1413D02*
X84Y1413D01*
X1962Y1413D02*
X1969Y1413D01*
X76Y1412D02*
X84Y1412D01*
X1962Y1412D02*
X1970Y1412D01*
X76Y1411D02*
X83Y1411D01*
X1963Y1411D02*
X1970Y1411D01*
X76Y1410D02*
X83Y1410D01*
X1963Y1410D02*
X1970Y1410D01*
X75Y1409D02*
X82Y1409D01*
X1964Y1409D02*
X1971Y1409D01*
X75Y1408D02*
X82Y1408D01*
X1964Y1408D02*
X1971Y1408D01*
X74Y1407D02*
X82Y1407D01*
X1964Y1407D02*
X1972Y1407D01*
X74Y1406D02*
X81Y1406D01*
X1965Y1406D02*
X1972Y1406D01*
X73Y1405D02*
X81Y1405D01*
X1965Y1405D02*
X1973Y1405D01*
X73Y1404D02*
X80Y1404D01*
X1966Y1404D02*
X1973Y1404D01*
X73Y1403D02*
X80Y1403D01*
X1966Y1403D02*
X1973Y1403D01*
X72Y1402D02*
X80Y1402D01*
X1966Y1402D02*
X1974Y1402D01*
X72Y1401D02*
X79Y1401D01*
X1967Y1401D02*
X1974Y1401D01*
X71Y1400D02*
X79Y1400D01*
X1967Y1400D02*
X1975Y1400D01*
X71Y1399D02*
X78Y1399D01*
X1968Y1399D02*
X1975Y1399D01*
X71Y1398D02*
X78Y1398D01*
X1968Y1398D02*
X1975Y1398D01*
X70Y1397D02*
X78Y1397D01*
X1968Y1397D02*
X1976Y1397D01*
X70Y1396D02*
X77Y1396D01*
X1969Y1396D02*
X1976Y1396D01*
X70Y1395D02*
X77Y1395D01*
X1969Y1395D02*
X1976Y1395D01*
X69Y1394D02*
X76Y1394D01*
X1970Y1394D02*
X1977Y1394D01*
X69Y1393D02*
X76Y1393D01*
X1970Y1393D02*
X1977Y1393D01*
X68Y1392D02*
X76Y1392D01*
X1970Y1392D02*
X1978Y1392D01*
X68Y1391D02*
X75Y1391D01*
X1971Y1391D02*
X1978Y1391D01*
X68Y1390D02*
X75Y1390D01*
X1971Y1390D02*
X1978Y1390D01*
X67Y1389D02*
X74Y1389D01*
X1972Y1389D02*
X1979Y1389D01*
X67Y1388D02*
X74Y1388D01*
X1972Y1388D02*
X1979Y1388D01*
X66Y1387D02*
X74Y1387D01*
X1972Y1387D02*
X1980Y1387D01*
X66Y1386D02*
X73Y1386D01*
X1973Y1386D02*
X1980Y1386D01*
X66Y1385D02*
X73Y1385D01*
X1973Y1385D02*
X1980Y1385D01*
X65Y1384D02*
X73Y1384D01*
X1973Y1384D02*
X1981Y1384D01*
X65Y1383D02*
X72Y1383D01*
X1974Y1383D02*
X1981Y1383D01*
X65Y1382D02*
X72Y1382D01*
X1974Y1382D02*
X1981Y1382D01*
X64Y1381D02*
X71Y1381D01*
X1975Y1381D02*
X1982Y1381D01*
X64Y1380D02*
X71Y1380D01*
X1975Y1380D02*
X1982Y1380D01*
X63Y1379D02*
X71Y1379D01*
X1975Y1379D02*
X1983Y1379D01*
X63Y1378D02*
X70Y1378D01*
X1976Y1378D02*
X1983Y1378D01*
X63Y1377D02*
X70Y1377D01*
X1976Y1377D02*
X1983Y1377D01*
X62Y1376D02*
X70Y1376D01*
X1976Y1376D02*
X1984Y1376D01*
X62Y1375D02*
X69Y1375D01*
X1977Y1375D02*
X1984Y1375D01*
X62Y1374D02*
X69Y1374D01*
X1977Y1374D02*
X1984Y1374D01*
X61Y1373D02*
X68Y1373D01*
X1978Y1373D02*
X1985Y1373D01*
X61Y1372D02*
X68Y1372D01*
X1978Y1372D02*
X1985Y1372D01*
X60Y1371D02*
X68Y1371D01*
X1978Y1371D02*
X1985Y1371D01*
X60Y1370D02*
X67Y1370D01*
X1979Y1370D02*
X1986Y1370D01*
X60Y1369D02*
X67Y1369D01*
X1979Y1369D02*
X1986Y1369D01*
X59Y1368D02*
X67Y1368D01*
X1979Y1368D02*
X1987Y1368D01*
X59Y1367D02*
X66Y1367D01*
X1980Y1367D02*
X1987Y1367D01*
X59Y1366D02*
X66Y1366D01*
X1980Y1366D02*
X1987Y1366D01*
X58Y1365D02*
X66Y1365D01*
X1980Y1365D02*
X1988Y1365D01*
X58Y1364D02*
X65Y1364D01*
X1981Y1364D02*
X1988Y1364D01*
X58Y1363D02*
X65Y1363D01*
X1981Y1363D02*
X1988Y1363D01*
X57Y1362D02*
X65Y1362D01*
X1981Y1362D02*
X1989Y1362D01*
X57Y1361D02*
X64Y1361D01*
X1982Y1361D02*
X1989Y1361D01*
X57Y1360D02*
X64Y1360D01*
X1982Y1360D02*
X1989Y1360D01*
X56Y1359D02*
X63Y1359D01*
X1982Y1359D02*
X1990Y1359D01*
X56Y1358D02*
X63Y1358D01*
X1983Y1358D02*
X1990Y1358D01*
X56Y1357D02*
X63Y1357D01*
X1983Y1357D02*
X1990Y1357D01*
X55Y1356D02*
X62Y1356D01*
X1984Y1356D02*
X1991Y1356D01*
X55Y1355D02*
X62Y1355D01*
X1984Y1355D02*
X1991Y1355D01*
X55Y1354D02*
X62Y1354D01*
X1984Y1354D02*
X1991Y1354D01*
X54Y1353D02*
X61Y1353D01*
X1985Y1353D02*
X1992Y1353D01*
X54Y1352D02*
X61Y1352D01*
X1985Y1352D02*
X1992Y1352D01*
X53Y1351D02*
X61Y1351D01*
X1985Y1351D02*
X1993Y1351D01*
X53Y1350D02*
X60Y1350D01*
X1986Y1350D02*
X1993Y1350D01*
X53Y1349D02*
X60Y1349D01*
X1986Y1349D02*
X1993Y1349D01*
X53Y1348D02*
X60Y1348D01*
X1986Y1348D02*
X1993Y1348D01*
X52Y1347D02*
X59Y1347D01*
X1987Y1347D02*
X1994Y1347D01*
X52Y1346D02*
X59Y1346D01*
X1987Y1346D02*
X1994Y1346D01*
X52Y1345D02*
X59Y1345D01*
X1987Y1345D02*
X1994Y1345D01*
X51Y1344D02*
X58Y1344D01*
X1988Y1344D02*
X1995Y1344D01*
X51Y1343D02*
X58Y1343D01*
X1988Y1343D02*
X1995Y1343D01*
X51Y1342D02*
X58Y1342D01*
X1988Y1342D02*
X1995Y1342D01*
X50Y1341D02*
X57Y1341D01*
X1989Y1341D02*
X1996Y1341D01*
X50Y1340D02*
X57Y1340D01*
X1989Y1340D02*
X1996Y1340D01*
X50Y1339D02*
X57Y1339D01*
X1989Y1339D02*
X1996Y1339D01*
X49Y1338D02*
X56Y1338D01*
X1990Y1338D02*
X1997Y1338D01*
X49Y1337D02*
X56Y1337D01*
X1990Y1337D02*
X1997Y1337D01*
X49Y1336D02*
X56Y1336D01*
X1990Y1336D02*
X1997Y1336D01*
X48Y1335D02*
X55Y1335D01*
X1991Y1335D02*
X1998Y1335D01*
X48Y1334D02*
X55Y1334D01*
X1991Y1334D02*
X1998Y1334D01*
X48Y1333D02*
X55Y1333D01*
X1991Y1333D02*
X1998Y1333D01*
X47Y1332D02*
X54Y1332D01*
X1991Y1332D02*
X1999Y1332D01*
X47Y1331D02*
X54Y1331D01*
X1992Y1331D02*
X1999Y1331D01*
X47Y1330D02*
X54Y1330D01*
X1992Y1330D02*
X1999Y1330D01*
X46Y1329D02*
X54Y1329D01*
X1992Y1329D02*
X2000Y1329D01*
X46Y1328D02*
X53Y1328D01*
X1993Y1328D02*
X2000Y1328D01*
X46Y1327D02*
X53Y1327D01*
X1993Y1327D02*
X2000Y1327D01*
X45Y1326D02*
X53Y1326D01*
X1993Y1326D02*
X2001Y1326D01*
X45Y1325D02*
X52Y1325D01*
X1994Y1325D02*
X2001Y1325D01*
X45Y1324D02*
X52Y1324D01*
X1994Y1324D02*
X2001Y1324D01*
X45Y1323D02*
X52Y1323D01*
X1994Y1323D02*
X2001Y1323D01*
X44Y1322D02*
X51Y1322D01*
X1995Y1322D02*
X2002Y1322D01*
X44Y1321D02*
X51Y1321D01*
X1995Y1321D02*
X2002Y1321D01*
X44Y1320D02*
X51Y1320D01*
X1995Y1320D02*
X2002Y1320D01*
X43Y1319D02*
X50Y1319D01*
X1996Y1319D02*
X2003Y1319D01*
X43Y1318D02*
X50Y1318D01*
X1996Y1318D02*
X2003Y1318D01*
X43Y1317D02*
X50Y1317D01*
X1996Y1317D02*
X2003Y1317D01*
X42Y1316D02*
X50Y1316D01*
X1996Y1316D02*
X2004Y1316D01*
X42Y1315D02*
X49Y1315D01*
X1997Y1315D02*
X2004Y1315D01*
X42Y1314D02*
X49Y1314D01*
X1997Y1314D02*
X2004Y1314D01*
X42Y1313D02*
X49Y1313D01*
X1997Y1313D02*
X2004Y1313D01*
X41Y1312D02*
X48Y1312D01*
X1998Y1312D02*
X2005Y1312D01*
X41Y1311D02*
X48Y1311D01*
X1998Y1311D02*
X2005Y1311D01*
X41Y1310D02*
X48Y1310D01*
X1998Y1310D02*
X2005Y1310D01*
X40Y1309D02*
X47Y1309D01*
X1998Y1309D02*
X2006Y1309D01*
X40Y1308D02*
X47Y1308D01*
X1999Y1308D02*
X2006Y1308D01*
X40Y1307D02*
X47Y1307D01*
X1999Y1307D02*
X2006Y1307D01*
X39Y1306D02*
X47Y1306D01*
X1999Y1306D02*
X2007Y1306D01*
X39Y1305D02*
X46Y1305D01*
X2000Y1305D02*
X2007Y1305D01*
X39Y1304D02*
X46Y1304D01*
X2000Y1304D02*
X2007Y1304D01*
X39Y1303D02*
X46Y1303D01*
X2000Y1303D02*
X2007Y1303D01*
X38Y1302D02*
X45Y1302D01*
X2001Y1302D02*
X2008Y1302D01*
X38Y1301D02*
X45Y1301D01*
X2001Y1301D02*
X2008Y1301D01*
X38Y1300D02*
X45Y1300D01*
X2001Y1300D02*
X2008Y1300D01*
X37Y1299D02*
X45Y1299D01*
X2001Y1299D02*
X2008Y1299D01*
X37Y1298D02*
X44Y1298D01*
X2002Y1298D02*
X2009Y1298D01*
X37Y1297D02*
X44Y1297D01*
X2002Y1297D02*
X2009Y1297D01*
X37Y1296D02*
X44Y1296D01*
X2002Y1296D02*
X2009Y1296D01*
X36Y1295D02*
X44Y1295D01*
X2002Y1295D02*
X2010Y1295D01*
X36Y1294D02*
X43Y1294D01*
X2003Y1294D02*
X2010Y1294D01*
X36Y1293D02*
X43Y1293D01*
X2003Y1293D02*
X2010Y1293D01*
X36Y1292D02*
X43Y1292D01*
X2003Y1292D02*
X2010Y1292D01*
X35Y1291D02*
X42Y1291D01*
X2004Y1291D02*
X2011Y1291D01*
X35Y1290D02*
X42Y1290D01*
X2004Y1290D02*
X2011Y1290D01*
X35Y1289D02*
X42Y1289D01*
X2004Y1289D02*
X2011Y1289D01*
X35Y1288D02*
X42Y1288D01*
X2004Y1288D02*
X2011Y1288D01*
X34Y1287D02*
X41Y1287D01*
X2005Y1287D02*
X2012Y1287D01*
X34Y1286D02*
X41Y1286D01*
X2005Y1286D02*
X2012Y1286D01*
X34Y1285D02*
X41Y1285D01*
X2005Y1285D02*
X2012Y1285D01*
X33Y1284D02*
X41Y1284D01*
X2005Y1284D02*
X2013Y1284D01*
X33Y1283D02*
X40Y1283D01*
X2006Y1283D02*
X2013Y1283D01*
X33Y1282D02*
X40Y1282D01*
X2006Y1282D02*
X2013Y1282D01*
X33Y1281D02*
X40Y1281D01*
X2006Y1281D02*
X2013Y1281D01*
X32Y1280D02*
X39Y1280D01*
X2007Y1280D02*
X2014Y1280D01*
X32Y1279D02*
X39Y1279D01*
X2007Y1279D02*
X2014Y1279D01*
X32Y1278D02*
X39Y1278D01*
X2007Y1278D02*
X2014Y1278D01*
X32Y1277D02*
X39Y1277D01*
X2007Y1277D02*
X2014Y1277D01*
X31Y1276D02*
X38Y1276D01*
X2008Y1276D02*
X2015Y1276D01*
X31Y1275D02*
X38Y1275D01*
X2008Y1275D02*
X2015Y1275D01*
X31Y1274D02*
X38Y1274D01*
X2008Y1274D02*
X2015Y1274D01*
X31Y1273D02*
X38Y1273D01*
X2008Y1273D02*
X2015Y1273D01*
X30Y1272D02*
X37Y1272D01*
X2009Y1272D02*
X2016Y1272D01*
X30Y1271D02*
X37Y1271D01*
X2009Y1271D02*
X2016Y1271D01*
X30Y1270D02*
X37Y1270D01*
X2009Y1270D02*
X2016Y1270D01*
X30Y1269D02*
X37Y1269D01*
X2009Y1269D02*
X2016Y1269D01*
X29Y1268D02*
X36Y1268D01*
X2009Y1268D02*
X2017Y1268D01*
X29Y1267D02*
X36Y1267D01*
X2010Y1267D02*
X2017Y1267D01*
X29Y1266D02*
X36Y1266D01*
X2010Y1266D02*
X2017Y1266D01*
X29Y1265D02*
X36Y1265D01*
X2010Y1265D02*
X2017Y1265D01*
X28Y1264D02*
X36Y1264D01*
X2010Y1264D02*
X2018Y1264D01*
X28Y1263D02*
X35Y1263D01*
X2011Y1263D02*
X2018Y1263D01*
X28Y1262D02*
X35Y1262D01*
X2011Y1262D02*
X2018Y1262D01*
X28Y1261D02*
X35Y1261D01*
X2011Y1261D02*
X2018Y1261D01*
X27Y1260D02*
X35Y1260D01*
X2011Y1260D02*
X2019Y1260D01*
X27Y1259D02*
X34Y1259D01*
X2012Y1259D02*
X2019Y1259D01*
X27Y1258D02*
X34Y1258D01*
X2012Y1258D02*
X2019Y1258D01*
X27Y1257D02*
X34Y1257D01*
X2012Y1257D02*
X2019Y1257D01*
X26Y1256D02*
X34Y1256D01*
X2012Y1256D02*
X2020Y1256D01*
X26Y1255D02*
X33Y1255D01*
X2013Y1255D02*
X2020Y1255D01*
X26Y1254D02*
X33Y1254D01*
X2013Y1254D02*
X2020Y1254D01*
X26Y1253D02*
X33Y1253D01*
X2013Y1253D02*
X2020Y1253D01*
X26Y1252D02*
X33Y1252D01*
X2013Y1252D02*
X2020Y1252D01*
X25Y1251D02*
X32Y1251D01*
X2014Y1251D02*
X2021Y1251D01*
X25Y1250D02*
X32Y1250D01*
X2014Y1250D02*
X2021Y1250D01*
X25Y1249D02*
X32Y1249D01*
X2014Y1249D02*
X2021Y1249D01*
X25Y1248D02*
X32Y1248D01*
X2014Y1248D02*
X2021Y1248D01*
X24Y1247D02*
X32Y1247D01*
X2014Y1247D02*
X2021Y1247D01*
X24Y1246D02*
X31Y1246D01*
X2015Y1246D02*
X2022Y1246D01*
X24Y1245D02*
X31Y1245D01*
X2015Y1245D02*
X2022Y1245D01*
X24Y1244D02*
X31Y1244D01*
X2015Y1244D02*
X2022Y1244D01*
X24Y1243D02*
X31Y1243D01*
X2015Y1243D02*
X2022Y1243D01*
X23Y1242D02*
X30Y1242D01*
X2016Y1242D02*
X2023Y1242D01*
X23Y1241D02*
X30Y1241D01*
X2016Y1241D02*
X2023Y1241D01*
X23Y1240D02*
X30Y1240D01*
X2016Y1240D02*
X2023Y1240D01*
X23Y1239D02*
X30Y1239D01*
X2016Y1239D02*
X2023Y1239D01*
X23Y1238D02*
X30Y1238D01*
X2016Y1238D02*
X2023Y1238D01*
X22Y1237D02*
X29Y1237D01*
X2017Y1237D02*
X2024Y1237D01*
X22Y1236D02*
X29Y1236D01*
X2017Y1236D02*
X2024Y1236D01*
X22Y1235D02*
X29Y1235D01*
X2017Y1235D02*
X2024Y1235D01*
X22Y1234D02*
X29Y1234D01*
X2017Y1234D02*
X2024Y1234D01*
X21Y1233D02*
X29Y1233D01*
X2017Y1233D02*
X2025Y1233D01*
X21Y1232D02*
X28Y1232D01*
X2018Y1232D02*
X2025Y1232D01*
X21Y1231D02*
X28Y1231D01*
X2018Y1231D02*
X2025Y1231D01*
X21Y1230D02*
X28Y1230D01*
X2018Y1230D02*
X2025Y1230D01*
X21Y1229D02*
X28Y1229D01*
X2018Y1229D02*
X2025Y1229D01*
X20Y1228D02*
X27Y1228D01*
X2019Y1228D02*
X2026Y1228D01*
X20Y1227D02*
X27Y1227D01*
X2019Y1227D02*
X2026Y1227D01*
X20Y1226D02*
X27Y1226D01*
X2019Y1226D02*
X2026Y1226D01*
X20Y1225D02*
X27Y1225D01*
X2019Y1225D02*
X2026Y1225D01*
X20Y1224D02*
X27Y1224D01*
X2019Y1224D02*
X2026Y1224D01*
X19Y1223D02*
X26Y1223D01*
X2019Y1223D02*
X2027Y1223D01*
X19Y1222D02*
X26Y1222D01*
X2020Y1222D02*
X2027Y1222D01*
X19Y1221D02*
X26Y1221D01*
X2020Y1221D02*
X2027Y1221D01*
X19Y1220D02*
X26Y1220D01*
X2020Y1220D02*
X2027Y1220D01*
X19Y1219D02*
X26Y1219D01*
X2020Y1219D02*
X2027Y1219D01*
X18Y1218D02*
X26Y1218D01*
X2020Y1218D02*
X2028Y1218D01*
X18Y1217D02*
X25Y1217D01*
X2021Y1217D02*
X2028Y1217D01*
X18Y1216D02*
X25Y1216D01*
X2021Y1216D02*
X2028Y1216D01*
X18Y1215D02*
X25Y1215D01*
X2021Y1215D02*
X2028Y1215D01*
X18Y1214D02*
X25Y1214D01*
X2021Y1214D02*
X2028Y1214D01*
X18Y1213D02*
X25Y1213D01*
X2021Y1213D02*
X2028Y1213D01*
X17Y1212D02*
X24Y1212D01*
X2022Y1212D02*
X2029Y1212D01*
X17Y1211D02*
X24Y1211D01*
X2022Y1211D02*
X2029Y1211D01*
X17Y1210D02*
X24Y1210D01*
X2022Y1210D02*
X2029Y1210D01*
X17Y1209D02*
X24Y1209D01*
X2022Y1209D02*
X2029Y1209D01*
X17Y1208D02*
X24Y1208D01*
X2022Y1208D02*
X2029Y1208D01*
X16Y1207D02*
X23Y1207D01*
X2023Y1207D02*
X2030Y1207D01*
X16Y1206D02*
X23Y1206D01*
X2023Y1206D02*
X2030Y1206D01*
X16Y1205D02*
X23Y1205D01*
X2023Y1205D02*
X2030Y1205D01*
X16Y1204D02*
X23Y1204D01*
X2023Y1204D02*
X2030Y1204D01*
X16Y1203D02*
X23Y1203D01*
X2023Y1203D02*
X2030Y1203D01*
X15Y1202D02*
X23Y1202D01*
X2023Y1202D02*
X2030Y1202D01*
X15Y1201D02*
X22Y1201D01*
X2024Y1201D02*
X2031Y1201D01*
X15Y1200D02*
X22Y1200D01*
X2024Y1200D02*
X2031Y1200D01*
X15Y1199D02*
X22Y1199D01*
X2024Y1199D02*
X2031Y1199D01*
X15Y1198D02*
X22Y1198D01*
X2024Y1198D02*
X2031Y1198D01*
X15Y1197D02*
X22Y1197D01*
X2024Y1197D02*
X2031Y1197D01*
X14Y1196D02*
X22Y1196D01*
X2024Y1196D02*
X2031Y1196D01*
X14Y1195D02*
X21Y1195D01*
X2025Y1195D02*
X2032Y1195D01*
X14Y1194D02*
X21Y1194D01*
X2025Y1194D02*
X2032Y1194D01*
X14Y1193D02*
X21Y1193D01*
X2025Y1193D02*
X2032Y1193D01*
X14Y1192D02*
X21Y1192D01*
X2025Y1192D02*
X2032Y1192D01*
X14Y1191D02*
X21Y1191D01*
X2025Y1191D02*
X2032Y1191D01*
X13Y1190D02*
X21Y1190D01*
X2025Y1190D02*
X2032Y1190D01*
X13Y1189D02*
X20Y1189D01*
X2026Y1189D02*
X2033Y1189D01*
X13Y1188D02*
X20Y1188D01*
X2026Y1188D02*
X2033Y1188D01*
X13Y1187D02*
X20Y1187D01*
X2026Y1187D02*
X2033Y1187D01*
X13Y1186D02*
X20Y1186D01*
X2026Y1186D02*
X2033Y1186D01*
X13Y1185D02*
X20Y1185D01*
X2026Y1185D02*
X2033Y1185D01*
X12Y1184D02*
X20Y1184D01*
X2026Y1184D02*
X2033Y1184D01*
X12Y1183D02*
X19Y1183D01*
X2027Y1183D02*
X2034Y1183D01*
X12Y1182D02*
X19Y1182D01*
X2027Y1182D02*
X2034Y1182D01*
X12Y1181D02*
X19Y1181D01*
X2027Y1181D02*
X2034Y1181D01*
X12Y1180D02*
X19Y1180D01*
X2027Y1180D02*
X2034Y1180D01*
X12Y1179D02*
X19Y1179D01*
X2027Y1179D02*
X2034Y1179D01*
X12Y1178D02*
X19Y1178D01*
X2027Y1178D02*
X2034Y1178D01*
X11Y1177D02*
X18Y1177D01*
X2028Y1177D02*
X2035Y1177D01*
X11Y1176D02*
X18Y1176D01*
X2028Y1176D02*
X2035Y1176D01*
X11Y1175D02*
X18Y1175D01*
X2028Y1175D02*
X2035Y1175D01*
X11Y1174D02*
X18Y1174D01*
X2028Y1174D02*
X2035Y1174D01*
X11Y1173D02*
X18Y1173D01*
X2028Y1173D02*
X2035Y1173D01*
X11Y1172D02*
X18Y1172D01*
X2028Y1172D02*
X2035Y1172D01*
X11Y1171D02*
X18Y1171D01*
X2028Y1171D02*
X2035Y1171D01*
X10Y1170D02*
X17Y1170D01*
X2029Y1170D02*
X2036Y1170D01*
X10Y1169D02*
X17Y1169D01*
X2029Y1169D02*
X2036Y1169D01*
X10Y1168D02*
X17Y1168D01*
X2029Y1168D02*
X2036Y1168D01*
X10Y1167D02*
X17Y1167D01*
X2029Y1167D02*
X2036Y1167D01*
X10Y1166D02*
X17Y1166D01*
X2029Y1166D02*
X2036Y1166D01*
X10Y1165D02*
X17Y1165D01*
X2029Y1165D02*
X2036Y1165D01*
X10Y1164D02*
X17Y1164D01*
X2029Y1164D02*
X2036Y1164D01*
X9Y1163D02*
X16Y1163D01*
X2030Y1163D02*
X2037Y1163D01*
X9Y1162D02*
X16Y1162D01*
X2030Y1162D02*
X2037Y1162D01*
X9Y1161D02*
X16Y1161D01*
X2030Y1161D02*
X2037Y1161D01*
X9Y1160D02*
X16Y1160D01*
X2030Y1160D02*
X2037Y1160D01*
X9Y1159D02*
X16Y1159D01*
X2030Y1159D02*
X2037Y1159D01*
X9Y1158D02*
X16Y1158D01*
X2030Y1158D02*
X2037Y1158D01*
X9Y1157D02*
X16Y1157D01*
X2030Y1157D02*
X2037Y1157D01*
X8Y1156D02*
X15Y1156D01*
X2030Y1156D02*
X2038Y1156D01*
X8Y1155D02*
X15Y1155D01*
X2031Y1155D02*
X2038Y1155D01*
X8Y1154D02*
X15Y1154D01*
X2031Y1154D02*
X2038Y1154D01*
X8Y1153D02*
X15Y1153D01*
X2031Y1153D02*
X2038Y1153D01*
X8Y1152D02*
X15Y1152D01*
X2031Y1152D02*
X2038Y1152D01*
X8Y1151D02*
X15Y1151D01*
X2031Y1151D02*
X2038Y1151D01*
X8Y1150D02*
X15Y1150D01*
X2031Y1150D02*
X2038Y1150D01*
X8Y1149D02*
X15Y1149D01*
X2031Y1149D02*
X2038Y1149D01*
X7Y1148D02*
X15Y1148D01*
X2031Y1148D02*
X2038Y1148D01*
X7Y1147D02*
X14Y1147D01*
X2032Y1147D02*
X2039Y1147D01*
X7Y1146D02*
X14Y1146D01*
X2032Y1146D02*
X2039Y1146D01*
X7Y1145D02*
X14Y1145D01*
X2032Y1145D02*
X2039Y1145D01*
X7Y1144D02*
X14Y1144D01*
X2032Y1144D02*
X2039Y1144D01*
X7Y1143D02*
X14Y1143D01*
X2032Y1143D02*
X2039Y1143D01*
X7Y1142D02*
X14Y1142D01*
X2032Y1142D02*
X2039Y1142D01*
X7Y1141D02*
X14Y1141D01*
X2032Y1141D02*
X2039Y1141D01*
X7Y1140D02*
X14Y1140D01*
X2032Y1140D02*
X2039Y1140D01*
X6Y1139D02*
X13Y1139D01*
X2032Y1139D02*
X2040Y1139D01*
X6Y1138D02*
X13Y1138D01*
X2033Y1138D02*
X2040Y1138D01*
X6Y1137D02*
X13Y1137D01*
X2033Y1137D02*
X2040Y1137D01*
X6Y1136D02*
X13Y1136D01*
X2033Y1136D02*
X2040Y1136D01*
X6Y1135D02*
X13Y1135D01*
X2033Y1135D02*
X2040Y1135D01*
X6Y1134D02*
X13Y1134D01*
X2033Y1134D02*
X2040Y1134D01*
X6Y1133D02*
X13Y1133D01*
X2033Y1133D02*
X2040Y1133D01*
X6Y1132D02*
X13Y1132D01*
X2033Y1132D02*
X2040Y1132D01*
X6Y1131D02*
X13Y1131D01*
X2033Y1131D02*
X2040Y1131D01*
X5Y1130D02*
X12Y1130D01*
X2034Y1130D02*
X2041Y1130D01*
X5Y1129D02*
X12Y1129D01*
X2034Y1129D02*
X2041Y1129D01*
X5Y1128D02*
X12Y1128D01*
X2034Y1128D02*
X2041Y1128D01*
X5Y1127D02*
X12Y1127D01*
X2034Y1127D02*
X2041Y1127D01*
X5Y1126D02*
X12Y1126D01*
X2034Y1126D02*
X2041Y1126D01*
X5Y1125D02*
X12Y1125D01*
X2034Y1125D02*
X2041Y1125D01*
X5Y1124D02*
X12Y1124D01*
X2034Y1124D02*
X2041Y1124D01*
X5Y1123D02*
X12Y1123D01*
X2034Y1123D02*
X2041Y1123D01*
X5Y1122D02*
X12Y1122D01*
X2034Y1122D02*
X2041Y1122D01*
X5Y1121D02*
X12Y1121D01*
X2034Y1121D02*
X2041Y1121D01*
X5Y1120D02*
X12Y1120D01*
X2034Y1120D02*
X2041Y1120D01*
X4Y1119D02*
X11Y1119D01*
X2035Y1119D02*
X2042Y1119D01*
X4Y1118D02*
X11Y1118D01*
X2035Y1118D02*
X2042Y1118D01*
X4Y1117D02*
X11Y1117D01*
X2035Y1117D02*
X2042Y1117D01*
X4Y1116D02*
X11Y1116D01*
X2035Y1116D02*
X2042Y1116D01*
X4Y1115D02*
X11Y1115D01*
X2035Y1115D02*
X2042Y1115D01*
X4Y1114D02*
X11Y1114D01*
X2035Y1114D02*
X2042Y1114D01*
X4Y1113D02*
X11Y1113D01*
X2035Y1113D02*
X2042Y1113D01*
X4Y1112D02*
X11Y1112D01*
X2035Y1112D02*
X2042Y1112D01*
X4Y1111D02*
X11Y1111D01*
X2035Y1111D02*
X2042Y1111D01*
X4Y1110D02*
X11Y1110D01*
X2035Y1110D02*
X2042Y1110D01*
X4Y1109D02*
X11Y1109D01*
X2035Y1109D02*
X2042Y1109D01*
X3Y1108D02*
X10Y1108D01*
X2036Y1108D02*
X2043Y1108D01*
X3Y1107D02*
X10Y1107D01*
X2036Y1107D02*
X2043Y1107D01*
X3Y1106D02*
X10Y1106D01*
X2036Y1106D02*
X2043Y1106D01*
X3Y1105D02*
X10Y1105D01*
X2036Y1105D02*
X2043Y1105D01*
X3Y1104D02*
X10Y1104D01*
X2036Y1104D02*
X2043Y1104D01*
X3Y1103D02*
X10Y1103D01*
X2036Y1103D02*
X2043Y1103D01*
X3Y1102D02*
X10Y1102D01*
X2036Y1102D02*
X2043Y1102D01*
X3Y1101D02*
X10Y1101D01*
X2036Y1101D02*
X2043Y1101D01*
X3Y1100D02*
X10Y1100D01*
X2036Y1100D02*
X2043Y1100D01*
X3Y1099D02*
X10Y1099D01*
X2036Y1099D02*
X2043Y1099D01*
X3Y1098D02*
X10Y1098D01*
X2036Y1098D02*
X2043Y1098D01*
X3Y1097D02*
X10Y1097D01*
X2036Y1097D02*
X2043Y1097D01*
X3Y1096D02*
X10Y1096D01*
X2036Y1096D02*
X2043Y1096D01*
X2Y1095D02*
X9Y1095D01*
X2036Y1095D02*
X2043Y1095D01*
X2Y1094D02*
X9Y1094D01*
X2037Y1094D02*
X2044Y1094D01*
X2Y1093D02*
X9Y1093D01*
X2037Y1093D02*
X2044Y1093D01*
X2Y1092D02*
X9Y1092D01*
X2037Y1092D02*
X2044Y1092D01*
X2Y1091D02*
X9Y1091D01*
X2037Y1091D02*
X2044Y1091D01*
X2Y1090D02*
X9Y1090D01*
X2037Y1090D02*
X2044Y1090D01*
X2Y1089D02*
X9Y1089D01*
X2037Y1089D02*
X2044Y1089D01*
X2Y1088D02*
X9Y1088D01*
X2037Y1088D02*
X2044Y1088D01*
X2Y1087D02*
X9Y1087D01*
X2037Y1087D02*
X2044Y1087D01*
X2Y1086D02*
X9Y1086D01*
X2037Y1086D02*
X2044Y1086D01*
X2Y1085D02*
X9Y1085D01*
X2037Y1085D02*
X2044Y1085D01*
X2Y1084D02*
X9Y1084D01*
X2037Y1084D02*
X2044Y1084D01*
X2Y1083D02*
X9Y1083D01*
X2037Y1083D02*
X2044Y1083D01*
X2Y1082D02*
X9Y1082D01*
X2037Y1082D02*
X2044Y1082D01*
X2Y1081D02*
X9Y1081D01*
X2037Y1081D02*
X2044Y1081D01*
X2Y1080D02*
X9Y1080D01*
X2037Y1080D02*
X2044Y1080D01*
X1Y1079D02*
X8Y1079D01*
X2037Y1079D02*
X2045Y1079D01*
X1Y1078D02*
X8Y1078D01*
X2038Y1078D02*
X2045Y1078D01*
X1Y1077D02*
X8Y1077D01*
X2038Y1077D02*
X2045Y1077D01*
X1Y1076D02*
X8Y1076D01*
X2038Y1076D02*
X2045Y1076D01*
X1Y1075D02*
X8Y1075D01*
X2038Y1075D02*
X2045Y1075D01*
X1Y1074D02*
X8Y1074D01*
X2038Y1074D02*
X2045Y1074D01*
X1Y1073D02*
X8Y1073D01*
X2038Y1073D02*
X2045Y1073D01*
X1Y1072D02*
X8Y1072D01*
X2038Y1072D02*
X2045Y1072D01*
X1Y1071D02*
X8Y1071D01*
X2038Y1071D02*
X2045Y1071D01*
X1Y1070D02*
X8Y1070D01*
X2038Y1070D02*
X2045Y1070D01*
X1Y1069D02*
X8Y1069D01*
X2038Y1069D02*
X2045Y1069D01*
X1Y1068D02*
X8Y1068D01*
X2038Y1068D02*
X2045Y1068D01*
X1Y1067D02*
X8Y1067D01*
X2038Y1067D02*
X2045Y1067D01*
X1Y1066D02*
X8Y1066D01*
X2038Y1066D02*
X2045Y1066D01*
X1Y1065D02*
X8Y1065D01*
X2038Y1065D02*
X2045Y1065D01*
X1Y1064D02*
X8Y1064D01*
X2038Y1064D02*
X2045Y1064D01*
X1Y1063D02*
X8Y1063D01*
X2038Y1063D02*
X2045Y1063D01*
X1Y1062D02*
X8Y1062D01*
X2038Y1062D02*
X2045Y1062D01*
X1Y1061D02*
X8Y1061D01*
X2038Y1061D02*
X2045Y1061D01*
X1Y1060D02*
X8Y1060D01*
X2038Y1060D02*
X2045Y1060D01*
X1Y1059D02*
X8Y1059D01*
X2038Y1059D02*
X2045Y1059D01*
X1Y1058D02*
X8Y1058D01*
X2038Y1058D02*
X2045Y1058D01*
X1Y1057D02*
X8Y1057D01*
X2038Y1057D02*
X2045Y1057D01*
X1Y1056D02*
X8Y1056D01*
X2038Y1056D02*
X2045Y1056D01*
X0Y1055D02*
X8Y1055D01*
X2038Y1055D02*
X2045Y1055D01*
X0Y1054D02*
X7Y1054D01*
X2039Y1054D02*
X2046Y1054D01*
X0Y1053D02*
X7Y1053D01*
X2039Y1053D02*
X2046Y1053D01*
X0Y1052D02*
X7Y1052D01*
X2039Y1052D02*
X2046Y1052D01*
X0Y1051D02*
X7Y1051D01*
X2039Y1051D02*
X2046Y1051D01*
X0Y1050D02*
X7Y1050D01*
X2039Y1050D02*
X2046Y1050D01*
X0Y1049D02*
X7Y1049D01*
X2039Y1049D02*
X2046Y1049D01*
X0Y1048D02*
X7Y1048D01*
X2039Y1048D02*
X2046Y1048D01*
X0Y1047D02*
X7Y1047D01*
X2039Y1047D02*
X2046Y1047D01*
X0Y1046D02*
X7Y1046D01*
X2039Y1046D02*
X2046Y1046D01*
X0Y1045D02*
X7Y1045D01*
X2039Y1045D02*
X2046Y1045D01*
X0Y1044D02*
X7Y1044D01*
X2039Y1044D02*
X2046Y1044D01*
X0Y1043D02*
X7Y1043D01*
X2039Y1043D02*
X2046Y1043D01*
X0Y1042D02*
X7Y1042D01*
X2039Y1042D02*
X2046Y1042D01*
X0Y1041D02*
X7Y1041D01*
X2039Y1041D02*
X2046Y1041D01*
X0Y1040D02*
X7Y1040D01*
X2039Y1040D02*
X2046Y1040D01*
X0Y1039D02*
X7Y1039D01*
X2039Y1039D02*
X2046Y1039D01*
X0Y1038D02*
X7Y1038D01*
X2039Y1038D02*
X2046Y1038D01*
X0Y1037D02*
X7Y1037D01*
X2039Y1037D02*
X2046Y1037D01*
X0Y1036D02*
X7Y1036D01*
X2039Y1036D02*
X2046Y1036D01*
X0Y1035D02*
X7Y1035D01*
X2039Y1035D02*
X2046Y1035D01*
X0Y1034D02*
X7Y1034D01*
X2039Y1034D02*
X2046Y1034D01*
X0Y1033D02*
X7Y1033D01*
X2039Y1033D02*
X2046Y1033D01*
X0Y1032D02*
X7Y1032D01*
X2039Y1032D02*
X2046Y1032D01*
X0Y1031D02*
X7Y1031D01*
X2039Y1031D02*
X2046Y1031D01*
X0Y1030D02*
X7Y1030D01*
X2039Y1030D02*
X2046Y1030D01*
X0Y1029D02*
X7Y1029D01*
X2039Y1029D02*
X2046Y1029D01*
X0Y1028D02*
X7Y1028D01*
X2039Y1028D02*
X2046Y1028D01*
X0Y1027D02*
X7Y1027D01*
X2039Y1027D02*
X2046Y1027D01*
X0Y1026D02*
X7Y1026D01*
X2039Y1026D02*
X2046Y1026D01*
X0Y1025D02*
X7Y1025D01*
X2039Y1025D02*
X2046Y1025D01*
X0Y1024D02*
X7Y1024D01*
X2039Y1024D02*
X2046Y1024D01*
X0Y1023D02*
X7Y1023D01*
X2039Y1023D02*
X2046Y1023D01*
X0Y1022D02*
X7Y1022D01*
X2039Y1022D02*
X2046Y1022D01*
X0Y1021D02*
X7Y1021D01*
X2039Y1021D02*
X2046Y1021D01*
X0Y1020D02*
X7Y1020D01*
X2039Y1020D02*
X2046Y1020D01*
X0Y1019D02*
X7Y1019D01*
X2039Y1019D02*
X2046Y1019D01*
X0Y1018D02*
X7Y1018D01*
X2039Y1018D02*
X2046Y1018D01*
X0Y1017D02*
X7Y1017D01*
X2039Y1017D02*
X2046Y1017D01*
X0Y1016D02*
X7Y1016D01*
X2039Y1016D02*
X2046Y1016D01*
X0Y1015D02*
X7Y1015D01*
X2039Y1015D02*
X2046Y1015D01*
X0Y1014D02*
X7Y1014D01*
X2039Y1014D02*
X2046Y1014D01*
X0Y1013D02*
X7Y1013D01*
X2039Y1013D02*
X2046Y1013D01*
X0Y1012D02*
X7Y1012D01*
X2039Y1012D02*
X2046Y1012D01*
X0Y1011D02*
X7Y1011D01*
X2039Y1011D02*
X2046Y1011D01*
X0Y1010D02*
X7Y1010D01*
X2039Y1010D02*
X2046Y1010D01*
X0Y1009D02*
X7Y1009D01*
X2039Y1009D02*
X2046Y1009D01*
X0Y1008D02*
X7Y1008D01*
X2039Y1008D02*
X2046Y1008D01*
X0Y1007D02*
X7Y1007D01*
X2039Y1007D02*
X2046Y1007D01*
X0Y1006D02*
X7Y1006D01*
X2039Y1006D02*
X2046Y1006D01*
X0Y1005D02*
X7Y1005D01*
X2039Y1005D02*
X2046Y1005D01*
X0Y1004D02*
X7Y1004D01*
X2039Y1004D02*
X2046Y1004D01*
X0Y1003D02*
X7Y1003D01*
X2039Y1003D02*
X2046Y1003D01*
X0Y1002D02*
X7Y1002D01*
X2039Y1002D02*
X2046Y1002D01*
X0Y1001D02*
X7Y1001D01*
X2039Y1001D02*
X2046Y1001D01*
X0Y1000D02*
X7Y1000D01*
X2039Y1000D02*
X2046Y1000D01*
X0Y999D02*
X7Y999D01*
X2039Y999D02*
X2046Y999D01*
X0Y998D02*
X7Y998D01*
X2039Y998D02*
X2046Y998D01*
X0Y997D02*
X7Y997D01*
X2039Y997D02*
X2046Y997D01*
X0Y996D02*
X7Y996D01*
X2039Y996D02*
X2046Y996D01*
X0Y995D02*
X7Y995D01*
X2039Y995D02*
X2046Y995D01*
X0Y994D02*
X7Y994D01*
X2039Y994D02*
X2046Y994D01*
X0Y993D02*
X8Y993D01*
X2038Y993D02*
X2045Y993D01*
X1Y992D02*
X8Y992D01*
X2038Y992D02*
X2045Y992D01*
X1Y991D02*
X8Y991D01*
X2038Y991D02*
X2045Y991D01*
X1Y990D02*
X8Y990D01*
X2038Y990D02*
X2045Y990D01*
X1Y989D02*
X8Y989D01*
X2038Y989D02*
X2045Y989D01*
X1Y988D02*
X8Y988D01*
X2038Y988D02*
X2045Y988D01*
X1Y987D02*
X8Y987D01*
X2038Y987D02*
X2045Y987D01*
X1Y986D02*
X8Y986D01*
X2038Y986D02*
X2045Y986D01*
X1Y985D02*
X8Y985D01*
X2038Y985D02*
X2045Y985D01*
X1Y984D02*
X8Y984D01*
X2038Y984D02*
X2045Y984D01*
X1Y983D02*
X8Y983D01*
X2038Y983D02*
X2045Y983D01*
X1Y982D02*
X8Y982D01*
X2038Y982D02*
X2045Y982D01*
X1Y981D02*
X8Y981D01*
X2038Y981D02*
X2045Y981D01*
X1Y980D02*
X8Y980D01*
X2038Y980D02*
X2045Y980D01*
X1Y979D02*
X8Y979D01*
X2038Y979D02*
X2045Y979D01*
X1Y978D02*
X8Y978D01*
X2038Y978D02*
X2045Y978D01*
X1Y977D02*
X8Y977D01*
X2038Y977D02*
X2045Y977D01*
X1Y976D02*
X8Y976D01*
X2038Y976D02*
X2045Y976D01*
X1Y975D02*
X8Y975D01*
X2038Y975D02*
X2045Y975D01*
X1Y974D02*
X8Y974D01*
X2038Y974D02*
X2045Y974D01*
X1Y973D02*
X8Y973D01*
X2038Y973D02*
X2045Y973D01*
X1Y972D02*
X8Y972D01*
X2038Y972D02*
X2045Y972D01*
X1Y971D02*
X8Y971D01*
X2038Y971D02*
X2045Y971D01*
X1Y970D02*
X8Y970D01*
X2038Y970D02*
X2045Y970D01*
X1Y969D02*
X8Y969D01*
X2037Y969D02*
X2045Y969D01*
X2Y968D02*
X9Y968D01*
X2037Y968D02*
X2044Y968D01*
X2Y967D02*
X9Y967D01*
X2037Y967D02*
X2044Y967D01*
X2Y966D02*
X9Y966D01*
X2037Y966D02*
X2044Y966D01*
X2Y965D02*
X9Y965D01*
X2037Y965D02*
X2044Y965D01*
X2Y964D02*
X9Y964D01*
X2037Y964D02*
X2044Y964D01*
X2Y963D02*
X9Y963D01*
X2037Y963D02*
X2044Y963D01*
X2Y962D02*
X9Y962D01*
X2037Y962D02*
X2044Y962D01*
X2Y961D02*
X9Y961D01*
X2037Y961D02*
X2044Y961D01*
X2Y960D02*
X9Y960D01*
X2037Y960D02*
X2044Y960D01*
X2Y959D02*
X9Y959D01*
X2037Y959D02*
X2044Y959D01*
X2Y958D02*
X9Y958D01*
X2037Y958D02*
X2044Y958D01*
X2Y957D02*
X9Y957D01*
X2037Y957D02*
X2044Y957D01*
X2Y956D02*
X9Y956D01*
X2037Y956D02*
X2044Y956D01*
X2Y955D02*
X9Y955D01*
X2037Y955D02*
X2044Y955D01*
X2Y954D02*
X9Y954D01*
X2037Y954D02*
X2044Y954D01*
X2Y953D02*
X9Y953D01*
X2036Y953D02*
X2043Y953D01*
X3Y952D02*
X10Y952D01*
X2036Y952D02*
X2043Y952D01*
X3Y951D02*
X10Y951D01*
X2036Y951D02*
X2043Y951D01*
X3Y950D02*
X10Y950D01*
X2036Y950D02*
X2043Y950D01*
X3Y949D02*
X10Y949D01*
X2036Y949D02*
X2043Y949D01*
X3Y948D02*
X10Y948D01*
X2036Y948D02*
X2043Y948D01*
X3Y947D02*
X10Y947D01*
X2036Y947D02*
X2043Y947D01*
X3Y946D02*
X10Y946D01*
X2036Y946D02*
X2043Y946D01*
X3Y945D02*
X10Y945D01*
X2036Y945D02*
X2043Y945D01*
X3Y944D02*
X10Y944D01*
X2036Y944D02*
X2043Y944D01*
X3Y943D02*
X10Y943D01*
X2036Y943D02*
X2043Y943D01*
X3Y942D02*
X10Y942D01*
X2036Y942D02*
X2043Y942D01*
X3Y941D02*
X10Y941D01*
X2036Y941D02*
X2043Y941D01*
X3Y940D02*
X10Y940D01*
X2036Y940D02*
X2043Y940D01*
X4Y939D02*
X11Y939D01*
X2035Y939D02*
X2042Y939D01*
X4Y938D02*
X11Y938D01*
X2035Y938D02*
X2042Y938D01*
X4Y937D02*
X11Y937D01*
X2035Y937D02*
X2042Y937D01*
X4Y936D02*
X11Y936D01*
X2035Y936D02*
X2042Y936D01*
X4Y935D02*
X11Y935D01*
X2035Y935D02*
X2042Y935D01*
X4Y934D02*
X11Y934D01*
X2035Y934D02*
X2042Y934D01*
X4Y933D02*
X11Y933D01*
X2035Y933D02*
X2042Y933D01*
X4Y932D02*
X11Y932D01*
X2035Y932D02*
X2042Y932D01*
X4Y931D02*
X11Y931D01*
X2035Y931D02*
X2042Y931D01*
X4Y930D02*
X11Y930D01*
X2035Y930D02*
X2042Y930D01*
X4Y929D02*
X11Y929D01*
X2035Y929D02*
X2042Y929D01*
X5Y928D02*
X12Y928D01*
X2034Y928D02*
X2041Y928D01*
X5Y927D02*
X12Y927D01*
X2034Y927D02*
X2041Y927D01*
X5Y926D02*
X12Y926D01*
X2034Y926D02*
X2041Y926D01*
X5Y925D02*
X12Y925D01*
X2034Y925D02*
X2041Y925D01*
X5Y924D02*
X12Y924D01*
X2034Y924D02*
X2041Y924D01*
X5Y923D02*
X12Y923D01*
X2034Y923D02*
X2041Y923D01*
X5Y922D02*
X12Y922D01*
X2034Y922D02*
X2041Y922D01*
X5Y921D02*
X12Y921D01*
X2034Y921D02*
X2041Y921D01*
X5Y920D02*
X12Y920D01*
X2034Y920D02*
X2041Y920D01*
X5Y919D02*
X12Y919D01*
X2034Y919D02*
X2041Y919D01*
X5Y918D02*
X12Y918D01*
X2034Y918D02*
X2041Y918D01*
X6Y917D02*
X13Y917D01*
X2033Y917D02*
X2040Y917D01*
X6Y916D02*
X13Y916D01*
X2033Y916D02*
X2040Y916D01*
X6Y915D02*
X13Y915D01*
X2033Y915D02*
X2040Y915D01*
X6Y914D02*
X13Y914D01*
X2033Y914D02*
X2040Y914D01*
X6Y913D02*
X13Y913D01*
X2033Y913D02*
X2040Y913D01*
X6Y912D02*
X13Y912D01*
X2033Y912D02*
X2040Y912D01*
X6Y911D02*
X13Y911D01*
X2033Y911D02*
X2040Y911D01*
X6Y910D02*
X13Y910D01*
X2033Y910D02*
X2040Y910D01*
X6Y909D02*
X13Y909D01*
X2032Y909D02*
X2040Y909D01*
X7Y908D02*
X14Y908D01*
X2032Y908D02*
X2039Y908D01*
X7Y907D02*
X14Y907D01*
X2032Y907D02*
X2039Y907D01*
X7Y906D02*
X14Y906D01*
X2032Y906D02*
X2039Y906D01*
X7Y905D02*
X14Y905D01*
X2032Y905D02*
X2039Y905D01*
X7Y904D02*
X14Y904D01*
X2032Y904D02*
X2039Y904D01*
X7Y903D02*
X14Y903D01*
X2032Y903D02*
X2039Y903D01*
X7Y902D02*
X14Y902D01*
X2032Y902D02*
X2039Y902D01*
X7Y901D02*
X14Y901D01*
X2032Y901D02*
X2039Y901D01*
X8Y900D02*
X15Y900D01*
X2031Y900D02*
X2038Y900D01*
X8Y899D02*
X15Y899D01*
X2031Y899D02*
X2038Y899D01*
X8Y898D02*
X15Y898D01*
X2031Y898D02*
X2038Y898D01*
X8Y897D02*
X15Y897D01*
X2031Y897D02*
X2038Y897D01*
X8Y896D02*
X15Y896D01*
X2031Y896D02*
X2038Y896D01*
X8Y895D02*
X15Y895D01*
X2031Y895D02*
X2038Y895D01*
X8Y894D02*
X15Y894D01*
X2031Y894D02*
X2038Y894D01*
X8Y893D02*
X15Y893D01*
X2031Y893D02*
X2038Y893D01*
X8Y892D02*
X15Y892D01*
X2030Y892D02*
X2038Y892D01*
X9Y891D02*
X16Y891D01*
X2030Y891D02*
X2037Y891D01*
X9Y890D02*
X16Y890D01*
X2030Y890D02*
X2037Y890D01*
X9Y889D02*
X16Y889D01*
X2030Y889D02*
X2037Y889D01*
X9Y888D02*
X16Y888D01*
X2030Y888D02*
X2037Y888D01*
X9Y887D02*
X16Y887D01*
X2030Y887D02*
X2037Y887D01*
X9Y886D02*
X16Y886D01*
X2030Y886D02*
X2037Y886D01*
X9Y885D02*
X16Y885D01*
X2030Y885D02*
X2037Y885D01*
X10Y884D02*
X17Y884D01*
X2029Y884D02*
X2036Y884D01*
X10Y883D02*
X17Y883D01*
X2029Y883D02*
X2036Y883D01*
X10Y882D02*
X17Y882D01*
X2029Y882D02*
X2036Y882D01*
X10Y881D02*
X17Y881D01*
X2029Y881D02*
X2036Y881D01*
X10Y880D02*
X17Y880D01*
X2029Y880D02*
X2036Y880D01*
X10Y879D02*
X17Y879D01*
X2029Y879D02*
X2036Y879D01*
X10Y878D02*
X17Y878D01*
X2029Y878D02*
X2036Y878D01*
X11Y877D02*
X18Y877D01*
X2028Y877D02*
X2035Y877D01*
X11Y876D02*
X18Y876D01*
X2028Y876D02*
X2035Y876D01*
X11Y875D02*
X18Y875D01*
X2028Y875D02*
X2035Y875D01*
X11Y874D02*
X18Y874D01*
X2028Y874D02*
X2035Y874D01*
X11Y873D02*
X18Y873D01*
X2028Y873D02*
X2035Y873D01*
X11Y872D02*
X18Y872D01*
X2028Y872D02*
X2035Y872D01*
X11Y871D02*
X18Y871D01*
X2028Y871D02*
X2035Y871D01*
X12Y870D02*
X19Y870D01*
X2027Y870D02*
X2034Y870D01*
X12Y869D02*
X19Y869D01*
X2027Y869D02*
X2034Y869D01*
X12Y868D02*
X19Y868D01*
X2027Y868D02*
X2034Y868D01*
X12Y867D02*
X19Y867D01*
X2027Y867D02*
X2034Y867D01*
X12Y866D02*
X19Y866D01*
X2027Y866D02*
X2034Y866D01*
X12Y865D02*
X19Y865D01*
X2027Y865D02*
X2034Y865D01*
X13Y864D02*
X20Y864D01*
X2026Y864D02*
X2033Y864D01*
X13Y863D02*
X20Y863D01*
X2026Y863D02*
X2033Y863D01*
X13Y862D02*
X20Y862D01*
X2026Y862D02*
X2033Y862D01*
X13Y861D02*
X20Y861D01*
X2026Y861D02*
X2033Y861D01*
X13Y860D02*
X20Y860D01*
X2026Y860D02*
X2033Y860D01*
X13Y859D02*
X20Y859D01*
X2026Y859D02*
X2033Y859D01*
X13Y858D02*
X21Y858D01*
X2025Y858D02*
X2032Y858D01*
X14Y857D02*
X21Y857D01*
X2025Y857D02*
X2032Y857D01*
X14Y856D02*
X21Y856D01*
X2025Y856D02*
X2032Y856D01*
X14Y855D02*
X21Y855D01*
X2025Y855D02*
X2032Y855D01*
X14Y854D02*
X21Y854D01*
X2025Y854D02*
X2032Y854D01*
X14Y853D02*
X21Y853D01*
X2025Y853D02*
X2032Y853D01*
X14Y852D02*
X22Y852D01*
X2024Y852D02*
X2031Y852D01*
X15Y851D02*
X22Y851D01*
X2024Y851D02*
X2031Y851D01*
X15Y850D02*
X22Y850D01*
X2024Y850D02*
X2031Y850D01*
X15Y849D02*
X22Y849D01*
X2024Y849D02*
X2031Y849D01*
X15Y848D02*
X22Y848D01*
X2024Y848D02*
X2031Y848D01*
X15Y847D02*
X22Y847D01*
X2024Y847D02*
X2031Y847D01*
X15Y846D02*
X23Y846D01*
X2023Y846D02*
X2030Y846D01*
X16Y845D02*
X23Y845D01*
X2023Y845D02*
X2030Y845D01*
X16Y844D02*
X23Y844D01*
X2023Y844D02*
X2030Y844D01*
X16Y843D02*
X23Y843D01*
X2023Y843D02*
X2030Y843D01*
X16Y842D02*
X23Y842D01*
X2023Y842D02*
X2030Y842D01*
X16Y841D02*
X23Y841D01*
X2023Y841D02*
X2030Y841D01*
X17Y840D02*
X24Y840D01*
X2022Y840D02*
X2029Y840D01*
X17Y839D02*
X24Y839D01*
X2022Y839D02*
X2029Y839D01*
X17Y838D02*
X24Y838D01*
X2022Y838D02*
X2029Y838D01*
X17Y837D02*
X24Y837D01*
X2022Y837D02*
X2029Y837D01*
X17Y836D02*
X24Y836D01*
X2022Y836D02*
X2029Y836D01*
X18Y835D02*
X25Y835D01*
X2021Y835D02*
X2028Y835D01*
X18Y834D02*
X25Y834D01*
X2021Y834D02*
X2028Y834D01*
X18Y833D02*
X25Y833D01*
X2021Y833D02*
X2028Y833D01*
X18Y832D02*
X25Y832D01*
X2021Y832D02*
X2028Y832D01*
X18Y831D02*
X25Y831D01*
X2021Y831D02*
X2028Y831D01*
X18Y830D02*
X26Y830D01*
X2020Y830D02*
X2027Y830D01*
X19Y829D02*
X26Y829D01*
X2020Y829D02*
X2027Y829D01*
X19Y828D02*
X26Y828D01*
X2020Y828D02*
X2027Y828D01*
X19Y827D02*
X26Y827D01*
X2020Y827D02*
X2027Y827D01*
X19Y826D02*
X26Y826D01*
X2020Y826D02*
X2027Y826D01*
X19Y825D02*
X26Y825D01*
X2019Y825D02*
X2027Y825D01*
X20Y824D02*
X27Y824D01*
X2019Y824D02*
X2026Y824D01*
X20Y823D02*
X27Y823D01*
X2019Y823D02*
X2026Y823D01*
X20Y822D02*
X27Y822D01*
X2019Y822D02*
X2026Y822D01*
X20Y821D02*
X27Y821D01*
X2019Y821D02*
X2026Y821D01*
X20Y820D02*
X27Y820D01*
X2019Y820D02*
X2026Y820D01*
X21Y819D02*
X28Y819D01*
X2018Y819D02*
X2025Y819D01*
X21Y818D02*
X28Y818D01*
X2018Y818D02*
X2025Y818D01*
X21Y817D02*
X28Y817D01*
X2018Y817D02*
X2025Y817D01*
X21Y816D02*
X28Y816D01*
X2018Y816D02*
X2025Y816D01*
X21Y815D02*
X29Y815D01*
X2017Y815D02*
X2025Y815D01*
X22Y814D02*
X29Y814D01*
X2017Y814D02*
X2024Y814D01*
X22Y813D02*
X29Y813D01*
X2017Y813D02*
X2024Y813D01*
X22Y812D02*
X29Y812D01*
X1237Y812D02*
X1253Y812D01*
X1384Y812D02*
X1406Y812D01*
X2017Y812D02*
X2024Y812D01*
X22Y811D02*
X29Y811D01*
X1237Y811D02*
X1256Y811D01*
X1274Y811D02*
X1278Y811D01*
X1379Y811D02*
X1407Y811D01*
X2017Y811D02*
X2024Y811D01*
X23Y810D02*
X30Y810D01*
X1237Y810D02*
X1256Y810D01*
X1273Y810D02*
X1279Y810D01*
X1378Y810D02*
X1407Y810D01*
X2016Y810D02*
X2023Y810D01*
X23Y809D02*
X30Y809D01*
X1237Y809D02*
X1257Y809D01*
X1273Y809D02*
X1279Y809D01*
X1376Y809D02*
X1407Y809D01*
X2016Y809D02*
X2023Y809D01*
X23Y808D02*
X30Y808D01*
X1237Y808D02*
X1257Y808D01*
X1273Y808D02*
X1279Y808D01*
X1375Y808D02*
X1407Y808D01*
X2016Y808D02*
X2023Y808D01*
X23Y807D02*
X30Y807D01*
X1237Y807D02*
X1256Y807D01*
X1273Y807D02*
X1279Y807D01*
X1375Y807D02*
X1407Y807D01*
X2016Y807D02*
X2023Y807D01*
X23Y806D02*
X30Y806D01*
X1237Y806D02*
X1256Y806D01*
X1273Y806D02*
X1279Y806D01*
X1374Y806D02*
X1407Y806D01*
X2016Y806D02*
X2023Y806D01*
X24Y805D02*
X31Y805D01*
X1237Y805D02*
X1253Y805D01*
X1273Y805D02*
X1279Y805D01*
X1374Y805D02*
X1407Y805D01*
X2015Y805D02*
X2022Y805D01*
X24Y804D02*
X31Y804D01*
X1237Y804D02*
X1243Y804D01*
X1273Y804D02*
X1279Y804D01*
X1373Y804D02*
X1380Y804D01*
X1401Y804D02*
X1407Y804D01*
X2015Y804D02*
X2022Y804D01*
X24Y803D02*
X31Y803D01*
X1237Y803D02*
X1243Y803D01*
X1273Y803D02*
X1279Y803D01*
X1373Y803D02*
X1380Y803D01*
X1401Y803D02*
X1407Y803D01*
X2015Y803D02*
X2022Y803D01*
X24Y802D02*
X31Y802D01*
X1237Y802D02*
X1243Y802D01*
X1273Y802D02*
X1279Y802D01*
X1373Y802D02*
X1379Y802D01*
X1401Y802D02*
X1407Y802D01*
X2015Y802D02*
X2022Y802D01*
X24Y801D02*
X32Y801D01*
X1237Y801D02*
X1243Y801D01*
X1273Y801D02*
X1279Y801D01*
X1373Y801D02*
X1379Y801D01*
X1401Y801D02*
X1407Y801D01*
X2014Y801D02*
X2021Y801D01*
X25Y800D02*
X32Y800D01*
X1237Y800D02*
X1243Y800D01*
X1273Y800D02*
X1279Y800D01*
X1373Y800D02*
X1379Y800D01*
X1401Y800D02*
X1407Y800D01*
X2014Y800D02*
X2021Y800D01*
X25Y799D02*
X32Y799D01*
X1237Y799D02*
X1243Y799D01*
X1273Y799D02*
X1279Y799D01*
X1373Y799D02*
X1379Y799D01*
X1401Y799D02*
X1407Y799D01*
X2014Y799D02*
X2021Y799D01*
X25Y798D02*
X32Y798D01*
X1237Y798D02*
X1243Y798D01*
X1273Y798D02*
X1279Y798D01*
X1373Y798D02*
X1379Y798D01*
X1401Y798D02*
X1407Y798D01*
X2014Y798D02*
X2021Y798D01*
X25Y797D02*
X32Y797D01*
X1237Y797D02*
X1243Y797D01*
X1273Y797D02*
X1279Y797D01*
X1287Y797D02*
X1296Y797D01*
X1332Y797D02*
X1348Y797D01*
X1373Y797D02*
X1379Y797D01*
X1401Y797D02*
X1407Y797D01*
X2014Y797D02*
X2021Y797D01*
X26Y796D02*
X33Y796D01*
X1237Y796D02*
X1243Y796D01*
X1273Y796D02*
X1279Y796D01*
X1285Y796D02*
X1299Y796D01*
X1329Y796D02*
X1349Y796D01*
X1373Y796D02*
X1379Y796D01*
X1401Y796D02*
X1407Y796D01*
X2013Y796D02*
X2020Y796D01*
X26Y795D02*
X33Y795D01*
X1237Y795D02*
X1243Y795D01*
X1273Y795D02*
X1279Y795D01*
X1283Y795D02*
X1300Y795D01*
X1328Y795D02*
X1350Y795D01*
X1373Y795D02*
X1379Y795D01*
X1401Y795D02*
X1407Y795D01*
X2013Y795D02*
X2020Y795D01*
X26Y794D02*
X33Y794D01*
X1237Y794D02*
X1243Y794D01*
X1273Y794D02*
X1279Y794D01*
X1282Y794D02*
X1301Y794D01*
X1327Y794D02*
X1350Y794D01*
X1373Y794D02*
X1379Y794D01*
X1401Y794D02*
X1407Y794D01*
X2013Y794D02*
X2020Y794D01*
X26Y793D02*
X33Y793D01*
X1237Y793D02*
X1243Y793D01*
X1273Y793D02*
X1279Y793D01*
X1281Y793D02*
X1303Y793D01*
X1326Y793D02*
X1350Y793D01*
X1373Y793D02*
X1379Y793D01*
X1401Y793D02*
X1407Y793D01*
X2013Y793D02*
X2020Y793D01*
X26Y792D02*
X34Y792D01*
X1237Y792D02*
X1243Y792D01*
X1273Y792D02*
X1304Y792D01*
X1325Y792D02*
X1349Y792D01*
X1373Y792D02*
X1379Y792D01*
X1401Y792D02*
X1407Y792D01*
X2012Y792D02*
X2019Y792D01*
X27Y791D02*
X34Y791D01*
X1237Y791D02*
X1243Y791D01*
X1273Y791D02*
X1304Y791D01*
X1325Y791D02*
X1348Y791D01*
X1373Y791D02*
X1379Y791D01*
X1401Y791D02*
X1407Y791D01*
X2012Y791D02*
X2019Y791D01*
X27Y790D02*
X34Y790D01*
X1237Y790D02*
X1243Y790D01*
X1273Y790D02*
X1287Y790D01*
X1296Y790D02*
X1305Y790D01*
X1324Y790D02*
X1332Y790D01*
X1373Y790D02*
X1379Y790D01*
X1401Y790D02*
X1407Y790D01*
X2012Y790D02*
X2019Y790D01*
X27Y789D02*
X34Y789D01*
X1237Y789D02*
X1243Y789D01*
X1273Y789D02*
X1286Y789D01*
X1298Y789D02*
X1306Y789D01*
X1324Y789D02*
X1331Y789D01*
X1373Y789D02*
X1379Y789D01*
X1401Y789D02*
X1407Y789D01*
X2012Y789D02*
X2019Y789D01*
X27Y788D02*
X35Y788D01*
X1237Y788D02*
X1243Y788D01*
X1273Y788D02*
X1285Y788D01*
X1299Y788D02*
X1306Y788D01*
X1324Y788D02*
X1330Y788D01*
X1373Y788D02*
X1379Y788D01*
X1401Y788D02*
X1407Y788D01*
X2011Y788D02*
X2019Y788D01*
X28Y787D02*
X35Y787D01*
X1237Y787D02*
X1243Y787D01*
X1273Y787D02*
X1283Y787D01*
X1300Y787D02*
X1306Y787D01*
X1324Y787D02*
X1330Y787D01*
X1373Y787D02*
X1380Y787D01*
X1401Y787D02*
X1407Y787D01*
X2011Y787D02*
X2018Y787D01*
X28Y786D02*
X35Y786D01*
X1237Y786D02*
X1243Y786D01*
X1273Y786D02*
X1282Y786D01*
X1300Y786D02*
X1307Y786D01*
X1324Y786D02*
X1330Y786D01*
X1374Y786D02*
X1381Y786D01*
X1401Y786D02*
X1407Y786D01*
X2011Y786D02*
X2018Y786D01*
X28Y785D02*
X35Y785D01*
X1237Y785D02*
X1243Y785D01*
X1273Y785D02*
X1281Y785D01*
X1301Y785D02*
X1307Y785D01*
X1324Y785D02*
X1330Y785D01*
X1374Y785D02*
X1407Y785D01*
X2011Y785D02*
X2018Y785D01*
X28Y784D02*
X36Y784D01*
X1237Y784D02*
X1243Y784D01*
X1273Y784D02*
X1280Y784D01*
X1301Y784D02*
X1307Y784D01*
X1324Y784D02*
X1330Y784D01*
X1374Y784D02*
X1407Y784D01*
X2010Y784D02*
X2018Y784D01*
X29Y783D02*
X36Y783D01*
X1237Y783D02*
X1243Y783D01*
X1273Y783D02*
X1279Y783D01*
X1301Y783D02*
X1307Y783D01*
X1324Y783D02*
X1330Y783D01*
X1375Y783D02*
X1407Y783D01*
X2010Y783D02*
X2017Y783D01*
X29Y782D02*
X36Y782D01*
X1237Y782D02*
X1243Y782D01*
X1273Y782D02*
X1279Y782D01*
X1301Y782D02*
X1307Y782D01*
X1324Y782D02*
X1350Y782D01*
X1376Y782D02*
X1407Y782D01*
X2010Y782D02*
X2017Y782D01*
X29Y781D02*
X36Y781D01*
X1237Y781D02*
X1243Y781D01*
X1273Y781D02*
X1279Y781D01*
X1301Y781D02*
X1307Y781D01*
X1324Y781D02*
X1352Y781D01*
X1377Y781D02*
X1407Y781D01*
X2010Y781D02*
X2017Y781D01*
X29Y780D02*
X36Y780D01*
X1237Y780D02*
X1243Y780D01*
X1273Y780D02*
X1279Y780D01*
X1301Y780D02*
X1307Y780D01*
X1324Y780D02*
X1353Y780D01*
X1378Y780D02*
X1407Y780D01*
X2009Y780D02*
X2017Y780D01*
X30Y779D02*
X37Y779D01*
X1237Y779D02*
X1243Y779D01*
X1273Y779D02*
X1279Y779D01*
X1301Y779D02*
X1307Y779D01*
X1324Y779D02*
X1354Y779D01*
X1381Y779D02*
X1407Y779D01*
X2009Y779D02*
X2016Y779D01*
X30Y778D02*
X37Y778D01*
X1238Y778D02*
X1243Y778D01*
X1273Y778D02*
X1279Y778D01*
X1301Y778D02*
X1307Y778D01*
X1324Y778D02*
X1355Y778D01*
X1401Y778D02*
X1407Y778D01*
X2009Y778D02*
X2016Y778D01*
X30Y777D02*
X37Y777D01*
X1240Y777D02*
X1243Y777D01*
X1273Y777D02*
X1279Y777D01*
X1301Y777D02*
X1307Y777D01*
X1324Y777D02*
X1355Y777D01*
X1401Y777D02*
X1407Y777D01*
X2009Y777D02*
X2016Y777D01*
X30Y776D02*
X37Y776D01*
X1241Y776D02*
X1243Y776D01*
X1273Y776D02*
X1279Y776D01*
X1301Y776D02*
X1307Y776D01*
X1324Y776D02*
X1356Y776D01*
X1401Y776D02*
X1407Y776D01*
X2009Y776D02*
X2016Y776D01*
X31Y775D02*
X38Y775D01*
X1242Y775D02*
X1243Y775D01*
X1273Y775D02*
X1279Y775D01*
X1301Y775D02*
X1307Y775D01*
X1324Y775D02*
X1331Y775D01*
X1349Y775D02*
X1356Y775D01*
X1401Y775D02*
X1407Y775D01*
X2008Y775D02*
X2015Y775D01*
X31Y774D02*
X38Y774D01*
X1242Y774D02*
X1243Y774D01*
X1273Y774D02*
X1279Y774D01*
X1301Y774D02*
X1307Y774D01*
X1324Y774D02*
X1330Y774D01*
X1350Y774D02*
X1356Y774D01*
X1401Y774D02*
X1407Y774D01*
X2008Y774D02*
X2015Y774D01*
X31Y773D02*
X38Y773D01*
X1243Y773D02*
X1243Y773D01*
X1273Y773D02*
X1279Y773D01*
X1301Y773D02*
X1307Y773D01*
X1324Y773D02*
X1330Y773D01*
X1350Y773D02*
X1357Y773D01*
X1401Y773D02*
X1407Y773D01*
X2008Y773D02*
X2015Y773D01*
X31Y772D02*
X38Y772D01*
X1273Y772D02*
X1279Y772D01*
X1301Y772D02*
X1307Y772D01*
X1323Y772D02*
X1330Y772D01*
X1351Y772D02*
X1357Y772D01*
X1401Y772D02*
X1407Y772D01*
X2008Y772D02*
X2015Y772D01*
X32Y771D02*
X39Y771D01*
X1273Y771D02*
X1280Y771D01*
X1301Y771D02*
X1307Y771D01*
X1323Y771D02*
X1330Y771D01*
X1351Y771D02*
X1357Y771D01*
X1401Y771D02*
X1407Y771D01*
X2007Y771D02*
X2014Y771D01*
X32Y770D02*
X39Y770D01*
X1273Y770D02*
X1281Y770D01*
X1301Y770D02*
X1307Y770D01*
X1323Y770D02*
X1330Y770D01*
X1351Y770D02*
X1357Y770D01*
X1401Y770D02*
X1407Y770D01*
X2007Y770D02*
X2014Y770D01*
X32Y769D02*
X39Y769D01*
X1273Y769D02*
X1283Y769D01*
X1300Y769D02*
X1307Y769D01*
X1323Y769D02*
X1330Y769D01*
X1351Y769D02*
X1357Y769D01*
X1401Y769D02*
X1407Y769D01*
X2007Y769D02*
X2014Y769D01*
X32Y768D02*
X39Y768D01*
X1273Y768D02*
X1284Y768D01*
X1300Y768D02*
X1306Y768D01*
X1323Y768D02*
X1332Y768D01*
X1351Y768D02*
X1357Y768D01*
X1401Y768D02*
X1407Y768D01*
X2007Y768D02*
X2014Y768D01*
X33Y767D02*
X40Y767D01*
X1273Y767D02*
X1285Y767D01*
X1299Y767D02*
X1306Y767D01*
X1323Y767D02*
X1333Y767D01*
X1350Y767D02*
X1357Y767D01*
X1401Y767D02*
X1407Y767D01*
X2006Y767D02*
X2013Y767D01*
X33Y766D02*
X40Y766D01*
X1273Y766D02*
X1286Y766D01*
X1297Y766D02*
X1306Y766D01*
X1323Y766D02*
X1335Y766D01*
X1350Y766D02*
X1356Y766D01*
X1401Y766D02*
X1407Y766D01*
X2006Y766D02*
X2013Y766D01*
X33Y765D02*
X40Y765D01*
X1273Y765D02*
X1288Y765D01*
X1295Y765D02*
X1305Y765D01*
X1323Y765D02*
X1337Y765D01*
X1348Y765D02*
X1356Y765D01*
X1401Y765D02*
X1407Y765D01*
X2006Y765D02*
X2013Y765D01*
X33Y764D02*
X41Y764D01*
X1248Y764D02*
X1255Y764D01*
X1273Y764D02*
X1305Y764D01*
X1323Y764D02*
X1356Y764D01*
X1401Y764D02*
X1407Y764D01*
X2005Y764D02*
X2013Y764D01*
X34Y763D02*
X41Y763D01*
X1248Y763D02*
X1256Y763D01*
X1273Y763D02*
X1304Y763D01*
X1323Y763D02*
X1355Y763D01*
X1401Y763D02*
X1407Y763D01*
X2005Y763D02*
X2012Y763D01*
X34Y762D02*
X41Y762D01*
X1248Y762D02*
X1257Y762D01*
X1273Y762D02*
X1279Y762D01*
X1281Y762D02*
X1303Y762D01*
X1323Y762D02*
X1355Y762D01*
X1401Y762D02*
X1407Y762D01*
X2005Y762D02*
X2012Y762D01*
X34Y761D02*
X41Y761D01*
X1248Y761D02*
X1257Y761D01*
X1273Y761D02*
X1279Y761D01*
X1282Y761D02*
X1301Y761D01*
X1323Y761D02*
X1329Y761D01*
X1331Y761D02*
X1354Y761D01*
X1401Y761D02*
X1407Y761D01*
X2005Y761D02*
X2012Y761D01*
X35Y760D02*
X42Y760D01*
X1248Y760D02*
X1256Y760D01*
X1273Y760D02*
X1279Y760D01*
X1283Y760D02*
X1300Y760D01*
X1323Y760D02*
X1329Y760D01*
X1332Y760D02*
X1353Y760D01*
X1401Y760D02*
X1406Y760D01*
X2004Y760D02*
X2011Y760D01*
X35Y759D02*
X42Y759D01*
X1248Y759D02*
X1256Y759D01*
X1274Y759D02*
X1278Y759D01*
X1285Y759D02*
X1299Y759D01*
X1324Y759D02*
X1328Y759D01*
X1334Y759D02*
X1351Y759D01*
X1402Y759D02*
X1406Y759D01*
X2004Y759D02*
X2011Y759D01*
X35Y758D02*
X42Y758D01*
X1248Y758D02*
X1254Y758D01*
X1276Y758D02*
X1276Y758D01*
X1288Y758D02*
X1296Y758D01*
X1326Y758D02*
X1326Y758D01*
X1336Y758D02*
X1348Y758D01*
X1403Y758D02*
X1404Y758D01*
X2004Y758D02*
X2011Y758D01*
X35Y757D02*
X42Y757D01*
X2004Y757D02*
X2011Y757D01*
X36Y756D02*
X43Y756D01*
X2003Y756D02*
X2010Y756D01*
X36Y755D02*
X43Y755D01*
X2003Y755D02*
X2010Y755D01*
X36Y754D02*
X43Y754D01*
X2003Y754D02*
X2010Y754D01*
X36Y753D02*
X44Y753D01*
X2002Y753D02*
X2010Y753D01*
X37Y752D02*
X44Y752D01*
X2002Y752D02*
X2009Y752D01*
X37Y751D02*
X44Y751D01*
X2002Y751D02*
X2009Y751D01*
X37Y750D02*
X44Y750D01*
X2002Y750D02*
X2009Y750D01*
X38Y749D02*
X45Y749D01*
X2001Y749D02*
X2008Y749D01*
X38Y748D02*
X45Y748D01*
X2001Y748D02*
X2008Y748D01*
X38Y747D02*
X45Y747D01*
X2001Y747D02*
X2008Y747D01*
X38Y746D02*
X45Y746D01*
X2001Y746D02*
X2008Y746D01*
X39Y745D02*
X46Y745D01*
X2000Y745D02*
X2007Y745D01*
X39Y744D02*
X46Y744D01*
X2000Y744D02*
X2007Y744D01*
X39Y743D02*
X46Y743D01*
X2000Y743D02*
X2007Y743D01*
X39Y742D02*
X47Y742D01*
X1999Y742D02*
X2007Y742D01*
X40Y741D02*
X47Y741D01*
X1999Y741D02*
X2006Y741D01*
X40Y740D02*
X47Y740D01*
X1999Y740D02*
X2006Y740D01*
X40Y739D02*
X47Y739D01*
X1998Y739D02*
X2006Y739D01*
X41Y738D02*
X48Y738D01*
X1998Y738D02*
X2005Y738D01*
X41Y737D02*
X48Y737D01*
X1998Y737D02*
X2005Y737D01*
X41Y736D02*
X48Y736D01*
X1998Y736D02*
X2005Y736D01*
X42Y735D02*
X49Y735D01*
X1997Y735D02*
X2004Y735D01*
X42Y734D02*
X49Y734D01*
X1997Y734D02*
X2004Y734D01*
X42Y733D02*
X49Y733D01*
X1997Y733D02*
X2004Y733D01*
X42Y732D02*
X50Y732D01*
X1996Y732D02*
X2004Y732D01*
X43Y731D02*
X50Y731D01*
X1996Y731D02*
X2003Y731D01*
X43Y730D02*
X50Y730D01*
X1996Y730D02*
X2003Y730D01*
X43Y729D02*
X50Y729D01*
X1996Y729D02*
X2003Y729D01*
X44Y728D02*
X51Y728D01*
X1995Y728D02*
X2002Y728D01*
X44Y727D02*
X51Y727D01*
X1995Y727D02*
X2002Y727D01*
X44Y726D02*
X51Y726D01*
X1995Y726D02*
X2002Y726D01*
X45Y725D02*
X52Y725D01*
X1994Y725D02*
X2001Y725D01*
X45Y724D02*
X52Y724D01*
X1994Y724D02*
X2001Y724D01*
X45Y723D02*
X52Y723D01*
X1994Y723D02*
X2001Y723D01*
X45Y722D02*
X53Y722D01*
X1993Y722D02*
X2001Y722D01*
X46Y721D02*
X53Y721D01*
X1993Y721D02*
X2000Y721D01*
X46Y720D02*
X53Y720D01*
X1993Y720D02*
X2000Y720D01*
X46Y719D02*
X54Y719D01*
X1992Y719D02*
X2000Y719D01*
X47Y718D02*
X54Y718D01*
X1992Y718D02*
X1999Y718D01*
X47Y717D02*
X54Y717D01*
X1992Y717D02*
X1999Y717D01*
X47Y716D02*
X54Y716D01*
X1991Y716D02*
X1999Y716D01*
X48Y715D02*
X55Y715D01*
X1991Y715D02*
X1998Y715D01*
X48Y714D02*
X55Y714D01*
X1991Y714D02*
X1998Y714D01*
X48Y713D02*
X55Y713D01*
X1991Y713D02*
X1998Y713D01*
X49Y712D02*
X56Y712D01*
X1990Y712D02*
X1997Y712D01*
X49Y711D02*
X56Y711D01*
X1990Y711D02*
X1997Y711D01*
X49Y710D02*
X56Y710D01*
X1990Y710D02*
X1997Y710D01*
X50Y709D02*
X57Y709D01*
X1989Y709D02*
X1996Y709D01*
X50Y708D02*
X57Y708D01*
X1989Y708D02*
X1996Y708D01*
X50Y707D02*
X57Y707D01*
X1989Y707D02*
X1996Y707D01*
X51Y706D02*
X58Y706D01*
X1988Y706D02*
X1995Y706D01*
X51Y705D02*
X58Y705D01*
X1988Y705D02*
X1995Y705D01*
X51Y704D02*
X58Y704D01*
X1988Y704D02*
X1995Y704D01*
X52Y703D02*
X59Y703D01*
X1987Y703D02*
X1994Y703D01*
X52Y702D02*
X59Y702D01*
X1987Y702D02*
X1994Y702D01*
X52Y701D02*
X59Y701D01*
X1987Y701D02*
X1994Y701D01*
X53Y700D02*
X60Y700D01*
X1986Y700D02*
X1993Y700D01*
X53Y699D02*
X60Y699D01*
X1986Y699D02*
X1993Y699D01*
X53Y698D02*
X60Y698D01*
X1986Y698D02*
X1993Y698D01*
X53Y697D02*
X61Y697D01*
X1985Y697D02*
X1992Y697D01*
X54Y696D02*
X61Y696D01*
X1985Y696D02*
X1992Y696D01*
X54Y695D02*
X61Y695D01*
X1985Y695D02*
X1992Y695D01*
X55Y694D02*
X62Y694D01*
X1984Y694D02*
X1991Y694D01*
X55Y693D02*
X62Y693D01*
X1984Y693D02*
X1991Y693D01*
X55Y692D02*
X62Y692D01*
X1984Y692D02*
X1991Y692D01*
X56Y691D02*
X63Y691D01*
X1983Y691D02*
X1990Y691D01*
X56Y690D02*
X63Y690D01*
X1983Y690D02*
X1990Y690D01*
X56Y689D02*
X63Y689D01*
X1982Y689D02*
X1990Y689D01*
X57Y688D02*
X64Y688D01*
X1982Y688D02*
X1989Y688D01*
X57Y687D02*
X64Y687D01*
X1982Y687D02*
X1989Y687D01*
X57Y686D02*
X65Y686D01*
X1981Y686D02*
X1989Y686D01*
X58Y685D02*
X65Y685D01*
X1981Y685D02*
X1988Y685D01*
X58Y684D02*
X65Y684D01*
X1981Y684D02*
X1988Y684D01*
X58Y683D02*
X66Y683D01*
X1980Y683D02*
X1988Y683D01*
X59Y682D02*
X66Y682D01*
X1980Y682D02*
X1987Y682D01*
X59Y681D02*
X66Y681D01*
X1980Y681D02*
X1987Y681D01*
X59Y680D02*
X67Y680D01*
X1979Y680D02*
X1987Y680D01*
X60Y679D02*
X67Y679D01*
X1979Y679D02*
X1986Y679D01*
X60Y678D02*
X67Y678D01*
X1979Y678D02*
X1986Y678D01*
X61Y677D02*
X68Y677D01*
X1978Y677D02*
X1985Y677D01*
X61Y676D02*
X68Y676D01*
X1978Y676D02*
X1985Y676D01*
X61Y675D02*
X68Y675D01*
X1978Y675D02*
X1985Y675D01*
X62Y674D02*
X69Y674D01*
X1977Y674D02*
X1984Y674D01*
X62Y673D02*
X69Y673D01*
X1977Y673D02*
X1984Y673D01*
X62Y672D02*
X70Y672D01*
X1976Y672D02*
X1984Y672D01*
X63Y671D02*
X70Y671D01*
X1976Y671D02*
X1983Y671D01*
X63Y670D02*
X70Y670D01*
X1976Y670D02*
X1983Y670D01*
X63Y669D02*
X71Y669D01*
X1975Y669D02*
X1983Y669D01*
X64Y668D02*
X71Y668D01*
X1975Y668D02*
X1982Y668D01*
X64Y667D02*
X71Y667D01*
X1975Y667D02*
X1982Y667D01*
X65Y666D02*
X72Y666D01*
X1974Y666D02*
X1981Y666D01*
X65Y665D02*
X72Y665D01*
X1974Y665D02*
X1981Y665D01*
X65Y664D02*
X73Y664D01*
X1973Y664D02*
X1981Y664D01*
X66Y663D02*
X73Y663D01*
X1973Y663D02*
X1980Y663D01*
X66Y662D02*
X73Y662D01*
X1973Y662D02*
X1980Y662D01*
X66Y661D02*
X74Y661D01*
X1972Y661D02*
X1980Y661D01*
X67Y660D02*
X74Y660D01*
X1972Y660D02*
X1979Y660D01*
X67Y659D02*
X74Y659D01*
X1971Y659D02*
X1979Y659D01*
X68Y658D02*
X75Y658D01*
X1971Y658D02*
X1978Y658D01*
X68Y657D02*
X75Y657D01*
X1971Y657D02*
X1978Y657D01*
X68Y656D02*
X76Y656D01*
X1970Y656D02*
X1978Y656D01*
X69Y655D02*
X76Y655D01*
X1970Y655D02*
X1977Y655D01*
X69Y654D02*
X76Y654D01*
X1970Y654D02*
X1977Y654D01*
X70Y653D02*
X77Y653D01*
X1969Y653D02*
X1976Y653D01*
X70Y652D02*
X77Y652D01*
X1969Y652D02*
X1976Y652D01*
X70Y651D02*
X78Y651D01*
X1968Y651D02*
X1976Y651D01*
X71Y650D02*
X78Y650D01*
X1968Y650D02*
X1975Y650D01*
X71Y649D02*
X78Y649D01*
X1968Y649D02*
X1975Y649D01*
X71Y648D02*
X79Y648D01*
X1967Y648D02*
X1975Y648D01*
X72Y647D02*
X79Y647D01*
X1967Y647D02*
X1974Y647D01*
X72Y646D02*
X80Y646D01*
X1966Y646D02*
X1974Y646D01*
X73Y645D02*
X80Y645D01*
X1966Y645D02*
X1973Y645D01*
X73Y644D02*
X80Y644D01*
X1966Y644D02*
X1973Y644D01*
X73Y643D02*
X81Y643D01*
X1965Y643D02*
X1972Y643D01*
X74Y642D02*
X81Y642D01*
X1965Y642D02*
X1972Y642D01*
X74Y641D02*
X82Y641D01*
X1964Y641D02*
X1972Y641D01*
X75Y640D02*
X82Y640D01*
X1964Y640D02*
X1971Y640D01*
X75Y639D02*
X82Y639D01*
X1964Y639D02*
X1971Y639D01*
X76Y638D02*
X83Y638D01*
X1963Y638D02*
X1970Y638D01*
X76Y637D02*
X83Y637D01*
X1963Y637D02*
X1970Y637D01*
X76Y636D02*
X84Y636D01*
X1962Y636D02*
X1970Y636D01*
X77Y635D02*
X84Y635D01*
X1962Y635D02*
X1969Y635D01*
X77Y634D02*
X84Y634D01*
X1962Y634D02*
X1969Y634D01*
X78Y633D02*
X85Y633D01*
X1961Y633D02*
X1968Y633D01*
X78Y632D02*
X85Y632D01*
X1961Y632D02*
X1968Y632D01*
X78Y631D02*
X86Y631D01*
X1960Y631D02*
X1968Y631D01*
X79Y630D02*
X86Y630D01*
X1960Y630D02*
X1967Y630D01*
X79Y629D02*
X87Y629D01*
X1959Y629D02*
X1967Y629D01*
X80Y628D02*
X87Y628D01*
X1959Y628D02*
X1966Y628D01*
X80Y627D02*
X87Y627D01*
X1959Y627D02*
X1966Y627D01*
X80Y626D02*
X88Y626D01*
X1958Y626D02*
X1966Y626D01*
X81Y625D02*
X88Y625D01*
X1958Y625D02*
X1965Y625D01*
X81Y624D02*
X89Y624D01*
X1957Y624D02*
X1965Y624D01*
X82Y623D02*
X89Y623D01*
X1957Y623D02*
X1964Y623D01*
X82Y622D02*
X90Y622D01*
X1956Y622D02*
X1964Y622D01*
X83Y621D02*
X90Y621D01*
X1956Y621D02*
X1963Y621D01*
X83Y620D02*
X90Y620D01*
X1956Y620D02*
X1963Y620D01*
X83Y619D02*
X91Y619D01*
X1955Y619D02*
X1962Y619D01*
X84Y618D02*
X91Y618D01*
X1955Y618D02*
X1962Y618D01*
X84Y617D02*
X92Y617D01*
X1954Y617D02*
X1962Y617D01*
X85Y616D02*
X92Y616D01*
X1954Y616D02*
X1961Y616D01*
X85Y615D02*
X93Y615D01*
X1953Y615D02*
X1961Y615D01*
X86Y614D02*
X93Y614D01*
X1953Y614D02*
X1960Y614D01*
X86Y613D02*
X93Y613D01*
X1952Y613D02*
X1960Y613D01*
X87Y612D02*
X94Y612D01*
X1952Y612D02*
X1959Y612D01*
X87Y611D02*
X94Y611D01*
X1952Y611D02*
X1959Y611D01*
X87Y610D02*
X95Y610D01*
X1951Y610D02*
X1959Y610D01*
X88Y609D02*
X95Y609D01*
X1951Y609D02*
X1958Y609D01*
X88Y608D02*
X96Y608D01*
X1950Y608D02*
X1958Y608D01*
X89Y607D02*
X96Y607D01*
X1950Y607D02*
X1957Y607D01*
X89Y606D02*
X97Y606D01*
X1949Y606D02*
X1957Y606D01*
X90Y605D02*
X97Y605D01*
X1949Y605D02*
X1956Y605D01*
X90Y604D02*
X97Y604D01*
X1949Y604D02*
X1956Y604D01*
X90Y603D02*
X98Y603D01*
X1948Y603D02*
X1955Y603D01*
X91Y602D02*
X98Y602D01*
X1948Y602D02*
X1955Y602D01*
X91Y601D02*
X99Y601D01*
X1947Y601D02*
X1955Y601D01*
X92Y600D02*
X99Y600D01*
X1947Y600D02*
X1954Y600D01*
X92Y599D02*
X100Y599D01*
X1946Y599D02*
X1954Y599D01*
X93Y598D02*
X100Y598D01*
X1946Y598D02*
X1953Y598D01*
X93Y597D02*
X101Y597D01*
X1945Y597D02*
X1953Y597D01*
X94Y596D02*
X101Y596D01*
X1945Y596D02*
X1952Y596D01*
X94Y595D02*
X102Y595D01*
X1944Y595D02*
X1952Y595D01*
X95Y594D02*
X102Y594D01*
X1944Y594D02*
X1951Y594D01*
X95Y593D02*
X103Y593D01*
X1943Y593D02*
X1951Y593D01*
X96Y592D02*
X103Y592D01*
X1943Y592D02*
X1950Y592D01*
X96Y591D02*
X104Y591D01*
X1942Y591D02*
X1950Y591D01*
X97Y590D02*
X104Y590D01*
X1942Y590D02*
X1949Y590D01*
X97Y589D02*
X104Y589D01*
X1942Y589D02*
X1949Y589D01*
X98Y588D02*
X105Y588D01*
X1941Y588D02*
X1948Y588D01*
X98Y587D02*
X105Y587D01*
X1941Y587D02*
X1948Y587D01*
X98Y586D02*
X106Y586D01*
X1940Y586D02*
X1948Y586D01*
X99Y585D02*
X106Y585D01*
X1940Y585D02*
X1947Y585D01*
X99Y584D02*
X107Y584D01*
X1939Y584D02*
X1947Y584D01*
X100Y583D02*
X107Y583D01*
X1939Y583D02*
X1946Y583D01*
X100Y582D02*
X108Y582D01*
X1938Y582D02*
X1946Y582D01*
X101Y581D02*
X108Y581D01*
X1938Y581D02*
X1945Y581D01*
X101Y580D02*
X109Y580D01*
X1937Y580D02*
X1945Y580D01*
X102Y579D02*
X109Y579D01*
X1937Y579D02*
X1944Y579D01*
X102Y578D02*
X110Y578D01*
X1936Y578D02*
X1944Y578D01*
X103Y577D02*
X110Y577D01*
X1936Y577D02*
X1943Y577D01*
X103Y576D02*
X111Y576D01*
X1935Y576D02*
X1943Y576D01*
X104Y575D02*
X111Y575D01*
X1935Y575D02*
X1942Y575D01*
X104Y574D02*
X112Y574D01*
X1934Y574D02*
X1942Y574D01*
X105Y573D02*
X112Y573D01*
X1934Y573D02*
X1941Y573D01*
X105Y572D02*
X113Y572D01*
X1933Y572D02*
X1941Y572D01*
X106Y571D02*
X113Y571D01*
X1933Y571D02*
X1940Y571D01*
X106Y570D02*
X114Y570D01*
X1932Y570D02*
X1940Y570D01*
X107Y569D02*
X114Y569D01*
X1932Y569D02*
X1939Y569D01*
X107Y568D02*
X115Y568D01*
X1931Y568D02*
X1939Y568D01*
X108Y567D02*
X115Y567D01*
X1931Y567D02*
X1938Y567D01*
X108Y566D02*
X116Y566D01*
X1930Y566D02*
X1938Y566D01*
X109Y565D02*
X116Y565D01*
X1930Y565D02*
X1937Y565D01*
X109Y564D02*
X117Y564D01*
X1929Y564D02*
X1937Y564D01*
X110Y563D02*
X117Y563D01*
X1929Y563D02*
X1936Y563D01*
X110Y562D02*
X118Y562D01*
X1928Y562D02*
X1936Y562D01*
X111Y561D02*
X118Y561D01*
X1928Y561D02*
X1935Y561D01*
X111Y560D02*
X119Y560D01*
X1927Y560D02*
X1935Y560D01*
X112Y559D02*
X119Y559D01*
X1927Y559D02*
X1934Y559D01*
X112Y558D02*
X120Y558D01*
X1926Y558D02*
X1934Y558D01*
X113Y557D02*
X120Y557D01*
X1926Y557D02*
X1933Y557D01*
X113Y556D02*
X121Y556D01*
X1925Y556D02*
X1933Y556D01*
X114Y555D02*
X121Y555D01*
X1925Y555D02*
X1932Y555D01*
X114Y554D02*
X122Y554D01*
X1924Y554D02*
X1932Y554D01*
X115Y553D02*
X122Y553D01*
X1924Y553D02*
X1931Y553D01*
X115Y552D02*
X123Y552D01*
X1923Y552D02*
X1931Y552D01*
X116Y551D02*
X124Y551D01*
X1922Y551D02*
X1930Y551D01*
X116Y550D02*
X124Y550D01*
X1922Y550D02*
X1930Y550D01*
X117Y549D02*
X125Y549D01*
X1921Y549D02*
X1929Y549D01*
X117Y548D02*
X125Y548D01*
X1921Y548D02*
X1928Y548D01*
X118Y547D02*
X126Y547D01*
X1920Y547D02*
X1928Y547D01*
X119Y546D02*
X126Y546D01*
X1920Y546D02*
X1927Y546D01*
X119Y545D02*
X127Y545D01*
X1919Y545D02*
X1927Y545D01*
X120Y544D02*
X127Y544D01*
X1919Y544D02*
X1926Y544D01*
X120Y543D02*
X128Y543D01*
X1918Y543D02*
X1926Y543D01*
X121Y542D02*
X128Y542D01*
X1918Y542D02*
X1925Y542D01*
X121Y541D02*
X129Y541D01*
X1917Y541D02*
X1925Y541D01*
X122Y540D02*
X129Y540D01*
X1917Y540D02*
X1924Y540D01*
X122Y539D02*
X130Y539D01*
X1916Y539D02*
X1924Y539D01*
X123Y538D02*
X130Y538D01*
X1916Y538D02*
X1923Y538D01*
X123Y537D02*
X131Y537D01*
X1915Y537D02*
X1923Y537D01*
X124Y536D02*
X132Y536D01*
X1914Y536D02*
X1922Y536D01*
X124Y535D02*
X132Y535D01*
X1914Y535D02*
X1922Y535D01*
X125Y534D02*
X133Y534D01*
X1913Y534D02*
X1921Y534D01*
X126Y533D02*
X133Y533D01*
X1913Y533D02*
X1920Y533D01*
X126Y532D02*
X134Y532D01*
X1912Y532D02*
X1920Y532D01*
X127Y531D02*
X134Y531D01*
X1912Y531D02*
X1919Y531D01*
X127Y530D02*
X135Y530D01*
X1911Y530D02*
X1919Y530D01*
X128Y529D02*
X135Y529D01*
X1911Y529D02*
X1918Y529D01*
X128Y528D02*
X136Y528D01*
X1910Y528D02*
X1918Y528D01*
X129Y527D02*
X137Y527D01*
X1909Y527D02*
X1917Y527D01*
X129Y526D02*
X137Y526D01*
X1909Y526D02*
X1917Y526D01*
X130Y525D02*
X138Y525D01*
X1908Y525D02*
X1916Y525D01*
X131Y524D02*
X138Y524D01*
X1908Y524D02*
X1915Y524D01*
X131Y523D02*
X139Y523D01*
X1907Y523D02*
X1915Y523D01*
X132Y522D02*
X139Y522D01*
X1907Y522D02*
X1914Y522D01*
X132Y521D02*
X140Y521D01*
X1906Y521D02*
X1914Y521D01*
X133Y520D02*
X140Y520D01*
X1906Y520D02*
X1913Y520D01*
X133Y519D02*
X141Y519D01*
X1905Y519D02*
X1913Y519D01*
X134Y518D02*
X142Y518D01*
X1904Y518D02*
X1912Y518D01*
X134Y517D02*
X142Y517D01*
X1904Y517D02*
X1911Y517D01*
X135Y516D02*
X143Y516D01*
X1903Y516D02*
X1911Y516D01*
X136Y515D02*
X143Y515D01*
X1903Y515D02*
X1910Y515D01*
X136Y514D02*
X144Y514D01*
X1902Y514D02*
X1910Y514D01*
X137Y513D02*
X145Y513D01*
X1901Y513D02*
X1909Y513D01*
X137Y512D02*
X145Y512D01*
X1901Y512D02*
X1909Y512D01*
X138Y511D02*
X146Y511D01*
X1900Y511D02*
X1908Y511D01*
X139Y510D02*
X146Y510D01*
X1900Y510D02*
X1907Y510D01*
X139Y509D02*
X147Y509D01*
X1899Y509D02*
X1907Y509D01*
X140Y508D02*
X147Y508D01*
X1898Y508D02*
X1906Y508D01*
X140Y507D02*
X148Y507D01*
X1898Y507D02*
X1906Y507D01*
X141Y506D02*
X149Y506D01*
X1897Y506D02*
X1905Y506D01*
X142Y505D02*
X149Y505D01*
X1897Y505D02*
X1904Y505D01*
X142Y504D02*
X150Y504D01*
X1896Y504D02*
X1904Y504D01*
X143Y503D02*
X150Y503D01*
X1896Y503D02*
X1903Y503D01*
X143Y502D02*
X151Y502D01*
X1895Y502D02*
X1903Y502D01*
X144Y501D02*
X152Y501D01*
X1894Y501D02*
X1902Y501D01*
X144Y500D02*
X152Y500D01*
X1894Y500D02*
X1902Y500D01*
X145Y499D02*
X153Y499D01*
X1893Y499D02*
X1901Y499D01*
X146Y498D02*
X153Y498D01*
X1893Y498D02*
X1900Y498D01*
X146Y497D02*
X154Y497D01*
X1892Y497D02*
X1900Y497D01*
X147Y496D02*
X155Y496D01*
X1891Y496D02*
X1899Y496D01*
X147Y495D02*
X155Y495D01*
X1891Y495D02*
X1899Y495D01*
X148Y494D02*
X156Y494D01*
X1890Y494D02*
X1898Y494D01*
X149Y493D02*
X156Y493D01*
X1889Y493D02*
X1897Y493D01*
X149Y492D02*
X157Y492D01*
X1889Y492D02*
X1897Y492D01*
X150Y491D02*
X158Y491D01*
X1888Y491D02*
X1896Y491D01*
X150Y490D02*
X158Y490D01*
X1888Y490D02*
X1895Y490D01*
X151Y489D02*
X159Y489D01*
X1887Y489D02*
X1895Y489D01*
X152Y488D02*
X160Y488D01*
X1886Y488D02*
X1894Y488D01*
X152Y487D02*
X160Y487D01*
X1886Y487D02*
X1894Y487D01*
X153Y486D02*
X161Y486D01*
X1885Y486D02*
X1893Y486D01*
X154Y485D02*
X161Y485D01*
X1884Y485D02*
X1892Y485D01*
X154Y484D02*
X162Y484D01*
X1884Y484D02*
X1892Y484D01*
X155Y483D02*
X163Y483D01*
X1883Y483D02*
X1891Y483D01*
X155Y482D02*
X163Y482D01*
X1883Y482D02*
X1890Y482D01*
X156Y481D02*
X164Y481D01*
X1882Y481D02*
X1890Y481D01*
X157Y480D02*
X165Y480D01*
X1881Y480D02*
X1889Y480D01*
X157Y479D02*
X165Y479D01*
X1881Y479D02*
X1889Y479D01*
X158Y478D02*
X166Y478D01*
X1880Y478D02*
X1888Y478D01*
X159Y477D02*
X166Y477D01*
X1879Y477D02*
X1887Y477D01*
X159Y476D02*
X167Y476D01*
X1879Y476D02*
X1887Y476D01*
X160Y475D02*
X168Y475D01*
X1878Y475D02*
X1886Y475D01*
X160Y474D02*
X168Y474D01*
X1878Y474D02*
X1885Y474D01*
X161Y473D02*
X169Y473D01*
X1877Y473D02*
X1885Y473D01*
X162Y472D02*
X170Y472D01*
X1876Y472D02*
X1884Y472D01*
X162Y471D02*
X170Y471D01*
X1876Y471D02*
X1884Y471D01*
X163Y470D02*
X171Y470D01*
X1875Y470D02*
X1883Y470D01*
X164Y469D02*
X172Y469D01*
X1874Y469D02*
X1882Y469D01*
X164Y468D02*
X172Y468D01*
X1874Y468D02*
X1882Y468D01*
X165Y467D02*
X173Y467D01*
X1873Y467D02*
X1881Y467D01*
X166Y466D02*
X174Y466D01*
X1872Y466D02*
X1880Y466D01*
X166Y465D02*
X174Y465D01*
X1872Y465D02*
X1880Y465D01*
X167Y464D02*
X175Y464D01*
X1871Y464D02*
X1879Y464D01*
X168Y463D02*
X176Y463D01*
X1870Y463D02*
X1878Y463D01*
X168Y462D02*
X176Y462D01*
X1870Y462D02*
X1878Y462D01*
X169Y461D02*
X177Y461D01*
X1869Y461D02*
X1877Y461D01*
X170Y460D02*
X178Y460D01*
X1868Y460D02*
X1876Y460D01*
X170Y459D02*
X178Y459D01*
X1868Y459D02*
X1876Y459D01*
X171Y458D02*
X179Y458D01*
X1867Y458D02*
X1875Y458D01*
X172Y457D02*
X180Y457D01*
X1866Y457D02*
X1874Y457D01*
X172Y456D02*
X180Y456D01*
X1866Y456D02*
X1874Y456D01*
X173Y455D02*
X181Y455D01*
X1865Y455D02*
X1873Y455D01*
X174Y454D02*
X182Y454D01*
X1864Y454D02*
X1872Y454D01*
X174Y453D02*
X182Y453D01*
X1864Y453D02*
X1872Y453D01*
X175Y452D02*
X183Y452D01*
X1863Y452D02*
X1871Y452D01*
X176Y451D02*
X184Y451D01*
X1862Y451D02*
X1870Y451D01*
X176Y450D02*
X184Y450D01*
X1862Y450D02*
X1870Y450D01*
X177Y449D02*
X185Y449D01*
X1861Y449D02*
X1869Y449D01*
X178Y448D02*
X186Y448D01*
X1860Y448D02*
X1868Y448D01*
X178Y447D02*
X187Y447D01*
X1859Y447D02*
X1868Y447D01*
X179Y446D02*
X187Y446D01*
X1859Y446D02*
X1867Y446D01*
X180Y445D02*
X188Y445D01*
X1858Y445D02*
X1866Y445D01*
X180Y444D02*
X189Y444D01*
X1857Y444D02*
X1866Y444D01*
X181Y443D02*
X189Y443D01*
X1857Y443D02*
X1865Y443D01*
X182Y442D02*
X190Y442D01*
X1856Y442D02*
X1864Y442D01*
X183Y441D02*
X191Y441D01*
X1855Y441D02*
X1863Y441D01*
X183Y440D02*
X191Y440D01*
X1855Y440D02*
X1863Y440D01*
X184Y439D02*
X192Y439D01*
X1854Y439D02*
X1862Y439D01*
X185Y438D02*
X193Y438D01*
X1269Y438D02*
X1288Y438D01*
X1853Y438D02*
X1861Y438D01*
X185Y437D02*
X193Y437D01*
X1268Y437D02*
X1289Y437D01*
X1853Y437D02*
X1861Y437D01*
X186Y436D02*
X194Y436D01*
X1267Y436D02*
X1290Y436D01*
X1852Y436D02*
X1860Y436D01*
X187Y435D02*
X195Y435D01*
X1267Y435D02*
X1290Y435D01*
X1851Y435D02*
X1859Y435D01*
X187Y434D02*
X196Y434D01*
X1267Y434D02*
X1290Y434D01*
X1850Y434D02*
X1859Y434D01*
X188Y433D02*
X196Y433D01*
X1267Y433D02*
X1290Y433D01*
X1850Y433D02*
X1858Y433D01*
X189Y432D02*
X197Y432D01*
X1267Y432D02*
X1289Y432D01*
X1849Y432D02*
X1857Y432D01*
X190Y431D02*
X198Y431D01*
X1267Y431D02*
X1273Y431D01*
X1848Y431D02*
X1856Y431D01*
X190Y430D02*
X198Y430D01*
X1267Y430D02*
X1273Y430D01*
X1847Y430D02*
X1856Y430D01*
X191Y429D02*
X199Y429D01*
X1267Y429D02*
X1273Y429D01*
X1847Y429D02*
X1855Y429D01*
X192Y428D02*
X200Y428D01*
X1267Y428D02*
X1273Y428D01*
X1846Y428D02*
X1854Y428D01*
X192Y427D02*
X201Y427D01*
X1267Y427D02*
X1273Y427D01*
X1845Y427D02*
X1854Y427D01*
X193Y426D02*
X201Y426D01*
X1267Y426D02*
X1273Y426D01*
X1845Y426D02*
X1853Y426D01*
X194Y425D02*
X202Y425D01*
X1267Y425D02*
X1273Y425D01*
X1844Y425D02*
X1852Y425D01*
X195Y424D02*
X203Y424D01*
X1267Y424D02*
X1320Y424D01*
X1843Y424D02*
X1851Y424D01*
X195Y423D02*
X204Y423D01*
X1267Y423D02*
X1320Y423D01*
X1842Y423D02*
X1851Y423D01*
X196Y422D02*
X204Y422D01*
X1267Y422D02*
X1320Y422D01*
X1842Y422D02*
X1850Y422D01*
X197Y421D02*
X205Y421D01*
X1267Y421D02*
X1320Y421D01*
X1841Y421D02*
X1849Y421D01*
X198Y420D02*
X206Y420D01*
X1267Y420D02*
X1320Y420D01*
X1840Y420D02*
X1848Y420D01*
X198Y419D02*
X207Y419D01*
X1267Y419D02*
X1320Y419D01*
X1839Y419D02*
X1848Y419D01*
X199Y418D02*
X207Y418D01*
X1267Y418D02*
X1320Y418D01*
X1839Y418D02*
X1847Y418D01*
X200Y417D02*
X208Y417D01*
X1267Y417D02*
X1273Y417D01*
X1314Y417D02*
X1320Y417D01*
X1838Y417D02*
X1846Y417D01*
X200Y416D02*
X209Y416D01*
X1267Y416D02*
X1273Y416D01*
X1314Y416D02*
X1320Y416D01*
X1837Y416D02*
X1846Y416D01*
X201Y415D02*
X209Y415D01*
X1267Y415D02*
X1273Y415D01*
X1314Y415D02*
X1320Y415D01*
X1836Y415D02*
X1845Y415D01*
X202Y414D02*
X210Y414D01*
X1267Y414D02*
X1273Y414D01*
X1314Y414D02*
X1320Y414D01*
X1836Y414D02*
X1844Y414D01*
X203Y413D02*
X211Y413D01*
X1267Y413D02*
X1273Y413D01*
X1314Y413D02*
X1320Y413D01*
X1835Y413D02*
X1843Y413D01*
X203Y412D02*
X212Y412D01*
X1267Y412D02*
X1273Y412D01*
X1314Y412D02*
X1320Y412D01*
X1834Y412D02*
X1843Y412D01*
X204Y411D02*
X213Y411D01*
X1267Y411D02*
X1273Y411D01*
X1314Y411D02*
X1320Y411D01*
X1833Y411D02*
X1842Y411D01*
X205Y410D02*
X213Y410D01*
X1267Y410D02*
X1273Y410D01*
X1314Y410D02*
X1320Y410D01*
X1833Y410D02*
X1841Y410D01*
X206Y409D02*
X214Y409D01*
X1267Y409D02*
X1273Y409D01*
X1314Y409D02*
X1320Y409D01*
X1832Y409D02*
X1840Y409D01*
X206Y408D02*
X215Y408D01*
X1267Y408D02*
X1273Y408D01*
X1314Y408D02*
X1320Y408D01*
X1831Y408D02*
X1840Y408D01*
X207Y407D02*
X216Y407D01*
X1267Y407D02*
X1273Y407D01*
X1314Y407D02*
X1320Y407D01*
X1830Y407D02*
X1839Y407D01*
X208Y406D02*
X216Y406D01*
X1267Y406D02*
X1272Y406D01*
X1314Y406D02*
X1320Y406D01*
X1830Y406D02*
X1838Y406D01*
X209Y405D02*
X217Y405D01*
X1267Y405D02*
X1272Y405D01*
X1315Y405D02*
X1319Y405D01*
X1829Y405D02*
X1837Y405D01*
X210Y404D02*
X218Y404D01*
X1269Y404D02*
X1271Y404D01*
X1316Y404D02*
X1318Y404D01*
X1828Y404D02*
X1836Y404D01*
X210Y403D02*
X219Y403D01*
X1827Y403D02*
X1836Y403D01*
X211Y402D02*
X219Y402D01*
X1827Y402D02*
X1835Y402D01*
X212Y401D02*
X220Y401D01*
X1826Y401D02*
X1834Y401D01*
X213Y400D02*
X221Y400D01*
X1825Y400D02*
X1833Y400D01*
X213Y399D02*
X222Y399D01*
X1824Y399D02*
X1833Y399D01*
X214Y398D02*
X222Y398D01*
X1823Y398D02*
X1832Y398D01*
X215Y397D02*
X223Y397D01*
X1823Y397D02*
X1831Y397D01*
X216Y396D02*
X224Y396D01*
X1822Y396D02*
X1830Y396D01*
X216Y395D02*
X225Y395D01*
X1821Y395D02*
X1830Y395D01*
X217Y394D02*
X226Y394D01*
X1820Y394D02*
X1829Y394D01*
X218Y393D02*
X226Y393D01*
X1820Y393D02*
X1828Y393D01*
X219Y392D02*
X227Y392D01*
X1819Y392D02*
X1827Y392D01*
X220Y391D02*
X228Y391D01*
X1818Y391D02*
X1826Y391D01*
X220Y390D02*
X229Y390D01*
X1817Y390D02*
X1826Y390D01*
X221Y389D02*
X230Y389D01*
X1816Y389D02*
X1825Y389D01*
X222Y388D02*
X231Y388D01*
X1269Y388D02*
X1270Y388D01*
X1316Y388D02*
X1317Y388D01*
X1815Y388D02*
X1824Y388D01*
X223Y387D02*
X231Y387D01*
X1268Y387D02*
X1272Y387D01*
X1314Y387D02*
X1319Y387D01*
X1815Y387D02*
X1823Y387D01*
X224Y386D02*
X232Y386D01*
X1267Y386D02*
X1274Y386D01*
X1313Y386D02*
X1319Y386D01*
X1814Y386D02*
X1822Y386D01*
X224Y385D02*
X233Y385D01*
X1267Y385D02*
X1276Y385D01*
X1311Y385D02*
X1320Y385D01*
X1813Y385D02*
X1822Y385D01*
X225Y384D02*
X234Y384D01*
X1267Y384D02*
X1277Y384D01*
X1309Y384D02*
X1320Y384D01*
X1812Y384D02*
X1821Y384D01*
X226Y383D02*
X235Y383D01*
X1267Y383D02*
X1279Y383D01*
X1307Y383D02*
X1319Y383D01*
X1811Y383D02*
X1820Y383D01*
X227Y382D02*
X235Y382D01*
X1268Y382D02*
X1281Y382D01*
X1306Y382D02*
X1318Y382D01*
X1811Y382D02*
X1819Y382D01*
X228Y381D02*
X236Y381D01*
X1269Y381D02*
X1282Y381D01*
X1304Y381D02*
X1317Y381D01*
X1810Y381D02*
X1818Y381D01*
X228Y380D02*
X237Y380D01*
X1271Y380D02*
X1284Y380D01*
X1302Y380D02*
X1315Y380D01*
X1809Y380D02*
X1818Y380D01*
X229Y379D02*
X238Y379D01*
X1273Y379D02*
X1286Y379D01*
X1301Y379D02*
X1314Y379D01*
X1808Y379D02*
X1817Y379D01*
X230Y378D02*
X239Y378D01*
X1275Y378D02*
X1288Y378D01*
X1299Y378D02*
X1312Y378D01*
X1807Y378D02*
X1816Y378D01*
X231Y377D02*
X239Y377D01*
X1276Y377D02*
X1289Y377D01*
X1297Y377D02*
X1310Y377D01*
X1807Y377D02*
X1815Y377D01*
X232Y376D02*
X240Y376D01*
X1278Y376D02*
X1291Y376D01*
X1295Y376D02*
X1308Y376D01*
X1806Y376D02*
X1814Y376D01*
X232Y375D02*
X241Y375D01*
X1280Y375D02*
X1307Y375D01*
X1805Y375D02*
X1814Y375D01*
X233Y374D02*
X242Y374D01*
X1281Y374D02*
X1305Y374D01*
X1804Y374D02*
X1813Y374D01*
X234Y373D02*
X243Y373D01*
X1283Y373D02*
X1303Y373D01*
X1803Y373D02*
X1812Y373D01*
X235Y372D02*
X244Y372D01*
X1285Y372D02*
X1302Y372D01*
X1802Y372D02*
X1811Y372D01*
X236Y371D02*
X244Y371D01*
X1286Y371D02*
X1300Y371D01*
X1802Y371D02*
X1810Y371D01*
X237Y370D02*
X245Y370D01*
X1285Y370D02*
X1301Y370D01*
X1801Y370D02*
X1809Y370D01*
X237Y369D02*
X246Y369D01*
X1283Y369D02*
X1303Y369D01*
X1800Y369D02*
X1809Y369D01*
X238Y368D02*
X247Y368D01*
X1282Y368D02*
X1305Y368D01*
X1799Y368D02*
X1808Y368D01*
X239Y367D02*
X248Y367D01*
X1280Y367D02*
X1306Y367D01*
X1798Y367D02*
X1807Y367D01*
X240Y366D02*
X249Y366D01*
X1278Y366D02*
X1291Y366D01*
X1295Y366D02*
X1308Y366D01*
X1797Y366D02*
X1806Y366D01*
X241Y365D02*
X250Y365D01*
X1277Y365D02*
X1290Y365D01*
X1297Y365D02*
X1310Y365D01*
X1796Y365D02*
X1805Y365D01*
X242Y364D02*
X250Y364D01*
X1275Y364D02*
X1288Y364D01*
X1299Y364D02*
X1312Y364D01*
X1796Y364D02*
X1804Y364D01*
X243Y363D02*
X251Y363D01*
X1273Y363D02*
X1286Y363D01*
X1300Y363D02*
X1313Y363D01*
X1795Y363D02*
X1803Y363D01*
X243Y362D02*
X252Y362D01*
X1271Y362D02*
X1284Y362D01*
X1302Y362D02*
X1315Y362D01*
X1794Y362D02*
X1803Y362D01*
X244Y361D02*
X253Y361D01*
X1270Y361D02*
X1283Y361D01*
X1304Y361D02*
X1317Y361D01*
X1793Y361D02*
X1802Y361D01*
X245Y360D02*
X254Y360D01*
X1268Y360D02*
X1281Y360D01*
X1305Y360D02*
X1318Y360D01*
X1792Y360D02*
X1801Y360D01*
X246Y359D02*
X255Y359D01*
X1267Y359D02*
X1279Y359D01*
X1307Y359D02*
X1319Y359D01*
X1791Y359D02*
X1800Y359D01*
X247Y358D02*
X256Y358D01*
X1267Y358D02*
X1278Y358D01*
X1309Y358D02*
X1320Y358D01*
X1790Y358D02*
X1799Y358D01*
X248Y357D02*
X256Y357D01*
X1267Y357D02*
X1276Y357D01*
X1310Y357D02*
X1320Y357D01*
X1790Y357D02*
X1798Y357D01*
X248Y356D02*
X257Y356D01*
X1267Y356D02*
X1274Y356D01*
X1312Y356D02*
X1320Y356D01*
X1789Y356D02*
X1798Y356D01*
X249Y355D02*
X258Y355D01*
X1267Y355D02*
X1272Y355D01*
X1314Y355D02*
X1319Y355D01*
X1788Y355D02*
X1797Y355D01*
X250Y354D02*
X259Y354D01*
X1269Y354D02*
X1271Y354D01*
X1316Y354D02*
X1318Y354D01*
X1787Y354D02*
X1796Y354D01*
X251Y353D02*
X260Y353D01*
X1786Y353D02*
X1795Y353D01*
X252Y352D02*
X261Y352D01*
X1785Y352D02*
X1794Y352D01*
X253Y351D02*
X262Y351D01*
X1784Y351D02*
X1793Y351D01*
X254Y350D02*
X263Y350D01*
X1783Y350D02*
X1792Y350D01*
X255Y349D02*
X264Y349D01*
X1782Y349D02*
X1791Y349D01*
X255Y348D02*
X264Y348D01*
X1782Y348D02*
X1791Y348D01*
X256Y347D02*
X265Y347D01*
X1781Y347D02*
X1790Y347D01*
X257Y346D02*
X266Y346D01*
X1780Y346D02*
X1789Y346D01*
X258Y345D02*
X267Y345D01*
X1779Y345D02*
X1788Y345D01*
X259Y344D02*
X268Y344D01*
X1778Y344D02*
X1787Y344D01*
X260Y343D02*
X269Y343D01*
X1777Y343D02*
X1786Y343D01*
X261Y342D02*
X270Y342D01*
X1776Y342D02*
X1785Y342D01*
X262Y341D02*
X271Y341D01*
X1775Y341D02*
X1784Y341D01*
X263Y340D02*
X272Y340D01*
X1774Y340D02*
X1783Y340D01*
X263Y339D02*
X272Y339D01*
X1774Y339D02*
X1783Y339D01*
X264Y338D02*
X273Y338D01*
X1773Y338D02*
X1782Y338D01*
X265Y337D02*
X274Y337D01*
X1772Y337D02*
X1781Y337D01*
X266Y336D02*
X275Y336D01*
X1771Y336D02*
X1780Y336D01*
X267Y335D02*
X276Y335D01*
X1770Y335D02*
X1779Y335D01*
X268Y334D02*
X277Y334D01*
X1769Y334D02*
X1778Y334D01*
X269Y333D02*
X278Y333D01*
X1768Y333D02*
X1777Y333D01*
X270Y332D02*
X279Y332D01*
X1767Y332D02*
X1776Y332D01*
X271Y331D02*
X280Y331D01*
X1766Y331D02*
X1775Y331D01*
X272Y330D02*
X281Y330D01*
X1765Y330D02*
X1774Y330D01*
X273Y329D02*
X282Y329D01*
X1764Y329D02*
X1773Y329D01*
X274Y328D02*
X283Y328D01*
X1763Y328D02*
X1772Y328D01*
X274Y327D02*
X284Y327D01*
X1762Y327D02*
X1771Y327D01*
X275Y326D02*
X285Y326D01*
X1761Y326D02*
X1771Y326D01*
X276Y325D02*
X285Y325D01*
X1760Y325D02*
X1770Y325D01*
X277Y324D02*
X286Y324D01*
X1760Y324D02*
X1769Y324D01*
X278Y323D02*
X287Y323D01*
X1759Y323D02*
X1768Y323D01*
X279Y322D02*
X288Y322D01*
X1758Y322D02*
X1767Y322D01*
X280Y321D02*
X289Y321D01*
X1757Y321D02*
X1766Y321D01*
X281Y320D02*
X290Y320D01*
X1756Y320D02*
X1765Y320D01*
X282Y319D02*
X291Y319D01*
X1755Y319D02*
X1764Y319D01*
X283Y318D02*
X292Y318D01*
X1754Y318D02*
X1763Y318D01*
X284Y317D02*
X293Y317D01*
X1753Y317D02*
X1762Y317D01*
X285Y316D02*
X294Y316D01*
X1752Y316D02*
X1761Y316D01*
X286Y315D02*
X295Y315D01*
X1751Y315D02*
X1760Y315D01*
X287Y314D02*
X296Y314D01*
X1750Y314D02*
X1759Y314D01*
X288Y313D02*
X297Y313D01*
X1749Y313D02*
X1758Y313D01*
X289Y312D02*
X298Y312D01*
X1748Y312D02*
X1757Y312D01*
X290Y311D02*
X299Y311D01*
X1747Y311D02*
X1756Y311D01*
X291Y310D02*
X300Y310D01*
X1746Y310D02*
X1755Y310D01*
X292Y309D02*
X301Y309D01*
X1745Y309D02*
X1754Y309D01*
X293Y308D02*
X302Y308D01*
X1744Y308D02*
X1753Y308D01*
X294Y307D02*
X303Y307D01*
X1743Y307D02*
X1752Y307D01*
X295Y306D02*
X304Y306D01*
X1742Y306D02*
X1751Y306D01*
X296Y305D02*
X305Y305D01*
X1741Y305D02*
X1750Y305D01*
X297Y304D02*
X306Y304D01*
X1740Y304D02*
X1749Y304D01*
X298Y303D02*
X307Y303D01*
X1739Y303D02*
X1748Y303D01*
X298Y302D02*
X308Y302D01*
X1738Y302D02*
X1747Y302D01*
X299Y301D02*
X309Y301D01*
X1737Y301D02*
X1747Y301D01*
X300Y300D02*
X310Y300D01*
X1736Y300D02*
X1746Y300D01*
X301Y299D02*
X311Y299D01*
X1735Y299D02*
X1744Y299D01*
X303Y298D02*
X312Y298D01*
X1734Y298D02*
X1743Y298D01*
X304Y297D02*
X313Y297D01*
X1733Y297D02*
X1742Y297D01*
X305Y296D02*
X314Y296D01*
X1732Y296D02*
X1741Y296D01*
X306Y295D02*
X315Y295D01*
X1731Y295D02*
X1740Y295D01*
X307Y294D02*
X316Y294D01*
X1730Y294D02*
X1739Y294D01*
X308Y293D02*
X317Y293D01*
X1729Y293D02*
X1738Y293D01*
X309Y292D02*
X318Y292D01*
X1728Y292D02*
X1737Y292D01*
X310Y291D02*
X319Y291D01*
X1727Y291D02*
X1736Y291D01*
X311Y290D02*
X320Y290D01*
X1726Y290D02*
X1735Y290D01*
X312Y289D02*
X321Y289D01*
X1725Y289D02*
X1734Y289D01*
X313Y288D02*
X322Y288D01*
X1724Y288D02*
X1733Y288D01*
X314Y287D02*
X323Y287D01*
X1722Y287D02*
X1732Y287D01*
X315Y286D02*
X325Y286D01*
X1721Y286D02*
X1731Y286D01*
X316Y285D02*
X326Y285D01*
X1720Y285D02*
X1730Y285D01*
X317Y284D02*
X327Y284D01*
X1719Y284D02*
X1729Y284D01*
X318Y283D02*
X328Y283D01*
X1718Y283D02*
X1728Y283D01*
X319Y282D02*
X329Y282D01*
X1717Y282D02*
X1727Y282D01*
X320Y281D02*
X330Y281D01*
X1716Y281D02*
X1726Y281D01*
X321Y280D02*
X331Y280D01*
X1715Y280D02*
X1725Y280D01*
X322Y279D02*
X332Y279D01*
X1714Y279D02*
X1724Y279D01*
X323Y278D02*
X333Y278D01*
X1713Y278D02*
X1723Y278D01*
X324Y277D02*
X334Y277D01*
X1712Y277D02*
X1722Y277D01*
X325Y276D02*
X335Y276D01*
X1711Y276D02*
X1721Y276D01*
X326Y275D02*
X336Y275D01*
X1710Y275D02*
X1719Y275D01*
X328Y274D02*
X337Y274D01*
X1709Y274D02*
X1718Y274D01*
X329Y273D02*
X339Y273D01*
X1707Y273D02*
X1717Y273D01*
X330Y272D02*
X340Y272D01*
X1706Y272D02*
X1716Y272D01*
X331Y271D02*
X341Y271D01*
X1705Y271D02*
X1715Y271D01*
X332Y270D02*
X342Y270D01*
X1704Y270D02*
X1714Y270D01*
X333Y269D02*
X343Y269D01*
X1703Y269D02*
X1713Y269D01*
X334Y268D02*
X344Y268D01*
X1702Y268D02*
X1712Y268D01*
X335Y267D02*
X345Y267D01*
X1701Y267D02*
X1711Y267D01*
X336Y266D02*
X346Y266D01*
X1700Y266D02*
X1710Y266D01*
X337Y265D02*
X348Y265D01*
X1698Y265D02*
X1709Y265D01*
X338Y264D02*
X349Y264D01*
X1697Y264D02*
X1708Y264D01*
X340Y263D02*
X350Y263D01*
X1696Y263D02*
X1706Y263D01*
X341Y262D02*
X351Y262D01*
X1695Y262D02*
X1705Y262D01*
X342Y261D02*
X352Y261D01*
X1694Y261D02*
X1704Y261D01*
X343Y260D02*
X353Y260D01*
X1693Y260D02*
X1703Y260D01*
X344Y259D02*
X354Y259D01*
X1692Y259D02*
X1702Y259D01*
X345Y258D02*
X355Y258D01*
X1691Y258D02*
X1701Y258D01*
X346Y257D02*
X357Y257D01*
X1689Y257D02*
X1700Y257D01*
X347Y256D02*
X358Y256D01*
X1688Y256D02*
X1699Y256D01*
X349Y255D02*
X359Y255D01*
X1687Y255D02*
X1697Y255D01*
X350Y254D02*
X360Y254D01*
X1686Y254D02*
X1696Y254D01*
X351Y253D02*
X361Y253D01*
X1685Y253D02*
X1695Y253D01*
X352Y252D02*
X362Y252D01*
X1684Y252D02*
X1694Y252D01*
X353Y251D02*
X364Y251D01*
X1682Y251D02*
X1693Y251D01*
X354Y250D02*
X365Y250D01*
X1681Y250D02*
X1692Y250D01*
X355Y249D02*
X366Y249D01*
X1680Y249D02*
X1691Y249D01*
X357Y248D02*
X367Y248D01*
X1679Y248D02*
X1689Y248D01*
X358Y247D02*
X368Y247D01*
X1678Y247D02*
X1688Y247D01*
X359Y246D02*
X369Y246D01*
X1677Y246D02*
X1687Y246D01*
X360Y245D02*
X371Y245D01*
X1675Y245D02*
X1686Y245D01*
X361Y244D02*
X372Y244D01*
X1674Y244D02*
X1685Y244D01*
X363Y243D02*
X373Y243D01*
X1673Y243D02*
X1683Y243D01*
X364Y242D02*
X374Y242D01*
X1672Y242D02*
X1682Y242D01*
X365Y241D02*
X375Y241D01*
X1671Y241D02*
X1681Y241D01*
X366Y240D02*
X377Y240D01*
X1669Y240D02*
X1680Y240D01*
X367Y239D02*
X378Y239D01*
X1668Y239D02*
X1679Y239D01*
X368Y238D02*
X379Y238D01*
X1667Y238D02*
X1678Y238D01*
X370Y237D02*
X380Y237D01*
X1666Y237D02*
X1676Y237D01*
X371Y236D02*
X382Y236D01*
X1664Y236D02*
X1675Y236D01*
X372Y235D02*
X383Y235D01*
X1663Y235D02*
X1674Y235D01*
X373Y234D02*
X384Y234D01*
X1662Y234D02*
X1673Y234D01*
X374Y233D02*
X385Y233D01*
X1661Y233D02*
X1672Y233D01*
X376Y232D02*
X387Y232D01*
X1659Y232D02*
X1670Y232D01*
X377Y231D02*
X388Y231D01*
X1658Y231D02*
X1669Y231D01*
X378Y230D02*
X389Y230D01*
X1657Y230D02*
X1668Y230D01*
X379Y229D02*
X390Y229D01*
X1656Y229D02*
X1667Y229D01*
X381Y228D02*
X391Y228D01*
X1654Y228D02*
X1665Y228D01*
X382Y227D02*
X393Y227D01*
X1653Y227D02*
X1664Y227D01*
X383Y226D02*
X394Y226D01*
X1652Y226D02*
X1663Y226D01*
X384Y225D02*
X395Y225D01*
X1651Y225D02*
X1662Y225D01*
X386Y224D02*
X397Y224D01*
X1649Y224D02*
X1660Y224D01*
X387Y223D02*
X398Y223D01*
X1648Y223D02*
X1659Y223D01*
X388Y222D02*
X399Y222D01*
X1647Y222D02*
X1658Y222D01*
X389Y221D02*
X400Y221D01*
X1646Y221D02*
X1657Y221D01*
X391Y220D02*
X402Y220D01*
X1644Y220D02*
X1655Y220D01*
X392Y219D02*
X403Y219D01*
X1643Y219D02*
X1654Y219D01*
X393Y218D02*
X404Y218D01*
X1642Y218D02*
X1653Y218D01*
X394Y217D02*
X406Y217D01*
X1640Y217D02*
X1652Y217D01*
X396Y216D02*
X407Y216D01*
X1639Y216D02*
X1650Y216D01*
X397Y215D02*
X408Y215D01*
X1638Y215D02*
X1649Y215D01*
X398Y214D02*
X410Y214D01*
X1636Y214D02*
X1648Y214D01*
X400Y213D02*
X411Y213D01*
X1635Y213D02*
X1646Y213D01*
X401Y212D02*
X412Y212D01*
X1634Y212D02*
X1645Y212D01*
X402Y211D02*
X413Y211D01*
X1632Y211D02*
X1644Y211D01*
X404Y210D02*
X415Y210D01*
X1631Y210D02*
X1642Y210D01*
X405Y209D02*
X416Y209D01*
X1630Y209D02*
X1641Y209D01*
X406Y208D02*
X418Y208D01*
X1628Y208D02*
X1640Y208D01*
X407Y207D02*
X419Y207D01*
X1627Y207D02*
X1639Y207D01*
X409Y206D02*
X420Y206D01*
X1626Y206D02*
X1637Y206D01*
X410Y205D02*
X422Y205D01*
X1624Y205D02*
X1636Y205D01*
X411Y204D02*
X423Y204D01*
X1623Y204D02*
X1635Y204D01*
X413Y203D02*
X424Y203D01*
X1622Y203D02*
X1633Y203D01*
X414Y202D02*
X426Y202D01*
X1620Y202D02*
X1632Y202D01*
X415Y201D02*
X427Y201D01*
X1619Y201D02*
X1631Y201D01*
X417Y200D02*
X429Y200D01*
X1617Y200D02*
X1629Y200D01*
X418Y199D02*
X430Y199D01*
X1616Y199D02*
X1628Y199D01*
X420Y198D02*
X431Y198D01*
X1615Y198D02*
X1626Y198D01*
X421Y197D02*
X433Y197D01*
X1613Y197D02*
X1625Y197D01*
X422Y196D02*
X434Y196D01*
X1612Y196D02*
X1624Y196D01*
X424Y195D02*
X435Y195D01*
X1611Y195D02*
X1622Y195D01*
X425Y194D02*
X437Y194D01*
X1609Y194D02*
X1621Y194D01*
X426Y193D02*
X438Y193D01*
X1608Y193D02*
X1620Y193D01*
X428Y192D02*
X440Y192D01*
X1606Y192D02*
X1618Y192D01*
X429Y191D02*
X441Y191D01*
X1605Y191D02*
X1617Y191D01*
X431Y190D02*
X443Y190D01*
X1603Y190D02*
X1615Y190D01*
X432Y189D02*
X444Y189D01*
X1602Y189D02*
X1614Y189D01*
X433Y188D02*
X446Y188D01*
X1600Y188D02*
X1613Y188D01*
X435Y187D02*
X447Y187D01*
X1599Y187D02*
X1611Y187D01*
X436Y186D02*
X448Y186D01*
X1598Y186D02*
X1610Y186D01*
X438Y185D02*
X450Y185D01*
X1596Y185D02*
X1608Y185D01*
X439Y184D02*
X451Y184D01*
X1595Y184D02*
X1607Y184D01*
X441Y183D02*
X453Y183D01*
X1593Y183D02*
X1605Y183D01*
X442Y182D02*
X454Y182D01*
X1592Y182D02*
X1604Y182D01*
X443Y181D02*
X456Y181D01*
X1590Y181D02*
X1603Y181D01*
X445Y180D02*
X457Y180D01*
X1589Y180D02*
X1601Y180D01*
X446Y179D02*
X459Y179D01*
X1587Y179D02*
X1600Y179D01*
X448Y178D02*
X460Y178D01*
X1586Y178D02*
X1598Y178D01*
X449Y177D02*
X462Y177D01*
X1584Y177D02*
X1597Y177D01*
X451Y176D02*
X463Y176D01*
X1583Y176D02*
X1595Y176D01*
X452Y175D02*
X465Y175D01*
X1581Y175D02*
X1594Y175D01*
X454Y174D02*
X466Y174D01*
X1580Y174D02*
X1592Y174D01*
X455Y173D02*
X468Y173D01*
X1578Y173D02*
X1591Y173D01*
X457Y172D02*
X469Y172D01*
X1577Y172D02*
X1589Y172D01*
X458Y171D02*
X471Y171D01*
X1575Y171D02*
X1588Y171D01*
X460Y170D02*
X472Y170D01*
X1574Y170D02*
X1586Y170D01*
X461Y169D02*
X474Y169D01*
X1572Y169D02*
X1585Y169D01*
X463Y168D02*
X475Y168D01*
X1570Y168D02*
X1583Y168D01*
X464Y167D02*
X477Y167D01*
X1569Y167D02*
X1582Y167D01*
X466Y166D02*
X479Y166D01*
X1567Y166D02*
X1580Y166D01*
X467Y165D02*
X480Y165D01*
X1566Y165D02*
X1579Y165D01*
X469Y164D02*
X482Y164D01*
X1564Y164D02*
X1577Y164D01*
X470Y163D02*
X483Y163D01*
X1562Y163D02*
X1576Y163D01*
X472Y162D02*
X485Y162D01*
X1561Y162D02*
X1574Y162D01*
X474Y161D02*
X487Y161D01*
X1559Y161D02*
X1572Y161D01*
X475Y160D02*
X488Y160D01*
X1558Y160D02*
X1571Y160D01*
X477Y159D02*
X490Y159D01*
X1556Y159D02*
X1569Y159D01*
X478Y158D02*
X491Y158D01*
X1554Y158D02*
X1568Y158D01*
X480Y157D02*
X493Y157D01*
X1553Y157D02*
X1566Y157D01*
X482Y156D02*
X495Y156D01*
X1551Y156D02*
X1564Y156D01*
X483Y155D02*
X496Y155D01*
X1550Y155D02*
X1563Y155D01*
X485Y154D02*
X498Y154D01*
X1548Y154D02*
X1561Y154D01*
X486Y153D02*
X500Y153D01*
X1546Y153D02*
X1560Y153D01*
X488Y152D02*
X501Y152D01*
X1545Y152D02*
X1558Y152D01*
X490Y151D02*
X503Y151D01*
X1543Y151D02*
X1556Y151D01*
X491Y150D02*
X505Y150D01*
X1541Y150D02*
X1555Y150D01*
X493Y149D02*
X506Y149D01*
X1539Y149D02*
X1553Y149D01*
X494Y148D02*
X508Y148D01*
X1538Y148D02*
X1552Y148D01*
X496Y147D02*
X510Y147D01*
X1536Y147D02*
X1550Y147D01*
X498Y146D02*
X512Y146D01*
X1534Y146D02*
X1548Y146D01*
X499Y145D02*
X513Y145D01*
X1533Y145D02*
X1547Y145D01*
X501Y144D02*
X515Y144D01*
X1531Y144D02*
X1545Y144D01*
X503Y143D02*
X517Y143D01*
X1529Y143D02*
X1543Y143D01*
X505Y142D02*
X518Y142D01*
X1528Y142D02*
X1541Y142D01*
X506Y141D02*
X520Y141D01*
X1526Y141D02*
X1540Y141D01*
X508Y140D02*
X522Y140D01*
X1524Y140D02*
X1538Y140D01*
X510Y139D02*
X524Y139D01*
X1522Y139D02*
X1536Y139D01*
X511Y138D02*
X526Y138D01*
X1520Y138D02*
X1535Y138D01*
X513Y137D02*
X527Y137D01*
X1519Y137D02*
X1533Y137D01*
X515Y136D02*
X529Y136D01*
X1517Y136D02*
X1531Y136D01*
X516Y135D02*
X531Y135D01*
X1515Y135D02*
X1529Y135D01*
X518Y134D02*
X533Y134D01*
X1513Y134D02*
X1528Y134D01*
X520Y133D02*
X535Y133D01*
X1511Y133D02*
X1526Y133D01*
X522Y132D02*
X536Y132D01*
X1510Y132D02*
X1524Y132D01*
X524Y131D02*
X538Y131D01*
X1508Y131D02*
X1522Y131D01*
X525Y130D02*
X540Y130D01*
X1506Y130D02*
X1521Y130D01*
X527Y129D02*
X542Y129D01*
X1504Y129D02*
X1519Y129D01*
X529Y128D02*
X544Y128D01*
X1502Y128D02*
X1517Y128D01*
X531Y127D02*
X546Y127D01*
X1500Y127D02*
X1515Y127D01*
X533Y126D02*
X548Y126D01*
X1498Y126D02*
X1513Y126D01*
X534Y125D02*
X550Y125D01*
X1496Y125D02*
X1512Y125D01*
X536Y124D02*
X551Y124D01*
X1495Y124D02*
X1510Y124D01*
X538Y123D02*
X553Y123D01*
X1493Y123D02*
X1508Y123D01*
X540Y122D02*
X555Y122D01*
X1491Y122D02*
X1506Y122D01*
X542Y121D02*
X557Y121D01*
X1489Y121D02*
X1504Y121D01*
X544Y120D02*
X559Y120D01*
X1487Y120D02*
X1502Y120D01*
X546Y119D02*
X561Y119D01*
X1485Y119D02*
X1500Y119D01*
X548Y118D02*
X563Y118D01*
X1483Y118D02*
X1498Y118D01*
X549Y117D02*
X565Y117D01*
X1481Y117D02*
X1497Y117D01*
X551Y116D02*
X567Y116D01*
X1479Y116D02*
X1495Y116D01*
X553Y115D02*
X569Y115D01*
X1477Y115D02*
X1493Y115D01*
X555Y114D02*
X571Y114D01*
X1475Y114D02*
X1491Y114D01*
X557Y113D02*
X573Y113D01*
X1473Y113D02*
X1489Y113D01*
X559Y112D02*
X575Y112D01*
X1471Y112D02*
X1487Y112D01*
X561Y111D02*
X577Y111D01*
X1469Y111D02*
X1485Y111D01*
X563Y110D02*
X579Y110D01*
X1467Y110D02*
X1483Y110D01*
X565Y109D02*
X581Y109D01*
X1465Y109D02*
X1481Y109D01*
X567Y108D02*
X583Y108D01*
X1463Y108D02*
X1479Y108D01*
X569Y107D02*
X585Y107D01*
X1461Y107D02*
X1477Y107D01*
X571Y106D02*
X587Y106D01*
X1459Y106D02*
X1475Y106D01*
X573Y105D02*
X590Y105D01*
X1456Y105D02*
X1473Y105D01*
X575Y104D02*
X592Y104D01*
X1454Y104D02*
X1471Y104D01*
X577Y103D02*
X594Y103D01*
X1452Y103D02*
X1469Y103D01*
X579Y102D02*
X596Y102D01*
X1450Y102D02*
X1467Y102D01*
X581Y101D02*
X598Y101D01*
X1448Y101D02*
X1465Y101D01*
X583Y100D02*
X600Y100D01*
X1446Y100D02*
X1463Y100D01*
X585Y99D02*
X602Y99D01*
X1444Y99D02*
X1461Y99D01*
X588Y98D02*
X605Y98D01*
X1441Y98D02*
X1458Y98D01*
X590Y97D02*
X607Y97D01*
X1439Y97D02*
X1456Y97D01*
X592Y96D02*
X609Y96D01*
X1437Y96D02*
X1454Y96D01*
X594Y95D02*
X612Y95D01*
X1434Y95D02*
X1452Y95D01*
X596Y94D02*
X614Y94D01*
X1432Y94D02*
X1450Y94D01*
X598Y93D02*
X616Y93D01*
X1430Y93D02*
X1448Y93D01*
X600Y92D02*
X618Y92D01*
X1428Y92D02*
X1446Y92D01*
X603Y91D02*
X621Y91D01*
X1425Y91D02*
X1443Y91D01*
X605Y90D02*
X623Y90D01*
X1423Y90D02*
X1441Y90D01*
X607Y89D02*
X625Y89D01*
X1421Y89D02*
X1439Y89D01*
X609Y88D02*
X628Y88D01*
X1418Y88D02*
X1437Y88D01*
X612Y87D02*
X630Y87D01*
X1416Y87D02*
X1434Y87D01*
X614Y86D02*
X632Y86D01*
X1414Y86D02*
X1432Y86D01*
X616Y85D02*
X635Y85D01*
X1411Y85D02*
X1430Y85D01*
X619Y84D02*
X637Y84D01*
X1409Y84D02*
X1427Y84D01*
X621Y83D02*
X640Y83D01*
X1406Y83D02*
X1425Y83D01*
X623Y82D02*
X642Y82D01*
X1404Y82D02*
X1423Y82D01*
X625Y81D02*
X645Y81D01*
X1401Y81D02*
X1421Y81D01*
X628Y80D02*
X647Y80D01*
X1399Y80D02*
X1418Y80D01*
X630Y79D02*
X650Y79D01*
X1396Y79D02*
X1416Y79D01*
X633Y78D02*
X652Y78D01*
X1394Y78D02*
X1413Y78D01*
X635Y77D02*
X655Y77D01*
X1391Y77D02*
X1411Y77D01*
X638Y76D02*
X657Y76D01*
X1388Y76D02*
X1408Y76D01*
X640Y75D02*
X660Y75D01*
X1386Y75D02*
X1406Y75D01*
X642Y74D02*
X663Y74D01*
X1383Y74D02*
X1403Y74D01*
X645Y73D02*
X665Y73D01*
X1381Y73D02*
X1401Y73D01*
X647Y72D02*
X668Y72D01*
X1378Y72D02*
X1399Y72D01*
X650Y71D02*
X671Y71D01*
X1375Y71D02*
X1396Y71D01*
X653Y70D02*
X673Y70D01*
X1373Y70D02*
X1393Y70D01*
X655Y69D02*
X676Y69D01*
X1370Y69D02*
X1391Y69D01*
X658Y68D02*
X679Y68D01*
X1367Y68D02*
X1388Y68D01*
X660Y67D02*
X682Y67D01*
X1364Y67D02*
X1386Y67D01*
X663Y66D02*
X685Y66D01*
X1361Y66D02*
X1383Y66D01*
X666Y65D02*
X688Y65D01*
X1358Y65D02*
X1380Y65D01*
X668Y64D02*
X690Y64D01*
X1356Y64D02*
X1378Y64D01*
X671Y63D02*
X693Y63D01*
X1353Y63D02*
X1375Y63D01*
X674Y62D02*
X696Y62D01*
X1350Y62D02*
X1372Y62D01*
X677Y61D02*
X699Y61D01*
X1347Y61D02*
X1369Y61D01*
X679Y60D02*
X702Y60D01*
X1344Y60D02*
X1367Y60D01*
X682Y59D02*
X705Y59D01*
X1341Y59D02*
X1364Y59D01*
X685Y58D02*
X708Y58D01*
X1338Y58D02*
X1361Y58D01*
X688Y57D02*
X711Y57D01*
X1335Y57D02*
X1358Y57D01*
X691Y56D02*
X715Y56D01*
X1331Y56D02*
X1355Y56D01*
X694Y55D02*
X718Y55D01*
X1328Y55D02*
X1352Y55D01*
X696Y54D02*
X721Y54D01*
X1325Y54D02*
X1349Y54D01*
X700Y53D02*
X724Y53D01*
X1322Y53D02*
X1346Y53D01*
X703Y52D02*
X727Y52D01*
X1319Y52D02*
X1343Y52D01*
X706Y51D02*
X731Y51D01*
X1315Y51D02*
X1340Y51D01*
X709Y50D02*
X734Y50D01*
X1312Y50D02*
X1337Y50D01*
X712Y49D02*
X738Y49D01*
X1308Y49D02*
X1334Y49D01*
X715Y48D02*
X741Y48D01*
X1305Y48D02*
X1331Y48D01*
X718Y47D02*
X744Y47D01*
X1302Y47D02*
X1328Y47D01*
X721Y46D02*
X748Y46D01*
X1298Y46D02*
X1325Y46D01*
X725Y45D02*
X752Y45D01*
X1294Y45D02*
X1321Y45D01*
X728Y44D02*
X755Y44D01*
X1291Y44D02*
X1318Y44D01*
X731Y43D02*
X759Y43D01*
X1287Y43D02*
X1315Y43D01*
X735Y42D02*
X763Y42D01*
X1283Y42D02*
X1311Y42D01*
X738Y41D02*
X766Y41D01*
X1280Y41D02*
X1308Y41D01*
X741Y40D02*
X770Y40D01*
X1276Y40D02*
X1305Y40D01*
X745Y39D02*
X774Y39D01*
X1272Y39D02*
X1301Y39D01*
X749Y38D02*
X779Y38D01*
X1267Y38D02*
X1297Y38D01*
X752Y37D02*
X783Y37D01*
X1263Y37D02*
X1294Y37D01*
X756Y36D02*
X787Y36D01*
X1259Y36D02*
X1290Y36D01*
X760Y35D02*
X791Y35D01*
X1255Y35D02*
X1286Y35D01*
X763Y34D02*
X795Y34D01*
X1251Y34D02*
X1283Y34D01*
X767Y33D02*
X800Y33D01*
X1246Y33D02*
X1279Y33D01*
X771Y32D02*
X802Y32D01*
X1246Y32D02*
X1275Y32D01*
X775Y31D02*
X802Y31D01*
X1246Y31D02*
X1271Y31D01*
X779Y30D02*
X802Y30D01*
X1246Y30D02*
X1267Y30D01*
X783Y29D02*
X802Y29D01*
X1246Y29D02*
X1263Y29D01*
X787Y28D02*
X802Y28D01*
X1246Y28D02*
X1259Y28D01*
X791Y27D02*
X802Y27D01*
X1246Y27D02*
X1254Y27D01*
X796Y26D02*
X802Y26D01*
X1246Y26D02*
X1250Y26D01*
X801Y25D02*
X839Y25D01*
X1207Y25D02*
X1245Y25D01*
X805Y24D02*
X845Y24D01*
X1201Y24D02*
X1241Y24D01*
X810Y23D02*
X851Y23D01*
X1195Y23D02*
X1236Y23D01*
X814Y22D02*
X857Y22D01*
X1189Y22D02*
X1232Y22D01*
X819Y21D02*
X863Y21D01*
X1183Y21D02*
X1227Y21D01*
X824Y20D02*
X869Y20D01*
X1177Y20D02*
X1222Y20D01*
X829Y19D02*
X876Y19D01*
X1170Y19D02*
X1216Y19D01*
X835Y18D02*
X883Y18D01*
X1163Y18D02*
X1211Y18D01*
X840Y17D02*
X891Y17D01*
X1155Y17D02*
X1206Y17D01*
X846Y16D02*
X899Y16D01*
X1147Y16D02*
X1200Y16D01*
X852Y15D02*
X908Y15D01*
X1138Y15D02*
X1194Y15D01*
X858Y14D02*
X916Y14D01*
X1130Y14D02*
X1188Y14D01*
X864Y13D02*
X927Y13D01*
X1119Y13D02*
X1182Y13D01*
X870Y12D02*
X938Y12D01*
X1108Y12D02*
X1176Y12D01*
X877Y11D02*
X952Y11D01*
X1094Y11D02*
X1169Y11D01*
X884Y10D02*
X968Y10D01*
X1078Y10D02*
X1162Y10D01*
X891Y9D02*
X992Y9D01*
X1054Y9D02*
X1155Y9D01*
X900Y8D02*
X1146Y8D01*
X908Y7D02*
X1138Y7D01*
X917Y6D02*
X1129Y6D01*
X928Y5D02*
X1118Y5D01*
X939Y4D02*
X1107Y4D01*
X953Y3D02*
X1093Y3D01*
X968Y2D02*
X1078Y2D01*
X993Y1D02*
X1053Y1D01*
D02*
G04 End of Silk0*
M02*